<svg width="123" height="42" viewBox="0 0 123 42" fill="none" xmlns="http://www.w3.org/2000/svg">
<g clip-path="url(#clip0_319_31)">
<rect width="123" height="42" fill="#58737D"/>
<path d="M12.5761 30.256C12.5761 31.216 12.1921 31.696 11.3761 31.696C10.6081 31.696 10.2241 31.264 10.2241 30.208V5.92C10.2241 5.008 10.6081 4.48 11.4241 4.48C12.1921 4.48 12.5761 5.008 12.5761 5.968V13.552H15.1201V6.208C15.1201 3.136 13.7761 1.984 11.4721 1.984C8.83213 1.984 7.58413 3.472 7.58413 6.16V30.064C7.58413 32.704 8.88013 34.144 11.4241 34.144C13.8241 34.144 15.1201 32.848 15.1201 30.112V20.992H12.5761V30.256ZM25.04 14.224C25.04 11.728 23.888 10.528 21.392 10.528C18.896 10.528 17.744 11.728 17.744 14.224V30.496C17.744 32.992 18.896 34.144 21.392 34.144C23.888 34.144 25.04 32.992 25.04 30.496V14.224ZM22.544 30.496C22.544 31.408 22.16 31.84 21.392 31.84C20.624 31.84 20.24 31.408 20.24 30.496V14.224C20.24 13.312 20.624 12.832 21.392 12.832C22.16 12.832 22.544 13.312 22.544 14.224V30.496ZM35.2501 34V13.552C35.2501 11.536 34.3861 10.528 32.8501 10.528C31.7461 10.528 30.9301 11.008 30.4021 12.16H30.2101L30.1621 10.672H27.7621V34H30.3061V13.984C30.5941 13.168 30.8821 12.784 31.5541 12.784C32.2741 12.784 32.6581 13.168 32.6581 14.032V34H35.2501ZM42.6729 30.496C42.6729 31.408 42.3369 31.84 41.6169 31.84C40.8009 31.84 40.4169 31.408 40.4169 30.496V12.976H44.8329V10.672H40.4169V4.288H37.9209V30.496C37.9209 32.992 39.0729 34.144 41.5689 34.144C44.0649 34.144 44.8329 32.992 44.8329 30.496V20.848H42.6729V30.496ZM52.316 30.976C52.076 31.6 51.692 31.936 50.972 31.936C50.3 31.936 49.916 31.6 49.916 30.784V23.92C49.916 23.056 50.108 22.624 51.02 22.288C51.548 22.096 51.932 22.048 52.316 21.712V30.976ZM54.812 34V13.312C54.812 11.44 53.66 10.528 51.356 10.528C48.956 10.528 47.564 11.488 47.564 13.504V18.208H49.964V13.792C49.964 13.12 50.396 12.784 51.164 12.784C51.932 12.784 52.268 13.072 52.268 13.696V19.312C52.268 20.128 51.548 20.368 50.348 20.752C48.092 21.472 47.372 22.192 47.372 24.4V31.408C47.372 33.088 47.996 34.144 49.82 34.144C51.308 34.144 51.836 33.472 52.22 32.8H52.412L52.46 34H54.812ZM62.2884 30.496C62.2884 31.408 61.9044 31.84 61.1364 31.84C60.3684 31.84 59.9844 31.408 59.9844 30.496V14.224C59.9844 13.312 60.3684 12.832 61.1364 12.832C61.9044 12.832 62.2884 13.312 62.2884 14.224V19.12H64.6884V14.224C64.6884 11.776 63.6324 10.528 61.1364 10.528C58.6404 10.528 57.4884 11.776 57.4884 14.224V30.496C57.4884 32.992 58.6404 34.144 61.1364 34.144C63.6324 34.144 64.6884 32.944 64.6884 30.496V25.456H62.2884V30.496ZM72.1647 30.496C72.1647 31.408 71.8287 31.84 71.1087 31.84C70.2928 31.84 69.9087 31.408 69.9087 30.496V12.976H74.3247V10.672H69.9087V4.288H67.4127V30.496C67.4127 32.992 68.5647 34.144 71.0607 34.144C73.5567 34.144 74.3247 32.992 74.3247 30.496V20.848H72.1647V30.496Z" fill="white"/>
<line x1="2" y1="37.5" x2="86" y2="37.5" stroke="white" stroke-width="3"/>
</g>
<defs>
<clipPath id="clip0_319_31">
<rect width="123" height="42" fill="white"/>
</clipPath>
</defs>
</svg>
