<svg width="916" height="407" viewBox="0 0 916 407" fill="none" xmlns="http://www.w3.org/2000/svg">
<rect y="41" width="916" height="366" rx="10" fill="#58737D"/>
<rect x="380.5" y="1.5" width="155" height="81" rx="8.5" fill="white" stroke="black" stroke-width="3"/>
<path d="M415.079 52V50.2H412.523V40.372H414.683V38.572H412.523V29.932H414.935V28.096H410.543V52H415.079ZM421.29 52L422.91 28.096H420.966L419.814 47.608H419.67L418.518 28.096H416.538L418.122 52H421.29ZM429.122 52V50.2H426.566V40.372H428.726V38.572H426.566V29.932H428.978V28.096H424.586V52H429.122ZM437.061 52V28.096H435.369V36.556C435.369 43.504 435.441 45.592 435.477 47.068H435.333L433.749 28.096H430.869V52H432.489V41.596C432.489 35.692 432.489 34.036 432.417 32.848H432.561L434.433 52H437.061ZM442.723 52V29.932H444.595V28.096H438.871V29.932H440.707V52H442.723ZM453.357 49.192C453.357 49.912 453.069 50.272 452.457 50.272C451.881 50.272 451.593 49.948 451.593 49.156V30.94C451.593 30.256 451.881 29.86 452.493 29.86C453.069 29.86 453.357 30.256 453.357 30.976V36.664H455.265V31.156C455.265 28.852 454.257 27.988 452.529 27.988C450.549 27.988 449.613 29.104 449.613 31.12V49.048C449.613 51.028 450.585 52.108 452.493 52.108C454.293 52.108 455.265 51.136 455.265 49.084V42.244H453.357V49.192ZM463.07 52L461.45 28.096H458.282L456.698 52H458.642L458.966 45.844H460.73L461.09 52H463.07ZM459.794 31.552H459.938L460.622 44.116H459.074L459.794 31.552ZM467.364 52V29.932H469.236V28.096H463.512V29.932H465.348V52H467.364ZM475.564 52V50.2H473.008V40.372H475.168V38.572H473.008V29.932H475.42V28.096H471.028V52H475.564ZM482.964 52V39.976H480.048V41.776H481.056V49.3C480.984 49.984 480.66 50.272 480.156 50.272C479.58 50.272 479.292 49.912 479.292 49.192V30.94C479.292 30.256 479.58 29.86 480.156 29.86C480.768 29.86 481.056 30.256 481.056 30.976V35.476H482.964V31.156C482.964 29.176 481.992 27.988 480.12 27.988C478.284 27.988 477.312 29.14 477.312 31.12V49.048C477.312 50.992 478.248 52.108 479.832 52.108C480.732 52.108 481.2 51.712 481.452 51.244H481.596L481.668 52H482.964ZM490.584 31.156C490.584 29.176 489.54 27.988 487.704 27.988C485.868 27.988 484.824 29.14 484.824 31.12V49.048C484.824 51.028 485.832 52.108 487.74 52.108C489.576 52.108 490.584 51.136 490.584 49.084V31.156ZM488.604 49.192C488.604 49.912 488.28 50.272 487.704 50.272C487.092 50.272 486.804 49.912 486.804 49.192V30.94C486.804 30.256 487.128 29.86 487.704 29.86C488.28 29.86 488.604 30.256 488.604 30.976V49.192ZM494.459 52V41.092H495.431C496.043 41.092 496.259 41.416 496.259 41.992V52H498.203V42.172C498.203 40.912 497.735 40.444 496.943 40.264V40.12C497.699 39.94 498.167 39.328 498.167 38.248V30.58C498.167 28.996 497.555 28.096 495.863 28.096H492.479V52H494.459ZM496.223 38.464C496.223 39.148 495.935 39.472 495.395 39.472H494.459V29.932H495.395C495.971 29.932 496.223 30.184 496.223 30.796V38.464ZM503.636 52V42.136L505.796 28.096H503.744L502.7 37.096H502.556L501.44 28.096H499.388L501.62 42.136V52H503.636Z" fill="black"/>
</svg>
