<svg width="810" height="472" viewBox="0 0 810 472" fill="none" xmlns="http://www.w3.org/2000/svg">
<rect x="1" y="1" width="362" height="90" rx="9" fill="white" stroke="black" stroke-width="2"/>
<rect x="447" y="269" width="362" height="88" rx="9" fill="white" stroke="black" stroke-width="2"/>
<rect x="447" y="381" width="362" height="90" rx="9" fill="#1FD57D" stroke="black" stroke-width="2"/>
<circle r="4.5" transform="matrix(-1 0 0 1 23.5 22.5)" fill="black"/>
<path d="M31.297 15H33.497V27H37.117V29H31.297V15ZM41.6738 29.2C40.5938 29.2 39.7672 28.8933 39.1938 28.28C38.6205 27.6667 38.3338 26.8 38.3338 25.68V18.32C38.3338 17.2 38.6205 16.3333 39.1938 15.72C39.7672 15.1067 40.5938 14.8 41.6738 14.8C42.7538 14.8 43.5805 15.1067 44.1538 15.72C44.7272 16.3333 45.0138 17.2 45.0138 18.32V25.68C45.0138 26.8 44.7272 27.6667 44.1538 28.28C43.5805 28.8933 42.7538 29.2 41.6738 29.2ZM41.6738 27.2C42.4338 27.2 42.8138 26.74 42.8138 25.82V18.18C42.8138 17.26 42.4338 16.8 41.6738 16.8C40.9138 16.8 40.5338 17.26 40.5338 18.18V25.82C40.5338 26.74 40.9138 27.2 41.6738 27.2ZM50.0016 29.2C48.9483 29.2 48.1416 28.9 47.5816 28.3C47.035 27.7 46.7616 26.8533 46.7616 25.76V18.24C46.7616 17.1467 47.035 16.3 47.5816 15.7C48.1416 15.1 48.9483 14.8 50.0016 14.8C51.055 14.8 51.855 15.1 52.4016 15.7C52.9616 16.3 53.2416 17.1467 53.2416 18.24V19.72H51.1616V18.1C51.1616 17.2333 50.795 16.8 50.0616 16.8C49.3283 16.8 48.9616 17.2333 48.9616 18.1V25.92C48.9616 26.7733 49.3283 27.2 50.0616 27.2C50.795 27.2 51.1616 26.7733 51.1616 25.92V23.78H53.2416V25.76C53.2416 26.8533 52.9616 27.7 52.4016 28.3C51.855 28.9 51.055 29.2 50.0016 29.2ZM56.6579 15H59.6379L61.9179 29H59.7179L59.3179 26.22V26.26H56.8179L56.4179 29H54.3779L56.6579 15ZM59.0579 24.36L58.0779 17.44H58.0379L57.0779 24.36H59.0579ZM64.1873 17H61.8873V15H68.6873V17H66.3873V29H64.1873V17ZM70.1524 15H72.3524V29H70.1524V15ZM77.5801 29.2C76.5001 29.2 75.6734 28.8933 75.1001 28.28C74.5267 27.6667 74.2401 26.8 74.2401 25.68V18.32C74.2401 17.2 74.5267 16.3333 75.1001 15.72C75.6734 15.1067 76.5001 14.8 77.5801 14.8C78.6601 14.8 79.4867 15.1067 80.0601 15.72C80.6334 16.3333 80.9201 17.2 80.9201 18.32V25.68C80.9201 26.8 80.6334 27.6667 80.0601 28.28C79.4867 28.8933 78.6601 29.2 77.5801 29.2ZM77.5801 27.2C78.3401 27.2 78.7201 26.74 78.7201 25.82V18.18C78.7201 17.26 78.3401 16.8 77.5801 16.8C76.8201 16.8 76.4401 17.26 76.4401 18.18V25.82C76.4401 26.74 76.8201 27.2 77.5801 27.2ZM82.8079 15H85.5679L87.7079 23.38H87.7479V15H89.7079V29H87.4479L84.8079 18.78H84.7679V29H82.8079V15Z" fill="black"/>
<path d="M30.477 30.6H90.5279V32.2H30.477V30.6Z" fill="black"/>
<path d="M31.2558 50.8H35.5718C37.0451 50.8 38.1198 51.1467 38.7958 51.84C39.4718 52.516 39.8098 53.5647 39.8098 54.986V55.714C39.8098 56.65 39.6538 57.4127 39.3418 58.002C39.0471 58.5913 38.5878 59.016 37.9638 59.276V59.328C39.3851 59.8133 40.0958 61.0787 40.0958 63.124V64.684C40.0958 66.088 39.7231 67.1627 38.9778 67.908C38.2498 68.636 37.1751 69 35.7538 69H31.2558V50.8ZM35.2338 58.21C35.8058 58.21 36.2305 58.0627 36.5078 57.768C36.8025 57.4733 36.9498 56.9793 36.9498 56.286V55.272C36.9498 54.6133 36.8285 54.1367 36.5858 53.842C36.3605 53.5473 35.9965 53.4 35.4938 53.4H34.1158V58.21H35.2338ZM35.7538 66.4C36.2565 66.4 36.6291 66.27 36.8718 66.01C37.1145 65.7327 37.2358 65.2647 37.2358 64.606V63.02C37.2358 62.188 37.0885 61.616 36.7938 61.304C36.5165 60.9747 36.0485 60.81 35.3898 60.81H34.1158V66.4H35.7538ZM44.4975 50.8H48.3715L51.3355 69H48.4755L47.9555 65.386V65.438H44.7055L44.1855 69H41.5335L44.4975 50.8ZM47.6175 62.968L46.3435 53.972H46.2915L45.0435 62.968H47.6175ZM53.2431 50.8H56.8311L59.6131 61.694H59.6651V50.8H62.2131V69H59.2751L55.8431 55.714H55.7911V69H53.2431V50.8ZM65.5348 69.104C65.0148 69.104 64.5728 69.0693 64.2088 69V66.4C64.4861 66.4693 64.7981 66.504 65.1448 66.504C65.7168 66.504 66.1414 66.3653 66.4188 66.088C66.6961 65.7933 66.8348 65.3513 66.8348 64.762V50.8H69.6948V64.684C69.6948 66.1747 69.3481 67.284 68.6548 68.012C67.9788 68.74 66.9388 69.104 65.5348 69.104ZM74.4696 50.8H78.3436L81.3076 69H78.4476L77.9276 65.386V65.438H74.6776L74.1576 69H71.5056L74.4696 50.8ZM77.5896 62.968L76.3156 53.972H76.2636L75.0156 62.968H77.5896ZM83.2152 50.8H87.4532C88.9265 50.8 90.0012 51.1467 90.6772 51.84C91.3532 52.516 91.6912 53.5647 91.6912 54.986V56.104C91.6912 57.9933 91.0672 59.1893 89.8192 59.692V59.744C90.5125 59.952 90.9978 60.3767 91.2752 61.018C91.5698 61.6593 91.7172 62.5173 91.7172 63.592V66.79C91.7172 67.31 91.7345 67.7347 91.7692 68.064C91.8038 68.376 91.8905 68.688 92.0292 69H89.1172C89.0132 68.7053 88.9438 68.428 88.9092 68.168C88.8745 67.908 88.8572 67.44 88.8572 66.764V63.436C88.8572 62.604 88.7185 62.0233 88.4412 61.694C88.1812 61.3647 87.7218 61.2 87.0632 61.2H86.0752V69H83.2152V50.8ZM87.1152 58.6C87.6872 58.6 88.1118 58.4527 88.3892 58.158C88.6838 57.8633 88.8312 57.3693 88.8312 56.676V55.272C88.8312 54.6133 88.7098 54.1367 88.4672 53.842C88.2418 53.5473 87.8778 53.4 87.3752 53.4H86.0752V58.6H87.1152ZM94.2215 50.8H97.8095L100.592 61.694H100.644V50.8H103.192V69H100.254L96.8215 55.714H96.7695V69H94.2215V50.8ZM105.837 50.8H113.637V53.4H108.697V58.21H112.623V60.81H108.697V66.4H113.637V69H105.837V50.8ZM119.859 69.26C118.472 69.26 117.415 68.87 116.687 68.09C115.959 67.2927 115.595 66.1573 115.595 64.684V55.116C115.595 53.6427 115.959 52.516 116.687 51.736C117.415 50.9387 118.472 50.54 119.859 50.54C121.245 50.54 122.303 50.9387 123.031 51.736C123.759 52.516 124.123 53.6427 124.123 55.116V56.676H121.419V54.934C121.419 53.738 120.925 53.14 119.937 53.14C118.949 53.14 118.455 53.738 118.455 54.934V64.892C118.455 66.0707 118.949 66.66 119.937 66.66C120.925 66.66 121.419 66.0707 121.419 64.892V61.33H119.989V58.73H124.123V64.684C124.123 66.1573 123.759 67.2927 123.031 68.09C122.303 68.87 121.245 69.26 119.859 69.26ZM128.689 50.8H132.563L135.527 69H132.667L132.147 65.386V65.438H128.897L128.377 69H125.725L128.689 50.8ZM131.809 62.968L130.535 53.972H130.483L129.235 62.968H131.809ZM137.434 50.8H141.672C143.146 50.8 144.22 51.1467 144.896 51.84C145.572 52.516 145.91 53.5647 145.91 54.986V56.104C145.91 57.9933 145.286 59.1893 144.038 59.692V59.744C144.732 59.952 145.217 60.3767 145.494 61.018C145.789 61.6593 145.936 62.5173 145.936 63.592V66.79C145.936 67.31 145.954 67.7347 145.988 68.064C146.023 68.376 146.11 68.688 146.248 69H143.336C143.232 68.7053 143.163 68.428 143.128 68.168C143.094 67.908 143.076 67.44 143.076 66.764V63.436C143.076 62.604 142.938 62.0233 142.66 61.694C142.4 61.3647 141.941 61.2 141.282 61.2H140.294V69H137.434V50.8ZM141.334 58.6C141.906 58.6 142.331 58.4527 142.608 58.158C142.903 57.8633 143.05 57.3693 143.05 56.676V55.272C143.05 54.6133 142.929 54.1367 142.686 53.842C142.461 53.5473 142.097 53.4 141.594 53.4H140.294V58.6H141.334ZM150.651 50.8H154.525L157.489 69H154.629L154.109 65.386V65.438H150.859L150.339 69H147.687L150.651 50.8ZM153.771 62.968L152.497 53.972H152.445L151.197 62.968H153.771Z" fill="black"/>
<rect x="1" y="119" width="362" height="90" rx="9" fill="white" stroke="black" stroke-width="2"/>
<circle r="4.5" transform="matrix(-1 0 0 1 23.5 142.5)" fill="black"/>
<path d="M30.847 135H34.207C35.3003 135 36.1203 135.293 36.667 135.88C37.2136 136.467 37.487 137.327 37.487 138.46V145.54C37.487 146.673 37.2136 147.533 36.667 148.12C36.1203 148.707 35.3003 149 34.207 149H30.847V135ZM34.167 147C34.527 147 34.8003 146.893 34.987 146.68C35.187 146.467 35.287 146.12 35.287 145.64V138.36C35.287 137.88 35.187 137.533 34.987 137.32C34.8003 137.107 34.527 137 34.167 137H33.047V147H34.167ZM41.0329 135H44.0129L46.2929 149H44.0929L43.6929 146.22V146.26H41.1929L40.7929 149H38.7529L41.0329 135ZM43.4329 144.36L42.4529 137.44H42.4129L41.4529 144.36H43.4329ZM48.5623 137H46.2623V135H53.0623V137H50.7623V149H48.5623V137ZM54.5274 135H60.5274V137H56.7274V140.7H59.7474V142.7H56.7274V147H60.5274V149H54.5274V135Z" fill="black"/>
<path d="M30.027 150.6H60.9674V152.2H30.027V150.6Z" fill="black"/>
<path d="M35.3479 184.26C33.9612 184.26 32.9039 183.87 32.1759 183.09C31.4479 182.293 31.0839 181.157 31.0839 179.684V178.254H33.7879V179.892C33.7879 181.071 34.2819 181.66 35.2699 181.66C36.2579 181.66 36.7519 181.071 36.7519 179.892V175.81C36.7519 174.614 36.2579 174.016 35.2699 174.016C34.2819 174.016 33.7879 174.614 33.7879 175.81V175.966H31.0839L31.6039 165.8H39.1439V168.4H34.1519L33.9179 172.742H33.9699C34.5072 171.858 35.3305 171.416 36.4399 171.416C37.4799 171.416 38.2685 171.771 38.8059 172.482C39.3432 173.193 39.6119 174.224 39.6119 175.576V179.684C39.6119 181.157 39.2479 182.293 38.5199 183.09C37.7919 183.87 36.7345 184.26 35.3479 184.26ZM41.676 173.6H47.396V176.2H41.676V173.6ZM49.5678 182.024C49.5678 180.724 49.7758 179.615 50.1918 178.696C50.6078 177.76 51.3532 176.729 52.4278 175.602C53.4852 174.475 54.2132 173.513 54.6118 172.716C55.0278 171.919 55.2358 171.087 55.2358 170.22C55.2358 169.44 55.1058 168.903 54.8458 168.608C54.6032 168.296 54.2392 168.14 53.7538 168.14C52.7658 168.14 52.2718 168.738 52.2718 169.934V171.884H49.5678V170.116C49.5678 168.643 49.9318 167.516 50.6598 166.736C51.3878 165.939 52.4452 165.54 53.8318 165.54C55.2185 165.54 56.2758 165.939 57.0038 166.736C57.7318 167.516 58.0958 168.643 58.0958 170.116C58.0958 171.225 57.8272 172.309 57.2898 173.366C56.7698 174.423 55.8598 175.637 54.5598 177.006C53.7105 177.907 53.1385 178.644 52.8438 179.216C52.5492 179.771 52.4018 180.369 52.4018 181.01V181.4H57.8358V184H49.5678V182.024ZM66.14 168.4H60.368V165.8H68.948V168.296L64.476 184H61.564L66.14 168.4ZM78.3742 165.8H82.2482L85.2122 184H82.3522L81.8322 180.386V180.438H78.5822L78.0622 184H75.4102L78.3742 165.8ZM81.4942 177.968L80.2202 168.972H80.1682L78.9202 177.968H81.4942ZM91.125 184.26C89.7383 184.26 88.681 183.87 87.953 183.09C87.225 182.293 86.861 181.157 86.861 179.684V170.116C86.861 168.643 87.225 167.516 87.953 166.736C88.681 165.939 89.7383 165.54 91.125 165.54C92.5116 165.54 93.569 165.939 94.297 166.736C95.025 167.516 95.389 168.643 95.389 170.116V171.676H92.685V169.934C92.685 168.738 92.191 168.14 91.203 168.14C90.215 168.14 89.721 168.738 89.721 169.934V179.892C89.721 181.071 90.215 181.66 91.203 181.66C92.191 181.66 92.685 181.071 92.685 179.892V176.33H91.255V173.73H95.389V179.684C95.389 181.157 95.025 182.293 94.297 183.09C93.569 183.87 92.5116 184.26 91.125 184.26ZM101.905 184.26C100.519 184.26 99.4612 183.87 98.7332 183.09C98.0052 182.293 97.6412 181.157 97.6412 179.684V165.8H100.501V179.892C100.501 180.516 100.623 180.967 100.865 181.244C101.125 181.521 101.489 181.66 101.957 181.66C102.425 181.66 102.781 181.521 103.023 181.244C103.283 180.967 103.413 180.516 103.413 179.892V165.8H106.169V179.684C106.169 181.157 105.805 182.293 105.077 183.09C104.349 183.87 103.292 184.26 101.905 184.26ZM112.444 184.26C111.057 184.26 110.009 183.87 109.298 183.09C108.587 182.293 108.232 181.157 108.232 179.684V178.644H110.936V179.892C110.936 181.071 111.43 181.66 112.418 181.66C112.903 181.66 113.267 181.521 113.51 181.244C113.77 180.949 113.9 180.481 113.9 179.84C113.9 179.077 113.727 178.41 113.38 177.838C113.033 177.249 112.392 176.547 111.456 175.732C110.277 174.692 109.454 173.756 108.986 172.924C108.518 172.075 108.284 171.121 108.284 170.064C108.284 168.625 108.648 167.516 109.376 166.736C110.104 165.939 111.161 165.54 112.548 165.54C113.917 165.54 114.949 165.939 115.642 166.736C116.353 167.516 116.708 168.643 116.708 170.116V170.87H114.004V169.934C114.004 169.31 113.883 168.859 113.64 168.582C113.397 168.287 113.042 168.14 112.574 168.14C111.621 168.14 111.144 168.721 111.144 169.882C111.144 170.541 111.317 171.156 111.664 171.728C112.028 172.3 112.678 172.993 113.614 173.808C114.81 174.848 115.633 175.793 116.084 176.642C116.535 177.491 116.76 178.488 116.76 179.632C116.76 181.123 116.387 182.267 115.642 183.064C114.914 183.861 113.848 184.26 112.444 184.26ZM121.156 168.4H118.166V165.8H127.006V168.4H124.016V184H121.156V168.4ZM133.071 184.26C131.684 184.26 130.627 183.87 129.899 183.09C129.171 182.293 128.807 181.157 128.807 179.684V165.8H131.667V179.892C131.667 180.516 131.788 180.967 132.031 181.244C132.291 181.521 132.655 181.66 133.123 181.66C133.591 181.66 133.946 181.521 134.189 181.244C134.449 180.967 134.579 180.516 134.579 179.892V165.8H137.335V179.684C137.335 181.157 136.971 182.293 136.243 183.09C135.515 183.87 134.457 184.26 133.071 184.26ZM143.61 184.26C142.223 184.26 141.174 183.87 140.464 183.09C139.753 182.293 139.398 181.157 139.398 179.684V178.644H142.102V179.892C142.102 181.071 142.596 181.66 143.584 181.66C144.069 181.66 144.433 181.521 144.676 181.244C144.936 180.949 145.066 180.481 145.066 179.84C145.066 179.077 144.892 178.41 144.546 177.838C144.199 177.249 143.558 176.547 142.622 175.732C141.443 174.692 140.62 173.756 140.152 172.924C139.684 172.075 139.45 171.121 139.45 170.064C139.45 168.625 139.814 167.516 140.542 166.736C141.27 165.939 142.327 165.54 143.714 165.54C145.083 165.54 146.114 165.939 146.808 166.736C147.518 167.516 147.874 168.643 147.874 170.116V170.87H145.17V169.934C145.17 169.31 145.048 168.859 144.806 168.582C144.563 168.287 144.208 168.14 143.74 168.14C142.786 168.14 142.31 168.721 142.31 169.882C142.31 170.541 142.483 171.156 142.83 171.728C143.194 172.3 143.844 172.993 144.78 173.808C145.976 174.848 146.799 175.793 147.25 176.642C147.7 177.491 147.926 178.488 147.926 179.632C147.926 181.123 147.553 182.267 146.808 183.064C146.08 183.861 145.014 184.26 143.61 184.26ZM154.718 182.024C154.718 180.724 154.926 179.615 155.342 178.696C155.758 177.76 156.503 176.729 157.578 175.602C158.635 174.475 159.363 173.513 159.762 172.716C160.178 171.919 160.386 171.087 160.386 170.22C160.386 169.44 160.256 168.903 159.996 168.608C159.753 168.296 159.389 168.14 158.904 168.14C157.916 168.14 157.422 168.738 157.422 169.934V171.884H154.718V170.116C154.718 168.643 155.082 167.516 155.81 166.736C156.538 165.939 157.595 165.54 158.982 165.54C160.368 165.54 161.426 165.939 162.154 166.736C162.882 167.516 163.246 168.643 163.246 170.116C163.246 171.225 162.977 172.309 162.44 173.366C161.92 174.423 161.01 175.637 159.71 177.006C158.86 177.907 158.288 178.644 157.994 179.216C157.699 179.771 157.552 180.369 157.552 181.01V181.4H162.986V184H154.718V182.024ZM169.834 184.26C168.43 184.26 167.355 183.861 166.61 183.064C165.864 182.267 165.492 181.14 165.492 179.684V170.116C165.492 168.66 165.864 167.533 166.61 166.736C167.355 165.939 168.43 165.54 169.834 165.54C171.238 165.54 172.312 165.939 173.058 166.736C173.803 167.533 174.176 168.66 174.176 170.116V179.684C174.176 181.14 173.803 182.267 173.058 183.064C172.312 183.861 171.238 184.26 169.834 184.26ZM169.834 181.66C170.822 181.66 171.316 181.062 171.316 179.866V169.934C171.316 168.738 170.822 168.14 169.834 168.14C168.846 168.14 168.352 168.738 168.352 169.934V179.866C168.352 181.062 168.846 181.66 169.834 181.66ZM180.634 170.116H177.644V168.088C178.458 168.088 179.108 168.019 179.594 167.88C180.096 167.741 180.495 167.516 180.79 167.204C181.084 166.875 181.344 166.407 181.57 165.8H183.494V184H180.634V170.116ZM193.15 168.4H187.378V165.8H195.958V168.296L191.486 184H188.574L193.15 168.4Z" fill="black"/>
<path d="M584.078 301.8H588.29C589.711 301.8 590.777 302.181 591.488 302.944C592.199 303.707 592.554 304.825 592.554 306.298V308.092C592.554 309.565 592.199 310.683 591.488 311.446C590.777 312.209 589.711 312.59 588.29 312.59H586.938V320H584.078V301.8ZM588.29 309.99C588.758 309.99 589.105 309.86 589.33 309.6C589.573 309.34 589.694 308.898 589.694 308.274V306.116C589.694 305.492 589.573 305.05 589.33 304.79C589.105 304.53 588.758 304.4 588.29 304.4H586.938V309.99H588.29ZM594.627 301.8H598.865C600.339 301.8 601.413 302.147 602.089 302.84C602.765 303.516 603.103 304.565 603.103 305.986V307.104C603.103 308.993 602.479 310.189 601.231 310.692V310.744C601.925 310.952 602.41 311.377 602.687 312.018C602.982 312.659 603.129 313.517 603.129 314.592V317.79C603.129 318.31 603.147 318.735 603.181 319.064C603.216 319.376 603.303 319.688 603.441 320H600.529C600.425 319.705 600.356 319.428 600.321 319.168C600.287 318.908 600.269 318.44 600.269 317.764V314.436C600.269 313.604 600.131 313.023 599.853 312.694C599.593 312.365 599.134 312.2 598.475 312.2H597.487V320H594.627V301.8ZM598.527 309.6C599.099 309.6 599.524 309.453 599.801 309.158C600.096 308.863 600.243 308.369 600.243 307.676V306.272C600.243 305.613 600.122 305.137 599.879 304.842C599.654 304.547 599.29 304.4 598.787 304.4H597.487V309.6H598.527ZM609.768 320.26C608.364 320.26 607.289 319.861 606.544 319.064C605.798 318.267 605.426 317.14 605.426 315.684V306.116C605.426 304.66 605.798 303.533 606.544 302.736C607.289 301.939 608.364 301.54 609.768 301.54C611.172 301.54 612.246 301.939 612.992 302.736C613.737 303.533 614.11 304.66 614.11 306.116V315.684C614.11 317.14 613.737 318.267 612.992 319.064C612.246 319.861 611.172 320.26 609.768 320.26ZM609.768 317.66C610.756 317.66 611.25 317.062 611.25 315.866V305.934C611.25 304.738 610.756 304.14 609.768 304.14C608.78 304.14 608.286 304.738 608.286 305.934V315.866C608.286 317.062 608.78 317.66 609.768 317.66ZM616.564 301.8H620.776C622.197 301.8 623.263 302.181 623.974 302.944C624.684 303.707 625.04 304.825 625.04 306.298V308.092C625.04 309.565 624.684 310.683 623.974 311.446C623.263 312.209 622.197 312.59 620.776 312.59H619.424V320H616.564V301.8ZM620.776 309.99C621.244 309.99 621.59 309.86 621.816 309.6C622.058 309.34 622.18 308.898 622.18 308.274V306.116C622.18 305.492 622.058 305.05 621.816 304.79C621.59 304.53 621.244 304.4 620.776 304.4H619.424V309.99H620.776ZM631.247 320.26C629.843 320.26 628.768 319.861 628.023 319.064C627.278 318.267 626.905 317.14 626.905 315.684V306.116C626.905 304.66 627.278 303.533 628.023 302.736C628.768 301.939 629.843 301.54 631.247 301.54C632.651 301.54 633.726 301.939 634.471 302.736C635.216 303.533 635.589 304.66 635.589 306.116V315.684C635.589 317.14 635.216 318.267 634.471 319.064C633.726 319.861 632.651 320.26 631.247 320.26ZM631.247 317.66C632.235 317.66 632.729 317.062 632.729 315.866V305.934C632.729 304.738 632.235 304.14 631.247 304.14C630.259 304.14 629.765 304.738 629.765 305.934V315.866C629.765 317.062 630.259 317.66 631.247 317.66ZM641.761 320.26C640.375 320.26 639.326 319.87 638.615 319.09C637.905 318.293 637.549 317.157 637.549 315.684V314.644H640.253V315.892C640.253 317.071 640.747 317.66 641.735 317.66C642.221 317.66 642.585 317.521 642.827 317.244C643.087 316.949 643.217 316.481 643.217 315.84C643.217 315.077 643.044 314.41 642.697 313.838C642.351 313.249 641.709 312.547 640.773 311.732C639.595 310.692 638.771 309.756 638.303 308.924C637.835 308.075 637.601 307.121 637.601 306.064C637.601 304.625 637.965 303.516 638.693 302.736C639.421 301.939 640.479 301.54 641.865 301.54C643.235 301.54 644.266 301.939 644.959 302.736C645.67 303.516 646.025 304.643 646.025 306.116V306.87H643.321V305.934C643.321 305.31 643.2 304.859 642.957 304.582C642.715 304.287 642.359 304.14 641.891 304.14C640.938 304.14 640.461 304.721 640.461 305.882C640.461 306.541 640.635 307.156 640.981 307.728C641.345 308.3 641.995 308.993 642.931 309.808C644.127 310.848 644.951 311.793 645.401 312.642C645.852 313.491 646.077 314.488 646.077 315.632C646.077 317.123 645.705 318.267 644.959 319.064C644.231 319.861 643.165 320.26 641.761 320.26ZM650.371 301.8H654.245L657.209 320H654.349L653.829 316.386V316.438H650.579L650.059 320H647.407L650.371 301.8ZM653.491 313.968L652.217 304.972H652.165L650.917 313.968H653.491ZM659.116 301.8H661.976V317.4H666.682V320H659.116V301.8Z" fill="black"/>
<path d="M600.255 409.26C598.885 409.26 597.837 408.87 597.109 408.09C596.398 407.31 596.043 406.209 596.043 404.788V395.012C596.043 393.591 596.398 392.49 597.109 391.71C597.837 390.93 598.885 390.54 600.255 390.54C601.624 390.54 602.664 390.93 603.375 391.71C604.103 392.49 604.467 393.591 604.467 395.012V396.936H601.763V394.83C601.763 393.703 601.286 393.14 600.333 393.14C599.379 393.14 598.903 393.703 598.903 394.83V404.996C598.903 406.105 599.379 406.66 600.333 406.66C601.286 406.66 601.763 406.105 601.763 404.996V402.214H604.467V404.788C604.467 406.209 604.103 407.31 603.375 408.09C602.664 408.87 601.624 409.26 600.255 409.26ZM608.908 390.8H612.782L615.746 409H612.886L612.366 405.386V405.438H609.116L608.596 409H605.944L608.908 390.8ZM612.028 402.968L610.754 393.972H610.702L609.454 402.968H612.028ZM617.653 390.8H620.513V406.4H625.219V409H617.653V390.8ZM627.111 390.8H629.971V406.4H634.677V409H627.111V390.8ZM645.412 409.26C644.026 409.26 642.968 408.87 642.24 408.09C641.512 407.293 641.148 406.157 641.148 404.684V390.8H644.008V404.892C644.008 405.516 644.13 405.967 644.372 406.244C644.632 406.521 644.996 406.66 645.464 406.66C645.932 406.66 646.288 406.521 646.53 406.244C646.79 405.967 646.92 405.516 646.92 404.892V390.8H649.676V404.684C649.676 406.157 649.312 407.293 648.584 408.09C647.856 408.87 646.799 409.26 645.412 409.26ZM655.951 409.26C654.565 409.26 653.516 408.87 652.805 408.09C652.095 407.293 651.739 406.157 651.739 404.684V403.644H654.443V404.892C654.443 406.071 654.937 406.66 655.925 406.66C656.411 406.66 656.775 406.521 657.017 406.244C657.277 405.949 657.407 405.481 657.407 404.84C657.407 404.077 657.234 403.41 656.887 402.838C656.541 402.249 655.899 401.547 654.963 400.732C653.785 399.692 652.961 398.756 652.493 397.924C652.025 397.075 651.791 396.121 651.791 395.064C651.791 393.625 652.155 392.516 652.883 391.736C653.611 390.939 654.669 390.54 656.055 390.54C657.425 390.54 658.456 390.939 659.149 391.736C659.86 392.516 660.215 393.643 660.215 395.116V395.87H657.511V394.934C657.511 394.31 657.39 393.859 657.147 393.582C656.905 393.287 656.549 393.14 656.081 393.14C655.128 393.14 654.651 393.721 654.651 394.882C654.651 395.541 654.825 396.156 655.171 396.728C655.535 397.3 656.185 397.993 657.121 398.808C658.317 399.848 659.141 400.793 659.591 401.642C660.042 402.491 660.267 403.488 660.267 404.632C660.267 406.123 659.895 407.267 659.149 408.064C658.421 408.861 657.355 409.26 655.951 409.26Z" fill="black"/>
<path d="M530.503 449.26C529.116 449.26 528.059 448.87 527.331 448.09C526.603 447.293 526.239 446.157 526.239 444.684V435.116C526.239 433.643 526.603 432.516 527.331 431.736C528.059 430.939 529.116 430.54 530.503 430.54C531.89 430.54 532.947 430.939 533.675 431.736C534.403 432.516 534.767 433.643 534.767 435.116V436.676H532.063V434.934C532.063 433.738 531.569 433.14 530.581 433.14C529.593 433.14 529.099 433.738 529.099 434.934V444.892C529.099 446.071 529.593 446.66 530.581 446.66C531.569 446.66 532.063 446.071 532.063 444.892V441.33H530.633V438.73H534.767V444.684C534.767 446.157 534.403 447.293 533.675 448.09C532.947 448.87 531.89 449.26 530.503 449.26ZM537.123 430.8H539.983V449H537.123V430.8ZM542.645 430.8H546.961C548.435 430.8 549.509 431.147 550.185 431.84C550.861 432.516 551.199 433.565 551.199 434.986V435.714C551.199 436.65 551.043 437.413 550.731 438.002C550.437 438.591 549.977 439.016 549.353 439.276V439.328C550.775 439.813 551.485 441.079 551.485 443.124V444.684C551.485 446.088 551.113 447.163 550.367 447.908C549.639 448.636 548.565 449 547.143 449H542.645V430.8ZM546.623 438.21C547.195 438.21 547.62 438.063 547.897 437.768C548.192 437.473 548.339 436.979 548.339 436.286V435.272C548.339 434.613 548.218 434.137 547.975 433.842C547.75 433.547 547.386 433.4 546.883 433.4H545.505V438.21H546.623ZM547.143 446.4C547.646 446.4 548.019 446.27 548.261 446.01C548.504 445.733 548.625 445.265 548.625 444.606V443.02C548.625 442.188 548.478 441.616 548.183 441.304C547.906 440.975 547.438 440.81 546.779 440.81H545.505V446.4H547.143ZM553.677 430.8H557.915C559.388 430.8 560.463 431.147 561.139 431.84C561.815 432.516 562.153 433.565 562.153 434.986V436.104C562.153 437.993 561.529 439.189 560.281 439.692V439.744C560.974 439.952 561.46 440.377 561.737 441.018C562.032 441.659 562.179 442.517 562.179 443.592V446.79C562.179 447.31 562.196 447.735 562.231 448.064C562.266 448.376 562.352 448.688 562.491 449H559.579C559.475 448.705 559.406 448.428 559.371 448.168C559.336 447.908 559.319 447.44 559.319 446.764V443.436C559.319 442.604 559.18 442.023 558.903 441.694C558.643 441.365 558.184 441.2 557.525 441.2H556.537V449H553.677V430.8ZM557.577 438.6C558.149 438.6 558.574 438.453 558.851 438.158C559.146 437.863 559.293 437.369 559.293 436.676V435.272C559.293 434.613 559.172 434.137 558.929 433.842C558.704 433.547 558.34 433.4 557.837 433.4H556.537V438.6H557.577ZM566.893 430.8H570.767L573.731 449H570.871L570.351 445.386V445.438H567.101L566.581 449H563.929L566.893 430.8ZM570.013 442.968L568.739 433.972H568.687L567.439 442.968H570.013ZM575.639 430.8H579.227L582.009 441.694H582.061V430.8H584.609V449H581.671L578.239 435.714H578.187V449H575.639V430.8ZM591.939 436.338H594.695V439.094H591.939V436.338ZM591.939 446.244H594.695V449H591.939V446.244ZM606.177 449.26C604.773 449.26 603.698 448.861 602.953 448.064C602.208 447.267 601.835 446.14 601.835 444.684V435.116C601.835 433.66 602.208 432.533 602.953 431.736C603.698 430.939 604.773 430.54 606.177 430.54C607.581 430.54 608.656 430.939 609.401 431.736C610.146 432.533 610.519 433.66 610.519 435.116V444.684C610.519 446.14 610.146 447.267 609.401 448.064C608.656 448.861 607.581 449.26 606.177 449.26ZM606.177 446.66C607.165 446.66 607.659 446.062 607.659 444.866V434.934C607.659 433.738 607.165 433.14 606.177 433.14C605.189 433.14 604.695 433.738 604.695 434.934V444.866C604.695 446.062 605.189 446.66 606.177 446.66ZM617.107 449.26C615.669 449.26 614.559 448.879 613.779 448.116C613.017 447.336 612.635 446.218 612.635 444.762V443.15C612.635 442.249 612.783 441.495 613.077 440.888C613.372 440.264 613.849 439.779 614.507 439.432V439.38C613.901 439.051 613.45 438.6 613.155 438.028C612.878 437.439 612.739 436.693 612.739 435.792V435.038C612.739 433.582 613.112 432.473 613.857 431.71C614.62 430.93 615.703 430.54 617.107 430.54C618.511 430.54 619.586 430.93 620.331 431.71C621.094 432.473 621.475 433.582 621.475 435.038V435.792C621.475 437.525 620.886 438.721 619.707 439.38V439.432C620.366 439.779 620.843 440.264 621.137 440.888C621.432 441.495 621.579 442.249 621.579 443.15V444.762C621.579 446.218 621.189 447.336 620.409 448.116C619.647 448.879 618.546 449.26 617.107 449.26ZM617.107 438.21C618.113 438.21 618.615 437.603 618.615 436.39V434.96C618.615 433.747 618.113 433.14 617.107 433.14C616.102 433.14 615.599 433.747 615.599 434.96V436.39C615.599 437.603 616.102 438.21 617.107 438.21ZM617.107 446.66C618.182 446.66 618.719 445.975 618.719 444.606V442.864C618.719 441.495 618.182 440.81 617.107 440.81C616.033 440.81 615.495 441.495 615.495 442.864V444.606C615.495 445.975 616.033 446.66 617.107 446.66ZM627.907 435.116H624.917V433.088C625.732 433.088 626.382 433.019 626.867 432.88C627.37 432.741 627.769 432.516 628.063 432.204C628.358 431.875 628.618 431.407 628.843 430.8H630.767V449H627.907V435.116ZM639.02 449.26C637.633 449.26 636.576 448.87 635.848 448.09C635.12 447.293 634.756 446.157 634.756 444.684V443.254H637.46V444.892C637.46 446.071 637.954 446.66 638.942 446.66C639.93 446.66 640.424 446.071 640.424 444.892V440.81C640.424 439.614 639.93 439.016 638.942 439.016C637.954 439.016 637.46 439.614 637.46 440.81V440.966H634.756L635.276 430.8H642.816V433.4H637.824L637.59 437.742H637.642C638.179 436.858 639.002 436.416 640.112 436.416C641.152 436.416 641.94 436.771 642.478 437.482C643.015 438.193 643.284 439.224 643.284 440.576V444.684C643.284 446.157 642.92 447.293 642.192 448.09C641.464 448.87 640.406 449.26 639.02 449.26ZM651.354 433.4H645.582V430.8H654.162V433.296L649.69 449H646.778L651.354 433.4ZM660.88 449.26C659.493 449.26 658.436 448.87 657.708 448.09C656.98 447.293 656.616 446.157 656.616 444.684V443.254H659.32V444.892C659.32 446.071 659.814 446.66 660.802 446.66C661.79 446.66 662.284 446.071 662.284 444.892V440.81C662.284 439.614 661.79 439.016 660.802 439.016C659.814 439.016 659.32 439.614 659.32 440.81V440.966H656.616L657.136 430.8H664.676V433.4H659.684L659.45 437.742H659.502C660.039 436.858 660.863 436.416 661.972 436.416C663.012 436.416 663.801 436.771 664.338 437.482C664.875 438.193 665.144 439.224 665.144 440.576V444.684C665.144 446.157 664.78 447.293 664.052 448.09C663.324 448.87 662.267 449.26 660.88 449.26ZM672.408 445.698H666.948V443.098L672.148 430.8H675.268V443.098H676.62V445.698H675.268V449H672.408V445.698ZM672.408 443.098V436H672.356L669.548 443.098H672.408ZM682.688 449.26C681.284 449.26 680.21 448.861 679.464 448.064C678.719 447.267 678.346 446.14 678.346 444.684V435.116C678.346 433.66 678.719 432.533 679.464 431.736C680.21 430.939 681.284 430.54 682.688 430.54C684.092 430.54 685.167 430.939 685.912 431.736C686.658 432.533 687.03 433.66 687.03 435.116V444.684C687.03 446.14 686.658 447.267 685.912 448.064C685.167 448.861 684.092 449.26 682.688 449.26ZM682.688 446.66C683.676 446.66 684.17 446.062 684.17 444.866V434.934C684.17 433.738 683.676 433.14 682.688 433.14C681.7 433.14 681.206 433.738 681.206 434.934V444.866C681.206 446.062 681.7 446.66 682.688 446.66ZM693.696 449.26C692.292 449.26 691.218 448.861 690.472 448.064C689.727 447.267 689.354 446.14 689.354 444.684V435.272C689.354 432.117 690.81 430.54 693.722 430.54C695.109 430.54 696.166 430.939 696.894 431.736C697.622 432.516 697.986 433.643 697.986 435.116V435.454H695.282V434.934C695.282 433.738 694.788 433.14 693.8 433.14C693.263 433.14 692.864 433.305 692.604 433.634C692.344 433.963 692.214 434.544 692.214 435.376V438.86H692.266C692.769 437.803 693.636 437.274 694.866 437.274C695.906 437.274 696.695 437.629 697.232 438.34C697.77 439.051 698.038 440.082 698.038 441.434V444.684C698.038 446.14 697.666 447.267 696.92 448.064C696.175 448.861 695.1 449.26 693.696 449.26ZM693.696 446.66C694.684 446.66 695.178 446.071 695.178 444.892V441.668C695.178 440.472 694.684 439.874 693.696 439.874C692.708 439.874 692.214 440.472 692.214 441.668V444.892C692.214 446.071 692.708 446.66 693.696 446.66ZM704.548 449.26C703.144 449.26 702.07 448.861 701.324 448.064C700.579 447.267 700.206 446.14 700.206 444.684V435.116C700.206 433.66 700.579 432.533 701.324 431.736C702.07 430.939 703.144 430.54 704.548 430.54C705.952 430.54 707.027 430.939 707.772 431.736C708.518 432.533 708.89 433.66 708.89 435.116V444.684C708.89 446.14 708.518 447.267 707.772 448.064C707.027 448.861 705.952 449.26 704.548 449.26ZM704.548 446.66C705.536 446.66 706.03 446.062 706.03 444.866V434.934C706.03 433.738 705.536 433.14 704.548 433.14C703.56 433.14 703.066 433.738 703.066 434.934V444.866C703.066 446.062 703.56 446.66 704.548 446.66ZM715.479 449.26C714.04 449.26 712.931 448.879 712.151 448.116C711.388 447.336 711.007 446.218 711.007 444.762V443.15C711.007 442.249 711.154 441.495 711.449 440.888C711.743 440.264 712.22 439.779 712.879 439.432V439.38C712.272 439.051 711.821 438.6 711.527 438.028C711.249 437.439 711.111 436.693 711.111 435.792V435.038C711.111 433.582 711.483 432.473 712.229 431.71C712.991 430.93 714.075 430.54 715.479 430.54C716.883 430.54 717.957 430.93 718.703 431.71C719.465 432.473 719.847 433.582 719.847 435.038V435.792C719.847 437.525 719.257 438.721 718.079 439.38V439.432C718.737 439.779 719.214 440.264 719.509 440.888C719.803 441.495 719.951 442.249 719.951 443.15V444.762C719.951 446.218 719.561 447.336 718.781 448.116C718.018 448.879 716.917 449.26 715.479 449.26ZM715.479 438.21C716.484 438.21 716.987 437.603 716.987 436.39V434.96C716.987 433.747 716.484 433.14 715.479 433.14C714.473 433.14 713.971 433.747 713.971 434.96V436.39C713.971 437.603 714.473 438.21 715.479 438.21ZM715.479 446.66C716.553 446.66 717.091 445.975 717.091 444.606V442.864C717.091 441.495 716.553 440.81 715.479 440.81C714.404 440.81 713.867 441.495 713.867 442.864V444.606C713.867 445.975 714.404 446.66 715.479 446.66ZM726.279 435.116H723.289V433.088C724.103 433.088 724.753 433.019 725.239 432.88C725.741 432.741 726.14 432.516 726.435 432.204C726.729 431.875 726.989 431.407 727.215 430.8H729.139V449H726.279V435.116Z" fill="black"/>
<rect x="447" y="1" width="362" height="90" rx="9" fill="white" stroke="black" stroke-width="2"/>
<rect x="1" y="252" width="362" height="219" rx="9" fill="white" stroke="black" stroke-width="2"/>
<circle r="4.5" transform="matrix(-1 0 0 1 469.5 22.5)" fill="black"/>
<path d="M480.274 30.2C479.207 30.2 478.394 29.9 477.834 29.3C477.274 28.6867 476.994 27.8133 476.994 26.68V19.32C476.994 18.1867 477.274 17.32 477.834 16.72C478.394 16.1067 479.207 15.8 480.274 15.8C481.341 15.8 482.154 16.1067 482.714 16.72C483.274 17.32 483.554 18.1867 483.554 19.32V20.52H481.474V19.18C481.474 18.26 481.094 17.8 480.334 17.8C479.574 17.8 479.194 18.26 479.194 19.18V26.84C479.194 27.7467 479.574 28.2 480.334 28.2C481.094 28.2 481.474 27.7467 481.474 26.84V24.1H480.374V22.1H483.554V26.68C483.554 27.8133 483.274 28.6867 482.714 29.3C482.154 29.9 481.341 30.2 480.274 30.2ZM488.566 30.2C487.5 30.2 486.686 29.9 486.126 29.3C485.566 28.6867 485.286 27.8133 485.286 26.68V16H487.486V26.84C487.486 27.32 487.58 27.6667 487.766 27.88C487.966 28.0933 488.246 28.2 488.606 28.2C488.966 28.2 489.24 28.0933 489.426 27.88C489.626 27.6667 489.726 27.32 489.726 26.84V16H491.846V26.68C491.846 27.8133 491.566 28.6867 491.006 29.3C490.446 29.9 489.633 30.2 488.566 30.2ZM493.813 16H499.813V18H496.013V21.7H499.033V23.7H496.013V28H499.813V30H493.813V16ZM504.378 30.2C503.311 30.2 502.505 29.9 501.958 29.3C501.411 28.6867 501.138 27.8133 501.138 26.68V25.88H503.218V26.84C503.218 27.7467 503.598 28.2 504.358 28.2C504.731 28.2 505.011 28.0933 505.198 27.88C505.398 27.6533 505.498 27.2933 505.498 26.8C505.498 26.2133 505.365 25.7 505.098 25.26C504.831 24.8067 504.338 24.2667 503.618 23.64C502.711 22.84 502.078 22.12 501.718 21.48C501.358 20.8267 501.178 20.0933 501.178 19.28C501.178 18.1733 501.458 17.32 502.018 16.72C502.578 16.1067 503.391 15.8 504.458 15.8C505.511 15.8 506.305 16.1067 506.838 16.72C507.385 17.32 507.658 18.1867 507.658 19.32V19.9H505.578V19.18C505.578 18.7 505.485 18.3533 505.298 18.14C505.111 17.9133 504.838 17.8 504.478 17.8C503.745 17.8 503.378 18.2467 503.378 19.14C503.378 19.6467 503.511 20.12 503.778 20.56C504.058 21 504.558 21.5333 505.278 22.16C506.198 22.96 506.831 23.6867 507.178 24.34C507.525 24.9933 507.698 25.76 507.698 26.64C507.698 27.7867 507.411 28.6667 506.838 29.28C506.278 29.8933 505.458 30.2 504.378 30.2ZM511.079 18H508.779V16H515.579V18H513.279V30H511.079V18ZM519.905 30.2C518.838 30.2 518.031 29.9 517.485 29.3C516.938 28.6867 516.665 27.8133 516.665 26.68V25.88H518.745V26.84C518.745 27.7467 519.125 28.2 519.885 28.2C520.258 28.2 520.538 28.0933 520.725 27.88C520.925 27.6533 521.025 27.2933 521.025 26.8C521.025 26.2133 520.891 25.7 520.625 25.26C520.358 24.8067 519.865 24.2667 519.145 23.64C518.238 22.84 517.605 22.12 517.245 21.48C516.885 20.8267 516.705 20.0933 516.705 19.28C516.705 18.1733 516.985 17.32 517.545 16.72C518.105 16.1067 518.918 15.8 519.985 15.8C521.038 15.8 521.831 16.1067 522.365 16.72C522.911 17.32 523.185 18.1867 523.185 19.32V19.9H521.105V19.18C521.105 18.7 521.011 18.3533 520.825 18.14C520.638 17.9133 520.365 17.8 520.005 17.8C519.271 17.8 518.905 18.2467 518.905 19.14C518.905 19.6467 519.038 20.12 519.305 20.56C519.585 21 520.085 21.5333 520.805 22.16C521.725 22.96 522.358 23.6867 522.705 24.34C523.051 24.9933 523.225 25.76 523.225 26.64C523.225 27.7867 522.938 28.6667 522.365 29.28C521.805 29.8933 520.985 30.2 519.905 30.2Z" fill="black"/>
<path d="M476.334 31.6H523.665V33.2H476.334V31.6Z" fill="black"/>
<rect x="447" y="121" width="362" height="118" rx="9" fill="white" stroke="black" stroke-width="2"/>
<circle r="4.5" transform="matrix(-1 0 0 1 469.5 142.5)" fill="black"/>
<path d="M477.23 135H480.49C481.623 135 482.45 135.267 482.97 135.8C483.49 136.32 483.75 137.127 483.75 138.22V139.08C483.75 140.533 483.27 141.453 482.31 141.84V141.88C482.843 142.04 483.217 142.367 483.43 142.86C483.657 143.353 483.77 144.013 483.77 144.84V147.3C483.77 147.7 483.783 148.027 483.81 148.28C483.837 148.52 483.903 148.76 484.01 149H481.77C481.69 148.773 481.637 148.56 481.61 148.36C481.583 148.16 481.57 147.8 481.57 147.28V144.72C481.57 144.08 481.463 143.633 481.25 143.38C481.05 143.127 480.697 143 480.19 143H479.43V149H477.23V135ZM480.23 141C480.67 141 480.997 140.887 481.21 140.66C481.437 140.433 481.55 140.053 481.55 139.52V138.44C481.55 137.933 481.457 137.567 481.27 137.34C481.097 137.113 480.817 137 480.43 137H479.43V141H480.23ZM485.697 135H491.697V137H487.897V140.7H490.917V142.7H487.897V147H491.697V149H485.697V135ZM496.482 149.2C495.416 149.2 494.602 148.9 494.042 148.3C493.482 147.687 493.202 146.813 493.202 145.68V138.32C493.202 137.187 493.482 136.32 494.042 135.72C494.602 135.107 495.416 134.8 496.482 134.8C497.549 134.8 498.362 135.107 498.922 135.72C499.482 136.32 499.762 137.187 499.762 138.32V139.52H497.682V138.18C497.682 137.26 497.302 136.8 496.542 136.8C495.782 136.8 495.402 137.26 495.402 138.18V145.84C495.402 146.747 495.782 147.2 496.542 147.2C497.302 147.2 497.682 146.747 497.682 145.84V143.1H496.582V141.1H499.762V145.68C499.762 146.813 499.482 147.687 498.922 148.3C498.362 148.9 497.549 149.2 496.482 149.2ZM501.575 135H503.775V149H501.575V135ZM508.682 149.2C507.616 149.2 506.809 148.9 506.262 148.3C505.716 147.687 505.442 146.813 505.442 145.68V144.88H507.522V145.84C507.522 146.747 507.902 147.2 508.662 147.2C509.036 147.2 509.316 147.093 509.502 146.88C509.702 146.653 509.802 146.293 509.802 145.8C509.802 145.213 509.669 144.7 509.402 144.26C509.136 143.807 508.642 143.267 507.922 142.64C507.016 141.84 506.382 141.12 506.022 140.48C505.662 139.827 505.482 139.093 505.482 138.28C505.482 137.173 505.762 136.32 506.322 135.72C506.882 135.107 507.696 134.8 508.762 134.8C509.816 134.8 510.609 135.107 511.142 135.72C511.689 136.32 511.962 137.187 511.962 138.32V138.9H509.882V138.18C509.882 137.7 509.789 137.353 509.602 137.14C509.416 136.913 509.142 136.8 508.782 136.8C508.049 136.8 507.682 137.247 507.682 138.14C507.682 138.647 507.816 139.12 508.082 139.56C508.362 140 508.862 140.533 509.582 141.16C510.502 141.96 511.136 142.687 511.482 143.34C511.829 143.993 512.002 144.76 512.002 145.64C512.002 146.787 511.716 147.667 511.142 148.28C510.582 148.893 509.762 149.2 508.682 149.2ZM515.384 137H513.084V135H519.884V137H517.584V149H515.384V137ZM521.349 135H524.609C525.742 135 526.569 135.267 527.089 135.8C527.609 136.32 527.869 137.127 527.869 138.22V139.08C527.869 140.533 527.389 141.453 526.429 141.84V141.88C526.962 142.04 527.336 142.367 527.549 142.86C527.776 143.353 527.889 144.013 527.889 144.84V147.3C527.889 147.7 527.902 148.027 527.929 148.28C527.956 148.52 528.022 148.76 528.129 149H525.889C525.809 148.773 525.756 148.56 525.729 148.36C525.702 148.16 525.689 147.8 525.689 147.28V144.72C525.689 144.08 525.582 143.633 525.369 143.38C525.169 143.127 524.816 143 524.309 143H523.549V149H521.349V135ZM524.349 141C524.789 141 525.116 140.887 525.329 140.66C525.556 140.433 525.669 140.053 525.669 139.52V138.44C525.669 137.933 525.576 137.567 525.389 137.34C525.216 137.113 524.936 137 524.549 137H523.549V141H524.349ZM531.515 135H534.495L536.775 149H534.575L534.175 146.22V146.26H531.675L531.275 149H529.235L531.515 135ZM533.915 144.36L532.935 137.44H532.895L531.935 144.36H533.915ZM539.045 137H536.745V135H543.545V137H541.245V149H539.045V137ZM545.01 135H547.21V149H545.01V135ZM552.438 149.2C551.358 149.2 550.531 148.893 549.958 148.28C549.384 147.667 549.097 146.8 549.097 145.68V138.32C549.097 137.2 549.384 136.333 549.958 135.72C550.531 135.107 551.358 134.8 552.438 134.8C553.518 134.8 554.344 135.107 554.918 135.72C555.491 136.333 555.778 137.2 555.778 138.32V145.68C555.778 146.8 555.491 147.667 554.918 148.28C554.344 148.893 553.518 149.2 552.438 149.2ZM552.438 147.2C553.198 147.2 553.577 146.74 553.577 145.82V138.18C553.577 137.26 553.198 136.8 552.438 136.8C551.678 136.8 551.298 137.26 551.298 138.18V145.82C551.298 146.74 551.678 147.2 552.438 147.2ZM557.665 135H560.425L562.565 143.38H562.605V135H564.565V149H562.305L559.665 138.78H559.625V149H557.665V135ZM570.204 135H576.024V137H572.404V140.9H575.244V142.9H572.404V149H570.204V135ZM577.479 135H583.479V137H579.679V140.7H582.699V142.7H579.679V147H583.479V149H577.479V135ZM585.144 135H591.144V137H587.344V140.7H590.364V142.7H587.344V147H591.144V149H585.144V135Z" fill="black"/>
<path d="M476.41 150.6H591.584V152.2H476.41V150.6Z" fill="black"/>
<path d="M481.07 170.116H478.08V168.088C478.895 168.088 479.545 168.019 480.03 167.88C480.533 167.741 480.931 167.516 481.226 167.204C481.521 166.875 481.781 166.407 482.006 165.8H483.93V184H481.07V170.116ZM492.13 184.26C490.726 184.26 489.651 183.861 488.906 183.064C488.161 182.267 487.788 181.14 487.788 179.684V170.116C487.788 168.66 488.161 167.533 488.906 166.736C489.651 165.939 490.726 165.54 492.13 165.54C493.534 165.54 494.609 165.939 495.354 166.736C496.099 167.533 496.472 168.66 496.472 170.116V179.684C496.472 181.14 496.099 182.267 495.354 183.064C494.609 183.861 493.534 184.26 492.13 184.26ZM492.13 181.66C493.118 181.66 493.612 181.062 493.612 179.866V169.934C493.612 168.738 493.118 168.14 492.13 168.14C491.142 168.14 490.648 168.738 490.648 169.934V179.866C490.648 181.062 491.142 181.66 492.13 181.66ZM503.06 184.26C501.656 184.26 500.582 183.861 499.836 183.064C499.091 182.267 498.718 181.14 498.718 179.684V170.116C498.718 168.66 499.091 167.533 499.836 166.736C500.582 165.939 501.656 165.54 503.06 165.54C504.464 165.54 505.539 165.939 506.284 166.736C507.03 167.533 507.402 168.66 507.402 170.116V179.684C507.402 181.14 507.03 182.267 506.284 183.064C505.539 183.861 504.464 184.26 503.06 184.26ZM503.06 181.66C504.048 181.66 504.542 181.062 504.542 179.866V169.934C504.542 168.738 504.048 168.14 503.06 168.14C502.072 168.14 501.578 168.738 501.578 169.934V179.866C501.578 181.062 502.072 181.66 503.06 181.66ZM514.541 165.8H518.779C520.252 165.8 521.327 166.147 522.003 166.84C522.679 167.516 523.017 168.565 523.017 169.986V171.104C523.017 172.993 522.393 174.189 521.145 174.692V174.744C521.838 174.952 522.323 175.377 522.601 176.018C522.895 176.659 523.043 177.517 523.043 178.592V181.79C523.043 182.31 523.06 182.735 523.095 183.064C523.129 183.376 523.216 183.688 523.355 184H520.443C520.339 183.705 520.269 183.428 520.235 183.168C520.2 182.908 520.183 182.44 520.183 181.764V178.436C520.183 177.604 520.044 177.023 519.767 176.694C519.507 176.365 519.047 176.2 518.389 176.2H517.401V184H514.541V165.8ZM518.441 173.6C519.013 173.6 519.437 173.453 519.715 173.158C520.009 172.863 520.157 172.369 520.157 171.676V170.272C520.157 169.613 520.035 169.137 519.793 168.842C519.567 168.547 519.203 168.4 518.701 168.4H517.401V173.6H518.441ZM525.547 165.8H528.407V184H525.547V165.8ZM531.069 165.8H535.385C536.858 165.8 537.933 166.147 538.609 166.84C539.285 167.516 539.623 168.565 539.623 169.986V170.714C539.623 171.65 539.467 172.413 539.155 173.002C538.86 173.591 538.401 174.016 537.777 174.276V174.328C539.198 174.813 539.909 176.079 539.909 178.124V179.684C539.909 181.088 539.536 182.163 538.791 182.908C538.063 183.636 536.988 184 535.567 184H531.069V165.8ZM535.047 173.21C535.619 173.21 536.043 173.063 536.321 172.768C536.615 172.473 536.763 171.979 536.763 171.286V170.272C536.763 169.613 536.641 169.137 536.399 168.842C536.173 168.547 535.809 168.4 535.307 168.4H533.929V173.21H535.047ZM535.567 181.4C536.069 181.4 536.442 181.27 536.685 181.01C536.927 180.733 537.049 180.265 537.049 179.606V178.02C537.049 177.188 536.901 176.616 536.607 176.304C536.329 175.975 535.861 175.81 535.203 175.81H533.929V181.4H535.567ZM546.261 184.26C544.874 184.26 543.817 183.87 543.089 183.09C542.361 182.293 541.997 181.157 541.997 179.684V165.8H544.857V179.892C544.857 180.516 544.978 180.967 545.221 181.244C545.481 181.521 545.845 181.66 546.313 181.66C546.781 181.66 547.136 181.521 547.379 181.244C547.639 180.967 547.769 180.516 547.769 179.892V165.8H550.525V179.684C550.525 181.157 550.161 182.293 549.433 183.09C548.705 183.87 547.647 184.26 546.261 184.26Z" fill="black"/>
<circle r="4.5" transform="matrix(-1 0 0 1 23.5 277.5)" fill="black"/>
<path d="M31.0106 270H34.2506C35.344 270 36.164 270.293 36.7106 270.88C37.2573 271.467 37.5306 272.327 37.5306 273.46V274.84C37.5306 275.973 37.2573 276.833 36.7106 277.42C36.164 278.007 35.344 278.3 34.2506 278.3H33.2106V284H31.0106V270ZM34.2506 276.3C34.6106 276.3 34.8773 276.2 35.0506 276C35.2373 275.8 35.3306 275.46 35.3306 274.98V273.32C35.3306 272.84 35.2373 272.5 35.0506 272.3C34.8773 272.1 34.6106 272 34.2506 272H33.2106V276.3H34.2506ZM40.1223 270H43.1023L45.3823 284H43.1823L42.7823 281.22V281.26H40.2823L39.8823 284H37.8423L40.1223 270ZM42.5223 279.36L41.5423 272.44H41.5023L40.5423 279.36H42.5223ZM46.8497 270H50.1097C51.243 270 52.0697 270.267 52.5897 270.8C53.1097 271.32 53.3697 272.127 53.3697 273.22V274.08C53.3697 275.533 52.8897 276.453 51.9297 276.84V276.88C52.463 277.04 52.8364 277.367 53.0497 277.86C53.2764 278.353 53.3897 279.013 53.3897 279.84V282.3C53.3897 282.7 53.403 283.027 53.4297 283.28C53.4564 283.52 53.523 283.76 53.6297 284H51.3897C51.3097 283.773 51.2564 283.56 51.2297 283.36C51.203 283.16 51.1897 282.8 51.1897 282.28V279.72C51.1897 279.08 51.083 278.633 50.8697 278.38C50.6697 278.127 50.3164 278 49.8097 278H49.0497V284H46.8497V270ZM49.8497 276C50.2897 276 50.6164 275.887 50.8297 275.66C51.0564 275.433 51.1697 275.053 51.1697 274.52V273.44C51.1697 272.933 51.0764 272.567 50.8897 272.34C50.7164 272.113 50.4364 272 50.0497 272H49.0497V276H49.8497ZM56.997 272H54.697V270H61.497V272H59.197V284H56.997V272ZM62.9622 270H65.7222L67.8622 278.38H67.9022V270H69.8622V284H67.6022L64.9622 273.78H64.9222V284H62.9622V270ZM71.8973 270H77.8973V272H74.0973V275.7H77.1173V277.7H74.0973V282H77.8973V284H71.8973V270ZM79.563 270H82.823C83.9563 270 84.783 270.267 85.303 270.8C85.823 271.32 86.083 272.127 86.083 273.22V274.08C86.083 275.533 85.603 276.453 84.643 276.84V276.88C85.1763 277.04 85.5496 277.367 85.763 277.86C85.9896 278.353 86.103 279.013 86.103 279.84V282.3C86.103 282.7 86.1163 283.027 86.143 283.28C86.1696 283.52 86.2363 283.76 86.343 284H84.103C84.023 283.773 83.9696 283.56 83.943 283.36C83.9163 283.16 83.903 282.8 83.903 282.28V279.72C83.903 279.08 83.7963 278.633 83.583 278.38C83.383 278.127 83.0296 278 82.523 278H81.763V284H79.563V270ZM82.563 276C83.003 276 83.3296 275.887 83.543 275.66C83.7696 275.433 83.883 275.053 83.883 274.52V273.44C83.883 272.933 83.7896 272.567 83.603 272.34C83.4296 272.113 83.1496 272 82.763 272H81.763V276H82.563Z" fill="black"/>
<path d="M30.1906 285.6H86.803V287.2H30.1906V285.6Z" fill="black"/>
</svg>
