<svg width="810" height="472" viewBox="0 0 810 472" fill="none" xmlns="http://www.w3.org/2000/svg">
<rect x="1" y="1" width="362" height="90" rx="9" fill="white" stroke="black" stroke-width="2"/>
<rect x="447" y="269" width="362" height="88" rx="9" fill="white" stroke="black" stroke-width="2"/>
<rect x="447" y="381" width="362" height="90" rx="9" fill="#1FD57D" stroke="black" stroke-width="2"/>
<circle r="4.5" transform="matrix(-1 0 0 1 23.5 22.5)" fill="black"/>
<path d="M31.297 15H33.497V27H37.117V29H31.297V15ZM41.6738 29.2C40.5938 29.2 39.7672 28.8933 39.1938 28.28C38.6205 27.6667 38.3338 26.8 38.3338 25.68V18.32C38.3338 17.2 38.6205 16.3333 39.1938 15.72C39.7672 15.1067 40.5938 14.8 41.6738 14.8C42.7538 14.8 43.5805 15.1067 44.1538 15.72C44.7272 16.3333 45.0138 17.2 45.0138 18.32V25.68C45.0138 26.8 44.7272 27.6667 44.1538 28.28C43.5805 28.8933 42.7538 29.2 41.6738 29.2ZM41.6738 27.2C42.4338 27.2 42.8138 26.74 42.8138 25.82V18.18C42.8138 17.26 42.4338 16.8 41.6738 16.8C40.9138 16.8 40.5338 17.26 40.5338 18.18V25.82C40.5338 26.74 40.9138 27.2 41.6738 27.2ZM50.0016 29.2C48.9483 29.2 48.1416 28.9 47.5816 28.3C47.035 27.7 46.7616 26.8533 46.7616 25.76V18.24C46.7616 17.1467 47.035 16.3 47.5816 15.7C48.1416 15.1 48.9483 14.8 50.0016 14.8C51.055 14.8 51.855 15.1 52.4016 15.7C52.9616 16.3 53.2416 17.1467 53.2416 18.24V19.72H51.1616V18.1C51.1616 17.2333 50.795 16.8 50.0616 16.8C49.3283 16.8 48.9616 17.2333 48.9616 18.1V25.92C48.9616 26.7733 49.3283 27.2 50.0616 27.2C50.795 27.2 51.1616 26.7733 51.1616 25.92V23.78H53.2416V25.76C53.2416 26.8533 52.9616 27.7 52.4016 28.3C51.855 28.9 51.055 29.2 50.0016 29.2ZM56.6579 15H59.6379L61.9179 29H59.7179L59.3179 26.22V26.26H56.8179L56.4179 29H54.3779L56.6579 15ZM59.0579 24.36L58.0779 17.44H58.0379L57.0779 24.36H59.0579ZM64.1873 17H61.8873V15H68.6873V17H66.3873V29H64.1873V17ZM70.1524 15H72.3524V29H70.1524V15ZM77.5801 29.2C76.5001 29.2 75.6734 28.8933 75.1001 28.28C74.5267 27.6667 74.2401 26.8 74.2401 25.68V18.32C74.2401 17.2 74.5267 16.3333 75.1001 15.72C75.6734 15.1067 76.5001 14.8 77.5801 14.8C78.6601 14.8 79.4867 15.1067 80.0601 15.72C80.6334 16.3333 80.9201 17.2 80.9201 18.32V25.68C80.9201 26.8 80.6334 27.6667 80.0601 28.28C79.4867 28.8933 78.6601 29.2 77.5801 29.2ZM77.5801 27.2C78.3401 27.2 78.7201 26.74 78.7201 25.82V18.18C78.7201 17.26 78.3401 16.8 77.5801 16.8C76.8201 16.8 76.4401 17.26 76.4401 18.18V25.82C76.4401 26.74 76.8201 27.2 77.5801 27.2ZM82.8079 15H85.5679L87.7079 23.38H87.7479V15H89.7079V29H87.4479L84.8079 18.78H84.7679V29H82.8079V15Z" fill="black"/>
<path d="M30.477 30.6H90.5279V32.2H30.477V30.6Z" fill="black"/>
<path d="M31.5556 51.8H35.6376L37.4576 64.826H37.5096L39.3296 51.8H43.4116V70H40.7076V56.22H40.6556L38.5756 70H36.1836L34.1036 56.22H34.0516V70H31.5556V51.8ZM48.3019 54.4H45.3119V51.8H54.1519V54.4H51.1619V70H48.3019V54.4ZM64.379 71.69C63.079 71.69 62.2817 71.1093 61.987 69.948C61.4497 70.156 60.817 70.26 60.089 70.26C58.685 70.26 57.6104 69.8613 56.865 69.064C56.1197 68.2667 55.747 67.14 55.747 65.684V56.116C55.747 54.66 56.1197 53.5333 56.865 52.736C57.6104 51.9387 58.685 51.54 60.089 51.54C61.493 51.54 62.5677 51.9387 63.313 52.736C64.0584 53.5333 64.431 54.66 64.431 56.116V65.684C64.431 66.8973 64.1624 67.894 63.625 68.674C63.729 68.8473 63.859 68.96 64.015 69.012C64.171 69.064 64.3964 69.09 64.691 69.09H65.133V71.69H64.379ZM60.089 67.66C61.077 67.66 61.571 67.062 61.571 65.866V55.934C61.571 54.738 61.077 54.14 60.089 54.14C59.101 54.14 58.607 54.738 58.607 55.934V65.866C58.607 67.062 59.101 67.66 60.089 67.66ZM71.5692 51.8H74.4292V59.47L78.0692 51.8H80.9292L77.5232 58.482L80.9812 70H77.9912L75.5732 61.888L74.4292 64.202V70H71.5692V51.8ZM86.5826 70.26C85.1786 70.26 84.1039 69.8613 83.3586 69.064C82.6133 68.2667 82.2406 67.14 82.2406 65.684V56.116C82.2406 54.66 82.6133 53.5333 83.3586 52.736C84.1039 51.9387 85.1786 51.54 86.5826 51.54C87.9866 51.54 89.0613 51.9387 89.8066 52.736C90.5519 53.5333 90.9246 54.66 90.9246 56.116V65.684C90.9246 67.14 90.5519 68.2667 89.8066 69.064C89.0613 69.8613 87.9866 70.26 86.5826 70.26ZM86.5826 67.66C87.5706 67.66 88.0646 67.062 88.0646 65.866V55.934C88.0646 54.738 87.5706 54.14 86.5826 54.14C85.5946 54.14 85.1006 54.738 85.1006 55.934V65.866C85.1006 67.062 85.5946 67.66 86.5826 67.66ZM95.5132 54.4H92.5232V51.8H101.363V54.4H98.3732V70H95.5132V54.4ZM104.285 51.8H108.159L111.123 70H108.263L107.743 66.386V66.438H104.493L103.973 70H101.321L104.285 51.8ZM107.405 63.968L106.131 54.972H106.079L104.831 63.968H107.405ZM117.714 51.8H120.574V59.47L124.214 51.8H127.074L123.668 58.482L127.126 70H124.136L121.718 61.888L120.574 64.202V70H117.714V51.8ZM129 51.8H136.8V54.4H131.86V59.21H135.786V61.81H131.86V67.4H136.8V70H129V51.8ZM138.965 51.8H142.553L145.335 62.694H145.387V51.8H147.935V70H144.997L141.565 56.714H141.513V70H138.965V51.8ZM150.581 51.8H154.949C156.37 51.8 157.436 52.1813 158.147 52.944C158.857 53.7067 159.213 54.8247 159.213 56.298V65.502C159.213 66.9753 158.857 68.0933 158.147 68.856C157.436 69.6187 156.37 70 154.949 70H150.581V51.8ZM154.897 67.4C155.365 67.4 155.72 67.2613 155.963 66.984C156.223 66.7067 156.353 66.256 156.353 65.632V56.168C156.353 55.544 156.223 55.0933 155.963 54.816C155.72 54.5387 155.365 54.4 154.897 54.4H153.441V67.4H154.897ZM163.823 51.8H167.697L170.661 70H167.801L167.281 66.386V66.438H164.031L163.511 70H160.859L163.823 51.8ZM166.943 63.968L165.669 54.972H165.617L164.369 63.968H166.943ZM172.568 51.8H176.806C178.279 51.8 179.354 52.1467 180.03 52.84C180.706 53.516 181.044 54.5647 181.044 55.986V57.104C181.044 58.9933 180.42 60.1893 179.172 60.692V60.744C179.865 60.952 180.351 61.3767 180.628 62.018C180.923 62.6593 181.07 63.5173 181.07 64.592V67.79C181.07 68.31 181.087 68.7347 181.122 69.064C181.157 69.376 181.243 69.688 181.382 70H178.47C178.366 69.7053 178.297 69.428 178.262 69.168C178.227 68.908 178.21 68.44 178.21 67.764V64.436C178.21 63.604 178.071 63.0233 177.794 62.694C177.534 62.3647 177.075 62.2 176.416 62.2H175.428V70H172.568V51.8ZM176.468 59.6C177.04 59.6 177.465 59.4527 177.742 59.158C178.037 58.8633 178.184 58.3693 178.184 57.676V56.272C178.184 55.6133 178.063 55.1367 177.82 54.842C177.595 54.5473 177.231 54.4 176.728 54.4H175.428V59.6H176.468ZM183.574 51.8H186.434V70H183.574V51.8Z" fill="black"/>
<rect x="1" y="119" width="362" height="90" rx="9" fill="white" stroke="black" stroke-width="2"/>
<circle r="4.5" transform="matrix(-1 0 0 1 23.5 142.5)" fill="black"/>
<path d="M30.847 135H34.207C35.3003 135 36.1203 135.293 36.667 135.88C37.2136 136.467 37.487 137.327 37.487 138.46V145.54C37.487 146.673 37.2136 147.533 36.667 148.12C36.1203 148.707 35.3003 149 34.207 149H30.847V135ZM34.167 147C34.527 147 34.8003 146.893 34.987 146.68C35.187 146.467 35.287 146.12 35.287 145.64V138.36C35.287 137.88 35.187 137.533 34.987 137.32C34.8003 137.107 34.527 137 34.167 137H33.047V147H34.167ZM41.0329 135H44.0129L46.2929 149H44.0929L43.6929 146.22V146.26H41.1929L40.7929 149H38.7529L41.0329 135ZM43.4329 144.36L42.4529 137.44H42.4129L41.4529 144.36H43.4329ZM48.5623 137H46.2623V135H53.0623V137H50.7623V149H48.5623V137ZM54.5274 135H60.5274V137H56.7274V140.7H59.7474V142.7H56.7274V147H60.5274V149H54.5274V135Z" fill="black"/>
<path d="M30.027 150.6H60.9674V152.2H30.027V150.6Z" fill="black"/>
<path d="M31.0397 182.024C31.0397 180.724 31.2477 179.615 31.6637 178.696C32.0797 177.76 32.8251 176.729 33.8997 175.602C34.9571 174.475 35.6851 173.513 36.0837 172.716C36.4997 171.919 36.7077 171.087 36.7077 170.22C36.7077 169.44 36.5777 168.903 36.3177 168.608C36.0751 168.296 35.7111 168.14 35.2257 168.14C34.2377 168.14 33.7437 168.738 33.7437 169.934V171.884H31.0397V170.116C31.0397 168.643 31.4037 167.516 32.1317 166.736C32.8597 165.939 33.9171 165.54 35.3037 165.54C36.6904 165.54 37.7477 165.939 38.4757 166.736C39.2037 167.516 39.5677 168.643 39.5677 170.116C39.5677 171.225 39.2991 172.309 38.7617 173.366C38.2417 174.423 37.3317 175.637 36.0317 177.006C35.1824 177.907 34.6104 178.644 34.3157 179.216C34.0211 179.771 33.8737 180.369 33.8737 181.01V181.4H39.3077V184H31.0397V182.024ZM46.1559 184.26C44.7172 184.26 43.6079 183.879 42.8279 183.116C42.0652 182.336 41.6839 181.218 41.6839 179.762V178.15C41.6839 177.249 41.8312 176.495 42.1259 175.888C42.4206 175.264 42.8972 174.779 43.5559 174.432V174.38C42.9492 174.051 42.4986 173.6 42.2039 173.028C41.9266 172.439 41.7879 171.693 41.7879 170.792V170.038C41.7879 168.582 42.1606 167.473 42.9059 166.71C43.6686 165.93 44.7519 165.54 46.1559 165.54C47.5599 165.54 48.6346 165.93 49.3799 166.71C50.1426 167.473 50.5239 168.582 50.5239 170.038V170.792C50.5239 172.525 49.9346 173.721 48.7559 174.38V174.432C49.4146 174.779 49.8912 175.264 50.1859 175.888C50.4806 176.495 50.6279 177.249 50.6279 178.15V179.762C50.6279 181.218 50.2379 182.336 49.4579 183.116C48.6952 183.879 47.5946 184.26 46.1559 184.26ZM46.1559 173.21C47.1612 173.21 47.6639 172.603 47.6639 171.39V169.96C47.6639 168.747 47.1612 168.14 46.1559 168.14C45.1506 168.14 44.6479 168.747 44.6479 169.96V171.39C44.6479 172.603 45.1506 173.21 46.1559 173.21ZM46.1559 181.66C47.2306 181.66 47.7679 180.975 47.7679 179.606V177.864C47.7679 176.495 47.2306 175.81 46.1559 175.81C45.0812 175.81 44.5439 176.495 44.5439 177.864V179.606C44.5439 180.975 45.0812 181.66 46.1559 181.66ZM58.3121 184.104C57.7921 184.104 57.3501 184.069 56.9861 184V181.4C57.2634 181.469 57.5754 181.504 57.9221 181.504C58.4941 181.504 58.9188 181.365 59.1961 181.088C59.4734 180.793 59.6121 180.351 59.6121 179.762V165.8H62.4721V179.684C62.4721 181.175 62.1254 182.284 61.4321 183.012C60.7561 183.74 59.7161 184.104 58.3121 184.104ZM69.197 184.26C67.8103 184.26 66.753 183.87 66.025 183.09C65.297 182.293 64.933 181.157 64.933 179.684V165.8H67.793V179.892C67.793 180.516 67.9143 180.967 68.157 181.244C68.417 181.521 68.781 181.66 69.249 181.66C69.717 181.66 70.0723 181.521 70.315 181.244C70.575 180.967 70.705 180.516 70.705 179.892V165.8H73.461V179.684C73.461 181.157 73.097 182.293 72.369 183.09C71.641 183.87 70.5836 184.26 69.197 184.26ZM76.0179 165.8H79.6059L82.3879 176.694H82.4399V165.8H84.9879V184H82.0499L78.6179 170.714H78.5659V184H76.0179V165.8ZM87.6336 165.8H90.4936V184H87.6336V165.8ZM97.7876 182.024C97.7876 180.724 97.9956 179.615 98.4116 178.696C98.8276 177.76 99.573 176.729 100.648 175.602C101.705 174.475 102.433 173.513 102.832 172.716C103.248 171.919 103.456 171.087 103.456 170.22C103.456 169.44 103.326 168.903 103.066 168.608C102.823 168.296 102.459 168.14 101.974 168.14C100.986 168.14 100.492 168.738 100.492 169.934V171.884H97.7876V170.116C97.7876 168.643 98.1516 167.516 98.8796 166.736C99.6076 165.939 100.665 165.54 102.052 165.54C103.438 165.54 104.496 165.939 105.224 166.736C105.952 167.516 106.316 168.643 106.316 170.116C106.316 171.225 106.047 172.309 105.51 173.366C104.99 174.423 104.08 175.637 102.78 177.006C101.93 177.907 101.358 178.644 101.064 179.216C100.769 179.771 100.622 180.369 100.622 181.01V181.4H106.056V184H97.7876V182.024ZM112.904 184.26C111.5 184.26 110.425 183.861 109.68 183.064C108.934 182.267 108.562 181.14 108.562 179.684V170.116C108.562 168.66 108.934 167.533 109.68 166.736C110.425 165.939 111.5 165.54 112.904 165.54C114.308 165.54 115.382 165.939 116.128 166.736C116.873 167.533 117.246 168.66 117.246 170.116V179.684C117.246 181.14 116.873 182.267 116.128 183.064C115.382 183.861 114.308 184.26 112.904 184.26ZM112.904 181.66C113.892 181.66 114.386 181.062 114.386 179.866V169.934C114.386 168.738 113.892 168.14 112.904 168.14C111.916 168.14 111.422 168.738 111.422 169.934V179.866C111.422 181.062 111.916 181.66 112.904 181.66ZM119.648 182.024C119.648 180.724 119.856 179.615 120.272 178.696C120.688 177.76 121.433 176.729 122.508 175.602C123.565 174.475 124.293 173.513 124.692 172.716C125.108 171.919 125.316 171.087 125.316 170.22C125.316 169.44 125.186 168.903 124.926 168.608C124.683 168.296 124.319 168.14 123.834 168.14C122.846 168.14 122.352 168.738 122.352 169.934V171.884H119.648V170.116C119.648 168.643 120.012 167.516 120.74 166.736C121.468 165.939 122.525 165.54 123.912 165.54C125.299 165.54 126.356 165.939 127.084 166.736C127.812 167.516 128.176 168.643 128.176 170.116C128.176 171.225 127.907 172.309 127.37 173.366C126.85 174.423 125.94 175.637 124.64 177.006C123.791 177.907 123.219 178.644 122.924 179.216C122.629 179.771 122.482 180.369 122.482 181.01V181.4H127.916V184H119.648V182.024ZM130.578 182.024C130.578 180.724 130.786 179.615 131.202 178.696C131.618 177.76 132.363 176.729 133.438 175.602C134.495 174.475 135.223 173.513 135.622 172.716C136.038 171.919 136.246 171.087 136.246 170.22C136.246 169.44 136.116 168.903 135.856 168.608C135.613 168.296 135.249 168.14 134.764 168.14C133.776 168.14 133.282 168.738 133.282 169.934V171.884H130.578V170.116C130.578 168.643 130.942 167.516 131.67 166.736C132.398 165.939 133.455 165.54 134.842 165.54C136.229 165.54 137.286 165.939 138.014 166.736C138.742 167.516 139.106 168.643 139.106 170.116C139.106 171.225 138.837 172.309 138.3 173.366C137.78 174.423 136.87 175.637 135.57 177.006C134.721 177.907 134.149 178.644 133.854 179.216C133.559 179.771 133.412 180.369 133.412 181.01V181.4H138.846V184H130.578V182.024Z" fill="black"/>
<path d="M584.078 301.8H588.29C589.711 301.8 590.777 302.181 591.488 302.944C592.199 303.707 592.554 304.825 592.554 306.298V308.092C592.554 309.565 592.199 310.683 591.488 311.446C590.777 312.209 589.711 312.59 588.29 312.59H586.938V320H584.078V301.8ZM588.29 309.99C588.758 309.99 589.105 309.86 589.33 309.6C589.573 309.34 589.694 308.898 589.694 308.274V306.116C589.694 305.492 589.573 305.05 589.33 304.79C589.105 304.53 588.758 304.4 588.29 304.4H586.938V309.99H588.29ZM594.627 301.8H598.865C600.339 301.8 601.413 302.147 602.089 302.84C602.765 303.516 603.103 304.565 603.103 305.986V307.104C603.103 308.993 602.479 310.189 601.231 310.692V310.744C601.925 310.952 602.41 311.377 602.687 312.018C602.982 312.659 603.129 313.517 603.129 314.592V317.79C603.129 318.31 603.147 318.735 603.181 319.064C603.216 319.376 603.303 319.688 603.441 320H600.529C600.425 319.705 600.356 319.428 600.321 319.168C600.287 318.908 600.269 318.44 600.269 317.764V314.436C600.269 313.604 600.131 313.023 599.853 312.694C599.593 312.365 599.134 312.2 598.475 312.2H597.487V320H594.627V301.8ZM598.527 309.6C599.099 309.6 599.524 309.453 599.801 309.158C600.096 308.863 600.243 308.369 600.243 307.676V306.272C600.243 305.613 600.122 305.137 599.879 304.842C599.654 304.547 599.29 304.4 598.787 304.4H597.487V309.6H598.527ZM609.768 320.26C608.364 320.26 607.289 319.861 606.544 319.064C605.798 318.267 605.426 317.14 605.426 315.684V306.116C605.426 304.66 605.798 303.533 606.544 302.736C607.289 301.939 608.364 301.54 609.768 301.54C611.172 301.54 612.246 301.939 612.992 302.736C613.737 303.533 614.11 304.66 614.11 306.116V315.684C614.11 317.14 613.737 318.267 612.992 319.064C612.246 319.861 611.172 320.26 609.768 320.26ZM609.768 317.66C610.756 317.66 611.25 317.062 611.25 315.866V305.934C611.25 304.738 610.756 304.14 609.768 304.14C608.78 304.14 608.286 304.738 608.286 305.934V315.866C608.286 317.062 608.78 317.66 609.768 317.66ZM616.564 301.8H620.776C622.197 301.8 623.263 302.181 623.974 302.944C624.684 303.707 625.04 304.825 625.04 306.298V308.092C625.04 309.565 624.684 310.683 623.974 311.446C623.263 312.209 622.197 312.59 620.776 312.59H619.424V320H616.564V301.8ZM620.776 309.99C621.244 309.99 621.59 309.86 621.816 309.6C622.058 309.34 622.18 308.898 622.18 308.274V306.116C622.18 305.492 622.058 305.05 621.816 304.79C621.59 304.53 621.244 304.4 620.776 304.4H619.424V309.99H620.776ZM631.247 320.26C629.843 320.26 628.768 319.861 628.023 319.064C627.278 318.267 626.905 317.14 626.905 315.684V306.116C626.905 304.66 627.278 303.533 628.023 302.736C628.768 301.939 629.843 301.54 631.247 301.54C632.651 301.54 633.726 301.939 634.471 302.736C635.216 303.533 635.589 304.66 635.589 306.116V315.684C635.589 317.14 635.216 318.267 634.471 319.064C633.726 319.861 632.651 320.26 631.247 320.26ZM631.247 317.66C632.235 317.66 632.729 317.062 632.729 315.866V305.934C632.729 304.738 632.235 304.14 631.247 304.14C630.259 304.14 629.765 304.738 629.765 305.934V315.866C629.765 317.062 630.259 317.66 631.247 317.66ZM641.761 320.26C640.375 320.26 639.326 319.87 638.615 319.09C637.905 318.293 637.549 317.157 637.549 315.684V314.644H640.253V315.892C640.253 317.071 640.747 317.66 641.735 317.66C642.221 317.66 642.585 317.521 642.827 317.244C643.087 316.949 643.217 316.481 643.217 315.84C643.217 315.077 643.044 314.41 642.697 313.838C642.351 313.249 641.709 312.547 640.773 311.732C639.595 310.692 638.771 309.756 638.303 308.924C637.835 308.075 637.601 307.121 637.601 306.064C637.601 304.625 637.965 303.516 638.693 302.736C639.421 301.939 640.479 301.54 641.865 301.54C643.235 301.54 644.266 301.939 644.959 302.736C645.67 303.516 646.025 304.643 646.025 306.116V306.87H643.321V305.934C643.321 305.31 643.2 304.859 642.957 304.582C642.715 304.287 642.359 304.14 641.891 304.14C640.938 304.14 640.461 304.721 640.461 305.882C640.461 306.541 640.635 307.156 640.981 307.728C641.345 308.3 641.995 308.993 642.931 309.808C644.127 310.848 644.951 311.793 645.401 312.642C645.852 313.491 646.077 314.488 646.077 315.632C646.077 317.123 645.705 318.267 644.959 319.064C644.231 319.861 643.165 320.26 641.761 320.26ZM650.371 301.8H654.245L657.209 320H654.349L653.829 316.386V316.438H650.579L650.059 320H647.407L650.371 301.8ZM653.491 313.968L652.217 304.972H652.165L650.917 313.968H653.491ZM659.116 301.8H661.976V317.4H666.682V320H659.116V301.8Z" fill="black"/>
<path d="M600.255 409.26C598.885 409.26 597.837 408.87 597.109 408.09C596.398 407.31 596.043 406.209 596.043 404.788V395.012C596.043 393.591 596.398 392.49 597.109 391.71C597.837 390.93 598.885 390.54 600.255 390.54C601.624 390.54 602.664 390.93 603.375 391.71C604.103 392.49 604.467 393.591 604.467 395.012V396.936H601.763V394.83C601.763 393.703 601.286 393.14 600.333 393.14C599.379 393.14 598.903 393.703 598.903 394.83V404.996C598.903 406.105 599.379 406.66 600.333 406.66C601.286 406.66 601.763 406.105 601.763 404.996V402.214H604.467V404.788C604.467 406.209 604.103 407.31 603.375 408.09C602.664 408.87 601.624 409.26 600.255 409.26ZM608.908 390.8H612.782L615.746 409H612.886L612.366 405.386V405.438H609.116L608.596 409H605.944L608.908 390.8ZM612.028 402.968L610.754 393.972H610.702L609.454 402.968H612.028ZM617.653 390.8H620.513V406.4H625.219V409H617.653V390.8ZM627.111 390.8H629.971V406.4H634.677V409H627.111V390.8ZM645.412 409.26C644.026 409.26 642.968 408.87 642.24 408.09C641.512 407.293 641.148 406.157 641.148 404.684V390.8H644.008V404.892C644.008 405.516 644.13 405.967 644.372 406.244C644.632 406.521 644.996 406.66 645.464 406.66C645.932 406.66 646.288 406.521 646.53 406.244C646.79 405.967 646.92 405.516 646.92 404.892V390.8H649.676V404.684C649.676 406.157 649.312 407.293 648.584 408.09C647.856 408.87 646.799 409.26 645.412 409.26ZM655.951 409.26C654.565 409.26 653.516 408.87 652.805 408.09C652.095 407.293 651.739 406.157 651.739 404.684V403.644H654.443V404.892C654.443 406.071 654.937 406.66 655.925 406.66C656.411 406.66 656.775 406.521 657.017 406.244C657.277 405.949 657.407 405.481 657.407 404.84C657.407 404.077 657.234 403.41 656.887 402.838C656.541 402.249 655.899 401.547 654.963 400.732C653.785 399.692 652.961 398.756 652.493 397.924C652.025 397.075 651.791 396.121 651.791 395.064C651.791 393.625 652.155 392.516 652.883 391.736C653.611 390.939 654.669 390.54 656.055 390.54C657.425 390.54 658.456 390.939 659.149 391.736C659.86 392.516 660.215 393.643 660.215 395.116V395.87H657.511V394.934C657.511 394.31 657.39 393.859 657.147 393.582C656.905 393.287 656.549 393.14 656.081 393.14C655.128 393.14 654.651 393.721 654.651 394.882C654.651 395.541 654.825 396.156 655.171 396.728C655.535 397.3 656.185 397.993 657.121 398.808C658.317 399.848 659.141 400.793 659.591 401.642C660.042 402.491 660.267 403.488 660.267 404.632C660.267 406.123 659.895 407.267 659.149 408.064C658.421 408.861 657.355 409.26 655.951 409.26Z" fill="black"/>
<path d="M521.071 430.8H525.309C526.782 430.8 527.857 431.147 528.533 431.84C529.209 432.516 529.547 433.565 529.547 434.986V436.104C529.547 437.993 528.923 439.189 527.675 439.692V439.744C528.368 439.952 528.854 440.377 529.131 441.018C529.426 441.659 529.573 442.517 529.573 443.592V446.79C529.573 447.31 529.59 447.735 529.625 448.064C529.66 448.376 529.746 448.688 529.885 449H526.973C526.869 448.705 526.8 448.428 526.765 448.168C526.73 447.908 526.713 447.44 526.713 446.764V443.436C526.713 442.604 526.574 442.023 526.297 441.694C526.037 441.365 525.578 441.2 524.919 441.2H523.931V449H521.071V430.8ZM524.971 438.6C525.543 438.6 525.968 438.453 526.245 438.158C526.54 437.863 526.687 437.369 526.687 436.676V435.272C526.687 434.613 526.566 434.137 526.323 433.842C526.098 433.547 525.734 433.4 525.231 433.4H523.931V438.6H524.971ZM536.211 449.26C534.807 449.26 533.733 448.861 532.987 448.064C532.242 447.267 531.869 446.14 531.869 444.684V435.116C531.869 433.66 532.242 432.533 532.987 431.736C533.733 430.939 534.807 430.54 536.211 430.54C537.615 430.54 538.69 430.939 539.435 431.736C540.181 432.533 540.553 433.66 540.553 435.116V444.684C540.553 446.14 540.181 447.267 539.435 448.064C538.69 448.861 537.615 449.26 536.211 449.26ZM536.211 446.66C537.199 446.66 537.693 446.062 537.693 444.866V434.934C537.693 433.738 537.199 433.14 536.211 433.14C535.223 433.14 534.729 433.738 534.729 434.934V444.866C534.729 446.062 535.223 446.66 536.211 446.66ZM543.007 430.8H545.867V438.21H548.935V430.8H551.795V449H548.935V440.81H545.867V449H543.007V430.8ZM554.445 430.8H562.245V433.4H557.305V438.21H561.231V440.81H557.305V446.4H562.245V449H554.445V430.8ZM564.411 430.8H567.999L570.781 441.694H570.833V430.8H573.381V449H570.443L567.011 435.714H566.959V449H564.411V430.8ZM576.026 430.8H580.394C581.816 430.8 582.882 431.181 583.592 431.944C584.303 432.707 584.658 433.825 584.658 435.298V444.502C584.658 445.975 584.303 447.093 583.592 447.856C582.882 448.619 581.816 449 580.394 449H576.026V430.8ZM580.342 446.4C580.81 446.4 581.166 446.261 581.408 445.984C581.668 445.707 581.798 445.256 581.798 444.632V435.168C581.798 434.544 581.668 434.093 581.408 433.816C581.166 433.539 580.81 433.4 580.342 433.4H578.886V446.4H580.342ZM587.109 430.8H589.969V449H587.109V430.8ZM597.315 436.338H600.071V439.094H597.315V436.338ZM597.315 446.244H600.071V449H597.315V446.244ZM611.553 449.26C610.149 449.26 609.075 448.861 608.329 448.064C607.584 447.267 607.211 446.14 607.211 444.684V435.116C607.211 433.66 607.584 432.533 608.329 431.736C609.075 430.939 610.149 430.54 611.553 430.54C612.957 430.54 614.032 430.939 614.777 431.736C615.523 432.533 615.895 433.66 615.895 435.116V444.684C615.895 446.14 615.523 447.267 614.777 448.064C614.032 448.861 612.957 449.26 611.553 449.26ZM611.553 446.66C612.541 446.66 613.035 446.062 613.035 444.866V434.934C613.035 433.738 612.541 433.14 611.553 433.14C610.565 433.14 610.071 433.738 610.071 434.934V444.866C610.071 446.062 610.565 446.66 611.553 446.66ZM622.483 449.26C621.045 449.26 619.935 448.879 619.155 448.116C618.393 447.336 618.011 446.218 618.011 444.762V443.15C618.011 442.249 618.159 441.495 618.453 440.888C618.748 440.264 619.225 439.779 619.883 439.432V439.38C619.277 439.051 618.826 438.6 618.531 438.028C618.254 437.439 618.115 436.693 618.115 435.792V435.038C618.115 433.582 618.488 432.473 619.233 431.71C619.996 430.93 621.079 430.54 622.483 430.54C623.887 430.54 624.962 430.93 625.707 431.71C626.47 432.473 626.851 433.582 626.851 435.038V435.792C626.851 437.525 626.262 438.721 625.083 439.38V439.432C625.742 439.779 626.219 440.264 626.513 440.888C626.808 441.495 626.955 442.249 626.955 443.15V444.762C626.955 446.218 626.565 447.336 625.785 448.116C625.023 448.879 623.922 449.26 622.483 449.26ZM622.483 438.21C623.489 438.21 623.991 437.603 623.991 436.39V434.96C623.991 433.747 623.489 433.14 622.483 433.14C621.478 433.14 620.975 433.747 620.975 434.96V436.39C620.975 437.603 621.478 438.21 622.483 438.21ZM622.483 446.66C623.558 446.66 624.095 445.975 624.095 444.606V442.864C624.095 441.495 623.558 440.81 622.483 440.81C621.409 440.81 620.871 441.495 620.871 442.864V444.606C620.871 445.975 621.409 446.66 622.483 446.66ZM633.284 435.116H630.294V433.088C631.108 433.088 631.758 433.019 632.244 432.88C632.746 432.741 633.145 432.516 633.44 432.204C633.734 431.875 633.994 431.407 634.22 430.8H636.144V449H633.284V435.116ZM640.158 447.024C640.158 445.724 640.366 444.615 640.782 443.696C641.198 442.76 641.943 441.729 643.018 440.602C644.075 439.475 644.803 438.513 645.202 437.716C645.618 436.919 645.826 436.087 645.826 435.22C645.826 434.44 645.696 433.903 645.436 433.608C645.193 433.296 644.829 433.14 644.344 433.14C643.356 433.14 642.862 433.738 642.862 434.934V436.884H640.158V435.116C640.158 433.643 640.522 432.516 641.25 431.736C641.978 430.939 643.035 430.54 644.422 430.54C645.808 430.54 646.866 430.939 647.594 431.736C648.322 432.516 648.686 433.643 648.686 435.116C648.686 436.225 648.417 437.309 647.88 438.366C647.36 439.423 646.45 440.637 645.15 442.006C644.3 442.907 643.728 443.644 643.434 444.216C643.139 444.771 642.992 445.369 642.992 446.01V446.4H648.426V449H640.158V447.024ZM655.326 449.26C653.939 449.26 652.882 448.87 652.154 448.09C651.426 447.293 651.062 446.157 651.062 444.684V443.254H653.766V444.892C653.766 446.071 654.26 446.66 655.248 446.66C656.236 446.66 656.73 446.071 656.73 444.892V440.81C656.73 439.614 656.236 439.016 655.248 439.016C654.26 439.016 653.766 439.614 653.766 440.81V440.966H651.062L651.582 430.8H659.122V433.4H654.13L653.896 437.742H653.948C654.485 436.858 655.309 436.416 656.418 436.416C657.458 436.416 658.247 436.771 658.784 437.482C659.321 438.193 659.59 439.224 659.59 440.576V444.684C659.59 446.157 659.226 447.293 658.498 448.09C657.77 448.87 656.713 449.26 655.326 449.26ZM666.282 449.26C664.878 449.26 663.803 448.861 663.058 448.064C662.313 447.267 661.94 446.14 661.94 444.684V435.272C661.94 432.117 663.396 430.54 666.308 430.54C667.695 430.54 668.752 430.939 669.48 431.736C670.208 432.516 670.572 433.643 670.572 435.116V435.454H667.868V434.934C667.868 433.738 667.374 433.14 666.386 433.14C665.849 433.14 665.45 433.305 665.19 433.634C664.93 433.963 664.8 434.544 664.8 435.376V438.86H664.852C665.355 437.803 666.221 437.274 667.452 437.274C668.492 437.274 669.281 437.629 669.818 438.34C670.355 439.051 670.624 440.082 670.624 441.434V444.684C670.624 446.14 670.251 447.267 669.506 448.064C668.761 448.861 667.686 449.26 666.282 449.26ZM666.282 446.66C667.27 446.66 667.764 446.071 667.764 444.892V441.668C667.764 440.472 667.27 439.874 666.282 439.874C665.294 439.874 664.8 440.472 664.8 441.668V444.892C664.8 446.071 665.294 446.66 666.282 446.66ZM677.784 445.698H672.324V443.098L677.524 430.8H680.644V443.098H681.996V445.698H680.644V449H677.784V445.698ZM677.784 443.098V436H677.732L674.924 443.098H677.784ZM687.986 449.26C686.582 449.26 685.516 448.87 684.788 448.09C684.078 447.31 683.722 446.192 683.722 444.736V443.254H686.426V444.866C686.426 446.062 686.92 446.66 687.908 446.66C688.394 446.66 688.758 446.513 689 446.218C689.26 445.906 689.39 445.369 689.39 444.606V443.124C689.39 442.292 689.243 441.703 688.948 441.356C688.654 440.992 688.177 440.81 687.518 440.81H686.556V438.21H687.596C688.168 438.21 688.593 438.063 688.87 437.768C689.165 437.473 689.312 436.979 689.312 436.286V434.96C689.312 434.336 689.182 433.877 688.922 433.582C688.662 433.287 688.316 433.14 687.882 433.14C686.964 433.14 686.504 433.703 686.504 434.83V436.026H683.8V435.064C683.8 433.608 684.156 432.49 684.866 431.71C685.594 430.93 686.634 430.54 687.986 430.54C689.356 430.54 690.396 430.93 691.106 431.71C691.817 432.473 692.172 433.582 692.172 435.038V435.688C692.172 436.676 692.008 437.473 691.678 438.08C691.349 438.669 690.838 439.094 690.144 439.354V439.406C690.89 439.683 691.427 440.134 691.756 440.758C692.086 441.382 692.25 442.179 692.25 443.15V444.762C692.25 446.218 691.886 447.336 691.158 448.116C690.448 448.879 689.39 449.26 687.986 449.26ZM694.809 447.024C694.809 445.724 695.017 444.615 695.433 443.696C695.849 442.76 696.594 441.729 697.669 440.602C698.726 439.475 699.454 438.513 699.853 437.716C700.269 436.919 700.477 436.087 700.477 435.22C700.477 434.44 700.347 433.903 700.087 433.608C699.844 433.296 699.48 433.14 698.995 433.14C698.007 433.14 697.513 433.738 697.513 434.934V436.884H694.809V435.116C694.809 433.643 695.173 432.516 695.901 431.736C696.629 430.939 697.686 430.54 699.073 430.54C700.459 430.54 701.517 430.939 702.245 431.736C702.973 432.516 703.337 433.643 703.337 435.116C703.337 436.225 703.068 437.309 702.531 438.366C702.011 439.423 701.101 440.637 699.801 442.006C698.951 442.907 698.379 443.644 698.085 444.216C697.79 444.771 697.643 445.369 697.643 446.01V446.4H703.077V449H694.809V447.024ZM709.795 435.116H706.805V433.088C707.619 433.088 708.269 433.019 708.755 432.88C709.257 432.741 709.656 432.516 709.951 432.204C710.245 431.875 710.505 431.407 710.731 430.8H712.655V449H709.795V435.116ZM720.777 449.26C719.373 449.26 718.307 448.87 717.579 448.09C716.868 447.31 716.513 446.192 716.513 444.736V443.254H719.217V444.866C719.217 446.062 719.711 446.66 720.699 446.66C721.184 446.66 721.548 446.513 721.791 446.218C722.051 445.906 722.181 445.369 722.181 444.606V443.124C722.181 442.292 722.034 441.703 721.739 441.356C721.444 440.992 720.968 440.81 720.309 440.81H719.347V438.21H720.387C720.959 438.21 721.384 438.063 721.661 437.768C721.956 437.473 722.103 436.979 722.103 436.286V434.96C722.103 434.336 721.973 433.877 721.713 433.582C721.453 433.287 721.106 433.14 720.673 433.14C719.754 433.14 719.295 433.703 719.295 434.83V436.026H716.591V435.064C716.591 433.608 716.946 432.49 717.657 431.71C718.385 430.93 719.425 430.54 720.777 430.54C722.146 430.54 723.186 430.93 723.897 431.71C724.608 432.473 724.963 433.582 724.963 435.038V435.688C724.963 436.676 724.798 437.473 724.469 438.08C724.14 438.669 723.628 439.094 722.935 439.354V439.406C723.68 439.683 724.218 440.134 724.547 440.758C724.876 441.382 725.041 442.179 725.041 443.15V444.762C725.041 446.218 724.677 447.336 723.949 448.116C723.238 448.879 722.181 449.26 720.777 449.26ZM731.707 449.26C730.303 449.26 729.237 448.87 728.509 448.09C727.798 447.31 727.443 446.192 727.443 444.736V443.254H730.147V444.866C730.147 446.062 730.641 446.66 731.629 446.66C732.114 446.66 732.478 446.513 732.721 446.218C732.981 445.906 733.111 445.369 733.111 444.606V443.124C733.111 442.292 732.964 441.703 732.669 441.356C732.374 440.992 731.898 440.81 731.239 440.81H730.277V438.21H731.317C731.889 438.21 732.314 438.063 732.591 437.768C732.886 437.473 733.033 436.979 733.033 436.286V434.96C733.033 434.336 732.903 433.877 732.643 433.582C732.383 433.287 732.036 433.14 731.603 433.14C730.684 433.14 730.225 433.703 730.225 434.83V436.026H727.521V435.064C727.521 433.608 727.876 432.49 728.587 431.71C729.315 430.93 730.355 430.54 731.707 430.54C733.076 430.54 734.116 430.93 734.827 431.71C735.538 432.473 735.893 433.582 735.893 435.038V435.688C735.893 436.676 735.728 437.473 735.399 438.08C735.07 438.669 734.558 439.094 733.865 439.354V439.406C734.61 439.683 735.148 440.134 735.477 440.758C735.806 441.382 735.971 442.179 735.971 443.15V444.762C735.971 446.218 735.607 447.336 734.879 448.116C734.168 448.879 733.111 449.26 731.707 449.26Z" fill="black"/>
<rect x="447" y="1" width="362" height="90" rx="9" fill="white" stroke="black" stroke-width="2"/>
<rect x="1" y="252" width="362" height="219" rx="9" fill="white" stroke="black" stroke-width="2"/>
<circle r="4.5" transform="matrix(-1 0 0 1 469.5 22.5)" fill="black"/>
<path d="M480.274 30.2C479.207 30.2 478.394 29.9 477.834 29.3C477.274 28.6867 476.994 27.8133 476.994 26.68V19.32C476.994 18.1867 477.274 17.32 477.834 16.72C478.394 16.1067 479.207 15.8 480.274 15.8C481.341 15.8 482.154 16.1067 482.714 16.72C483.274 17.32 483.554 18.1867 483.554 19.32V20.52H481.474V19.18C481.474 18.26 481.094 17.8 480.334 17.8C479.574 17.8 479.194 18.26 479.194 19.18V26.84C479.194 27.7467 479.574 28.2 480.334 28.2C481.094 28.2 481.474 27.7467 481.474 26.84V24.1H480.374V22.1H483.554V26.68C483.554 27.8133 483.274 28.6867 482.714 29.3C482.154 29.9 481.341 30.2 480.274 30.2ZM488.566 30.2C487.5 30.2 486.686 29.9 486.126 29.3C485.566 28.6867 485.286 27.8133 485.286 26.68V16H487.486V26.84C487.486 27.32 487.58 27.6667 487.766 27.88C487.966 28.0933 488.246 28.2 488.606 28.2C488.966 28.2 489.24 28.0933 489.426 27.88C489.626 27.6667 489.726 27.32 489.726 26.84V16H491.846V26.68C491.846 27.8133 491.566 28.6867 491.006 29.3C490.446 29.9 489.633 30.2 488.566 30.2ZM493.813 16H499.813V18H496.013V21.7H499.033V23.7H496.013V28H499.813V30H493.813V16ZM504.378 30.2C503.311 30.2 502.505 29.9 501.958 29.3C501.411 28.6867 501.138 27.8133 501.138 26.68V25.88H503.218V26.84C503.218 27.7467 503.598 28.2 504.358 28.2C504.731 28.2 505.011 28.0933 505.198 27.88C505.398 27.6533 505.498 27.2933 505.498 26.8C505.498 26.2133 505.365 25.7 505.098 25.26C504.831 24.8067 504.338 24.2667 503.618 23.64C502.711 22.84 502.078 22.12 501.718 21.48C501.358 20.8267 501.178 20.0933 501.178 19.28C501.178 18.1733 501.458 17.32 502.018 16.72C502.578 16.1067 503.391 15.8 504.458 15.8C505.511 15.8 506.305 16.1067 506.838 16.72C507.385 17.32 507.658 18.1867 507.658 19.32V19.9H505.578V19.18C505.578 18.7 505.485 18.3533 505.298 18.14C505.111 17.9133 504.838 17.8 504.478 17.8C503.745 17.8 503.378 18.2467 503.378 19.14C503.378 19.6467 503.511 20.12 503.778 20.56C504.058 21 504.558 21.5333 505.278 22.16C506.198 22.96 506.831 23.6867 507.178 24.34C507.525 24.9933 507.698 25.76 507.698 26.64C507.698 27.7867 507.411 28.6667 506.838 29.28C506.278 29.8933 505.458 30.2 504.378 30.2ZM511.079 18H508.779V16H515.579V18H513.279V30H511.079V18ZM519.905 30.2C518.838 30.2 518.031 29.9 517.485 29.3C516.938 28.6867 516.665 27.8133 516.665 26.68V25.88H518.745V26.84C518.745 27.7467 519.125 28.2 519.885 28.2C520.258 28.2 520.538 28.0933 520.725 27.88C520.925 27.6533 521.025 27.2933 521.025 26.8C521.025 26.2133 520.891 25.7 520.625 25.26C520.358 24.8067 519.865 24.2667 519.145 23.64C518.238 22.84 517.605 22.12 517.245 21.48C516.885 20.8267 516.705 20.0933 516.705 19.28C516.705 18.1733 516.985 17.32 517.545 16.72C518.105 16.1067 518.918 15.8 519.985 15.8C521.038 15.8 521.831 16.1067 522.365 16.72C522.911 17.32 523.185 18.1867 523.185 19.32V19.9H521.105V19.18C521.105 18.7 521.011 18.3533 520.825 18.14C520.638 17.9133 520.365 17.8 520.005 17.8C519.271 17.8 518.905 18.2467 518.905 19.14C518.905 19.6467 519.038 20.12 519.305 20.56C519.585 21 520.085 21.5333 520.805 22.16C521.725 22.96 522.358 23.6867 522.705 24.34C523.051 24.9933 523.225 25.76 523.225 26.64C523.225 27.7867 522.938 28.6667 522.365 29.28C521.805 29.8933 520.985 30.2 519.905 30.2Z" fill="black"/>
<path d="M476.334 31.6H523.665V33.2H476.334V31.6Z" fill="black"/>
<rect x="447" y="121" width="362" height="118" rx="9" fill="white" stroke="black" stroke-width="2"/>
<circle r="4.5" transform="matrix(-1 0 0 1 469.5 142.5)" fill="black"/>
<path d="M477.23 135H480.49C481.623 135 482.45 135.267 482.97 135.8C483.49 136.32 483.75 137.127 483.75 138.22V139.08C483.75 140.533 483.27 141.453 482.31 141.84V141.88C482.843 142.04 483.217 142.367 483.43 142.86C483.657 143.353 483.77 144.013 483.77 144.84V147.3C483.77 147.7 483.783 148.027 483.81 148.28C483.837 148.52 483.903 148.76 484.01 149H481.77C481.69 148.773 481.637 148.56 481.61 148.36C481.583 148.16 481.57 147.8 481.57 147.28V144.72C481.57 144.08 481.463 143.633 481.25 143.38C481.05 143.127 480.697 143 480.19 143H479.43V149H477.23V135ZM480.23 141C480.67 141 480.997 140.887 481.21 140.66C481.437 140.433 481.55 140.053 481.55 139.52V138.44C481.55 137.933 481.457 137.567 481.27 137.34C481.097 137.113 480.817 137 480.43 137H479.43V141H480.23ZM485.697 135H491.697V137H487.897V140.7H490.917V142.7H487.897V147H491.697V149H485.697V135ZM496.482 149.2C495.416 149.2 494.602 148.9 494.042 148.3C493.482 147.687 493.202 146.813 493.202 145.68V138.32C493.202 137.187 493.482 136.32 494.042 135.72C494.602 135.107 495.416 134.8 496.482 134.8C497.549 134.8 498.362 135.107 498.922 135.72C499.482 136.32 499.762 137.187 499.762 138.32V139.52H497.682V138.18C497.682 137.26 497.302 136.8 496.542 136.8C495.782 136.8 495.402 137.26 495.402 138.18V145.84C495.402 146.747 495.782 147.2 496.542 147.2C497.302 147.2 497.682 146.747 497.682 145.84V143.1H496.582V141.1H499.762V145.68C499.762 146.813 499.482 147.687 498.922 148.3C498.362 148.9 497.549 149.2 496.482 149.2ZM501.575 135H503.775V149H501.575V135ZM508.682 149.2C507.616 149.2 506.809 148.9 506.262 148.3C505.716 147.687 505.442 146.813 505.442 145.68V144.88H507.522V145.84C507.522 146.747 507.902 147.2 508.662 147.2C509.036 147.2 509.316 147.093 509.502 146.88C509.702 146.653 509.802 146.293 509.802 145.8C509.802 145.213 509.669 144.7 509.402 144.26C509.136 143.807 508.642 143.267 507.922 142.64C507.016 141.84 506.382 141.12 506.022 140.48C505.662 139.827 505.482 139.093 505.482 138.28C505.482 137.173 505.762 136.32 506.322 135.72C506.882 135.107 507.696 134.8 508.762 134.8C509.816 134.8 510.609 135.107 511.142 135.72C511.689 136.32 511.962 137.187 511.962 138.32V138.9H509.882V138.18C509.882 137.7 509.789 137.353 509.602 137.14C509.416 136.913 509.142 136.8 508.782 136.8C508.049 136.8 507.682 137.247 507.682 138.14C507.682 138.647 507.816 139.12 508.082 139.56C508.362 140 508.862 140.533 509.582 141.16C510.502 141.96 511.136 142.687 511.482 143.34C511.829 143.993 512.002 144.76 512.002 145.64C512.002 146.787 511.716 147.667 511.142 148.28C510.582 148.893 509.762 149.2 508.682 149.2ZM515.384 137H513.084V135H519.884V137H517.584V149H515.384V137ZM521.349 135H524.609C525.742 135 526.569 135.267 527.089 135.8C527.609 136.32 527.869 137.127 527.869 138.22V139.08C527.869 140.533 527.389 141.453 526.429 141.84V141.88C526.962 142.04 527.336 142.367 527.549 142.86C527.776 143.353 527.889 144.013 527.889 144.84V147.3C527.889 147.7 527.902 148.027 527.929 148.28C527.956 148.52 528.022 148.76 528.129 149H525.889C525.809 148.773 525.756 148.56 525.729 148.36C525.702 148.16 525.689 147.8 525.689 147.28V144.72C525.689 144.08 525.582 143.633 525.369 143.38C525.169 143.127 524.816 143 524.309 143H523.549V149H521.349V135ZM524.349 141C524.789 141 525.116 140.887 525.329 140.66C525.556 140.433 525.669 140.053 525.669 139.52V138.44C525.669 137.933 525.576 137.567 525.389 137.34C525.216 137.113 524.936 137 524.549 137H523.549V141H524.349ZM531.515 135H534.495L536.775 149H534.575L534.175 146.22V146.26H531.675L531.275 149H529.235L531.515 135ZM533.915 144.36L532.935 137.44H532.895L531.935 144.36H533.915ZM539.045 137H536.745V135H543.545V137H541.245V149H539.045V137ZM545.01 135H547.21V149H545.01V135ZM552.438 149.2C551.358 149.2 550.531 148.893 549.958 148.28C549.384 147.667 549.097 146.8 549.097 145.68V138.32C549.097 137.2 549.384 136.333 549.958 135.72C550.531 135.107 551.358 134.8 552.438 134.8C553.518 134.8 554.344 135.107 554.918 135.72C555.491 136.333 555.778 137.2 555.778 138.32V145.68C555.778 146.8 555.491 147.667 554.918 148.28C554.344 148.893 553.518 149.2 552.438 149.2ZM552.438 147.2C553.198 147.2 553.577 146.74 553.577 145.82V138.18C553.577 137.26 553.198 136.8 552.438 136.8C551.678 136.8 551.298 137.26 551.298 138.18V145.82C551.298 146.74 551.678 147.2 552.438 147.2ZM557.665 135H560.425L562.565 143.38H562.605V135H564.565V149H562.305L559.665 138.78H559.625V149H557.665V135ZM570.204 135H576.024V137H572.404V140.9H575.244V142.9H572.404V149H570.204V135ZM577.479 135H583.479V137H579.679V140.7H582.699V142.7H579.679V147H583.479V149H577.479V135ZM585.144 135H591.144V137H587.344V140.7H590.364V142.7H587.344V147H591.144V149H585.144V135Z" fill="black"/>
<path d="M476.41 150.6H591.584V152.2H476.41V150.6Z" fill="black"/>
<path d="M481.252 184.26C479.865 184.26 478.808 183.87 478.08 183.09C477.352 182.293 476.988 181.157 476.988 179.684V178.254H479.692V179.892C479.692 181.071 480.186 181.66 481.174 181.66C482.162 181.66 482.656 181.071 482.656 179.892V175.81C482.656 174.614 482.162 174.016 481.174 174.016C480.186 174.016 479.692 174.614 479.692 175.81V175.966H476.988L477.508 165.8H485.048V168.4H480.056L479.822 172.742H479.874C480.411 171.858 481.235 171.416 482.344 171.416C483.384 171.416 484.173 171.771 484.71 172.482C485.247 173.193 485.516 174.224 485.516 175.576V179.684C485.516 181.157 485.152 182.293 484.424 183.09C483.696 183.87 482.639 184.26 481.252 184.26ZM492.13 184.26C490.726 184.26 489.651 183.861 488.906 183.064C488.161 182.267 487.788 181.14 487.788 179.684V170.116C487.788 168.66 488.161 167.533 488.906 166.736C489.651 165.939 490.726 165.54 492.13 165.54C493.534 165.54 494.609 165.939 495.354 166.736C496.099 167.533 496.472 168.66 496.472 170.116V179.684C496.472 181.14 496.099 182.267 495.354 183.064C494.609 183.861 493.534 184.26 492.13 184.26ZM492.13 181.66C493.118 181.66 493.612 181.062 493.612 179.866V169.934C493.612 168.738 493.118 168.14 492.13 168.14C491.142 168.14 490.648 168.738 490.648 169.934V179.866C490.648 181.062 491.142 181.66 492.13 181.66ZM503.06 184.26C501.656 184.26 500.582 183.861 499.836 183.064C499.091 182.267 498.718 181.14 498.718 179.684V170.116C498.718 168.66 499.091 167.533 499.836 166.736C500.582 165.939 501.656 165.54 503.06 165.54C504.464 165.54 505.539 165.939 506.284 166.736C507.03 167.533 507.402 168.66 507.402 170.116V179.684C507.402 181.14 507.03 182.267 506.284 183.064C505.539 183.861 504.464 184.26 503.06 184.26ZM503.06 181.66C504.048 181.66 504.542 181.062 504.542 179.866V169.934C504.542 168.738 504.048 168.14 503.06 168.14C502.072 168.14 501.578 168.738 501.578 169.934V179.866C501.578 181.062 502.072 181.66 503.06 181.66ZM514.541 165.8H518.779C520.252 165.8 521.327 166.147 522.003 166.84C522.679 167.516 523.017 168.565 523.017 169.986V171.104C523.017 172.993 522.393 174.189 521.145 174.692V174.744C521.838 174.952 522.323 175.377 522.601 176.018C522.895 176.659 523.043 177.517 523.043 178.592V181.79C523.043 182.31 523.06 182.735 523.095 183.064C523.129 183.376 523.216 183.688 523.355 184H520.443C520.339 183.705 520.269 183.428 520.235 183.168C520.2 182.908 520.183 182.44 520.183 181.764V178.436C520.183 177.604 520.044 177.023 519.767 176.694C519.507 176.365 519.047 176.2 518.389 176.2H517.401V184H514.541V165.8ZM518.441 173.6C519.013 173.6 519.437 173.453 519.715 173.158C520.009 172.863 520.157 172.369 520.157 171.676V170.272C520.157 169.613 520.035 169.137 519.793 168.842C519.567 168.547 519.203 168.4 518.701 168.4H517.401V173.6H518.441ZM525.547 165.8H528.407V184H525.547V165.8ZM531.069 165.8H535.385C536.858 165.8 537.933 166.147 538.609 166.84C539.285 167.516 539.623 168.565 539.623 169.986V170.714C539.623 171.65 539.467 172.413 539.155 173.002C538.86 173.591 538.401 174.016 537.777 174.276V174.328C539.198 174.813 539.909 176.079 539.909 178.124V179.684C539.909 181.088 539.536 182.163 538.791 182.908C538.063 183.636 536.988 184 535.567 184H531.069V165.8ZM535.047 173.21C535.619 173.21 536.043 173.063 536.321 172.768C536.615 172.473 536.763 171.979 536.763 171.286V170.272C536.763 169.613 536.641 169.137 536.399 168.842C536.173 168.547 535.809 168.4 535.307 168.4H533.929V173.21H535.047ZM535.567 181.4C536.069 181.4 536.442 181.27 536.685 181.01C536.927 180.733 537.049 180.265 537.049 179.606V178.02C537.049 177.188 536.901 176.616 536.607 176.304C536.329 175.975 535.861 175.81 535.203 175.81H533.929V181.4H535.567ZM546.261 184.26C544.874 184.26 543.817 183.87 543.089 183.09C542.361 182.293 541.997 181.157 541.997 179.684V165.8H544.857V179.892C544.857 180.516 544.978 180.967 545.221 181.244C545.481 181.521 545.845 181.66 546.313 181.66C546.781 181.66 547.136 181.521 547.379 181.244C547.639 180.967 547.769 180.516 547.769 179.892V165.8H550.525V179.684C550.525 181.157 550.161 182.293 549.433 183.09C548.705 183.87 547.647 184.26 546.261 184.26Z" fill="black"/>
<circle r="4.5" transform="matrix(-1 0 0 1 23.5 277.5)" fill="black"/>
<path d="M31.0106 270H34.2506C35.344 270 36.164 270.293 36.7106 270.88C37.2573 271.467 37.5306 272.327 37.5306 273.46V274.84C37.5306 275.973 37.2573 276.833 36.7106 277.42C36.164 278.007 35.344 278.3 34.2506 278.3H33.2106V284H31.0106V270ZM34.2506 276.3C34.6106 276.3 34.8773 276.2 35.0506 276C35.2373 275.8 35.3306 275.46 35.3306 274.98V273.32C35.3306 272.84 35.2373 272.5 35.0506 272.3C34.8773 272.1 34.6106 272 34.2506 272H33.2106V276.3H34.2506ZM40.1223 270H43.1023L45.3823 284H43.1823L42.7823 281.22V281.26H40.2823L39.8823 284H37.8423L40.1223 270ZM42.5223 279.36L41.5423 272.44H41.5023L40.5423 279.36H42.5223ZM46.8497 270H50.1097C51.243 270 52.0697 270.267 52.5897 270.8C53.1097 271.32 53.3697 272.127 53.3697 273.22V274.08C53.3697 275.533 52.8897 276.453 51.9297 276.84V276.88C52.463 277.04 52.8364 277.367 53.0497 277.86C53.2764 278.353 53.3897 279.013 53.3897 279.84V282.3C53.3897 282.7 53.403 283.027 53.4297 283.28C53.4564 283.52 53.523 283.76 53.6297 284H51.3897C51.3097 283.773 51.2564 283.56 51.2297 283.36C51.203 283.16 51.1897 282.8 51.1897 282.28V279.72C51.1897 279.08 51.083 278.633 50.8697 278.38C50.6697 278.127 50.3164 278 49.8097 278H49.0497V284H46.8497V270ZM49.8497 276C50.2897 276 50.6164 275.887 50.8297 275.66C51.0564 275.433 51.1697 275.053 51.1697 274.52V273.44C51.1697 272.933 51.0764 272.567 50.8897 272.34C50.7164 272.113 50.4364 272 50.0497 272H49.0497V276H49.8497ZM56.997 272H54.697V270H61.497V272H59.197V284H56.997V272ZM62.9622 270H65.7222L67.8622 278.38H67.9022V270H69.8622V284H67.6022L64.9622 273.78H64.9222V284H62.9622V270ZM71.8973 270H77.8973V272H74.0973V275.7H77.1173V277.7H74.0973V282H77.8973V284H71.8973V270ZM79.563 270H82.823C83.9563 270 84.783 270.267 85.303 270.8C85.823 271.32 86.083 272.127 86.083 273.22V274.08C86.083 275.533 85.603 276.453 84.643 276.84V276.88C85.1763 277.04 85.5496 277.367 85.763 277.86C85.9896 278.353 86.103 279.013 86.103 279.84V282.3C86.103 282.7 86.1163 283.027 86.143 283.28C86.1696 283.52 86.2363 283.76 86.343 284H84.103C84.023 283.773 83.9696 283.56 83.943 283.36C83.9163 283.16 83.903 282.8 83.903 282.28V279.72C83.903 279.08 83.7963 278.633 83.583 278.38C83.383 278.127 83.0296 278 82.523 278H81.763V284H79.563V270ZM82.563 276C83.003 276 83.3296 275.887 83.543 275.66C83.7696 275.433 83.883 275.053 83.883 274.52V273.44C83.883 272.933 83.7896 272.567 83.603 272.34C83.4296 272.113 83.1496 272 82.763 272H81.763V276H82.563Z" fill="black"/>
<path d="M30.1906 285.6H86.803V287.2H30.1906V285.6Z" fill="black"/>
<path d="M477.277 50.8H481.645C483.066 50.8 484.132 51.1813 484.843 51.944C485.553 52.7067 485.909 53.8247 485.909 55.298V64.502C485.909 65.9753 485.553 67.0933 484.843 67.856C484.132 68.6187 483.066 69 481.645 69H477.277V50.8ZM481.593 66.4C482.061 66.4 482.416 66.2613 482.659 65.984C482.919 65.7067 483.049 65.256 483.049 64.632V55.168C483.049 54.544 482.919 54.0933 482.659 53.816C482.416 53.5387 482.061 53.4 481.593 53.4H480.137V66.4H481.593ZM488.359 50.8H496.159V53.4H491.219V58.21H495.145V60.81H491.219V66.4H496.159V69H488.359V50.8ZM498.324 50.8H502.692C504.114 50.8 505.18 51.1813 505.89 51.944C506.601 52.7067 506.956 53.8247 506.956 55.298V64.502C506.956 65.9753 506.601 67.0933 505.89 67.856C505.18 68.6187 504.114 69 502.692 69H498.324V50.8ZM502.64 66.4C503.108 66.4 503.464 66.2613 503.706 65.984C503.966 65.7067 504.096 65.256 504.096 64.632V55.168C504.096 54.544 503.966 54.0933 503.706 53.816C503.464 53.5387 503.108 53.4 502.64 53.4H501.184V66.4H502.64ZM509.407 50.8H513.775C515.196 50.8 516.262 51.1813 516.973 51.944C517.684 52.7067 518.039 53.8247 518.039 55.298V64.502C518.039 65.9753 517.684 67.0933 516.973 67.856C516.262 68.6187 515.196 69 513.775 69H509.407V50.8ZM513.723 66.4C514.191 66.4 514.546 66.2613 514.789 65.984C515.049 65.7067 515.179 65.256 515.179 64.632V55.168C515.179 54.544 515.049 54.0933 514.789 53.816C514.546 53.5387 514.191 53.4 513.723 53.4H512.267V66.4H513.723ZM522.658 61.252L519.2 50.8H522.242L524.192 57.482H524.244L526.194 50.8H528.976L525.518 61.252V69H522.658V61.252ZM539.499 69.26C538.13 69.26 537.081 68.87 536.353 68.09C535.642 67.31 535.287 66.2093 535.287 64.788V55.012C535.287 53.5907 535.642 52.49 536.353 51.71C537.081 50.93 538.13 50.54 539.499 50.54C540.868 50.54 541.908 50.93 542.619 51.71C543.347 52.49 543.711 53.5907 543.711 55.012V56.936H541.007V54.83C541.007 53.7033 540.53 53.14 539.577 53.14C538.624 53.14 538.147 53.7033 538.147 54.83V64.996C538.147 66.1053 538.624 66.66 539.577 66.66C540.53 66.66 541.007 66.1053 541.007 64.996V62.214H543.711V64.788C543.711 66.2093 543.347 67.31 542.619 68.09C541.908 68.87 540.868 69.26 539.499 69.26ZM550.127 69.26C548.723 69.26 547.648 68.8613 546.903 68.064C546.157 67.2667 545.785 66.14 545.785 64.684V55.116C545.785 53.66 546.157 52.5333 546.903 51.736C547.648 50.9387 548.723 50.54 550.127 50.54C551.531 50.54 552.605 50.9387 553.351 51.736C554.096 52.5333 554.469 53.66 554.469 55.116V64.684C554.469 66.14 554.096 67.2667 553.351 68.064C552.605 68.8613 551.531 69.26 550.127 69.26ZM550.127 66.66C551.115 66.66 551.609 66.062 551.609 64.866V54.934C551.609 53.738 551.115 53.14 550.127 53.14C549.139 53.14 548.645 53.738 548.645 54.934V64.866C548.645 66.062 549.139 66.66 550.127 66.66ZM556.923 50.8H561.161C562.634 50.8 563.709 51.1467 564.385 51.84C565.061 52.516 565.399 53.5647 565.399 54.986V56.104C565.399 57.9933 564.775 59.1893 563.527 59.692V59.744C564.22 59.952 564.706 60.3767 564.983 61.018C565.278 61.6593 565.425 62.5173 565.425 63.592V66.79C565.425 67.31 565.442 67.7347 565.477 68.064C565.512 68.376 565.598 68.688 565.737 69H562.825C562.721 68.7053 562.652 68.428 562.617 68.168C562.582 67.908 562.565 67.44 562.565 66.764V63.436C562.565 62.604 562.426 62.0233 562.149 61.694C561.889 61.3647 561.43 61.2 560.771 61.2H559.783V69H556.923V50.8ZM560.823 58.6C561.395 58.6 561.82 58.4527 562.097 58.158C562.392 57.8633 562.539 57.3693 562.539 56.676V55.272C562.539 54.6133 562.418 54.1367 562.175 53.842C561.95 53.5473 561.586 53.4 561.083 53.4H559.783V58.6H560.823ZM567.929 50.8H572.245C573.719 50.8 574.793 51.1467 575.469 51.84C576.145 52.516 576.483 53.5647 576.483 54.986V55.714C576.483 56.65 576.327 57.4127 576.015 58.002C575.721 58.5913 575.261 59.016 574.637 59.276V59.328C576.059 59.8133 576.769 61.0787 576.769 63.124V64.684C576.769 66.088 576.397 67.1627 575.651 67.908C574.923 68.636 573.849 69 572.427 69H567.929V50.8ZM571.907 58.21C572.479 58.21 572.904 58.0627 573.181 57.768C573.476 57.4733 573.623 56.9793 573.623 56.286V55.272C573.623 54.6133 573.502 54.1367 573.259 53.842C573.034 53.5473 572.67 53.4 572.167 53.4H570.789V58.21H571.907ZM572.427 66.4C572.93 66.4 573.303 66.27 573.545 66.01C573.788 65.7327 573.909 65.2647 573.909 64.606V63.02C573.909 62.188 573.762 61.616 573.467 61.304C573.19 60.9747 572.722 60.81 572.063 60.81H570.789V66.4H572.427ZM583.121 69.26C581.734 69.26 580.677 68.87 579.949 68.09C579.221 67.2927 578.857 66.1573 578.857 64.684V50.8H581.717V64.892C581.717 65.516 581.838 65.9667 582.081 66.244C582.341 66.5213 582.705 66.66 583.173 66.66C583.641 66.66 583.996 66.5213 584.239 66.244C584.499 65.9667 584.629 65.516 584.629 64.892V50.8H587.385V64.684C587.385 66.1573 587.021 67.2927 586.293 68.09C585.565 68.87 584.508 69.26 583.121 69.26ZM589.37 66.452L594.674 53.4H589.63V50.8H597.742V53.348L592.438 66.4H597.742V69H589.37V66.452ZM599.882 50.8H602.742V69H599.882V50.8ZM605.404 50.8H613.204V53.4H608.264V58.21H612.19V60.81H608.264V66.4H613.204V69H605.404V50.8ZM615.369 50.8H619.607C621.08 50.8 622.155 51.1467 622.831 51.84C623.507 52.516 623.845 53.5647 623.845 54.986V56.104C623.845 57.9933 623.221 59.1893 621.973 59.692V59.744C622.666 59.952 623.152 60.3767 623.429 61.018C623.724 61.6593 623.871 62.5173 623.871 63.592V66.79C623.871 67.31 623.888 67.7347 623.923 68.064C623.958 68.376 624.044 68.688 624.183 69H621.271C621.167 68.7053 621.098 68.428 621.063 68.168C621.028 67.908 621.011 67.44 621.011 66.764V63.436C621.011 62.604 620.872 62.0233 620.595 61.694C620.335 61.3647 619.876 61.2 619.217 61.2H618.229V69H615.369V50.8ZM619.269 58.6C619.841 58.6 620.266 58.4527 620.543 58.158C620.838 57.8633 620.985 57.3693 620.985 56.676V55.272C620.985 54.6133 620.864 54.1367 620.621 53.842C620.396 53.5473 620.032 53.4 619.529 53.4H618.229V58.6H619.269Z" fill="black"/>
</svg>
