<svg width="810" height="472" viewBox="0 0 810 472" fill="none" xmlns="http://www.w3.org/2000/svg">
<rect x="1" y="1" width="362" height="90" rx="9" fill="white" stroke="black" stroke-width="2"/>
<rect x="447" y="269" width="362" height="88" rx="9" fill="white" stroke="black" stroke-width="2"/>
<rect x="447" y="381" width="362" height="90" rx="9" fill="#1FD57D" stroke="black" stroke-width="2"/>
<circle r="4.5" transform="matrix(-1 0 0 1 23.5 22.5)" fill="black"/>
<path d="M31.297 15H33.497V27H37.117V29H31.297V15ZM41.6738 29.2C40.5938 29.2 39.7672 28.8933 39.1938 28.28C38.6205 27.6667 38.3338 26.8 38.3338 25.68V18.32C38.3338 17.2 38.6205 16.3333 39.1938 15.72C39.7672 15.1067 40.5938 14.8 41.6738 14.8C42.7538 14.8 43.5805 15.1067 44.1538 15.72C44.7272 16.3333 45.0138 17.2 45.0138 18.32V25.68C45.0138 26.8 44.7272 27.6667 44.1538 28.28C43.5805 28.8933 42.7538 29.2 41.6738 29.2ZM41.6738 27.2C42.4338 27.2 42.8138 26.74 42.8138 25.82V18.18C42.8138 17.26 42.4338 16.8 41.6738 16.8C40.9138 16.8 40.5338 17.26 40.5338 18.18V25.82C40.5338 26.74 40.9138 27.2 41.6738 27.2ZM50.0016 29.2C48.9483 29.2 48.1416 28.9 47.5816 28.3C47.035 27.7 46.7616 26.8533 46.7616 25.76V18.24C46.7616 17.1467 47.035 16.3 47.5816 15.7C48.1416 15.1 48.9483 14.8 50.0016 14.8C51.055 14.8 51.855 15.1 52.4016 15.7C52.9616 16.3 53.2416 17.1467 53.2416 18.24V19.72H51.1616V18.1C51.1616 17.2333 50.795 16.8 50.0616 16.8C49.3283 16.8 48.9616 17.2333 48.9616 18.1V25.92C48.9616 26.7733 49.3283 27.2 50.0616 27.2C50.795 27.2 51.1616 26.7733 51.1616 25.92V23.78H53.2416V25.76C53.2416 26.8533 52.9616 27.7 52.4016 28.3C51.855 28.9 51.055 29.2 50.0016 29.2ZM56.6579 15H59.6379L61.9179 29H59.7179L59.3179 26.22V26.26H56.8179L56.4179 29H54.3779L56.6579 15ZM59.0579 24.36L58.0779 17.44H58.0379L57.0779 24.36H59.0579ZM64.1873 17H61.8873V15H68.6873V17H66.3873V29H64.1873V17ZM70.1524 15H72.3524V29H70.1524V15ZM77.5801 29.2C76.5001 29.2 75.6734 28.8933 75.1001 28.28C74.5267 27.6667 74.2401 26.8 74.2401 25.68V18.32C74.2401 17.2 74.5267 16.3333 75.1001 15.72C75.6734 15.1067 76.5001 14.8 77.5801 14.8C78.6601 14.8 79.4867 15.1067 80.0601 15.72C80.6334 16.3333 80.9201 17.2 80.9201 18.32V25.68C80.9201 26.8 80.6334 27.6667 80.0601 28.28C79.4867 28.8933 78.6601 29.2 77.5801 29.2ZM77.5801 27.2C78.3401 27.2 78.7201 26.74 78.7201 25.82V18.18C78.7201 17.26 78.3401 16.8 77.5801 16.8C76.8201 16.8 76.4401 17.26 76.4401 18.18V25.82C76.4401 26.74 76.8201 27.2 77.5801 27.2ZM82.8079 15H85.5679L87.7079 23.38H87.7479V15H89.7079V29H87.4479L84.8079 18.78H84.7679V29H82.8079V15Z" fill="black"/>
<path d="M30.477 30.6H90.5279V32.2H30.477V30.6Z" fill="black"/>
<path d="M31.508 50.8H35.824C37.2973 50.8 38.372 51.1467 39.048 51.84C39.724 52.516 40.062 53.5647 40.062 54.986V55.714C40.062 56.65 39.906 57.4127 39.594 58.002C39.2993 58.5913 38.84 59.016 38.216 59.276V59.328C39.6373 59.8133 40.348 61.0787 40.348 63.124V64.684C40.348 66.088 39.9753 67.1627 39.23 67.908C38.502 68.636 37.4273 69 36.006 69H31.508V50.8ZM35.486 58.21C36.058 58.21 36.4827 58.0627 36.76 57.768C37.0547 57.4733 37.202 56.9793 37.202 56.286V55.272C37.202 54.6133 37.0807 54.1367 36.838 53.842C36.6127 53.5473 36.2487 53.4 35.746 53.4H34.368V58.21H35.486ZM36.006 66.4C36.5087 66.4 36.8813 66.27 37.124 66.01C37.3667 65.7327 37.488 65.2647 37.488 64.606V63.02C37.488 62.188 37.3407 61.616 37.046 61.304C36.7687 60.9747 36.3007 60.81 35.642 60.81H34.368V66.4H36.006ZM44.7497 50.8H48.6237L51.5877 69H48.7277L48.2077 65.386V65.438H44.9577L44.4377 69H41.7857L44.7497 50.8ZM47.8697 62.968L46.5957 53.972H46.5437L45.2957 62.968H47.8697ZM53.4953 50.8H57.0833L59.8653 61.694H59.9173V50.8H62.4653V69H59.5273L56.0953 55.714H56.0433V69H53.4953V50.8ZM65.787 69.104C65.267 69.104 64.825 69.0693 64.461 69V66.4C64.7383 66.4693 65.0503 66.504 65.397 66.504C65.969 66.504 66.3936 66.3653 66.671 66.088C66.9483 65.7933 67.087 65.3513 67.087 64.762V50.8H69.947V64.684C69.947 66.1747 69.6003 67.284 68.907 68.012C68.231 68.74 67.191 69.104 65.787 69.104ZM74.671 50.8H78.545L81.509 69H78.649L78.129 65.386V65.438H74.879L74.359 69H71.707L74.671 50.8ZM77.791 62.968L76.517 53.972H76.465L75.217 62.968H77.791ZM83.4166 50.8H87.6546C89.1279 50.8 90.2026 51.1467 90.8786 51.84C91.5546 52.516 91.8926 53.5647 91.8926 54.986V56.104C91.8926 57.9933 91.2686 59.1893 90.0206 59.692V59.744C90.7139 59.952 91.1993 60.3767 91.4766 61.018C91.7713 61.6593 91.9186 62.5173 91.9186 63.592V66.79C91.9186 67.31 91.9359 67.7347 91.9706 68.064C92.0053 68.376 92.0919 68.688 92.2306 69H89.3186C89.2146 68.7053 89.1453 68.428 89.1106 68.168C89.0759 67.908 89.0586 67.44 89.0586 66.764V63.436C89.0586 62.604 88.9199 62.0233 88.6426 61.694C88.3826 61.3647 87.9233 61.2 87.2646 61.2H86.2766V69H83.4166V50.8ZM87.3166 58.6C87.8886 58.6 88.3133 58.4527 88.5906 58.158C88.8853 57.8633 89.0326 57.3693 89.0326 56.676V55.272C89.0326 54.6133 88.9113 54.1367 88.6686 53.842C88.4433 53.5473 88.0793 53.4 87.5766 53.4H86.2766V58.6H87.3166ZM94.4229 50.8H98.5049L100.325 63.826H100.377L102.197 50.8H106.279V69H103.575V55.22H103.523L101.443 69H99.0509L96.9709 55.22H96.9189V69H94.4229V50.8ZM111.143 50.8H115.017L117.981 69H115.121L114.601 65.386V65.438H111.351L110.831 69H108.179L111.143 50.8ZM114.263 62.968L112.989 53.972H112.937L111.689 62.968H114.263ZM123.531 69.26C122.144 69.26 121.095 68.87 120.385 68.09C119.674 67.2927 119.319 66.1573 119.319 64.684V63.644H122.023V64.892C122.023 66.0707 122.517 66.66 123.505 66.66C123.99 66.66 124.354 66.5213 124.597 66.244C124.857 65.9493 124.987 65.4813 124.987 64.84C124.987 64.0773 124.813 63.41 124.467 62.838C124.12 62.2487 123.479 61.5467 122.543 60.732C121.364 59.692 120.541 58.756 120.073 57.924C119.605 57.0747 119.371 56.1213 119.371 55.064C119.371 53.6253 119.735 52.516 120.463 51.736C121.191 50.9387 122.248 50.54 123.635 50.54C125.004 50.54 126.035 50.9387 126.729 51.736C127.439 52.516 127.795 53.6427 127.795 55.116V55.87H125.091V54.934C125.091 54.31 124.969 53.8593 124.727 53.582C124.484 53.2873 124.129 53.14 123.661 53.14C122.707 53.14 122.231 53.7207 122.231 54.882C122.231 55.5407 122.404 56.156 122.751 56.728C123.115 57.3 123.765 57.9933 124.701 58.808C125.897 59.848 126.72 60.7927 127.171 61.642C127.621 62.4913 127.847 63.488 127.847 64.632C127.847 66.1227 127.474 67.2667 126.729 68.064C126.001 68.8613 124.935 69.26 123.531 69.26ZM130.006 50.8H132.866V69H130.006V50.8ZM135.528 50.8H139.116L141.898 61.694H141.95V50.8H144.498V69H141.56L138.128 55.714H138.076V69H135.528V50.8Z" fill="black"/>
<rect x="1" y="119" width="362" height="90" rx="9" fill="white" stroke="black" stroke-width="2"/>
<circle r="4.5" transform="matrix(-1 0 0 1 23.5 142.5)" fill="black"/>
<path d="M30.847 135H34.207C35.3003 135 36.1203 135.293 36.667 135.88C37.2136 136.467 37.487 137.327 37.487 138.46V145.54C37.487 146.673 37.2136 147.533 36.667 148.12C36.1203 148.707 35.3003 149 34.207 149H30.847V135ZM34.167 147C34.527 147 34.8003 146.893 34.987 146.68C35.187 146.467 35.287 146.12 35.287 145.64V138.36C35.287 137.88 35.187 137.533 34.987 137.32C34.8003 137.107 34.527 137 34.167 137H33.047V147H34.167ZM41.0329 135H44.0129L46.2929 149H44.0929L43.6929 146.22V146.26H41.1929L40.7929 149H38.7529L41.0329 135ZM43.4329 144.36L42.4529 137.44H42.4129L41.4529 144.36H43.4329ZM48.5623 137H46.2623V135H53.0623V137H50.7623V149H48.5623V137ZM54.5274 135H60.5274V137H56.7274V140.7H59.7474V142.7H56.7274V147H60.5274V149H54.5274V135Z" fill="black"/>
<path d="M30.027 150.6H60.9674V152.2H30.027V150.6Z" fill="black"/>
<path d="M35.1446 170.116H32.1546V168.088C32.9693 168.088 33.6193 168.019 34.1046 167.88C34.6073 167.741 35.0059 167.516 35.3006 167.204C35.5953 166.875 35.8553 166.407 36.0806 165.8H38.0046V184H35.1446V170.116ZM42.0188 182.024C42.0188 180.724 42.2268 179.615 42.6428 178.696C43.0588 177.76 43.8041 176.729 44.8788 175.602C45.9361 174.475 46.6641 173.513 47.0628 172.716C47.4788 171.919 47.6868 171.087 47.6868 170.22C47.6868 169.44 47.5568 168.903 47.2968 168.608C47.0541 168.296 46.6901 168.14 46.2048 168.14C45.2168 168.14 44.7228 168.738 44.7228 169.934V171.884H42.0188V170.116C42.0188 168.643 42.3828 167.516 43.1108 166.736C43.8388 165.939 44.8961 165.54 46.2828 165.54C47.6694 165.54 48.7268 165.939 49.4548 166.736C50.1828 167.516 50.5468 168.643 50.5468 170.116C50.5468 171.225 50.2781 172.309 49.7408 173.366C49.2208 174.423 48.3108 175.637 47.0108 177.006C46.1614 177.907 45.5894 178.644 45.2948 179.216C45.0001 179.771 44.8528 180.369 44.8528 181.01V181.4H50.2868V184H42.0188V182.024ZM57.685 165.8H61.273L64.055 176.694H64.107V165.8H66.655V184H63.717L60.285 170.714H60.233V184H57.685V165.8ZM73.4347 184.26C72.0307 184.26 70.956 183.861 70.2107 183.064C69.4654 182.267 69.0927 181.14 69.0927 179.684V170.116C69.0927 168.66 69.4654 167.533 70.2107 166.736C70.956 165.939 72.0307 165.54 73.4347 165.54C74.8387 165.54 75.9134 165.939 76.6587 166.736C77.404 167.533 77.7767 168.66 77.7767 170.116V179.684C77.7767 181.14 77.404 182.267 76.6587 183.064C75.9134 183.861 74.8387 184.26 73.4347 184.26ZM73.4347 181.66C74.4227 181.66 74.9167 181.062 74.9167 179.866V169.934C74.9167 168.738 74.4227 168.14 73.4347 168.14C72.4467 168.14 71.9527 168.738 71.9527 169.934V179.866C71.9527 181.062 72.4467 181.66 73.4347 181.66ZM79.4261 165.8H82.3121L84.1841 179.918H84.2361L86.1081 165.8H88.7341L85.9781 184H82.1821L79.4261 165.8ZM90.6278 165.8H98.4278V168.4H93.4878V173.21H97.4138V175.81H93.4878V181.4H98.4278V184H90.6278V165.8ZM100.593 165.8H104.675L106.495 178.826H106.547L108.367 165.8H112.449V184H109.745V170.22H109.693L107.613 184H105.221L103.141 170.22H103.089V184H100.593V165.8ZM115.103 165.8H119.419C120.893 165.8 121.967 166.147 122.643 166.84C123.319 167.516 123.657 168.565 123.657 169.986V170.714C123.657 171.65 123.501 172.413 123.189 173.002C122.895 173.591 122.435 174.016 121.811 174.276V174.328C123.233 174.813 123.943 176.079 123.943 178.124V179.684C123.943 181.088 123.571 182.163 122.825 182.908C122.097 183.636 121.023 184 119.601 184H115.103V165.8ZM119.081 173.21C119.653 173.21 120.078 173.063 120.355 172.768C120.65 172.473 120.797 171.979 120.797 171.286V170.272C120.797 169.613 120.676 169.137 120.433 168.842C120.208 168.547 119.844 168.4 119.341 168.4H117.963V173.21H119.081ZM119.601 181.4C120.104 181.4 120.477 181.27 120.719 181.01C120.962 180.733 121.083 180.265 121.083 179.606V178.02C121.083 177.188 120.936 176.616 120.641 176.304C120.364 175.975 119.896 175.81 119.237 175.81H117.963V181.4H119.601ZM126.135 165.8H133.935V168.4H128.995V173.21H132.921V175.81H128.995V181.4H133.935V184H126.135V165.8ZM136.1 165.8H140.338C141.812 165.8 142.886 166.147 143.562 166.84C144.238 167.516 144.576 168.565 144.576 169.986V171.104C144.576 172.993 143.952 174.189 142.704 174.692V174.744C143.398 174.952 143.883 175.377 144.16 176.018C144.455 176.659 144.602 177.517 144.602 178.592V181.79C144.602 182.31 144.62 182.735 144.654 183.064C144.689 183.376 144.776 183.688 144.914 184H142.002C141.898 183.705 141.829 183.428 141.794 183.168C141.76 182.908 141.742 182.44 141.742 181.764V178.436C141.742 177.604 141.604 177.023 141.326 176.694C141.066 176.365 140.607 176.2 139.948 176.2H138.96V184H136.1V165.8ZM140 173.6C140.572 173.6 140.997 173.453 141.274 173.158C141.569 172.863 141.716 172.369 141.716 171.676V170.272C141.716 169.613 141.595 169.137 141.352 168.842C141.127 168.547 140.763 168.4 140.26 168.4H138.96V173.6H140ZM151.739 182.024C151.739 180.724 151.947 179.615 152.363 178.696C152.779 177.76 153.524 176.729 154.599 175.602C155.656 174.475 156.384 173.513 156.783 172.716C157.199 171.919 157.407 171.087 157.407 170.22C157.407 169.44 157.277 168.903 157.017 168.608C156.774 168.296 156.41 168.14 155.925 168.14C154.937 168.14 154.443 168.738 154.443 169.934V171.884H151.739V170.116C151.739 168.643 152.103 167.516 152.831 166.736C153.559 165.939 154.616 165.54 156.003 165.54C157.389 165.54 158.447 165.939 159.175 166.736C159.903 167.516 160.267 168.643 160.267 170.116C160.267 171.225 159.998 172.309 159.461 173.366C158.941 174.423 158.031 175.637 156.731 177.006C155.881 177.907 155.309 178.644 155.015 179.216C154.72 179.771 154.573 180.369 154.573 181.01V181.4H160.007V184H151.739V182.024ZM166.855 184.26C165.451 184.26 164.376 183.861 163.631 183.064C162.886 182.267 162.513 181.14 162.513 179.684V170.116C162.513 168.66 162.886 167.533 163.631 166.736C164.376 165.939 165.451 165.54 166.855 165.54C168.259 165.54 169.334 165.939 170.079 166.736C170.824 167.533 171.197 168.66 171.197 170.116V179.684C171.197 181.14 170.824 182.267 170.079 183.064C169.334 183.861 168.259 184.26 166.855 184.26ZM166.855 181.66C167.843 181.66 168.337 181.062 168.337 179.866V169.934C168.337 168.738 167.843 168.14 166.855 168.14C165.867 168.14 165.373 168.738 165.373 169.934V179.866C165.373 181.062 165.867 181.66 166.855 181.66ZM173.599 182.024C173.599 180.724 173.807 179.615 174.223 178.696C174.639 177.76 175.384 176.729 176.459 175.602C177.516 174.475 178.244 173.513 178.643 172.716C179.059 171.919 179.267 171.087 179.267 170.22C179.267 169.44 179.137 168.903 178.877 168.608C178.634 168.296 178.27 168.14 177.785 168.14C176.797 168.14 176.303 168.738 176.303 169.934V171.884H173.599V170.116C173.599 168.643 173.963 167.516 174.691 166.736C175.419 165.939 176.476 165.54 177.863 165.54C179.25 165.54 180.307 165.939 181.035 166.736C181.763 167.516 182.127 168.643 182.127 170.116C182.127 171.225 181.858 172.309 181.321 173.366C180.801 174.423 179.891 175.637 178.591 177.006C177.742 177.907 177.17 178.644 176.875 179.216C176.58 179.771 176.433 180.369 176.433 181.01V181.4H181.867V184H173.599V182.024ZM184.529 182.024C184.529 180.724 184.737 179.615 185.153 178.696C185.569 177.76 186.315 176.729 187.389 175.602C188.447 174.475 189.175 173.513 189.573 172.716C189.989 171.919 190.197 171.087 190.197 170.22C190.197 169.44 190.067 168.903 189.807 168.608C189.565 168.296 189.201 168.14 188.715 168.14C187.727 168.14 187.233 168.738 187.233 169.934V171.884H184.529V170.116C184.529 168.643 184.893 167.516 185.621 166.736C186.349 165.939 187.407 165.54 188.793 165.54C190.18 165.54 191.237 165.939 191.965 166.736C192.693 167.516 193.057 168.643 193.057 170.116C193.057 171.225 192.789 172.309 192.251 173.366C191.731 174.423 190.821 175.637 189.521 177.006C188.672 177.907 188.1 178.644 187.805 179.216C187.511 179.771 187.363 180.369 187.363 181.01V181.4H192.797V184H184.529V182.024Z" fill="black"/>
<path d="M584.078 301.8H588.29C589.711 301.8 590.777 302.181 591.488 302.944C592.199 303.707 592.554 304.825 592.554 306.298V308.092C592.554 309.565 592.199 310.683 591.488 311.446C590.777 312.209 589.711 312.59 588.29 312.59H586.938V320H584.078V301.8ZM588.29 309.99C588.758 309.99 589.105 309.86 589.33 309.6C589.573 309.34 589.694 308.898 589.694 308.274V306.116C589.694 305.492 589.573 305.05 589.33 304.79C589.105 304.53 588.758 304.4 588.29 304.4H586.938V309.99H588.29ZM594.627 301.8H598.865C600.339 301.8 601.413 302.147 602.089 302.84C602.765 303.516 603.103 304.565 603.103 305.986V307.104C603.103 308.993 602.479 310.189 601.231 310.692V310.744C601.925 310.952 602.41 311.377 602.687 312.018C602.982 312.659 603.129 313.517 603.129 314.592V317.79C603.129 318.31 603.147 318.735 603.181 319.064C603.216 319.376 603.303 319.688 603.441 320H600.529C600.425 319.705 600.356 319.428 600.321 319.168C600.287 318.908 600.269 318.44 600.269 317.764V314.436C600.269 313.604 600.131 313.023 599.853 312.694C599.593 312.365 599.134 312.2 598.475 312.2H597.487V320H594.627V301.8ZM598.527 309.6C599.099 309.6 599.524 309.453 599.801 309.158C600.096 308.863 600.243 308.369 600.243 307.676V306.272C600.243 305.613 600.122 305.137 599.879 304.842C599.654 304.547 599.29 304.4 598.787 304.4H597.487V309.6H598.527ZM609.768 320.26C608.364 320.26 607.289 319.861 606.544 319.064C605.798 318.267 605.426 317.14 605.426 315.684V306.116C605.426 304.66 605.798 303.533 606.544 302.736C607.289 301.939 608.364 301.54 609.768 301.54C611.172 301.54 612.246 301.939 612.992 302.736C613.737 303.533 614.11 304.66 614.11 306.116V315.684C614.11 317.14 613.737 318.267 612.992 319.064C612.246 319.861 611.172 320.26 609.768 320.26ZM609.768 317.66C610.756 317.66 611.25 317.062 611.25 315.866V305.934C611.25 304.738 610.756 304.14 609.768 304.14C608.78 304.14 608.286 304.738 608.286 305.934V315.866C608.286 317.062 608.78 317.66 609.768 317.66ZM616.564 301.8H620.776C622.197 301.8 623.263 302.181 623.974 302.944C624.684 303.707 625.04 304.825 625.04 306.298V308.092C625.04 309.565 624.684 310.683 623.974 311.446C623.263 312.209 622.197 312.59 620.776 312.59H619.424V320H616.564V301.8ZM620.776 309.99C621.244 309.99 621.59 309.86 621.816 309.6C622.058 309.34 622.18 308.898 622.18 308.274V306.116C622.18 305.492 622.058 305.05 621.816 304.79C621.59 304.53 621.244 304.4 620.776 304.4H619.424V309.99H620.776ZM631.247 320.26C629.843 320.26 628.768 319.861 628.023 319.064C627.278 318.267 626.905 317.14 626.905 315.684V306.116C626.905 304.66 627.278 303.533 628.023 302.736C628.768 301.939 629.843 301.54 631.247 301.54C632.651 301.54 633.726 301.939 634.471 302.736C635.216 303.533 635.589 304.66 635.589 306.116V315.684C635.589 317.14 635.216 318.267 634.471 319.064C633.726 319.861 632.651 320.26 631.247 320.26ZM631.247 317.66C632.235 317.66 632.729 317.062 632.729 315.866V305.934C632.729 304.738 632.235 304.14 631.247 304.14C630.259 304.14 629.765 304.738 629.765 305.934V315.866C629.765 317.062 630.259 317.66 631.247 317.66ZM641.761 320.26C640.375 320.26 639.326 319.87 638.615 319.09C637.905 318.293 637.549 317.157 637.549 315.684V314.644H640.253V315.892C640.253 317.071 640.747 317.66 641.735 317.66C642.221 317.66 642.585 317.521 642.827 317.244C643.087 316.949 643.217 316.481 643.217 315.84C643.217 315.077 643.044 314.41 642.697 313.838C642.351 313.249 641.709 312.547 640.773 311.732C639.595 310.692 638.771 309.756 638.303 308.924C637.835 308.075 637.601 307.121 637.601 306.064C637.601 304.625 637.965 303.516 638.693 302.736C639.421 301.939 640.479 301.54 641.865 301.54C643.235 301.54 644.266 301.939 644.959 302.736C645.67 303.516 646.025 304.643 646.025 306.116V306.87H643.321V305.934C643.321 305.31 643.2 304.859 642.957 304.582C642.715 304.287 642.359 304.14 641.891 304.14C640.938 304.14 640.461 304.721 640.461 305.882C640.461 306.541 640.635 307.156 640.981 307.728C641.345 308.3 641.995 308.993 642.931 309.808C644.127 310.848 644.951 311.793 645.401 312.642C645.852 313.491 646.077 314.488 646.077 315.632C646.077 317.123 645.705 318.267 644.959 319.064C644.231 319.861 643.165 320.26 641.761 320.26ZM650.371 301.8H654.245L657.209 320H654.349L653.829 316.386V316.438H650.579L650.059 320H647.407L650.371 301.8ZM653.491 313.968L652.217 304.972H652.165L650.917 313.968H653.491ZM659.116 301.8H661.976V317.4H666.682V320H659.116V301.8Z" fill="black"/>
<path d="M600.255 409.26C598.885 409.26 597.837 408.87 597.109 408.09C596.398 407.31 596.043 406.209 596.043 404.788V395.012C596.043 393.591 596.398 392.49 597.109 391.71C597.837 390.93 598.885 390.54 600.255 390.54C601.624 390.54 602.664 390.93 603.375 391.71C604.103 392.49 604.467 393.591 604.467 395.012V396.936H601.763V394.83C601.763 393.703 601.286 393.14 600.333 393.14C599.379 393.14 598.903 393.703 598.903 394.83V404.996C598.903 406.105 599.379 406.66 600.333 406.66C601.286 406.66 601.763 406.105 601.763 404.996V402.214H604.467V404.788C604.467 406.209 604.103 407.31 603.375 408.09C602.664 408.87 601.624 409.26 600.255 409.26ZM608.908 390.8H612.782L615.746 409H612.886L612.366 405.386V405.438H609.116L608.596 409H605.944L608.908 390.8ZM612.028 402.968L610.754 393.972H610.702L609.454 402.968H612.028ZM617.653 390.8H620.513V406.4H625.219V409H617.653V390.8ZM627.111 390.8H629.971V406.4H634.677V409H627.111V390.8ZM645.412 409.26C644.026 409.26 642.968 408.87 642.24 408.09C641.512 407.293 641.148 406.157 641.148 404.684V390.8H644.008V404.892C644.008 405.516 644.13 405.967 644.372 406.244C644.632 406.521 644.996 406.66 645.464 406.66C645.932 406.66 646.288 406.521 646.53 406.244C646.79 405.967 646.92 405.516 646.92 404.892V390.8H649.676V404.684C649.676 406.157 649.312 407.293 648.584 408.09C647.856 408.87 646.799 409.26 645.412 409.26ZM655.951 409.26C654.565 409.26 653.516 408.87 652.805 408.09C652.095 407.293 651.739 406.157 651.739 404.684V403.644H654.443V404.892C654.443 406.071 654.937 406.66 655.925 406.66C656.411 406.66 656.775 406.521 657.017 406.244C657.277 405.949 657.407 405.481 657.407 404.84C657.407 404.077 657.234 403.41 656.887 402.838C656.541 402.249 655.899 401.547 654.963 400.732C653.785 399.692 652.961 398.756 652.493 397.924C652.025 397.075 651.791 396.121 651.791 395.064C651.791 393.625 652.155 392.516 652.883 391.736C653.611 390.939 654.669 390.54 656.055 390.54C657.425 390.54 658.456 390.939 659.149 391.736C659.86 392.516 660.215 393.643 660.215 395.116V395.87H657.511V394.934C657.511 394.31 657.39 393.859 657.147 393.582C656.905 393.287 656.549 393.14 656.081 393.14C655.128 393.14 654.651 393.721 654.651 394.882C654.651 395.541 654.825 396.156 655.171 396.728C655.535 397.3 656.185 397.993 657.121 398.808C658.317 399.848 659.141 400.793 659.591 401.642C660.042 402.491 660.267 403.488 660.267 404.632C660.267 406.123 659.895 407.267 659.149 408.064C658.421 408.861 657.355 409.26 655.951 409.26Z" fill="black"/>
<path d="M521.071 430.8H525.309C526.782 430.8 527.857 431.147 528.533 431.84C529.209 432.516 529.547 433.565 529.547 434.986V436.104C529.547 437.993 528.923 439.189 527.675 439.692V439.744C528.368 439.952 528.854 440.377 529.131 441.018C529.426 441.659 529.573 442.517 529.573 443.592V446.79C529.573 447.31 529.59 447.735 529.625 448.064C529.66 448.376 529.746 448.688 529.885 449H526.973C526.869 448.705 526.8 448.428 526.765 448.168C526.73 447.908 526.713 447.44 526.713 446.764V443.436C526.713 442.604 526.574 442.023 526.297 441.694C526.037 441.365 525.578 441.2 524.919 441.2H523.931V449H521.071V430.8ZM524.971 438.6C525.543 438.6 525.968 438.453 526.245 438.158C526.54 437.863 526.687 437.369 526.687 436.676V435.272C526.687 434.613 526.566 434.137 526.323 433.842C526.098 433.547 525.734 433.4 525.231 433.4H523.931V438.6H524.971ZM536.211 449.26C534.807 449.26 533.733 448.861 532.987 448.064C532.242 447.267 531.869 446.14 531.869 444.684V435.116C531.869 433.66 532.242 432.533 532.987 431.736C533.733 430.939 534.807 430.54 536.211 430.54C537.615 430.54 538.69 430.939 539.435 431.736C540.181 432.533 540.553 433.66 540.553 435.116V444.684C540.553 446.14 540.181 447.267 539.435 448.064C538.69 448.861 537.615 449.26 536.211 449.26ZM536.211 446.66C537.199 446.66 537.693 446.062 537.693 444.866V434.934C537.693 433.738 537.199 433.14 536.211 433.14C535.223 433.14 534.729 433.738 534.729 434.934V444.866C534.729 446.062 535.223 446.66 536.211 446.66ZM543.007 430.8H545.867V438.21H548.935V430.8H551.795V449H548.935V440.81H545.867V449H543.007V430.8ZM554.445 430.8H562.245V433.4H557.305V438.21H561.231V440.81H557.305V446.4H562.245V449H554.445V430.8ZM564.411 430.8H567.999L570.781 441.694H570.833V430.8H573.381V449H570.443L567.011 435.714H566.959V449H564.411V430.8ZM576.026 430.8H580.394C581.816 430.8 582.882 431.181 583.592 431.944C584.303 432.707 584.658 433.825 584.658 435.298V444.502C584.658 445.975 584.303 447.093 583.592 447.856C582.882 448.619 581.816 449 580.394 449H576.026V430.8ZM580.342 446.4C580.81 446.4 581.166 446.261 581.408 445.984C581.668 445.707 581.798 445.256 581.798 444.632V435.168C581.798 434.544 581.668 434.093 581.408 433.816C581.166 433.539 580.81 433.4 580.342 433.4H578.886V446.4H580.342ZM587.109 430.8H589.969V449H587.109V430.8ZM597.315 436.338H600.071V439.094H597.315V436.338ZM597.315 446.244H600.071V449H597.315V446.244ZM611.553 449.26C610.149 449.26 609.075 448.861 608.329 448.064C607.584 447.267 607.211 446.14 607.211 444.684V435.116C607.211 433.66 607.584 432.533 608.329 431.736C609.075 430.939 610.149 430.54 611.553 430.54C612.957 430.54 614.032 430.939 614.777 431.736C615.523 432.533 615.895 433.66 615.895 435.116V444.684C615.895 446.14 615.523 447.267 614.777 448.064C614.032 448.861 612.957 449.26 611.553 449.26ZM611.553 446.66C612.541 446.66 613.035 446.062 613.035 444.866V434.934C613.035 433.738 612.541 433.14 611.553 433.14C610.565 433.14 610.071 433.738 610.071 434.934V444.866C610.071 446.062 610.565 446.66 611.553 446.66ZM622.483 449.26C621.045 449.26 619.935 448.879 619.155 448.116C618.393 447.336 618.011 446.218 618.011 444.762V443.15C618.011 442.249 618.159 441.495 618.453 440.888C618.748 440.264 619.225 439.779 619.883 439.432V439.38C619.277 439.051 618.826 438.6 618.531 438.028C618.254 437.439 618.115 436.693 618.115 435.792V435.038C618.115 433.582 618.488 432.473 619.233 431.71C619.996 430.93 621.079 430.54 622.483 430.54C623.887 430.54 624.962 430.93 625.707 431.71C626.47 432.473 626.851 433.582 626.851 435.038V435.792C626.851 437.525 626.262 438.721 625.083 439.38V439.432C625.742 439.779 626.219 440.264 626.513 440.888C626.808 441.495 626.955 442.249 626.955 443.15V444.762C626.955 446.218 626.565 447.336 625.785 448.116C625.023 448.879 623.922 449.26 622.483 449.26ZM622.483 438.21C623.489 438.21 623.991 437.603 623.991 436.39V434.96C623.991 433.747 623.489 433.14 622.483 433.14C621.478 433.14 620.975 433.747 620.975 434.96V436.39C620.975 437.603 621.478 438.21 622.483 438.21ZM622.483 446.66C623.558 446.66 624.095 445.975 624.095 444.606V442.864C624.095 441.495 623.558 440.81 622.483 440.81C621.409 440.81 620.871 441.495 620.871 442.864V444.606C620.871 445.975 621.409 446.66 622.483 446.66ZM633.284 435.116H630.294V433.088C631.108 433.088 631.758 433.019 632.244 432.88C632.746 432.741 633.145 432.516 633.44 432.204C633.734 431.875 633.994 431.407 634.22 430.8H636.144V449H633.284V435.116ZM640.158 447.024C640.158 445.724 640.366 444.615 640.782 443.696C641.198 442.76 641.943 441.729 643.018 440.602C644.075 439.475 644.803 438.513 645.202 437.716C645.618 436.919 645.826 436.087 645.826 435.22C645.826 434.44 645.696 433.903 645.436 433.608C645.193 433.296 644.829 433.14 644.344 433.14C643.356 433.14 642.862 433.738 642.862 434.934V436.884H640.158V435.116C640.158 433.643 640.522 432.516 641.25 431.736C641.978 430.939 643.035 430.54 644.422 430.54C645.808 430.54 646.866 430.939 647.594 431.736C648.322 432.516 648.686 433.643 648.686 435.116C648.686 436.225 648.417 437.309 647.88 438.366C647.36 439.423 646.45 440.637 645.15 442.006C644.3 442.907 643.728 443.644 643.434 444.216C643.139 444.771 642.992 445.369 642.992 446.01V446.4H648.426V449H640.158V447.024ZM655.326 449.26C653.939 449.26 652.882 448.87 652.154 448.09C651.426 447.293 651.062 446.157 651.062 444.684V443.254H653.766V444.892C653.766 446.071 654.26 446.66 655.248 446.66C656.236 446.66 656.73 446.071 656.73 444.892V440.81C656.73 439.614 656.236 439.016 655.248 439.016C654.26 439.016 653.766 439.614 653.766 440.81V440.966H651.062L651.582 430.8H659.122V433.4H654.13L653.896 437.742H653.948C654.485 436.858 655.309 436.416 656.418 436.416C657.458 436.416 658.247 436.771 658.784 437.482C659.321 438.193 659.59 439.224 659.59 440.576V444.684C659.59 446.157 659.226 447.293 658.498 448.09C657.77 448.87 656.713 449.26 655.326 449.26ZM666.282 449.26C664.878 449.26 663.803 448.861 663.058 448.064C662.313 447.267 661.94 446.14 661.94 444.684V435.272C661.94 432.117 663.396 430.54 666.308 430.54C667.695 430.54 668.752 430.939 669.48 431.736C670.208 432.516 670.572 433.643 670.572 435.116V435.454H667.868V434.934C667.868 433.738 667.374 433.14 666.386 433.14C665.849 433.14 665.45 433.305 665.19 433.634C664.93 433.963 664.8 434.544 664.8 435.376V438.86H664.852C665.355 437.803 666.221 437.274 667.452 437.274C668.492 437.274 669.281 437.629 669.818 438.34C670.355 439.051 670.624 440.082 670.624 441.434V444.684C670.624 446.14 670.251 447.267 669.506 448.064C668.761 448.861 667.686 449.26 666.282 449.26ZM666.282 446.66C667.27 446.66 667.764 446.071 667.764 444.892V441.668C667.764 440.472 667.27 439.874 666.282 439.874C665.294 439.874 664.8 440.472 664.8 441.668V444.892C664.8 446.071 665.294 446.66 666.282 446.66ZM677.784 445.698H672.324V443.098L677.524 430.8H680.644V443.098H681.996V445.698H680.644V449H677.784V445.698ZM677.784 443.098V436H677.732L674.924 443.098H677.784ZM687.986 449.26C686.582 449.26 685.516 448.87 684.788 448.09C684.078 447.31 683.722 446.192 683.722 444.736V443.254H686.426V444.866C686.426 446.062 686.92 446.66 687.908 446.66C688.394 446.66 688.758 446.513 689 446.218C689.26 445.906 689.39 445.369 689.39 444.606V443.124C689.39 442.292 689.243 441.703 688.948 441.356C688.654 440.992 688.177 440.81 687.518 440.81H686.556V438.21H687.596C688.168 438.21 688.593 438.063 688.87 437.768C689.165 437.473 689.312 436.979 689.312 436.286V434.96C689.312 434.336 689.182 433.877 688.922 433.582C688.662 433.287 688.316 433.14 687.882 433.14C686.964 433.14 686.504 433.703 686.504 434.83V436.026H683.8V435.064C683.8 433.608 684.156 432.49 684.866 431.71C685.594 430.93 686.634 430.54 687.986 430.54C689.356 430.54 690.396 430.93 691.106 431.71C691.817 432.473 692.172 433.582 692.172 435.038V435.688C692.172 436.676 692.008 437.473 691.678 438.08C691.349 438.669 690.838 439.094 690.144 439.354V439.406C690.89 439.683 691.427 440.134 691.756 440.758C692.086 441.382 692.25 442.179 692.25 443.15V444.762C692.25 446.218 691.886 447.336 691.158 448.116C690.448 448.879 689.39 449.26 687.986 449.26ZM694.809 447.024C694.809 445.724 695.017 444.615 695.433 443.696C695.849 442.76 696.594 441.729 697.669 440.602C698.726 439.475 699.454 438.513 699.853 437.716C700.269 436.919 700.477 436.087 700.477 435.22C700.477 434.44 700.347 433.903 700.087 433.608C699.844 433.296 699.48 433.14 698.995 433.14C698.007 433.14 697.513 433.738 697.513 434.934V436.884H694.809V435.116C694.809 433.643 695.173 432.516 695.901 431.736C696.629 430.939 697.686 430.54 699.073 430.54C700.459 430.54 701.517 430.939 702.245 431.736C702.973 432.516 703.337 433.643 703.337 435.116C703.337 436.225 703.068 437.309 702.531 438.366C702.011 439.423 701.101 440.637 699.801 442.006C698.951 442.907 698.379 443.644 698.085 444.216C697.79 444.771 697.643 445.369 697.643 446.01V446.4H703.077V449H694.809V447.024ZM709.795 435.116H706.805V433.088C707.619 433.088 708.269 433.019 708.755 432.88C709.257 432.741 709.656 432.516 709.951 432.204C710.245 431.875 710.505 431.407 710.731 430.8H712.655V449H709.795V435.116ZM720.777 449.26C719.373 449.26 718.307 448.87 717.579 448.09C716.868 447.31 716.513 446.192 716.513 444.736V443.254H719.217V444.866C719.217 446.062 719.711 446.66 720.699 446.66C721.184 446.66 721.548 446.513 721.791 446.218C722.051 445.906 722.181 445.369 722.181 444.606V443.124C722.181 442.292 722.034 441.703 721.739 441.356C721.444 440.992 720.968 440.81 720.309 440.81H719.347V438.21H720.387C720.959 438.21 721.384 438.063 721.661 437.768C721.956 437.473 722.103 436.979 722.103 436.286V434.96C722.103 434.336 721.973 433.877 721.713 433.582C721.453 433.287 721.106 433.14 720.673 433.14C719.754 433.14 719.295 433.703 719.295 434.83V436.026H716.591V435.064C716.591 433.608 716.946 432.49 717.657 431.71C718.385 430.93 719.425 430.54 720.777 430.54C722.146 430.54 723.186 430.93 723.897 431.71C724.608 432.473 724.963 433.582 724.963 435.038V435.688C724.963 436.676 724.798 437.473 724.469 438.08C724.14 438.669 723.628 439.094 722.935 439.354V439.406C723.68 439.683 724.218 440.134 724.547 440.758C724.876 441.382 725.041 442.179 725.041 443.15V444.762C725.041 446.218 724.677 447.336 723.949 448.116C723.238 448.879 722.181 449.26 720.777 449.26ZM731.707 449.26C730.303 449.26 729.237 448.87 728.509 448.09C727.798 447.31 727.443 446.192 727.443 444.736V443.254H730.147V444.866C730.147 446.062 730.641 446.66 731.629 446.66C732.114 446.66 732.478 446.513 732.721 446.218C732.981 445.906 733.111 445.369 733.111 444.606V443.124C733.111 442.292 732.964 441.703 732.669 441.356C732.374 440.992 731.898 440.81 731.239 440.81H730.277V438.21H731.317C731.889 438.21 732.314 438.063 732.591 437.768C732.886 437.473 733.033 436.979 733.033 436.286V434.96C733.033 434.336 732.903 433.877 732.643 433.582C732.383 433.287 732.036 433.14 731.603 433.14C730.684 433.14 730.225 433.703 730.225 434.83V436.026H727.521V435.064C727.521 433.608 727.876 432.49 728.587 431.71C729.315 430.93 730.355 430.54 731.707 430.54C733.076 430.54 734.116 430.93 734.827 431.71C735.538 432.473 735.893 433.582 735.893 435.038V435.688C735.893 436.676 735.728 437.473 735.399 438.08C735.07 438.669 734.558 439.094 733.865 439.354V439.406C734.61 439.683 735.148 440.134 735.477 440.758C735.806 441.382 735.971 442.179 735.971 443.15V444.762C735.971 446.218 735.607 447.336 734.879 448.116C734.168 448.879 733.111 449.26 731.707 449.26Z" fill="black"/>
<rect x="447" y="1" width="362" height="90" rx="9" fill="white" stroke="black" stroke-width="2"/>
<rect x="1" y="252" width="362" height="219" rx="9" fill="white" stroke="black" stroke-width="2"/>
<circle r="4.5" transform="matrix(-1 0 0 1 469.5 22.5)" fill="black"/>
<path d="M480.274 30.2C479.207 30.2 478.394 29.9 477.834 29.3C477.274 28.6867 476.994 27.8133 476.994 26.68V19.32C476.994 18.1867 477.274 17.32 477.834 16.72C478.394 16.1067 479.207 15.8 480.274 15.8C481.341 15.8 482.154 16.1067 482.714 16.72C483.274 17.32 483.554 18.1867 483.554 19.32V20.52H481.474V19.18C481.474 18.26 481.094 17.8 480.334 17.8C479.574 17.8 479.194 18.26 479.194 19.18V26.84C479.194 27.7467 479.574 28.2 480.334 28.2C481.094 28.2 481.474 27.7467 481.474 26.84V24.1H480.374V22.1H483.554V26.68C483.554 27.8133 483.274 28.6867 482.714 29.3C482.154 29.9 481.341 30.2 480.274 30.2ZM488.566 30.2C487.5 30.2 486.686 29.9 486.126 29.3C485.566 28.6867 485.286 27.8133 485.286 26.68V16H487.486V26.84C487.486 27.32 487.58 27.6667 487.766 27.88C487.966 28.0933 488.246 28.2 488.606 28.2C488.966 28.2 489.24 28.0933 489.426 27.88C489.626 27.6667 489.726 27.32 489.726 26.84V16H491.846V26.68C491.846 27.8133 491.566 28.6867 491.006 29.3C490.446 29.9 489.633 30.2 488.566 30.2ZM493.813 16H499.813V18H496.013V21.7H499.033V23.7H496.013V28H499.813V30H493.813V16ZM504.378 30.2C503.311 30.2 502.505 29.9 501.958 29.3C501.411 28.6867 501.138 27.8133 501.138 26.68V25.88H503.218V26.84C503.218 27.7467 503.598 28.2 504.358 28.2C504.731 28.2 505.011 28.0933 505.198 27.88C505.398 27.6533 505.498 27.2933 505.498 26.8C505.498 26.2133 505.365 25.7 505.098 25.26C504.831 24.8067 504.338 24.2667 503.618 23.64C502.711 22.84 502.078 22.12 501.718 21.48C501.358 20.8267 501.178 20.0933 501.178 19.28C501.178 18.1733 501.458 17.32 502.018 16.72C502.578 16.1067 503.391 15.8 504.458 15.8C505.511 15.8 506.305 16.1067 506.838 16.72C507.385 17.32 507.658 18.1867 507.658 19.32V19.9H505.578V19.18C505.578 18.7 505.485 18.3533 505.298 18.14C505.111 17.9133 504.838 17.8 504.478 17.8C503.745 17.8 503.378 18.2467 503.378 19.14C503.378 19.6467 503.511 20.12 503.778 20.56C504.058 21 504.558 21.5333 505.278 22.16C506.198 22.96 506.831 23.6867 507.178 24.34C507.525 24.9933 507.698 25.76 507.698 26.64C507.698 27.7867 507.411 28.6667 506.838 29.28C506.278 29.8933 505.458 30.2 504.378 30.2ZM511.079 18H508.779V16H515.579V18H513.279V30H511.079V18ZM519.905 30.2C518.838 30.2 518.031 29.9 517.485 29.3C516.938 28.6867 516.665 27.8133 516.665 26.68V25.88H518.745V26.84C518.745 27.7467 519.125 28.2 519.885 28.2C520.258 28.2 520.538 28.0933 520.725 27.88C520.925 27.6533 521.025 27.2933 521.025 26.8C521.025 26.2133 520.891 25.7 520.625 25.26C520.358 24.8067 519.865 24.2667 519.145 23.64C518.238 22.84 517.605 22.12 517.245 21.48C516.885 20.8267 516.705 20.0933 516.705 19.28C516.705 18.1733 516.985 17.32 517.545 16.72C518.105 16.1067 518.918 15.8 519.985 15.8C521.038 15.8 521.831 16.1067 522.365 16.72C522.911 17.32 523.185 18.1867 523.185 19.32V19.9H521.105V19.18C521.105 18.7 521.011 18.3533 520.825 18.14C520.638 17.9133 520.365 17.8 520.005 17.8C519.271 17.8 518.905 18.2467 518.905 19.14C518.905 19.6467 519.038 20.12 519.305 20.56C519.585 21 520.085 21.5333 520.805 22.16C521.725 22.96 522.358 23.6867 522.705 24.34C523.051 24.9933 523.225 25.76 523.225 26.64C523.225 27.7867 522.938 28.6667 522.365 29.28C521.805 29.8933 520.985 30.2 519.905 30.2Z" fill="black"/>
<path d="M476.334 31.6H523.665V33.2H476.334V31.6Z" fill="black"/>
<rect x="447" y="121" width="362" height="118" rx="9" fill="white" stroke="black" stroke-width="2"/>
<circle r="4.5" transform="matrix(-1 0 0 1 469.5 142.5)" fill="black"/>
<path d="M477.23 135H480.49C481.623 135 482.45 135.267 482.97 135.8C483.49 136.32 483.75 137.127 483.75 138.22V139.08C483.75 140.533 483.27 141.453 482.31 141.84V141.88C482.843 142.04 483.217 142.367 483.43 142.86C483.657 143.353 483.77 144.013 483.77 144.84V147.3C483.77 147.7 483.783 148.027 483.81 148.28C483.837 148.52 483.903 148.76 484.01 149H481.77C481.69 148.773 481.637 148.56 481.61 148.36C481.583 148.16 481.57 147.8 481.57 147.28V144.72C481.57 144.08 481.463 143.633 481.25 143.38C481.05 143.127 480.697 143 480.19 143H479.43V149H477.23V135ZM480.23 141C480.67 141 480.997 140.887 481.21 140.66C481.437 140.433 481.55 140.053 481.55 139.52V138.44C481.55 137.933 481.457 137.567 481.27 137.34C481.097 137.113 480.817 137 480.43 137H479.43V141H480.23ZM485.697 135H491.697V137H487.897V140.7H490.917V142.7H487.897V147H491.697V149H485.697V135ZM496.482 149.2C495.416 149.2 494.602 148.9 494.042 148.3C493.482 147.687 493.202 146.813 493.202 145.68V138.32C493.202 137.187 493.482 136.32 494.042 135.72C494.602 135.107 495.416 134.8 496.482 134.8C497.549 134.8 498.362 135.107 498.922 135.72C499.482 136.32 499.762 137.187 499.762 138.32V139.52H497.682V138.18C497.682 137.26 497.302 136.8 496.542 136.8C495.782 136.8 495.402 137.26 495.402 138.18V145.84C495.402 146.747 495.782 147.2 496.542 147.2C497.302 147.2 497.682 146.747 497.682 145.84V143.1H496.582V141.1H499.762V145.68C499.762 146.813 499.482 147.687 498.922 148.3C498.362 148.9 497.549 149.2 496.482 149.2ZM501.575 135H503.775V149H501.575V135ZM508.682 149.2C507.616 149.2 506.809 148.9 506.262 148.3C505.716 147.687 505.442 146.813 505.442 145.68V144.88H507.522V145.84C507.522 146.747 507.902 147.2 508.662 147.2C509.036 147.2 509.316 147.093 509.502 146.88C509.702 146.653 509.802 146.293 509.802 145.8C509.802 145.213 509.669 144.7 509.402 144.26C509.136 143.807 508.642 143.267 507.922 142.64C507.016 141.84 506.382 141.12 506.022 140.48C505.662 139.827 505.482 139.093 505.482 138.28C505.482 137.173 505.762 136.32 506.322 135.72C506.882 135.107 507.696 134.8 508.762 134.8C509.816 134.8 510.609 135.107 511.142 135.72C511.689 136.32 511.962 137.187 511.962 138.32V138.9H509.882V138.18C509.882 137.7 509.789 137.353 509.602 137.14C509.416 136.913 509.142 136.8 508.782 136.8C508.049 136.8 507.682 137.247 507.682 138.14C507.682 138.647 507.816 139.12 508.082 139.56C508.362 140 508.862 140.533 509.582 141.16C510.502 141.96 511.136 142.687 511.482 143.34C511.829 143.993 512.002 144.76 512.002 145.64C512.002 146.787 511.716 147.667 511.142 148.28C510.582 148.893 509.762 149.2 508.682 149.2ZM515.384 137H513.084V135H519.884V137H517.584V149H515.384V137ZM521.349 135H524.609C525.742 135 526.569 135.267 527.089 135.8C527.609 136.32 527.869 137.127 527.869 138.22V139.08C527.869 140.533 527.389 141.453 526.429 141.84V141.88C526.962 142.04 527.336 142.367 527.549 142.86C527.776 143.353 527.889 144.013 527.889 144.84V147.3C527.889 147.7 527.902 148.027 527.929 148.28C527.956 148.52 528.022 148.76 528.129 149H525.889C525.809 148.773 525.756 148.56 525.729 148.36C525.702 148.16 525.689 147.8 525.689 147.28V144.72C525.689 144.08 525.582 143.633 525.369 143.38C525.169 143.127 524.816 143 524.309 143H523.549V149H521.349V135ZM524.349 141C524.789 141 525.116 140.887 525.329 140.66C525.556 140.433 525.669 140.053 525.669 139.52V138.44C525.669 137.933 525.576 137.567 525.389 137.34C525.216 137.113 524.936 137 524.549 137H523.549V141H524.349ZM531.515 135H534.495L536.775 149H534.575L534.175 146.22V146.26H531.675L531.275 149H529.235L531.515 135ZM533.915 144.36L532.935 137.44H532.895L531.935 144.36H533.915ZM539.045 137H536.745V135H543.545V137H541.245V149H539.045V137ZM545.01 135H547.21V149H545.01V135ZM552.438 149.2C551.358 149.2 550.531 148.893 549.958 148.28C549.384 147.667 549.097 146.8 549.097 145.68V138.32C549.097 137.2 549.384 136.333 549.958 135.72C550.531 135.107 551.358 134.8 552.438 134.8C553.518 134.8 554.344 135.107 554.918 135.72C555.491 136.333 555.778 137.2 555.778 138.32V145.68C555.778 146.8 555.491 147.667 554.918 148.28C554.344 148.893 553.518 149.2 552.438 149.2ZM552.438 147.2C553.198 147.2 553.577 146.74 553.577 145.82V138.18C553.577 137.26 553.198 136.8 552.438 136.8C551.678 136.8 551.298 137.26 551.298 138.18V145.82C551.298 146.74 551.678 147.2 552.438 147.2ZM557.665 135H560.425L562.565 143.38H562.605V135H564.565V149H562.305L559.665 138.78H559.625V149H557.665V135ZM570.204 135H576.024V137H572.404V140.9H575.244V142.9H572.404V149H570.204V135ZM577.479 135H583.479V137H579.679V140.7H582.699V142.7H579.679V147H583.479V149H577.479V135ZM585.144 135H591.144V137H587.344V140.7H590.364V142.7H587.344V147H591.144V149H585.144V135Z" fill="black"/>
<path d="M476.41 150.6H591.584V152.2H476.41V150.6Z" fill="black"/>
<path d="M481.252 184.26C479.865 184.26 478.808 183.87 478.08 183.09C477.352 182.293 476.988 181.157 476.988 179.684V178.254H479.692V179.892C479.692 181.071 480.186 181.66 481.174 181.66C482.162 181.66 482.656 181.071 482.656 179.892V175.81C482.656 174.614 482.162 174.016 481.174 174.016C480.186 174.016 479.692 174.614 479.692 175.81V175.966H476.988L477.508 165.8H485.048V168.4H480.056L479.822 172.742H479.874C480.411 171.858 481.235 171.416 482.344 171.416C483.384 171.416 484.173 171.771 484.71 172.482C485.247 173.193 485.516 174.224 485.516 175.576V179.684C485.516 181.157 485.152 182.293 484.424 183.09C483.696 183.87 482.639 184.26 481.252 184.26ZM492.13 184.26C490.726 184.26 489.651 183.861 488.906 183.064C488.161 182.267 487.788 181.14 487.788 179.684V170.116C487.788 168.66 488.161 167.533 488.906 166.736C489.651 165.939 490.726 165.54 492.13 165.54C493.534 165.54 494.609 165.939 495.354 166.736C496.099 167.533 496.472 168.66 496.472 170.116V179.684C496.472 181.14 496.099 182.267 495.354 183.064C494.609 183.861 493.534 184.26 492.13 184.26ZM492.13 181.66C493.118 181.66 493.612 181.062 493.612 179.866V169.934C493.612 168.738 493.118 168.14 492.13 168.14C491.142 168.14 490.648 168.738 490.648 169.934V179.866C490.648 181.062 491.142 181.66 492.13 181.66ZM503.61 165.8H507.848C509.322 165.8 510.396 166.147 511.072 166.84C511.748 167.516 512.086 168.565 512.086 169.986V171.104C512.086 172.993 511.462 174.189 510.214 174.692V174.744C510.908 174.952 511.393 175.377 511.67 176.018C511.965 176.659 512.112 177.517 512.112 178.592V181.79C512.112 182.31 512.13 182.735 512.164 183.064C512.199 183.376 512.286 183.688 512.424 184H509.512C509.408 183.705 509.339 183.428 509.304 183.168C509.27 182.908 509.252 182.44 509.252 181.764V178.436C509.252 177.604 509.114 177.023 508.836 176.694C508.576 176.365 508.117 176.2 507.458 176.2H506.47V184H503.61V165.8ZM507.51 173.6C508.082 173.6 508.507 173.453 508.784 173.158C509.079 172.863 509.226 172.369 509.226 171.676V170.272C509.226 169.613 509.105 169.137 508.862 168.842C508.637 168.547 508.273 168.4 507.77 168.4H506.47V173.6H507.51ZM514.617 165.8H517.477V184H514.617V165.8ZM520.139 165.8H524.455C525.928 165.8 527.003 166.147 527.679 166.84C528.355 167.516 528.693 168.565 528.693 169.986V170.714C528.693 171.65 528.537 172.413 528.225 173.002C527.93 173.591 527.471 174.016 526.847 174.276V174.328C528.268 174.813 528.979 176.079 528.979 178.124V179.684C528.979 181.088 528.606 182.163 527.861 182.908C527.133 183.636 526.058 184 524.637 184H520.139V165.8ZM524.117 173.21C524.689 173.21 525.113 173.063 525.391 172.768C525.685 172.473 525.833 171.979 525.833 171.286V170.272C525.833 169.613 525.711 169.137 525.469 168.842C525.243 168.547 524.879 168.4 524.377 168.4H522.999V173.21H524.117ZM524.637 181.4C525.139 181.4 525.512 181.27 525.755 181.01C525.997 180.733 526.119 180.265 526.119 179.606V178.02C526.119 177.188 525.971 176.616 525.677 176.304C525.399 175.975 524.931 175.81 524.273 175.81H522.999V181.4H524.637ZM535.33 184.26C533.944 184.26 532.886 183.87 532.158 183.09C531.43 182.293 531.066 181.157 531.066 179.684V165.8H533.926V179.892C533.926 180.516 534.048 180.967 534.29 181.244C534.55 181.521 534.914 181.66 535.382 181.66C535.85 181.66 536.206 181.521 536.448 181.244C536.708 180.967 536.838 180.516 536.838 179.892V165.8H539.594V179.684C539.594 181.157 539.23 182.293 538.502 183.09C537.774 183.87 536.717 184.26 535.33 184.26Z" fill="black"/>
<circle r="4.5" transform="matrix(-1 0 0 1 23.5 277.5)" fill="black"/>
<path d="M31.0106 270H34.2506C35.344 270 36.164 270.293 36.7106 270.88C37.2573 271.467 37.5306 272.327 37.5306 273.46V274.84C37.5306 275.973 37.2573 276.833 36.7106 277.42C36.164 278.007 35.344 278.3 34.2506 278.3H33.2106V284H31.0106V270ZM34.2506 276.3C34.6106 276.3 34.8773 276.2 35.0506 276C35.2373 275.8 35.3306 275.46 35.3306 274.98V273.32C35.3306 272.84 35.2373 272.5 35.0506 272.3C34.8773 272.1 34.6106 272 34.2506 272H33.2106V276.3H34.2506ZM40.1223 270H43.1023L45.3823 284H43.1823L42.7823 281.22V281.26H40.2823L39.8823 284H37.8423L40.1223 270ZM42.5223 279.36L41.5423 272.44H41.5023L40.5423 279.36H42.5223ZM46.8497 270H50.1097C51.243 270 52.0697 270.267 52.5897 270.8C53.1097 271.32 53.3697 272.127 53.3697 273.22V274.08C53.3697 275.533 52.8897 276.453 51.9297 276.84V276.88C52.463 277.04 52.8364 277.367 53.0497 277.86C53.2764 278.353 53.3897 279.013 53.3897 279.84V282.3C53.3897 282.7 53.403 283.027 53.4297 283.28C53.4564 283.52 53.523 283.76 53.6297 284H51.3897C51.3097 283.773 51.2564 283.56 51.2297 283.36C51.203 283.16 51.1897 282.8 51.1897 282.28V279.72C51.1897 279.08 51.083 278.633 50.8697 278.38C50.6697 278.127 50.3164 278 49.8097 278H49.0497V284H46.8497V270ZM49.8497 276C50.2897 276 50.6164 275.887 50.8297 275.66C51.0564 275.433 51.1697 275.053 51.1697 274.52V273.44C51.1697 272.933 51.0764 272.567 50.8897 272.34C50.7164 272.113 50.4364 272 50.0497 272H49.0497V276H49.8497ZM56.997 272H54.697V270H61.497V272H59.197V284H56.997V272ZM62.9622 270H65.7222L67.8622 278.38H67.9022V270H69.8622V284H67.6022L64.9622 273.78H64.9222V284H62.9622V270ZM71.8973 270H77.8973V272H74.0973V275.7H77.1173V277.7H74.0973V282H77.8973V284H71.8973V270ZM79.563 270H82.823C83.9563 270 84.783 270.267 85.303 270.8C85.823 271.32 86.083 272.127 86.083 273.22V274.08C86.083 275.533 85.603 276.453 84.643 276.84V276.88C85.1763 277.04 85.5496 277.367 85.763 277.86C85.9896 278.353 86.103 279.013 86.103 279.84V282.3C86.103 282.7 86.1163 283.027 86.143 283.28C86.1696 283.52 86.2363 283.76 86.343 284H84.103C84.023 283.773 83.9696 283.56 83.943 283.36C83.9163 283.16 83.903 282.8 83.903 282.28V279.72C83.903 279.08 83.7963 278.633 83.583 278.38C83.383 278.127 83.0296 278 82.523 278H81.763V284H79.563V270ZM82.563 276C83.003 276 83.3296 275.887 83.543 275.66C83.7696 275.433 83.883 275.053 83.883 274.52V273.44C83.883 272.933 83.7896 272.567 83.603 272.34C83.4296 272.113 83.1496 272 82.763 272H81.763V276H82.563Z" fill="black"/>
<path d="M30.1906 285.6H86.803V287.2H30.1906V285.6Z" fill="black"/>
<path d="M477.296 50.8H481.17L484.134 69H481.274L480.754 65.386V65.438H477.504L476.984 69H474.332L477.296 50.8ZM480.416 62.968L479.142 53.972H479.09L477.842 62.968H480.416ZM486.042 50.8H490.28C491.753 50.8 492.828 51.1467 493.504 51.84C494.18 52.516 494.518 53.5647 494.518 54.986V56.104C494.518 57.9933 493.894 59.1893 492.646 59.692V59.744C493.339 59.952 493.825 60.3767 494.102 61.018C494.397 61.6593 494.544 62.5173 494.544 63.592V66.79C494.544 67.31 494.561 67.7347 494.596 68.064C494.631 68.376 494.717 68.688 494.856 69H491.944C491.84 68.7053 491.771 68.428 491.736 68.168C491.701 67.908 491.684 67.44 491.684 66.764V63.436C491.684 62.604 491.545 62.0233 491.268 61.694C491.008 61.3647 490.549 61.2 489.89 61.2H488.902V69H486.042V50.8ZM489.942 58.6C490.514 58.6 490.939 58.4527 491.216 58.158C491.511 57.8633 491.658 57.3693 491.658 56.676V55.272C491.658 54.6133 491.537 54.1367 491.294 53.842C491.069 53.5473 490.705 53.4 490.202 53.4H488.902V58.6H489.942ZM497.048 50.8H499.908V69H497.048V50.8ZM502.57 50.8H510.37V53.4H505.43V58.21H509.356V60.81H505.43V66.4H510.37V69H502.57V50.8ZM512.535 50.8H515.395V66.4H520.101V69H512.535V50.8ZM526.677 50.8H530.265L533.047 61.694H533.099V50.8H535.647V69H532.709L529.277 55.714H529.225V69H526.677V50.8ZM542.427 69.26C541.023 69.26 539.948 68.8613 539.203 68.064C538.457 67.2667 538.085 66.14 538.085 64.684V55.116C538.085 53.66 538.457 52.5333 539.203 51.736C539.948 50.9387 541.023 50.54 542.427 50.54C543.831 50.54 544.905 50.9387 545.651 51.736C546.396 52.5333 546.769 53.66 546.769 55.116V64.684C546.769 66.14 546.396 67.2667 545.651 68.064C544.905 68.8613 543.831 69.26 542.427 69.26ZM542.427 66.66C543.415 66.66 543.909 66.062 543.909 64.866V54.934C543.909 53.738 543.415 53.14 542.427 53.14C541.439 53.14 540.945 53.738 540.945 54.934V64.866C540.945 66.062 541.439 66.66 542.427 66.66ZM551.382 50.8H555.256L558.22 69H555.36L554.84 65.386V65.438H551.59L551.07 69H548.418L551.382 50.8ZM554.502 62.968L553.228 53.972H553.176L551.928 62.968H554.502ZM560.128 50.8H562.988V58.21H566.056V50.8H568.916V69H566.056V60.81H562.988V69H560.128V50.8Z" fill="black"/>
</svg>
