<svg width="810" height="472" viewBox="0 0 810 472" fill="none" xmlns="http://www.w3.org/2000/svg">
<rect x="1" y="1" width="362" height="90" rx="9" fill="white" stroke="black" stroke-width="2"/>
<rect x="447" y="269" width="362" height="88" rx="9" fill="white" stroke="black" stroke-width="2"/>
<rect x="560" y="393" width="130" height="42" rx="9" fill="#1FD57D" stroke="black" stroke-width="2"/>
<circle r="4.5" transform="matrix(-1 0 0 1 23.5 22.5)" fill="black"/>
<path d="M31.297 15H33.497V27H37.117V29H31.297V15ZM41.6738 29.2C40.5938 29.2 39.7672 28.8933 39.1938 28.28C38.6205 27.6667 38.3338 26.8 38.3338 25.68V18.32C38.3338 17.2 38.6205 16.3333 39.1938 15.72C39.7672 15.1067 40.5938 14.8 41.6738 14.8C42.7538 14.8 43.5805 15.1067 44.1538 15.72C44.7272 16.3333 45.0138 17.2 45.0138 18.32V25.68C45.0138 26.8 44.7272 27.6667 44.1538 28.28C43.5805 28.8933 42.7538 29.2 41.6738 29.2ZM41.6738 27.2C42.4338 27.2 42.8138 26.74 42.8138 25.82V18.18C42.8138 17.26 42.4338 16.8 41.6738 16.8C40.9138 16.8 40.5338 17.26 40.5338 18.18V25.82C40.5338 26.74 40.9138 27.2 41.6738 27.2ZM50.0016 29.2C48.9483 29.2 48.1416 28.9 47.5816 28.3C47.035 27.7 46.7616 26.8533 46.7616 25.76V18.24C46.7616 17.1467 47.035 16.3 47.5816 15.7C48.1416 15.1 48.9483 14.8 50.0016 14.8C51.055 14.8 51.855 15.1 52.4016 15.7C52.9616 16.3 53.2416 17.1467 53.2416 18.24V19.72H51.1616V18.1C51.1616 17.2333 50.795 16.8 50.0616 16.8C49.3283 16.8 48.9616 17.2333 48.9616 18.1V25.92C48.9616 26.7733 49.3283 27.2 50.0616 27.2C50.795 27.2 51.1616 26.7733 51.1616 25.92V23.78H53.2416V25.76C53.2416 26.8533 52.9616 27.7 52.4016 28.3C51.855 28.9 51.055 29.2 50.0016 29.2ZM56.6579 15H59.6379L61.9179 29H59.7179L59.3179 26.22V26.26H56.8179L56.4179 29H54.3779L56.6579 15ZM59.0579 24.36L58.0779 17.44H58.0379L57.0779 24.36H59.0579ZM64.1873 17H61.8873V15H68.6873V17H66.3873V29H64.1873V17ZM70.1524 15H72.3524V29H70.1524V15ZM77.5801 29.2C76.5001 29.2 75.6734 28.8933 75.1001 28.28C74.5267 27.6667 74.2401 26.8 74.2401 25.68V18.32C74.2401 17.2 74.5267 16.3333 75.1001 15.72C75.6734 15.1067 76.5001 14.8 77.5801 14.8C78.6601 14.8 79.4867 15.1067 80.0601 15.72C80.6334 16.3333 80.9201 17.2 80.9201 18.32V25.68C80.9201 26.8 80.6334 27.6667 80.0601 28.28C79.4867 28.8933 78.6601 29.2 77.5801 29.2ZM77.5801 27.2C78.3401 27.2 78.7201 26.74 78.7201 25.82V18.18C78.7201 17.26 78.3401 16.8 77.5801 16.8C76.8201 16.8 76.4401 17.26 76.4401 18.18V25.82C76.4401 26.74 76.8201 27.2 77.5801 27.2ZM82.8079 15H85.5679L87.7079 23.38H87.7479V15H89.7079V29H87.4479L84.8079 18.78H84.7679V29H82.8079V15Z" fill="black"/>
<path d="M30.477 30.6H90.5279V32.2H30.477V30.6Z" fill="black"/>
<path d="M34.9487 69.26C33.562 69.26 32.5134 68.87 31.8027 68.09C31.092 67.2927 30.7367 66.1573 30.7367 64.684V63.644H33.4407V64.892C33.4407 66.0707 33.9347 66.66 34.9227 66.66C35.408 66.66 35.772 66.5213 36.0147 66.244C36.2747 65.9493 36.4047 65.4813 36.4047 64.84C36.4047 64.0773 36.2314 63.41 35.8847 62.838C35.538 62.2487 34.8967 61.5467 33.9607 60.732C32.782 59.692 31.9587 58.756 31.4907 57.924C31.0227 57.0747 30.7887 56.1213 30.7887 55.064C30.7887 53.6253 31.1527 52.516 31.8807 51.736C32.6087 50.9387 33.666 50.54 35.0527 50.54C36.422 50.54 37.4534 50.9387 38.1467 51.736C38.8574 52.516 39.2127 53.6427 39.2127 55.116V55.87H36.5087V54.934C36.5087 54.31 36.3874 53.8593 36.1447 53.582C35.902 53.2873 35.5467 53.14 35.0787 53.14C34.1254 53.14 33.6487 53.7207 33.6487 54.882C33.6487 55.5407 33.822 56.156 34.1687 56.728C34.5327 57.3 35.1827 57.9933 36.1187 58.808C37.3147 59.848 38.138 60.7927 38.5887 61.642C39.0394 62.4913 39.2647 63.488 39.2647 64.632C39.2647 66.1227 38.892 67.2667 38.1467 68.064C37.4187 68.8613 36.3527 69.26 34.9487 69.26ZM41.4245 50.8H49.2245V53.4H44.2845V58.21H48.2105V60.81H44.2845V66.4H49.2245V69H41.4245V50.8ZM53.6258 53.4H50.6358V50.8H59.4758V53.4H56.4858V69H53.6258V53.4ZM61.3805 50.8H64.2405V69H61.3805V50.8ZM70.9585 69.26C69.5718 69.26 68.5145 68.87 67.7865 68.09C67.0585 67.2927 66.6945 66.1573 66.6945 64.684V55.116C66.6945 53.6427 67.0585 52.516 67.7865 51.736C68.5145 50.9387 69.5718 50.54 70.9585 50.54C72.3452 50.54 73.4025 50.9387 74.1305 51.736C74.8585 52.516 75.2225 53.6427 75.2225 55.116V56.676H72.5185V54.934C72.5185 53.738 72.0245 53.14 71.0365 53.14C70.0485 53.14 69.5545 53.738 69.5545 54.934V64.892C69.5545 66.0707 70.0485 66.66 71.0365 66.66C72.0245 66.66 72.5185 66.0707 72.5185 64.892V61.33H71.0885V58.73H75.2225V64.684C75.2225 66.1573 74.8585 67.2927 74.1305 68.09C73.4025 68.87 72.3452 69.26 70.9585 69.26ZM77.5787 50.8H80.4387V69H77.5787V50.8ZM84.0367 69H83.1007V66.244H85.8567V68.714L84.4267 72.12H83.1007L84.0367 69ZM96.9231 69.26C95.5365 69.26 94.4878 68.87 93.7771 68.09C93.0665 67.2927 92.7111 66.1573 92.7111 64.684V63.644H95.4151V64.892C95.4151 66.0707 95.9091 66.66 96.8971 66.66C97.3825 66.66 97.7465 66.5213 97.9891 66.244C98.2491 65.9493 98.3791 65.4813 98.3791 64.84C98.3791 64.0773 98.2058 63.41 97.8591 62.838C97.5125 62.2487 96.8711 61.5467 95.9351 60.732C94.7565 59.692 93.9331 58.756 93.4651 57.924C92.9971 57.0747 92.7631 56.1213 92.7631 55.064C92.7631 53.6253 93.1271 52.516 93.8551 51.736C94.5831 50.9387 95.6405 50.54 97.0271 50.54C98.3965 50.54 99.4278 50.9387 100.121 51.736C100.832 52.516 101.187 53.6427 101.187 55.116V55.87H98.4831V54.934C98.4831 54.31 98.3618 53.8593 98.1191 53.582C97.8765 53.2873 97.5211 53.14 97.0531 53.14C96.0998 53.14 95.6231 53.7207 95.6231 54.882C95.6231 55.5407 95.7965 56.156 96.1431 56.728C96.5071 57.3 97.1571 57.9933 98.0931 58.808C99.2891 59.848 100.112 60.7927 100.563 61.642C101.014 62.4913 101.239 63.488 101.239 64.632C101.239 66.1227 100.866 67.2667 100.121 68.064C99.3931 68.8613 98.3271 69.26 96.9231 69.26ZM103.399 50.8H111.199V53.4H106.259V58.21H110.185V60.81H106.259V66.4H111.199V69H103.399V50.8ZM113.364 50.8H116.224V58.47L119.864 50.8H122.724L119.318 57.482L122.776 69H119.786L117.368 60.888L116.224 63.202V69H113.364V50.8ZM126.86 50.8H130.734L133.698 69H130.838L130.318 65.386V65.438H127.068L126.548 69H123.896L126.86 50.8ZM129.98 62.968L128.706 53.972H128.654L127.406 62.968H129.98ZM135.605 50.8H139.817C141.239 50.8 142.305 51.1813 143.015 51.944C143.726 52.7067 144.081 53.8247 144.081 55.298V57.092C144.081 58.5653 143.726 59.6833 143.015 60.446C142.305 61.2087 141.239 61.59 139.817 61.59H138.465V69H135.605V50.8ZM139.817 58.99C140.285 58.99 140.632 58.86 140.857 58.6C141.1 58.34 141.221 57.898 141.221 57.274V55.116C141.221 54.492 141.1 54.05 140.857 53.79C140.632 53.53 140.285 53.4 139.817 53.4H138.465V58.99H139.817ZM150.315 69.26C148.928 69.26 147.871 68.87 147.143 68.09C146.415 67.2927 146.051 66.1573 146.051 64.684V50.8H148.911V64.892C148.911 65.516 149.032 65.9667 149.275 66.244C149.535 66.5213 149.899 66.66 150.367 66.66C150.835 66.66 151.19 66.5213 151.433 66.244C151.693 65.9667 151.823 65.516 151.823 64.892V50.8H154.579V64.684C154.579 66.1573 154.215 67.2927 153.487 68.09C152.759 68.87 151.701 69.26 150.315 69.26ZM157.136 50.8H159.996V58.47L163.636 50.8H166.496L163.09 57.482L166.548 69H163.558L161.14 60.888L159.996 63.202V69H157.136V50.8Z" fill="black"/>
<rect x="1" y="119" width="362" height="90" rx="9" fill="white" stroke="black" stroke-width="2"/>
<circle r="4.5" transform="matrix(-1 0 0 1 23.5 142.5)" fill="black"/>
<path d="M30.847 135H34.207C35.3003 135 36.1203 135.293 36.667 135.88C37.2136 136.467 37.487 137.327 37.487 138.46V145.54C37.487 146.673 37.2136 147.533 36.667 148.12C36.1203 148.707 35.3003 149 34.207 149H30.847V135ZM34.167 147C34.527 147 34.8003 146.893 34.987 146.68C35.187 146.467 35.287 146.12 35.287 145.64V138.36C35.287 137.88 35.187 137.533 34.987 137.32C34.8003 137.107 34.527 137 34.167 137H33.047V147H34.167ZM41.0329 135H44.0129L46.2929 149H44.0929L43.6929 146.22V146.26H41.1929L40.7929 149H38.7529L41.0329 135ZM43.4329 144.36L42.4529 137.44H42.4129L41.4529 144.36H43.4329ZM48.5623 137H46.2623V135H53.0623V137H50.7623V149H48.5623V137ZM54.5274 135H60.5274V137H56.7274V140.7H59.7474V142.7H56.7274V147H60.5274V149H54.5274V135Z" fill="black"/>
<path d="M30.027 150.6H60.9674V152.2H30.027V150.6Z" fill="black"/>
<path d="M35.1446 173.116H32.1546V171.088C32.9693 171.088 33.6193 171.019 34.1046 170.88C34.6073 170.741 35.0059 170.516 35.3006 170.204C35.5953 169.875 35.8553 169.407 36.0806 168.8H38.0046V187H35.1446V173.116ZM46.2048 187.26C44.8008 187.26 43.7261 186.861 42.9808 186.064C42.2354 185.267 41.8628 184.14 41.8628 182.684V173.116C41.8628 171.66 42.2354 170.533 42.9808 169.736C43.7261 168.939 44.8008 168.54 46.2048 168.54C47.6088 168.54 48.6834 168.939 49.4288 169.736C50.1741 170.533 50.5468 171.66 50.5468 173.116V182.684C50.5468 184.14 50.1741 185.267 49.4288 186.064C48.6834 186.861 47.6088 187.26 46.2048 187.26ZM46.2048 184.66C47.1928 184.66 47.6868 184.062 47.6868 182.866V172.934C47.6868 171.738 47.1928 171.14 46.2048 171.14C45.2168 171.14 44.7228 171.738 44.7228 172.934V182.866C44.7228 184.062 45.2168 184.66 46.2048 184.66ZM57.685 168.8H61.273L64.055 179.694H64.107V168.8H66.655V187H63.717L60.285 173.714H60.233V187H57.685V168.8ZM73.4347 187.26C72.0307 187.26 70.956 186.861 70.2107 186.064C69.4654 185.267 69.0927 184.14 69.0927 182.684V173.116C69.0927 171.66 69.4654 170.533 70.2107 169.736C70.956 168.939 72.0307 168.54 73.4347 168.54C74.8387 168.54 75.9134 168.939 76.6587 169.736C77.404 170.533 77.7767 171.66 77.7767 173.116V182.684C77.7767 184.14 77.404 185.267 76.6587 186.064C75.9134 186.861 74.8387 187.26 73.4347 187.26ZM73.4347 184.66C74.4227 184.66 74.9167 184.062 74.9167 182.866V172.934C74.9167 171.738 74.4227 171.14 73.4347 171.14C72.4467 171.14 71.9527 171.738 71.9527 172.934V182.866C71.9527 184.062 72.4467 184.66 73.4347 184.66ZM79.4261 168.8H82.3121L84.1841 182.918H84.2361L86.1081 168.8H88.7341L85.9781 187H82.1821L79.4261 168.8ZM90.6278 168.8H98.4278V171.4H93.4878V176.21H97.4138V178.81H93.4878V184.4H98.4278V187H90.6278V168.8ZM100.593 168.8H104.675L106.495 181.826H106.547L108.367 168.8H112.449V187H109.745V173.22H109.693L107.613 187H105.221L103.141 173.22H103.089V187H100.593V168.8ZM115.103 168.8H119.419C120.893 168.8 121.967 169.147 122.643 169.84C123.319 170.516 123.657 171.565 123.657 172.986V173.714C123.657 174.65 123.501 175.413 123.189 176.002C122.895 176.591 122.435 177.016 121.811 177.276V177.328C123.233 177.813 123.943 179.079 123.943 181.124V182.684C123.943 184.088 123.571 185.163 122.825 185.908C122.097 186.636 121.023 187 119.601 187H115.103V168.8ZM119.081 176.21C119.653 176.21 120.078 176.063 120.355 175.768C120.65 175.473 120.797 174.979 120.797 174.286V173.272C120.797 172.613 120.676 172.137 120.433 171.842C120.208 171.547 119.844 171.4 119.341 171.4H117.963V176.21H119.081ZM119.601 184.4C120.104 184.4 120.477 184.27 120.719 184.01C120.962 183.733 121.083 183.265 121.083 182.606V181.02C121.083 180.188 120.936 179.616 120.641 179.304C120.364 178.975 119.896 178.81 119.237 178.81H117.963V184.4H119.601ZM126.135 168.8H133.935V171.4H128.995V176.21H132.921V178.81H128.995V184.4H133.935V187H126.135V168.8ZM136.1 168.8H140.338C141.812 168.8 142.886 169.147 143.562 169.84C144.238 170.516 144.576 171.565 144.576 172.986V174.104C144.576 175.993 143.952 177.189 142.704 177.692V177.744C143.398 177.952 143.883 178.377 144.16 179.018C144.455 179.659 144.602 180.517 144.602 181.592V184.79C144.602 185.31 144.62 185.735 144.654 186.064C144.689 186.376 144.776 186.688 144.914 187H142.002C141.898 186.705 141.829 186.428 141.794 186.168C141.76 185.908 141.742 185.44 141.742 184.764V181.436C141.742 180.604 141.604 180.023 141.326 179.694C141.066 179.365 140.607 179.2 139.948 179.2H138.96V187H136.1V168.8ZM140 176.6C140.572 176.6 140.997 176.453 141.274 176.158C141.569 175.863 141.716 175.369 141.716 174.676V173.272C141.716 172.613 141.595 172.137 141.352 171.842C141.127 171.547 140.763 171.4 140.26 171.4H138.96V176.6H140ZM151.739 185.024C151.739 183.724 151.947 182.615 152.363 181.696C152.779 180.76 153.524 179.729 154.599 178.602C155.656 177.475 156.384 176.513 156.783 175.716C157.199 174.919 157.407 174.087 157.407 173.22C157.407 172.44 157.277 171.903 157.017 171.608C156.774 171.296 156.41 171.14 155.925 171.14C154.937 171.14 154.443 171.738 154.443 172.934V174.884H151.739V173.116C151.739 171.643 152.103 170.516 152.831 169.736C153.559 168.939 154.616 168.54 156.003 168.54C157.389 168.54 158.447 168.939 159.175 169.736C159.903 170.516 160.267 171.643 160.267 173.116C160.267 174.225 159.998 175.309 159.461 176.366C158.941 177.423 158.031 178.637 156.731 180.006C155.881 180.907 155.309 181.644 155.015 182.216C154.72 182.771 154.573 183.369 154.573 184.01V184.4H160.007V187H151.739V185.024ZM166.855 187.26C165.451 187.26 164.376 186.861 163.631 186.064C162.886 185.267 162.513 184.14 162.513 182.684V173.116C162.513 171.66 162.886 170.533 163.631 169.736C164.376 168.939 165.451 168.54 166.855 168.54C168.259 168.54 169.334 168.939 170.079 169.736C170.824 170.533 171.197 171.66 171.197 173.116V182.684C171.197 184.14 170.824 185.267 170.079 186.064C169.334 186.861 168.259 187.26 166.855 187.26ZM166.855 184.66C167.843 184.66 168.337 184.062 168.337 182.866V172.934C168.337 171.738 167.843 171.14 166.855 171.14C165.867 171.14 165.373 171.738 165.373 172.934V182.866C165.373 184.062 165.867 184.66 166.855 184.66ZM173.599 185.024C173.599 183.724 173.807 182.615 174.223 181.696C174.639 180.76 175.384 179.729 176.459 178.602C177.516 177.475 178.244 176.513 178.643 175.716C179.059 174.919 179.267 174.087 179.267 173.22C179.267 172.44 179.137 171.903 178.877 171.608C178.634 171.296 178.27 171.14 177.785 171.14C176.797 171.14 176.303 171.738 176.303 172.934V174.884H173.599V173.116C173.599 171.643 173.963 170.516 174.691 169.736C175.419 168.939 176.476 168.54 177.863 168.54C179.25 168.54 180.307 168.939 181.035 169.736C181.763 170.516 182.127 171.643 182.127 173.116C182.127 174.225 181.858 175.309 181.321 176.366C180.801 177.423 179.891 178.637 178.591 180.006C177.742 180.907 177.17 181.644 176.875 182.216C176.58 182.771 176.433 183.369 176.433 184.01V184.4H181.867V187H173.599V185.024ZM184.529 185.024C184.529 183.724 184.737 182.615 185.153 181.696C185.569 180.76 186.315 179.729 187.389 178.602C188.447 177.475 189.175 176.513 189.573 175.716C189.989 174.919 190.197 174.087 190.197 173.22C190.197 172.44 190.067 171.903 189.807 171.608C189.565 171.296 189.201 171.14 188.715 171.14C187.727 171.14 187.233 171.738 187.233 172.934V174.884H184.529V173.116C184.529 171.643 184.893 170.516 185.621 169.736C186.349 168.939 187.407 168.54 188.793 168.54C190.18 168.54 191.237 168.939 191.965 169.736C192.693 170.516 193.057 171.643 193.057 173.116C193.057 174.225 192.789 175.309 192.251 176.366C191.731 177.423 190.821 178.637 189.521 180.006C188.672 180.907 188.1 181.644 187.805 182.216C187.511 182.771 187.363 183.369 187.363 184.01V184.4H192.797V187H184.529V185.024Z" fill="black"/>
<path d="M584.078 301.8H588.29C589.711 301.8 590.777 302.181 591.488 302.944C592.199 303.707 592.554 304.825 592.554 306.298V308.092C592.554 309.565 592.199 310.683 591.488 311.446C590.777 312.209 589.711 312.59 588.29 312.59H586.938V320H584.078V301.8ZM588.29 309.99C588.758 309.99 589.105 309.86 589.33 309.6C589.573 309.34 589.694 308.898 589.694 308.274V306.116C589.694 305.492 589.573 305.05 589.33 304.79C589.105 304.53 588.758 304.4 588.29 304.4H586.938V309.99H588.29ZM594.627 301.8H598.865C600.339 301.8 601.413 302.147 602.089 302.84C602.765 303.516 603.103 304.565 603.103 305.986V307.104C603.103 308.993 602.479 310.189 601.231 310.692V310.744C601.925 310.952 602.41 311.377 602.687 312.018C602.982 312.659 603.129 313.517 603.129 314.592V317.79C603.129 318.31 603.147 318.735 603.181 319.064C603.216 319.376 603.303 319.688 603.441 320H600.529C600.425 319.705 600.356 319.428 600.321 319.168C600.287 318.908 600.269 318.44 600.269 317.764V314.436C600.269 313.604 600.131 313.023 599.853 312.694C599.593 312.365 599.134 312.2 598.475 312.2H597.487V320H594.627V301.8ZM598.527 309.6C599.099 309.6 599.524 309.453 599.801 309.158C600.096 308.863 600.243 308.369 600.243 307.676V306.272C600.243 305.613 600.122 305.137 599.879 304.842C599.654 304.547 599.29 304.4 598.787 304.4H597.487V309.6H598.527ZM609.768 320.26C608.364 320.26 607.289 319.861 606.544 319.064C605.798 318.267 605.426 317.14 605.426 315.684V306.116C605.426 304.66 605.798 303.533 606.544 302.736C607.289 301.939 608.364 301.54 609.768 301.54C611.172 301.54 612.246 301.939 612.992 302.736C613.737 303.533 614.11 304.66 614.11 306.116V315.684C614.11 317.14 613.737 318.267 612.992 319.064C612.246 319.861 611.172 320.26 609.768 320.26ZM609.768 317.66C610.756 317.66 611.25 317.062 611.25 315.866V305.934C611.25 304.738 610.756 304.14 609.768 304.14C608.78 304.14 608.286 304.738 608.286 305.934V315.866C608.286 317.062 608.78 317.66 609.768 317.66ZM616.564 301.8H620.776C622.197 301.8 623.263 302.181 623.974 302.944C624.684 303.707 625.04 304.825 625.04 306.298V308.092C625.04 309.565 624.684 310.683 623.974 311.446C623.263 312.209 622.197 312.59 620.776 312.59H619.424V320H616.564V301.8ZM620.776 309.99C621.244 309.99 621.59 309.86 621.816 309.6C622.058 309.34 622.18 308.898 622.18 308.274V306.116C622.18 305.492 622.058 305.05 621.816 304.79C621.59 304.53 621.244 304.4 620.776 304.4H619.424V309.99H620.776ZM631.247 320.26C629.843 320.26 628.768 319.861 628.023 319.064C627.278 318.267 626.905 317.14 626.905 315.684V306.116C626.905 304.66 627.278 303.533 628.023 302.736C628.768 301.939 629.843 301.54 631.247 301.54C632.651 301.54 633.726 301.939 634.471 302.736C635.216 303.533 635.589 304.66 635.589 306.116V315.684C635.589 317.14 635.216 318.267 634.471 319.064C633.726 319.861 632.651 320.26 631.247 320.26ZM631.247 317.66C632.235 317.66 632.729 317.062 632.729 315.866V305.934C632.729 304.738 632.235 304.14 631.247 304.14C630.259 304.14 629.765 304.738 629.765 305.934V315.866C629.765 317.062 630.259 317.66 631.247 317.66ZM641.761 320.26C640.375 320.26 639.326 319.87 638.615 319.09C637.905 318.293 637.549 317.157 637.549 315.684V314.644H640.253V315.892C640.253 317.071 640.747 317.66 641.735 317.66C642.221 317.66 642.585 317.521 642.827 317.244C643.087 316.949 643.217 316.481 643.217 315.84C643.217 315.077 643.044 314.41 642.697 313.838C642.351 313.249 641.709 312.547 640.773 311.732C639.595 310.692 638.771 309.756 638.303 308.924C637.835 308.075 637.601 307.121 637.601 306.064C637.601 304.625 637.965 303.516 638.693 302.736C639.421 301.939 640.479 301.54 641.865 301.54C643.235 301.54 644.266 301.939 644.959 302.736C645.67 303.516 646.025 304.643 646.025 306.116V306.87H643.321V305.934C643.321 305.31 643.2 304.859 642.957 304.582C642.715 304.287 642.359 304.14 641.891 304.14C640.938 304.14 640.461 304.721 640.461 305.882C640.461 306.541 640.635 307.156 640.981 307.728C641.345 308.3 641.995 308.993 642.931 309.808C644.127 310.848 644.951 311.793 645.401 312.642C645.852 313.491 646.077 314.488 646.077 315.632C646.077 317.123 645.705 318.267 644.959 319.064C644.231 319.861 643.165 320.26 641.761 320.26ZM650.371 301.8H654.245L657.209 320H654.349L653.829 316.386V316.438H650.579L650.059 320H647.407L650.371 301.8ZM653.491 313.968L652.217 304.972H652.165L650.917 313.968H653.491ZM659.116 301.8H661.976V317.4H666.682V320H659.116V301.8Z" fill="black"/>
<path d="M600.255 421.26C598.885 421.26 597.837 420.87 597.109 420.09C596.398 419.31 596.043 418.209 596.043 416.788V407.012C596.043 405.591 596.398 404.49 597.109 403.71C597.837 402.93 598.885 402.54 600.255 402.54C601.624 402.54 602.664 402.93 603.375 403.71C604.103 404.49 604.467 405.591 604.467 407.012V408.936H601.763V406.83C601.763 405.703 601.286 405.14 600.333 405.14C599.379 405.14 598.903 405.703 598.903 406.83V416.996C598.903 418.105 599.379 418.66 600.333 418.66C601.286 418.66 601.763 418.105 601.763 416.996V414.214H604.467V416.788C604.467 418.209 604.103 419.31 603.375 420.09C602.664 420.87 601.624 421.26 600.255 421.26ZM608.908 402.8H612.782L615.746 421H612.886L612.366 417.386V417.438H609.116L608.596 421H605.944L608.908 402.8ZM612.028 414.968L610.754 405.972H610.702L609.454 414.968H612.028ZM617.653 402.8H620.513V418.4H625.219V421H617.653V402.8ZM627.111 402.8H629.971V418.4H634.677V421H627.111V402.8ZM645.412 421.26C644.026 421.26 642.968 420.87 642.24 420.09C641.512 419.293 641.148 418.157 641.148 416.684V402.8H644.008V416.892C644.008 417.516 644.13 417.967 644.372 418.244C644.632 418.521 644.996 418.66 645.464 418.66C645.932 418.66 646.288 418.521 646.53 418.244C646.79 417.967 646.92 417.516 646.92 416.892V402.8H649.676V416.684C649.676 418.157 649.312 419.293 648.584 420.09C647.856 420.87 646.799 421.26 645.412 421.26ZM655.951 421.26C654.565 421.26 653.516 420.87 652.805 420.09C652.095 419.293 651.739 418.157 651.739 416.684V415.644H654.443V416.892C654.443 418.071 654.937 418.66 655.925 418.66C656.411 418.66 656.775 418.521 657.017 418.244C657.277 417.949 657.407 417.481 657.407 416.84C657.407 416.077 657.234 415.41 656.887 414.838C656.541 414.249 655.899 413.547 654.963 412.732C653.785 411.692 652.961 410.756 652.493 409.924C652.025 409.075 651.791 408.121 651.791 407.064C651.791 405.625 652.155 404.516 652.883 403.736C653.611 402.939 654.669 402.54 656.055 402.54C657.425 402.54 658.456 402.939 659.149 403.736C659.86 404.516 660.215 405.643 660.215 407.116V407.87H657.511V406.934C657.511 406.31 657.39 405.859 657.147 405.582C656.905 405.287 656.549 405.14 656.081 405.14C655.128 405.14 654.651 405.721 654.651 406.882C654.651 407.541 654.825 408.156 655.171 408.728C655.535 409.3 656.185 409.993 657.121 410.808C658.317 411.848 659.141 412.793 659.591 413.642C660.042 414.491 660.267 415.488 660.267 416.632C660.267 418.123 659.895 419.267 659.149 420.064C658.421 420.861 657.355 421.26 655.951 421.26Z" fill="black"/>
<rect x="447" y="1" width="362" height="90" rx="9" fill="white" stroke="black" stroke-width="2"/>
<rect x="1" y="252" width="362" height="219" rx="9" fill="white" stroke="black" stroke-width="2"/>
<circle r="4.5" transform="matrix(-1 0 0 1 469.5 22.5)" fill="black"/>
<path d="M480.274 30.2C479.207 30.2 478.394 29.9 477.834 29.3C477.274 28.6867 476.994 27.8133 476.994 26.68V19.32C476.994 18.1867 477.274 17.32 477.834 16.72C478.394 16.1067 479.207 15.8 480.274 15.8C481.341 15.8 482.154 16.1067 482.714 16.72C483.274 17.32 483.554 18.1867 483.554 19.32V20.52H481.474V19.18C481.474 18.26 481.094 17.8 480.334 17.8C479.574 17.8 479.194 18.26 479.194 19.18V26.84C479.194 27.7467 479.574 28.2 480.334 28.2C481.094 28.2 481.474 27.7467 481.474 26.84V24.1H480.374V22.1H483.554V26.68C483.554 27.8133 483.274 28.6867 482.714 29.3C482.154 29.9 481.341 30.2 480.274 30.2ZM488.566 30.2C487.5 30.2 486.686 29.9 486.126 29.3C485.566 28.6867 485.286 27.8133 485.286 26.68V16H487.486V26.84C487.486 27.32 487.58 27.6667 487.766 27.88C487.966 28.0933 488.246 28.2 488.606 28.2C488.966 28.2 489.24 28.0933 489.426 27.88C489.626 27.6667 489.726 27.32 489.726 26.84V16H491.846V26.68C491.846 27.8133 491.566 28.6867 491.006 29.3C490.446 29.9 489.633 30.2 488.566 30.2ZM493.813 16H499.813V18H496.013V21.7H499.033V23.7H496.013V28H499.813V30H493.813V16ZM504.378 30.2C503.311 30.2 502.505 29.9 501.958 29.3C501.411 28.6867 501.138 27.8133 501.138 26.68V25.88H503.218V26.84C503.218 27.7467 503.598 28.2 504.358 28.2C504.731 28.2 505.011 28.0933 505.198 27.88C505.398 27.6533 505.498 27.2933 505.498 26.8C505.498 26.2133 505.365 25.7 505.098 25.26C504.831 24.8067 504.338 24.2667 503.618 23.64C502.711 22.84 502.078 22.12 501.718 21.48C501.358 20.8267 501.178 20.0933 501.178 19.28C501.178 18.1733 501.458 17.32 502.018 16.72C502.578 16.1067 503.391 15.8 504.458 15.8C505.511 15.8 506.305 16.1067 506.838 16.72C507.385 17.32 507.658 18.1867 507.658 19.32V19.9H505.578V19.18C505.578 18.7 505.485 18.3533 505.298 18.14C505.111 17.9133 504.838 17.8 504.478 17.8C503.745 17.8 503.378 18.2467 503.378 19.14C503.378 19.6467 503.511 20.12 503.778 20.56C504.058 21 504.558 21.5333 505.278 22.16C506.198 22.96 506.831 23.6867 507.178 24.34C507.525 24.9933 507.698 25.76 507.698 26.64C507.698 27.7867 507.411 28.6667 506.838 29.28C506.278 29.8933 505.458 30.2 504.378 30.2ZM511.079 18H508.779V16H515.579V18H513.279V30H511.079V18ZM519.905 30.2C518.838 30.2 518.031 29.9 517.485 29.3C516.938 28.6867 516.665 27.8133 516.665 26.68V25.88H518.745V26.84C518.745 27.7467 519.125 28.2 519.885 28.2C520.258 28.2 520.538 28.0933 520.725 27.88C520.925 27.6533 521.025 27.2933 521.025 26.8C521.025 26.2133 520.891 25.7 520.625 25.26C520.358 24.8067 519.865 24.2667 519.145 23.64C518.238 22.84 517.605 22.12 517.245 21.48C516.885 20.8267 516.705 20.0933 516.705 19.28C516.705 18.1733 516.985 17.32 517.545 16.72C518.105 16.1067 518.918 15.8 519.985 15.8C521.038 15.8 521.831 16.1067 522.365 16.72C522.911 17.32 523.185 18.1867 523.185 19.32V19.9H521.105V19.18C521.105 18.7 521.011 18.3533 520.825 18.14C520.638 17.9133 520.365 17.8 520.005 17.8C519.271 17.8 518.905 18.2467 518.905 19.14C518.905 19.6467 519.038 20.12 519.305 20.56C519.585 21 520.085 21.5333 520.805 22.16C521.725 22.96 522.358 23.6867 522.705 24.34C523.051 24.9933 523.225 25.76 523.225 26.64C523.225 27.7867 522.938 28.6667 522.365 29.28C521.805 29.8933 520.985 30.2 519.905 30.2Z" fill="black"/>
<path d="M476.334 31.6H523.665V33.2H476.334V31.6Z" fill="black"/>
<rect x="447" y="121" width="362" height="118" rx="9" fill="white" stroke="black" stroke-width="2"/>
<circle r="4.5" transform="matrix(-1 0 0 1 469.5 142.5)" fill="black"/>
<path d="M477.23 135H480.49C481.623 135 482.45 135.267 482.97 135.8C483.49 136.32 483.75 137.127 483.75 138.22V139.08C483.75 140.533 483.27 141.453 482.31 141.84V141.88C482.843 142.04 483.217 142.367 483.43 142.86C483.657 143.353 483.77 144.013 483.77 144.84V147.3C483.77 147.7 483.783 148.027 483.81 148.28C483.837 148.52 483.903 148.76 484.01 149H481.77C481.69 148.773 481.637 148.56 481.61 148.36C481.583 148.16 481.57 147.8 481.57 147.28V144.72C481.57 144.08 481.463 143.633 481.25 143.38C481.05 143.127 480.697 143 480.19 143H479.43V149H477.23V135ZM480.23 141C480.67 141 480.997 140.887 481.21 140.66C481.437 140.433 481.55 140.053 481.55 139.52V138.44C481.55 137.933 481.457 137.567 481.27 137.34C481.097 137.113 480.817 137 480.43 137H479.43V141H480.23ZM485.697 135H491.697V137H487.897V140.7H490.917V142.7H487.897V147H491.697V149H485.697V135ZM496.482 149.2C495.416 149.2 494.602 148.9 494.042 148.3C493.482 147.687 493.202 146.813 493.202 145.68V138.32C493.202 137.187 493.482 136.32 494.042 135.72C494.602 135.107 495.416 134.8 496.482 134.8C497.549 134.8 498.362 135.107 498.922 135.72C499.482 136.32 499.762 137.187 499.762 138.32V139.52H497.682V138.18C497.682 137.26 497.302 136.8 496.542 136.8C495.782 136.8 495.402 137.26 495.402 138.18V145.84C495.402 146.747 495.782 147.2 496.542 147.2C497.302 147.2 497.682 146.747 497.682 145.84V143.1H496.582V141.1H499.762V145.68C499.762 146.813 499.482 147.687 498.922 148.3C498.362 148.9 497.549 149.2 496.482 149.2ZM501.575 135H503.775V149H501.575V135ZM508.682 149.2C507.616 149.2 506.809 148.9 506.262 148.3C505.716 147.687 505.442 146.813 505.442 145.68V144.88H507.522V145.84C507.522 146.747 507.902 147.2 508.662 147.2C509.036 147.2 509.316 147.093 509.502 146.88C509.702 146.653 509.802 146.293 509.802 145.8C509.802 145.213 509.669 144.7 509.402 144.26C509.136 143.807 508.642 143.267 507.922 142.64C507.016 141.84 506.382 141.12 506.022 140.48C505.662 139.827 505.482 139.093 505.482 138.28C505.482 137.173 505.762 136.32 506.322 135.72C506.882 135.107 507.696 134.8 508.762 134.8C509.816 134.8 510.609 135.107 511.142 135.72C511.689 136.32 511.962 137.187 511.962 138.32V138.9H509.882V138.18C509.882 137.7 509.789 137.353 509.602 137.14C509.416 136.913 509.142 136.8 508.782 136.8C508.049 136.8 507.682 137.247 507.682 138.14C507.682 138.647 507.816 139.12 508.082 139.56C508.362 140 508.862 140.533 509.582 141.16C510.502 141.96 511.136 142.687 511.482 143.34C511.829 143.993 512.002 144.76 512.002 145.64C512.002 146.787 511.716 147.667 511.142 148.28C510.582 148.893 509.762 149.2 508.682 149.2ZM515.384 137H513.084V135H519.884V137H517.584V149H515.384V137ZM521.349 135H524.609C525.742 135 526.569 135.267 527.089 135.8C527.609 136.32 527.869 137.127 527.869 138.22V139.08C527.869 140.533 527.389 141.453 526.429 141.84V141.88C526.962 142.04 527.336 142.367 527.549 142.86C527.776 143.353 527.889 144.013 527.889 144.84V147.3C527.889 147.7 527.902 148.027 527.929 148.28C527.956 148.52 528.022 148.76 528.129 149H525.889C525.809 148.773 525.756 148.56 525.729 148.36C525.702 148.16 525.689 147.8 525.689 147.28V144.72C525.689 144.08 525.582 143.633 525.369 143.38C525.169 143.127 524.816 143 524.309 143H523.549V149H521.349V135ZM524.349 141C524.789 141 525.116 140.887 525.329 140.66C525.556 140.433 525.669 140.053 525.669 139.52V138.44C525.669 137.933 525.576 137.567 525.389 137.34C525.216 137.113 524.936 137 524.549 137H523.549V141H524.349ZM531.515 135H534.495L536.775 149H534.575L534.175 146.22V146.26H531.675L531.275 149H529.235L531.515 135ZM533.915 144.36L532.935 137.44H532.895L531.935 144.36H533.915ZM539.045 137H536.745V135H543.545V137H541.245V149H539.045V137ZM545.01 135H547.21V149H545.01V135ZM552.438 149.2C551.358 149.2 550.531 148.893 549.958 148.28C549.384 147.667 549.097 146.8 549.097 145.68V138.32C549.097 137.2 549.384 136.333 549.958 135.72C550.531 135.107 551.358 134.8 552.438 134.8C553.518 134.8 554.344 135.107 554.918 135.72C555.491 136.333 555.778 137.2 555.778 138.32V145.68C555.778 146.8 555.491 147.667 554.918 148.28C554.344 148.893 553.518 149.2 552.438 149.2ZM552.438 147.2C553.198 147.2 553.577 146.74 553.577 145.82V138.18C553.577 137.26 553.198 136.8 552.438 136.8C551.678 136.8 551.298 137.26 551.298 138.18V145.82C551.298 146.74 551.678 147.2 552.438 147.2ZM557.665 135H560.425L562.565 143.38H562.605V135H564.565V149H562.305L559.665 138.78H559.625V149H557.665V135ZM570.204 135H576.024V137H572.404V140.9H575.244V142.9H572.404V149H570.204V135ZM577.479 135H583.479V137H579.679V140.7H582.699V142.7H579.679V147H583.479V149H577.479V135ZM585.144 135H591.144V137H587.344V140.7H590.364V142.7H587.344V147H591.144V149H585.144V135Z" fill="black"/>
<path d="M476.41 150.6H591.584V152.2H476.41V150.6Z" fill="black"/>
<path d="M481.096 184.26C479.709 184.26 478.652 183.87 477.924 183.09C477.196 182.293 476.832 181.157 476.832 179.684V179.346H479.536V179.866C479.536 181.062 480.03 181.66 481.018 181.66C481.555 181.66 481.954 181.495 482.214 181.166C482.474 180.837 482.604 180.256 482.604 179.424V175.94H482.552C482.049 176.997 481.183 177.526 479.952 177.526C478.912 177.526 478.123 177.171 477.586 176.46C477.049 175.749 476.78 174.718 476.78 173.366V170.116C476.78 168.66 477.153 167.533 477.898 166.736C478.643 165.939 479.718 165.54 481.122 165.54C482.526 165.54 483.601 165.939 484.346 166.736C485.091 167.533 485.464 168.66 485.464 170.116V179.528C485.464 182.683 484.008 184.26 481.096 184.26ZM481.122 174.926C482.11 174.926 482.604 174.328 482.604 173.132V169.908C482.604 168.729 482.11 168.14 481.122 168.14C480.134 168.14 479.64 168.729 479.64 169.908V173.132C479.64 174.328 480.134 174.926 481.122 174.926ZM492.026 184.26C490.639 184.26 489.582 183.87 488.854 183.09C488.126 182.293 487.762 181.157 487.762 179.684V179.346H490.466V179.866C490.466 181.062 490.96 181.66 491.948 181.66C492.485 181.66 492.884 181.495 493.144 181.166C493.404 180.837 493.534 180.256 493.534 179.424V175.94H493.482C492.979 176.997 492.113 177.526 490.882 177.526C489.842 177.526 489.053 177.171 488.516 176.46C487.979 175.749 487.71 174.718 487.71 173.366V170.116C487.71 168.66 488.083 167.533 488.828 166.736C489.573 165.939 490.648 165.54 492.052 165.54C493.456 165.54 494.531 165.939 495.276 166.736C496.021 167.533 496.394 168.66 496.394 170.116V179.528C496.394 182.683 494.938 184.26 492.026 184.26ZM492.052 174.926C493.04 174.926 493.534 174.328 493.534 173.132V169.908C493.534 168.729 493.04 168.14 492.052 168.14C491.064 168.14 490.57 168.729 490.57 169.908V173.132C490.57 174.328 491.064 174.926 492.052 174.926ZM503.61 165.8H507.848C509.322 165.8 510.396 166.147 511.072 166.84C511.748 167.516 512.086 168.565 512.086 169.986V171.104C512.086 172.993 511.462 174.189 510.214 174.692V174.744C510.908 174.952 511.393 175.377 511.67 176.018C511.965 176.659 512.112 177.517 512.112 178.592V181.79C512.112 182.31 512.13 182.735 512.164 183.064C512.199 183.376 512.286 183.688 512.424 184H509.512C509.408 183.705 509.339 183.428 509.304 183.168C509.27 182.908 509.252 182.44 509.252 181.764V178.436C509.252 177.604 509.114 177.023 508.836 176.694C508.576 176.365 508.117 176.2 507.458 176.2H506.47V184H503.61V165.8ZM507.51 173.6C508.082 173.6 508.507 173.453 508.784 173.158C509.079 172.863 509.226 172.369 509.226 171.676V170.272C509.226 169.613 509.105 169.137 508.862 168.842C508.637 168.547 508.273 168.4 507.77 168.4H506.47V173.6H507.51ZM514.617 165.8H517.477V184H514.617V165.8ZM520.139 165.8H524.455C525.928 165.8 527.003 166.147 527.679 166.84C528.355 167.516 528.693 168.565 528.693 169.986V170.714C528.693 171.65 528.537 172.413 528.225 173.002C527.93 173.591 527.471 174.016 526.847 174.276V174.328C528.268 174.813 528.979 176.079 528.979 178.124V179.684C528.979 181.088 528.606 182.163 527.861 182.908C527.133 183.636 526.058 184 524.637 184H520.139V165.8ZM524.117 173.21C524.689 173.21 525.113 173.063 525.391 172.768C525.685 172.473 525.833 171.979 525.833 171.286V170.272C525.833 169.613 525.711 169.137 525.469 168.842C525.243 168.547 524.879 168.4 524.377 168.4H522.999V173.21H524.117ZM524.637 181.4C525.139 181.4 525.512 181.27 525.755 181.01C525.997 180.733 526.119 180.265 526.119 179.606V178.02C526.119 177.188 525.971 176.616 525.677 176.304C525.399 175.975 524.931 175.81 524.273 175.81H522.999V181.4H524.637ZM535.33 184.26C533.944 184.26 532.886 183.87 532.158 183.09C531.43 182.293 531.066 181.157 531.066 179.684V165.8H533.926V179.892C533.926 180.516 534.048 180.967 534.29 181.244C534.55 181.521 534.914 181.66 535.382 181.66C535.85 181.66 536.206 181.521 536.448 181.244C536.708 180.967 536.838 180.516 536.838 179.892V165.8H539.594V179.684C539.594 181.157 539.23 182.293 538.502 183.09C537.774 183.87 536.717 184.26 535.33 184.26Z" fill="black"/>
<circle r="4.5" transform="matrix(-1 0 0 1 23.5 277.5)" fill="black"/>
<path d="M31.0106 270H34.2506C35.344 270 36.164 270.293 36.7106 270.88C37.2573 271.467 37.5306 272.327 37.5306 273.46V274.84C37.5306 275.973 37.2573 276.833 36.7106 277.42C36.164 278.007 35.344 278.3 34.2506 278.3H33.2106V284H31.0106V270ZM34.2506 276.3C34.6106 276.3 34.8773 276.2 35.0506 276C35.2373 275.8 35.3306 275.46 35.3306 274.98V273.32C35.3306 272.84 35.2373 272.5 35.0506 272.3C34.8773 272.1 34.6106 272 34.2506 272H33.2106V276.3H34.2506ZM40.1223 270H43.1023L45.3823 284H43.1823L42.7823 281.22V281.26H40.2823L39.8823 284H37.8423L40.1223 270ZM42.5223 279.36L41.5423 272.44H41.5023L40.5423 279.36H42.5223ZM46.8497 270H50.1097C51.243 270 52.0697 270.267 52.5897 270.8C53.1097 271.32 53.3697 272.127 53.3697 273.22V274.08C53.3697 275.533 52.8897 276.453 51.9297 276.84V276.88C52.463 277.04 52.8364 277.367 53.0497 277.86C53.2764 278.353 53.3897 279.013 53.3897 279.84V282.3C53.3897 282.7 53.403 283.027 53.4297 283.28C53.4564 283.52 53.523 283.76 53.6297 284H51.3897C51.3097 283.773 51.2564 283.56 51.2297 283.36C51.203 283.16 51.1897 282.8 51.1897 282.28V279.72C51.1897 279.08 51.083 278.633 50.8697 278.38C50.6697 278.127 50.3164 278 49.8097 278H49.0497V284H46.8497V270ZM49.8497 276C50.2897 276 50.6164 275.887 50.8297 275.66C51.0564 275.433 51.1697 275.053 51.1697 274.52V273.44C51.1697 272.933 51.0764 272.567 50.8897 272.34C50.7164 272.113 50.4364 272 50.0497 272H49.0497V276H49.8497ZM56.997 272H54.697V270H61.497V272H59.197V284H56.997V272ZM62.9622 270H65.7222L67.8622 278.38H67.9022V270H69.8622V284H67.6022L64.9622 273.78H64.9222V284H62.9622V270ZM71.8973 270H77.8973V272H74.0973V275.7H77.1173V277.7H74.0973V282H77.8973V284H71.8973V270ZM79.563 270H82.823C83.9563 270 84.783 270.267 85.303 270.8C85.823 271.32 86.083 272.127 86.083 273.22V274.08C86.083 275.533 85.603 276.453 84.643 276.84V276.88C85.1763 277.04 85.5496 277.367 85.763 277.86C85.9896 278.353 86.103 279.013 86.103 279.84V282.3C86.103 282.7 86.1163 283.027 86.143 283.28C86.1696 283.52 86.2363 283.76 86.343 284H84.103C84.023 283.773 83.9696 283.56 83.943 283.36C83.9163 283.16 83.903 282.8 83.903 282.28V279.72C83.903 279.08 83.7963 278.633 83.583 278.38C83.383 278.127 83.0296 278 82.523 278H81.763V284H79.563V270ZM82.563 276C83.003 276 83.3296 275.887 83.543 275.66C83.7696 275.433 83.883 275.053 83.883 274.52V273.44C83.883 272.933 83.7896 272.567 83.603 272.34C83.4296 272.113 83.1496 272 82.763 272H81.763V276H82.563Z" fill="black"/>
<path d="M30.1906 285.6H86.803V287.2H30.1906V285.6Z" fill="black"/>
<path d="M477.518 43.8H481.886C483.307 43.8 484.373 44.1813 485.084 44.944C485.794 45.7067 486.15 46.8247 486.15 48.298V57.502C486.15 58.9753 485.794 60.0933 485.084 60.856C484.373 61.6187 483.307 62 481.886 62H477.518V43.8ZM481.834 59.4C482.302 59.4 482.657 59.2613 482.9 58.984C483.16 58.7067 483.29 58.256 483.29 57.632V48.168C483.29 47.544 483.16 47.0933 482.9 46.816C482.657 46.5387 482.302 46.4 481.834 46.4H480.378V59.4H481.834ZM488.6 43.8H496.4V46.4H491.46V51.21H495.386V53.81H491.46V59.4H496.4V62H488.6V43.8ZM498.565 43.8H502.153L504.935 54.694H504.987V43.8H507.535V62H504.597L501.165 48.714H501.113V62H498.565V43.8ZM510.181 43.8H513.769L516.551 54.694H516.603V43.8H519.151V62H516.213L512.781 48.714H512.729V62H510.181V43.8ZM524.423 54.252L520.965 43.8H524.007L525.957 50.482H526.009L527.959 43.8H530.741L527.283 54.252V62H524.423V54.252ZM541.263 62.26C539.894 62.26 538.845 61.87 538.117 61.09C537.407 60.31 537.051 59.2093 537.051 57.788V48.012C537.051 46.5907 537.407 45.49 538.117 44.71C538.845 43.93 539.894 43.54 541.263 43.54C542.633 43.54 543.673 43.93 544.383 44.71C545.111 45.49 545.475 46.5907 545.475 48.012V49.936H542.771V47.83C542.771 46.7033 542.295 46.14 541.341 46.14C540.388 46.14 539.911 46.7033 539.911 47.83V57.996C539.911 59.1053 540.388 59.66 541.341 59.66C542.295 59.66 542.771 59.1053 542.771 57.996V55.214H545.475V57.788C545.475 59.2093 545.111 60.31 544.383 61.09C543.673 61.87 542.633 62.26 541.263 62.26ZM549.916 43.8H553.79L556.754 62H553.894L553.374 58.386V58.438H550.124L549.604 62H546.952L549.916 43.8ZM553.036 55.968L551.762 46.972H551.71L550.462 55.968H553.036ZM558.662 43.8H561.522V51.47L565.162 43.8H568.022L564.616 50.482L568.074 62H565.084L562.666 53.888L561.522 56.202V62H558.662V43.8ZM569.948 43.8H573.536L576.318 54.694H576.37V43.8H578.918V62H575.98L572.548 48.714H572.496V62H569.948V43.8ZM583.773 43.8H587.647L590.611 62H587.751L587.231 58.386V58.438H583.981L583.461 62H580.809L583.773 43.8ZM586.893 55.968L585.619 46.972H585.567L584.319 55.968H586.893ZM592.519 43.8H596.107L598.889 54.694H598.941V43.8H601.489V62H598.551L595.119 48.714H595.067V62H592.519V43.8Z" fill="black"/>
</svg>
