<svg width="810" height="472" viewBox="0 0 810 472" fill="none" xmlns="http://www.w3.org/2000/svg">
<rect x="1" y="1" width="362" height="90" rx="9" fill="white" stroke="black" stroke-width="2"/>
<rect x="447" y="269" width="362" height="88" rx="9" fill="white" stroke="black" stroke-width="2"/>
<rect x="447" y="381" width="362" height="90" rx="9" fill="#1FD57D" stroke="black" stroke-width="2"/>
<circle r="4.5" transform="matrix(-1 0 0 1 23.5 22.5)" fill="black"/>
<path d="M31.297 15H33.497V27H37.117V29H31.297V15ZM41.6738 29.2C40.5938 29.2 39.7672 28.8933 39.1938 28.28C38.6205 27.6667 38.3338 26.8 38.3338 25.68V18.32C38.3338 17.2 38.6205 16.3333 39.1938 15.72C39.7672 15.1067 40.5938 14.8 41.6738 14.8C42.7538 14.8 43.5805 15.1067 44.1538 15.72C44.7272 16.3333 45.0138 17.2 45.0138 18.32V25.68C45.0138 26.8 44.7272 27.6667 44.1538 28.28C43.5805 28.8933 42.7538 29.2 41.6738 29.2ZM41.6738 27.2C42.4338 27.2 42.8138 26.74 42.8138 25.82V18.18C42.8138 17.26 42.4338 16.8 41.6738 16.8C40.9138 16.8 40.5338 17.26 40.5338 18.18V25.82C40.5338 26.74 40.9138 27.2 41.6738 27.2ZM50.0016 29.2C48.9483 29.2 48.1416 28.9 47.5816 28.3C47.035 27.7 46.7616 26.8533 46.7616 25.76V18.24C46.7616 17.1467 47.035 16.3 47.5816 15.7C48.1416 15.1 48.9483 14.8 50.0016 14.8C51.055 14.8 51.855 15.1 52.4016 15.7C52.9616 16.3 53.2416 17.1467 53.2416 18.24V19.72H51.1616V18.1C51.1616 17.2333 50.795 16.8 50.0616 16.8C49.3283 16.8 48.9616 17.2333 48.9616 18.1V25.92C48.9616 26.7733 49.3283 27.2 50.0616 27.2C50.795 27.2 51.1616 26.7733 51.1616 25.92V23.78H53.2416V25.76C53.2416 26.8533 52.9616 27.7 52.4016 28.3C51.855 28.9 51.055 29.2 50.0016 29.2ZM56.6579 15H59.6379L61.9179 29H59.7179L59.3179 26.22V26.26H56.8179L56.4179 29H54.3779L56.6579 15ZM59.0579 24.36L58.0779 17.44H58.0379L57.0779 24.36H59.0579ZM64.1873 17H61.8873V15H68.6873V17H66.3873V29H64.1873V17ZM70.1524 15H72.3524V29H70.1524V15ZM77.5801 29.2C76.5001 29.2 75.6734 28.8933 75.1001 28.28C74.5267 27.6667 74.2401 26.8 74.2401 25.68V18.32C74.2401 17.2 74.5267 16.3333 75.1001 15.72C75.6734 15.1067 76.5001 14.8 77.5801 14.8C78.6601 14.8 79.4867 15.1067 80.0601 15.72C80.6334 16.3333 80.9201 17.2 80.9201 18.32V25.68C80.9201 26.8 80.6334 27.6667 80.0601 28.28C79.4867 28.8933 78.6601 29.2 77.5801 29.2ZM77.5801 27.2C78.3401 27.2 78.7201 26.74 78.7201 25.82V18.18C78.7201 17.26 78.3401 16.8 77.5801 16.8C76.8201 16.8 76.4401 17.26 76.4401 18.18V25.82C76.4401 26.74 76.8201 27.2 77.5801 27.2ZM82.8079 15H85.5679L87.7079 23.38H87.7479V15H89.7079V29H87.4479L84.8079 18.78H84.7679V29H82.8079V15Z" fill="black"/>
<path d="M30.477 30.6H90.5279V32.2H30.477V30.6Z" fill="black"/>
<path d="M34.9487 69.26C33.562 69.26 32.5134 68.87 31.8027 68.09C31.092 67.2927 30.7367 66.1573 30.7367 64.684V63.644H33.4407V64.892C33.4407 66.0707 33.9347 66.66 34.9227 66.66C35.408 66.66 35.772 66.5213 36.0147 66.244C36.2747 65.9493 36.4047 65.4813 36.4047 64.84C36.4047 64.0773 36.2314 63.41 35.8847 62.838C35.538 62.2487 34.8967 61.5467 33.9607 60.732C32.782 59.692 31.9587 58.756 31.4907 57.924C31.0227 57.0747 30.7887 56.1213 30.7887 55.064C30.7887 53.6253 31.1527 52.516 31.8807 51.736C32.6087 50.9387 33.666 50.54 35.0527 50.54C36.422 50.54 37.4534 50.9387 38.1467 51.736C38.8574 52.516 39.2127 53.6427 39.2127 55.116V55.87H36.5087V54.934C36.5087 54.31 36.3874 53.8593 36.1447 53.582C35.902 53.2873 35.5467 53.14 35.0787 53.14C34.1254 53.14 33.6487 53.7207 33.6487 54.882C33.6487 55.5407 33.822 56.156 34.1687 56.728C34.5327 57.3 35.1827 57.9933 36.1187 58.808C37.3147 59.848 38.138 60.7927 38.5887 61.642C39.0394 62.4913 39.2647 63.488 39.2647 64.632C39.2647 66.1227 38.892 67.2667 38.1467 68.064C37.4187 68.8613 36.3527 69.26 34.9487 69.26ZM41.4245 50.8H49.2245V53.4H44.2845V58.21H48.2105V60.81H44.2845V66.4H49.2245V69H41.4245V50.8ZM53.6258 53.4H50.6358V50.8H59.4758V53.4H56.4858V69H53.6258V53.4ZM61.3805 50.8H64.2405V69H61.3805V50.8ZM70.9585 69.26C69.5718 69.26 68.5145 68.87 67.7865 68.09C67.0585 67.2927 66.6945 66.1573 66.6945 64.684V55.116C66.6945 53.6427 67.0585 52.516 67.7865 51.736C68.5145 50.9387 69.5718 50.54 70.9585 50.54C72.3452 50.54 73.4025 50.9387 74.1305 51.736C74.8585 52.516 75.2225 53.6427 75.2225 55.116V56.676H72.5185V54.934C72.5185 53.738 72.0245 53.14 71.0365 53.14C70.0485 53.14 69.5545 53.738 69.5545 54.934V64.892C69.5545 66.0707 70.0485 66.66 71.0365 66.66C72.0245 66.66 72.5185 66.0707 72.5185 64.892V61.33H71.0885V58.73H75.2225V64.684C75.2225 66.1573 74.8585 67.2927 74.1305 68.09C73.4025 68.87 72.3452 69.26 70.9585 69.26ZM77.5787 50.8H80.4387V69H77.5787V50.8ZM84.0367 69H83.1007V66.244H85.8567V68.714L84.4267 72.12H83.1007L84.0367 69ZM96.9231 69.26C95.5365 69.26 94.4878 68.87 93.7771 68.09C93.0665 67.2927 92.7111 66.1573 92.7111 64.684V63.644H95.4151V64.892C95.4151 66.0707 95.9091 66.66 96.8971 66.66C97.3825 66.66 97.7465 66.5213 97.9891 66.244C98.2491 65.9493 98.3791 65.4813 98.3791 64.84C98.3791 64.0773 98.2058 63.41 97.8591 62.838C97.5125 62.2487 96.8711 61.5467 95.9351 60.732C94.7565 59.692 93.9331 58.756 93.4651 57.924C92.9971 57.0747 92.7631 56.1213 92.7631 55.064C92.7631 53.6253 93.1271 52.516 93.8551 51.736C94.5831 50.9387 95.6405 50.54 97.0271 50.54C98.3965 50.54 99.4278 50.9387 100.121 51.736C100.832 52.516 101.187 53.6427 101.187 55.116V55.87H98.4831V54.934C98.4831 54.31 98.3618 53.8593 98.1191 53.582C97.8765 53.2873 97.5211 53.14 97.0531 53.14C96.0998 53.14 95.6231 53.7207 95.6231 54.882C95.6231 55.5407 95.7965 56.156 96.1431 56.728C96.5071 57.3 97.1571 57.9933 98.0931 58.808C99.2891 59.848 100.112 60.7927 100.563 61.642C101.014 62.4913 101.239 63.488 101.239 64.632C101.239 66.1227 100.866 67.2667 100.121 68.064C99.3931 68.8613 98.3271 69.26 96.9231 69.26ZM103.399 50.8H111.199V53.4H106.259V58.21H110.185V60.81H106.259V66.4H111.199V69H103.399V50.8ZM113.364 50.8H116.224V58.47L119.864 50.8H122.724L119.318 57.482L122.776 69H119.786L117.368 60.888L116.224 63.202V69H113.364V50.8ZM126.86 50.8H130.734L133.698 69H130.838L130.318 65.386V65.438H127.068L126.548 69H123.896L126.86 50.8ZM129.98 62.968L128.706 53.972H128.654L127.406 62.968H129.98ZM135.605 50.8H139.817C141.239 50.8 142.305 51.1813 143.015 51.944C143.726 52.7067 144.081 53.8247 144.081 55.298V57.092C144.081 58.5653 143.726 59.6833 143.015 60.446C142.305 61.2087 141.239 61.59 139.817 61.59H138.465V69H135.605V50.8ZM139.817 58.99C140.285 58.99 140.632 58.86 140.857 58.6C141.1 58.34 141.221 57.898 141.221 57.274V55.116C141.221 54.492 141.1 54.05 140.857 53.79C140.632 53.53 140.285 53.4 139.817 53.4H138.465V58.99H139.817ZM150.315 69.26C148.928 69.26 147.871 68.87 147.143 68.09C146.415 67.2927 146.051 66.1573 146.051 64.684V50.8H148.911V64.892C148.911 65.516 149.032 65.9667 149.275 66.244C149.535 66.5213 149.899 66.66 150.367 66.66C150.835 66.66 151.19 66.5213 151.433 66.244C151.693 65.9667 151.823 65.516 151.823 64.892V50.8H154.579V64.684C154.579 66.1573 154.215 67.2927 153.487 68.09C152.759 68.87 151.701 69.26 150.315 69.26ZM157.136 50.8H159.996V58.47L163.636 50.8H166.496L163.09 57.482L166.548 69H163.558L161.14 60.888L159.996 63.202V69H157.136V50.8Z" fill="black"/>
<rect x="1" y="119" width="362" height="90" rx="9" fill="white" stroke="black" stroke-width="2"/>
<circle r="4.5" transform="matrix(-1 0 0 1 23.5 142.5)" fill="black"/>
<path d="M30.847 135H34.207C35.3003 135 36.1203 135.293 36.667 135.88C37.2136 136.467 37.487 137.327 37.487 138.46V145.54C37.487 146.673 37.2136 147.533 36.667 148.12C36.1203 148.707 35.3003 149 34.207 149H30.847V135ZM34.167 147C34.527 147 34.8003 146.893 34.987 146.68C35.187 146.467 35.287 146.12 35.287 145.64V138.36C35.287 137.88 35.187 137.533 34.987 137.32C34.8003 137.107 34.527 137 34.167 137H33.047V147H34.167ZM41.0329 135H44.0129L46.2929 149H44.0929L43.6929 146.22V146.26H41.1929L40.7929 149H38.7529L41.0329 135ZM43.4329 144.36L42.4529 137.44H42.4129L41.4529 144.36H43.4329ZM48.5623 137H46.2623V135H53.0623V137H50.7623V149H48.5623V137ZM54.5274 135H60.5274V137H56.7274V140.7H59.7474V142.7H56.7274V147H60.5274V149H54.5274V135Z" fill="black"/>
<path d="M30.027 150.6H60.9674V152.2H30.027V150.6Z" fill="black"/>
<path d="M35.1446 173.116H32.1546V171.088C32.9693 171.088 33.6193 171.019 34.1046 170.88C34.6073 170.741 35.0059 170.516 35.3006 170.204C35.5953 169.875 35.8553 169.407 36.0806 168.8H38.0046V187H35.1446V173.116ZM46.2048 187.26C44.8008 187.26 43.7261 186.861 42.9808 186.064C42.2354 185.267 41.8628 184.14 41.8628 182.684V173.116C41.8628 171.66 42.2354 170.533 42.9808 169.736C43.7261 168.939 44.8008 168.54 46.2048 168.54C47.6088 168.54 48.6834 168.939 49.4288 169.736C50.1741 170.533 50.5468 171.66 50.5468 173.116V182.684C50.5468 184.14 50.1741 185.267 49.4288 186.064C48.6834 186.861 47.6088 187.26 46.2048 187.26ZM46.2048 184.66C47.1928 184.66 47.6868 184.062 47.6868 182.866V172.934C47.6868 171.738 47.1928 171.14 46.2048 171.14C45.2168 171.14 44.7228 171.738 44.7228 172.934V182.866C44.7228 184.062 45.2168 184.66 46.2048 184.66ZM57.685 168.8H61.273L64.055 179.694H64.107V168.8H66.655V187H63.717L60.285 173.714H60.233V187H57.685V168.8ZM73.4347 187.26C72.0307 187.26 70.956 186.861 70.2107 186.064C69.4654 185.267 69.0927 184.14 69.0927 182.684V173.116C69.0927 171.66 69.4654 170.533 70.2107 169.736C70.956 168.939 72.0307 168.54 73.4347 168.54C74.8387 168.54 75.9134 168.939 76.6587 169.736C77.404 170.533 77.7767 171.66 77.7767 173.116V182.684C77.7767 184.14 77.404 185.267 76.6587 186.064C75.9134 186.861 74.8387 187.26 73.4347 187.26ZM73.4347 184.66C74.4227 184.66 74.9167 184.062 74.9167 182.866V172.934C74.9167 171.738 74.4227 171.14 73.4347 171.14C72.4467 171.14 71.9527 171.738 71.9527 172.934V182.866C71.9527 184.062 72.4467 184.66 73.4347 184.66ZM79.4261 168.8H82.3121L84.1841 182.918H84.2361L86.1081 168.8H88.7341L85.9781 187H82.1821L79.4261 168.8ZM90.6278 168.8H98.4278V171.4H93.4878V176.21H97.4138V178.81H93.4878V184.4H98.4278V187H90.6278V168.8ZM100.593 168.8H104.675L106.495 181.826H106.547L108.367 168.8H112.449V187H109.745V173.22H109.693L107.613 187H105.221L103.141 173.22H103.089V187H100.593V168.8ZM115.103 168.8H119.419C120.893 168.8 121.967 169.147 122.643 169.84C123.319 170.516 123.657 171.565 123.657 172.986V173.714C123.657 174.65 123.501 175.413 123.189 176.002C122.895 176.591 122.435 177.016 121.811 177.276V177.328C123.233 177.813 123.943 179.079 123.943 181.124V182.684C123.943 184.088 123.571 185.163 122.825 185.908C122.097 186.636 121.023 187 119.601 187H115.103V168.8ZM119.081 176.21C119.653 176.21 120.078 176.063 120.355 175.768C120.65 175.473 120.797 174.979 120.797 174.286V173.272C120.797 172.613 120.676 172.137 120.433 171.842C120.208 171.547 119.844 171.4 119.341 171.4H117.963V176.21H119.081ZM119.601 184.4C120.104 184.4 120.477 184.27 120.719 184.01C120.962 183.733 121.083 183.265 121.083 182.606V181.02C121.083 180.188 120.936 179.616 120.641 179.304C120.364 178.975 119.896 178.81 119.237 178.81H117.963V184.4H119.601ZM126.135 168.8H133.935V171.4H128.995V176.21H132.921V178.81H128.995V184.4H133.935V187H126.135V168.8ZM136.1 168.8H140.338C141.812 168.8 142.886 169.147 143.562 169.84C144.238 170.516 144.576 171.565 144.576 172.986V174.104C144.576 175.993 143.952 177.189 142.704 177.692V177.744C143.398 177.952 143.883 178.377 144.16 179.018C144.455 179.659 144.602 180.517 144.602 181.592V184.79C144.602 185.31 144.62 185.735 144.654 186.064C144.689 186.376 144.776 186.688 144.914 187H142.002C141.898 186.705 141.829 186.428 141.794 186.168C141.76 185.908 141.742 185.44 141.742 184.764V181.436C141.742 180.604 141.604 180.023 141.326 179.694C141.066 179.365 140.607 179.2 139.948 179.2H138.96V187H136.1V168.8ZM140 176.6C140.572 176.6 140.997 176.453 141.274 176.158C141.569 175.863 141.716 175.369 141.716 174.676V173.272C141.716 172.613 141.595 172.137 141.352 171.842C141.127 171.547 140.763 171.4 140.26 171.4H138.96V176.6H140ZM151.739 185.024C151.739 183.724 151.947 182.615 152.363 181.696C152.779 180.76 153.524 179.729 154.599 178.602C155.656 177.475 156.384 176.513 156.783 175.716C157.199 174.919 157.407 174.087 157.407 173.22C157.407 172.44 157.277 171.903 157.017 171.608C156.774 171.296 156.41 171.14 155.925 171.14C154.937 171.14 154.443 171.738 154.443 172.934V174.884H151.739V173.116C151.739 171.643 152.103 170.516 152.831 169.736C153.559 168.939 154.616 168.54 156.003 168.54C157.389 168.54 158.447 168.939 159.175 169.736C159.903 170.516 160.267 171.643 160.267 173.116C160.267 174.225 159.998 175.309 159.461 176.366C158.941 177.423 158.031 178.637 156.731 180.006C155.881 180.907 155.309 181.644 155.015 182.216C154.72 182.771 154.573 183.369 154.573 184.01V184.4H160.007V187H151.739V185.024ZM166.855 187.26C165.451 187.26 164.376 186.861 163.631 186.064C162.886 185.267 162.513 184.14 162.513 182.684V173.116C162.513 171.66 162.886 170.533 163.631 169.736C164.376 168.939 165.451 168.54 166.855 168.54C168.259 168.54 169.334 168.939 170.079 169.736C170.824 170.533 171.197 171.66 171.197 173.116V182.684C171.197 184.14 170.824 185.267 170.079 186.064C169.334 186.861 168.259 187.26 166.855 187.26ZM166.855 184.66C167.843 184.66 168.337 184.062 168.337 182.866V172.934C168.337 171.738 167.843 171.14 166.855 171.14C165.867 171.14 165.373 171.738 165.373 172.934V182.866C165.373 184.062 165.867 184.66 166.855 184.66ZM173.599 185.024C173.599 183.724 173.807 182.615 174.223 181.696C174.639 180.76 175.384 179.729 176.459 178.602C177.516 177.475 178.244 176.513 178.643 175.716C179.059 174.919 179.267 174.087 179.267 173.22C179.267 172.44 179.137 171.903 178.877 171.608C178.634 171.296 178.27 171.14 177.785 171.14C176.797 171.14 176.303 171.738 176.303 172.934V174.884H173.599V173.116C173.599 171.643 173.963 170.516 174.691 169.736C175.419 168.939 176.476 168.54 177.863 168.54C179.25 168.54 180.307 168.939 181.035 169.736C181.763 170.516 182.127 171.643 182.127 173.116C182.127 174.225 181.858 175.309 181.321 176.366C180.801 177.423 179.891 178.637 178.591 180.006C177.742 180.907 177.17 181.644 176.875 182.216C176.58 182.771 176.433 183.369 176.433 184.01V184.4H181.867V187H173.599V185.024ZM184.529 185.024C184.529 183.724 184.737 182.615 185.153 181.696C185.569 180.76 186.315 179.729 187.389 178.602C188.447 177.475 189.175 176.513 189.573 175.716C189.989 174.919 190.197 174.087 190.197 173.22C190.197 172.44 190.067 171.903 189.807 171.608C189.565 171.296 189.201 171.14 188.715 171.14C187.727 171.14 187.233 171.738 187.233 172.934V174.884H184.529V173.116C184.529 171.643 184.893 170.516 185.621 169.736C186.349 168.939 187.407 168.54 188.793 168.54C190.18 168.54 191.237 168.939 191.965 169.736C192.693 170.516 193.057 171.643 193.057 173.116C193.057 174.225 192.789 175.309 192.251 176.366C191.731 177.423 190.821 178.637 189.521 180.006C188.672 180.907 188.1 181.644 187.805 182.216C187.511 182.771 187.363 183.369 187.363 184.01V184.4H192.797V187H184.529V185.024Z" fill="black"/>
<path d="M584.078 301.8H588.29C589.711 301.8 590.777 302.181 591.488 302.944C592.199 303.707 592.554 304.825 592.554 306.298V308.092C592.554 309.565 592.199 310.683 591.488 311.446C590.777 312.209 589.711 312.59 588.29 312.59H586.938V320H584.078V301.8ZM588.29 309.99C588.758 309.99 589.105 309.86 589.33 309.6C589.573 309.34 589.694 308.898 589.694 308.274V306.116C589.694 305.492 589.573 305.05 589.33 304.79C589.105 304.53 588.758 304.4 588.29 304.4H586.938V309.99H588.29ZM594.627 301.8H598.865C600.339 301.8 601.413 302.147 602.089 302.84C602.765 303.516 603.103 304.565 603.103 305.986V307.104C603.103 308.993 602.479 310.189 601.231 310.692V310.744C601.925 310.952 602.41 311.377 602.687 312.018C602.982 312.659 603.129 313.517 603.129 314.592V317.79C603.129 318.31 603.147 318.735 603.181 319.064C603.216 319.376 603.303 319.688 603.441 320H600.529C600.425 319.705 600.356 319.428 600.321 319.168C600.287 318.908 600.269 318.44 600.269 317.764V314.436C600.269 313.604 600.131 313.023 599.853 312.694C599.593 312.365 599.134 312.2 598.475 312.2H597.487V320H594.627V301.8ZM598.527 309.6C599.099 309.6 599.524 309.453 599.801 309.158C600.096 308.863 600.243 308.369 600.243 307.676V306.272C600.243 305.613 600.122 305.137 599.879 304.842C599.654 304.547 599.29 304.4 598.787 304.4H597.487V309.6H598.527ZM609.768 320.26C608.364 320.26 607.289 319.861 606.544 319.064C605.798 318.267 605.426 317.14 605.426 315.684V306.116C605.426 304.66 605.798 303.533 606.544 302.736C607.289 301.939 608.364 301.54 609.768 301.54C611.172 301.54 612.246 301.939 612.992 302.736C613.737 303.533 614.11 304.66 614.11 306.116V315.684C614.11 317.14 613.737 318.267 612.992 319.064C612.246 319.861 611.172 320.26 609.768 320.26ZM609.768 317.66C610.756 317.66 611.25 317.062 611.25 315.866V305.934C611.25 304.738 610.756 304.14 609.768 304.14C608.78 304.14 608.286 304.738 608.286 305.934V315.866C608.286 317.062 608.78 317.66 609.768 317.66ZM616.564 301.8H620.776C622.197 301.8 623.263 302.181 623.974 302.944C624.684 303.707 625.04 304.825 625.04 306.298V308.092C625.04 309.565 624.684 310.683 623.974 311.446C623.263 312.209 622.197 312.59 620.776 312.59H619.424V320H616.564V301.8ZM620.776 309.99C621.244 309.99 621.59 309.86 621.816 309.6C622.058 309.34 622.18 308.898 622.18 308.274V306.116C622.18 305.492 622.058 305.05 621.816 304.79C621.59 304.53 621.244 304.4 620.776 304.4H619.424V309.99H620.776ZM631.247 320.26C629.843 320.26 628.768 319.861 628.023 319.064C627.278 318.267 626.905 317.14 626.905 315.684V306.116C626.905 304.66 627.278 303.533 628.023 302.736C628.768 301.939 629.843 301.54 631.247 301.54C632.651 301.54 633.726 301.939 634.471 302.736C635.216 303.533 635.589 304.66 635.589 306.116V315.684C635.589 317.14 635.216 318.267 634.471 319.064C633.726 319.861 632.651 320.26 631.247 320.26ZM631.247 317.66C632.235 317.66 632.729 317.062 632.729 315.866V305.934C632.729 304.738 632.235 304.14 631.247 304.14C630.259 304.14 629.765 304.738 629.765 305.934V315.866C629.765 317.062 630.259 317.66 631.247 317.66ZM641.761 320.26C640.375 320.26 639.326 319.87 638.615 319.09C637.905 318.293 637.549 317.157 637.549 315.684V314.644H640.253V315.892C640.253 317.071 640.747 317.66 641.735 317.66C642.221 317.66 642.585 317.521 642.827 317.244C643.087 316.949 643.217 316.481 643.217 315.84C643.217 315.077 643.044 314.41 642.697 313.838C642.351 313.249 641.709 312.547 640.773 311.732C639.595 310.692 638.771 309.756 638.303 308.924C637.835 308.075 637.601 307.121 637.601 306.064C637.601 304.625 637.965 303.516 638.693 302.736C639.421 301.939 640.479 301.54 641.865 301.54C643.235 301.54 644.266 301.939 644.959 302.736C645.67 303.516 646.025 304.643 646.025 306.116V306.87H643.321V305.934C643.321 305.31 643.2 304.859 642.957 304.582C642.715 304.287 642.359 304.14 641.891 304.14C640.938 304.14 640.461 304.721 640.461 305.882C640.461 306.541 640.635 307.156 640.981 307.728C641.345 308.3 641.995 308.993 642.931 309.808C644.127 310.848 644.951 311.793 645.401 312.642C645.852 313.491 646.077 314.488 646.077 315.632C646.077 317.123 645.705 318.267 644.959 319.064C644.231 319.861 643.165 320.26 641.761 320.26ZM650.371 301.8H654.245L657.209 320H654.349L653.829 316.386V316.438H650.579L650.059 320H647.407L650.371 301.8ZM653.491 313.968L652.217 304.972H652.165L650.917 313.968H653.491ZM659.116 301.8H661.976V317.4H666.682V320H659.116V301.8Z" fill="black"/>
<path d="M600.255 409.26C598.885 409.26 597.837 408.87 597.109 408.09C596.398 407.31 596.043 406.209 596.043 404.788V395.012C596.043 393.591 596.398 392.49 597.109 391.71C597.837 390.93 598.885 390.54 600.255 390.54C601.624 390.54 602.664 390.93 603.375 391.71C604.103 392.49 604.467 393.591 604.467 395.012V396.936H601.763V394.83C601.763 393.703 601.286 393.14 600.333 393.14C599.379 393.14 598.903 393.703 598.903 394.83V404.996C598.903 406.105 599.379 406.66 600.333 406.66C601.286 406.66 601.763 406.105 601.763 404.996V402.214H604.467V404.788C604.467 406.209 604.103 407.31 603.375 408.09C602.664 408.87 601.624 409.26 600.255 409.26ZM608.908 390.8H612.782L615.746 409H612.886L612.366 405.386V405.438H609.116L608.596 409H605.944L608.908 390.8ZM612.028 402.968L610.754 393.972H610.702L609.454 402.968H612.028ZM617.653 390.8H620.513V406.4H625.219V409H617.653V390.8ZM627.111 390.8H629.971V406.4H634.677V409H627.111V390.8ZM645.412 409.26C644.026 409.26 642.968 408.87 642.24 408.09C641.512 407.293 641.148 406.157 641.148 404.684V390.8H644.008V404.892C644.008 405.516 644.13 405.967 644.372 406.244C644.632 406.521 644.996 406.66 645.464 406.66C645.932 406.66 646.288 406.521 646.53 406.244C646.79 405.967 646.92 405.516 646.92 404.892V390.8H649.676V404.684C649.676 406.157 649.312 407.293 648.584 408.09C647.856 408.87 646.799 409.26 645.412 409.26ZM655.951 409.26C654.565 409.26 653.516 408.87 652.805 408.09C652.095 407.293 651.739 406.157 651.739 404.684V403.644H654.443V404.892C654.443 406.071 654.937 406.66 655.925 406.66C656.411 406.66 656.775 406.521 657.017 406.244C657.277 405.949 657.407 405.481 657.407 404.84C657.407 404.077 657.234 403.41 656.887 402.838C656.541 402.249 655.899 401.547 654.963 400.732C653.785 399.692 652.961 398.756 652.493 397.924C652.025 397.075 651.791 396.121 651.791 395.064C651.791 393.625 652.155 392.516 652.883 391.736C653.611 390.939 654.669 390.54 656.055 390.54C657.425 390.54 658.456 390.939 659.149 391.736C659.86 392.516 660.215 393.643 660.215 395.116V395.87H657.511V394.934C657.511 394.31 657.39 393.859 657.147 393.582C656.905 393.287 656.549 393.14 656.081 393.14C655.128 393.14 654.651 393.721 654.651 394.882C654.651 395.541 654.825 396.156 655.171 396.728C655.535 397.3 656.185 397.993 657.121 398.808C658.317 399.848 659.141 400.793 659.591 401.642C660.042 402.491 660.267 403.488 660.267 404.632C660.267 406.123 659.895 407.267 659.149 408.064C658.421 408.861 657.355 409.26 655.951 409.26Z" fill="black"/>
<path d="M521.071 430.8H525.309C526.782 430.8 527.857 431.147 528.533 431.84C529.209 432.516 529.547 433.565 529.547 434.986V436.104C529.547 437.993 528.923 439.189 527.675 439.692V439.744C528.368 439.952 528.854 440.377 529.131 441.018C529.426 441.659 529.573 442.517 529.573 443.592V446.79C529.573 447.31 529.59 447.735 529.625 448.064C529.66 448.376 529.746 448.688 529.885 449H526.973C526.869 448.705 526.8 448.428 526.765 448.168C526.73 447.908 526.713 447.44 526.713 446.764V443.436C526.713 442.604 526.574 442.023 526.297 441.694C526.037 441.365 525.578 441.2 524.919 441.2H523.931V449H521.071V430.8ZM524.971 438.6C525.543 438.6 525.968 438.453 526.245 438.158C526.54 437.863 526.687 437.369 526.687 436.676V435.272C526.687 434.613 526.566 434.137 526.323 433.842C526.098 433.547 525.734 433.4 525.231 433.4H523.931V438.6H524.971ZM536.211 449.26C534.807 449.26 533.733 448.861 532.987 448.064C532.242 447.267 531.869 446.14 531.869 444.684V435.116C531.869 433.66 532.242 432.533 532.987 431.736C533.733 430.939 534.807 430.54 536.211 430.54C537.615 430.54 538.69 430.939 539.435 431.736C540.181 432.533 540.553 433.66 540.553 435.116V444.684C540.553 446.14 540.181 447.267 539.435 448.064C538.69 448.861 537.615 449.26 536.211 449.26ZM536.211 446.66C537.199 446.66 537.693 446.062 537.693 444.866V434.934C537.693 433.738 537.199 433.14 536.211 433.14C535.223 433.14 534.729 433.738 534.729 434.934V444.866C534.729 446.062 535.223 446.66 536.211 446.66ZM543.007 430.8H545.867V438.21H548.935V430.8H551.795V449H548.935V440.81H545.867V449H543.007V430.8ZM554.445 430.8H562.245V433.4H557.305V438.21H561.231V440.81H557.305V446.4H562.245V449H554.445V430.8ZM564.411 430.8H567.999L570.781 441.694H570.833V430.8H573.381V449H570.443L567.011 435.714H566.959V449H564.411V430.8ZM576.026 430.8H580.394C581.816 430.8 582.882 431.181 583.592 431.944C584.303 432.707 584.658 433.825 584.658 435.298V444.502C584.658 445.975 584.303 447.093 583.592 447.856C582.882 448.619 581.816 449 580.394 449H576.026V430.8ZM580.342 446.4C580.81 446.4 581.166 446.261 581.408 445.984C581.668 445.707 581.798 445.256 581.798 444.632V435.168C581.798 434.544 581.668 434.093 581.408 433.816C581.166 433.539 580.81 433.4 580.342 433.4H578.886V446.4H580.342ZM587.109 430.8H589.969V449H587.109V430.8ZM597.315 436.338H600.071V439.094H597.315V436.338ZM597.315 446.244H600.071V449H597.315V446.244ZM611.553 449.26C610.149 449.26 609.075 448.861 608.329 448.064C607.584 447.267 607.211 446.14 607.211 444.684V435.116C607.211 433.66 607.584 432.533 608.329 431.736C609.075 430.939 610.149 430.54 611.553 430.54C612.957 430.54 614.032 430.939 614.777 431.736C615.523 432.533 615.895 433.66 615.895 435.116V444.684C615.895 446.14 615.523 447.267 614.777 448.064C614.032 448.861 612.957 449.26 611.553 449.26ZM611.553 446.66C612.541 446.66 613.035 446.062 613.035 444.866V434.934C613.035 433.738 612.541 433.14 611.553 433.14C610.565 433.14 610.071 433.738 610.071 434.934V444.866C610.071 446.062 610.565 446.66 611.553 446.66ZM622.483 449.26C621.045 449.26 619.935 448.879 619.155 448.116C618.393 447.336 618.011 446.218 618.011 444.762V443.15C618.011 442.249 618.159 441.495 618.453 440.888C618.748 440.264 619.225 439.779 619.883 439.432V439.38C619.277 439.051 618.826 438.6 618.531 438.028C618.254 437.439 618.115 436.693 618.115 435.792V435.038C618.115 433.582 618.488 432.473 619.233 431.71C619.996 430.93 621.079 430.54 622.483 430.54C623.887 430.54 624.962 430.93 625.707 431.71C626.47 432.473 626.851 433.582 626.851 435.038V435.792C626.851 437.525 626.262 438.721 625.083 439.38V439.432C625.742 439.779 626.219 440.264 626.513 440.888C626.808 441.495 626.955 442.249 626.955 443.15V444.762C626.955 446.218 626.565 447.336 625.785 448.116C625.023 448.879 623.922 449.26 622.483 449.26ZM622.483 438.21C623.489 438.21 623.991 437.603 623.991 436.39V434.96C623.991 433.747 623.489 433.14 622.483 433.14C621.478 433.14 620.975 433.747 620.975 434.96V436.39C620.975 437.603 621.478 438.21 622.483 438.21ZM622.483 446.66C623.558 446.66 624.095 445.975 624.095 444.606V442.864C624.095 441.495 623.558 440.81 622.483 440.81C621.409 440.81 620.871 441.495 620.871 442.864V444.606C620.871 445.975 621.409 446.66 622.483 446.66ZM633.284 435.116H630.294V433.088C631.108 433.088 631.758 433.019 632.244 432.88C632.746 432.741 633.145 432.516 633.44 432.204C633.734 431.875 633.994 431.407 634.22 430.8H636.144V449H633.284V435.116ZM640.158 447.024C640.158 445.724 640.366 444.615 640.782 443.696C641.198 442.76 641.943 441.729 643.018 440.602C644.075 439.475 644.803 438.513 645.202 437.716C645.618 436.919 645.826 436.087 645.826 435.22C645.826 434.44 645.696 433.903 645.436 433.608C645.193 433.296 644.829 433.14 644.344 433.14C643.356 433.14 642.862 433.738 642.862 434.934V436.884H640.158V435.116C640.158 433.643 640.522 432.516 641.25 431.736C641.978 430.939 643.035 430.54 644.422 430.54C645.808 430.54 646.866 430.939 647.594 431.736C648.322 432.516 648.686 433.643 648.686 435.116C648.686 436.225 648.417 437.309 647.88 438.366C647.36 439.423 646.45 440.637 645.15 442.006C644.3 442.907 643.728 443.644 643.434 444.216C643.139 444.771 642.992 445.369 642.992 446.01V446.4H648.426V449H640.158V447.024ZM655.326 449.26C653.939 449.26 652.882 448.87 652.154 448.09C651.426 447.293 651.062 446.157 651.062 444.684V443.254H653.766V444.892C653.766 446.071 654.26 446.66 655.248 446.66C656.236 446.66 656.73 446.071 656.73 444.892V440.81C656.73 439.614 656.236 439.016 655.248 439.016C654.26 439.016 653.766 439.614 653.766 440.81V440.966H651.062L651.582 430.8H659.122V433.4H654.13L653.896 437.742H653.948C654.485 436.858 655.309 436.416 656.418 436.416C657.458 436.416 658.247 436.771 658.784 437.482C659.321 438.193 659.59 439.224 659.59 440.576V444.684C659.59 446.157 659.226 447.293 658.498 448.09C657.77 448.87 656.713 449.26 655.326 449.26ZM666.282 449.26C664.878 449.26 663.803 448.861 663.058 448.064C662.313 447.267 661.94 446.14 661.94 444.684V435.272C661.94 432.117 663.396 430.54 666.308 430.54C667.695 430.54 668.752 430.939 669.48 431.736C670.208 432.516 670.572 433.643 670.572 435.116V435.454H667.868V434.934C667.868 433.738 667.374 433.14 666.386 433.14C665.849 433.14 665.45 433.305 665.19 433.634C664.93 433.963 664.8 434.544 664.8 435.376V438.86H664.852C665.355 437.803 666.221 437.274 667.452 437.274C668.492 437.274 669.281 437.629 669.818 438.34C670.355 439.051 670.624 440.082 670.624 441.434V444.684C670.624 446.14 670.251 447.267 669.506 448.064C668.761 448.861 667.686 449.26 666.282 449.26ZM666.282 446.66C667.27 446.66 667.764 446.071 667.764 444.892V441.668C667.764 440.472 667.27 439.874 666.282 439.874C665.294 439.874 664.8 440.472 664.8 441.668V444.892C664.8 446.071 665.294 446.66 666.282 446.66ZM677.784 445.698H672.324V443.098L677.524 430.8H680.644V443.098H681.996V445.698H680.644V449H677.784V445.698ZM677.784 443.098V436H677.732L674.924 443.098H677.784ZM687.986 449.26C686.582 449.26 685.516 448.87 684.788 448.09C684.078 447.31 683.722 446.192 683.722 444.736V443.254H686.426V444.866C686.426 446.062 686.92 446.66 687.908 446.66C688.394 446.66 688.758 446.513 689 446.218C689.26 445.906 689.39 445.369 689.39 444.606V443.124C689.39 442.292 689.243 441.703 688.948 441.356C688.654 440.992 688.177 440.81 687.518 440.81H686.556V438.21H687.596C688.168 438.21 688.593 438.063 688.87 437.768C689.165 437.473 689.312 436.979 689.312 436.286V434.96C689.312 434.336 689.182 433.877 688.922 433.582C688.662 433.287 688.316 433.14 687.882 433.14C686.964 433.14 686.504 433.703 686.504 434.83V436.026H683.8V435.064C683.8 433.608 684.156 432.49 684.866 431.71C685.594 430.93 686.634 430.54 687.986 430.54C689.356 430.54 690.396 430.93 691.106 431.71C691.817 432.473 692.172 433.582 692.172 435.038V435.688C692.172 436.676 692.008 437.473 691.678 438.08C691.349 438.669 690.838 439.094 690.144 439.354V439.406C690.89 439.683 691.427 440.134 691.756 440.758C692.086 441.382 692.25 442.179 692.25 443.15V444.762C692.25 446.218 691.886 447.336 691.158 448.116C690.448 448.879 689.39 449.26 687.986 449.26ZM694.809 447.024C694.809 445.724 695.017 444.615 695.433 443.696C695.849 442.76 696.594 441.729 697.669 440.602C698.726 439.475 699.454 438.513 699.853 437.716C700.269 436.919 700.477 436.087 700.477 435.22C700.477 434.44 700.347 433.903 700.087 433.608C699.844 433.296 699.48 433.14 698.995 433.14C698.007 433.14 697.513 433.738 697.513 434.934V436.884H694.809V435.116C694.809 433.643 695.173 432.516 695.901 431.736C696.629 430.939 697.686 430.54 699.073 430.54C700.459 430.54 701.517 430.939 702.245 431.736C702.973 432.516 703.337 433.643 703.337 435.116C703.337 436.225 703.068 437.309 702.531 438.366C702.011 439.423 701.101 440.637 699.801 442.006C698.951 442.907 698.379 443.644 698.085 444.216C697.79 444.771 697.643 445.369 697.643 446.01V446.4H703.077V449H694.809V447.024ZM709.795 435.116H706.805V433.088C707.619 433.088 708.269 433.019 708.755 432.88C709.257 432.741 709.656 432.516 709.951 432.204C710.245 431.875 710.505 431.407 710.731 430.8H712.655V449H709.795V435.116ZM720.777 449.26C719.373 449.26 718.307 448.87 717.579 448.09C716.868 447.31 716.513 446.192 716.513 444.736V443.254H719.217V444.866C719.217 446.062 719.711 446.66 720.699 446.66C721.184 446.66 721.548 446.513 721.791 446.218C722.051 445.906 722.181 445.369 722.181 444.606V443.124C722.181 442.292 722.034 441.703 721.739 441.356C721.444 440.992 720.968 440.81 720.309 440.81H719.347V438.21H720.387C720.959 438.21 721.384 438.063 721.661 437.768C721.956 437.473 722.103 436.979 722.103 436.286V434.96C722.103 434.336 721.973 433.877 721.713 433.582C721.453 433.287 721.106 433.14 720.673 433.14C719.754 433.14 719.295 433.703 719.295 434.83V436.026H716.591V435.064C716.591 433.608 716.946 432.49 717.657 431.71C718.385 430.93 719.425 430.54 720.777 430.54C722.146 430.54 723.186 430.93 723.897 431.71C724.608 432.473 724.963 433.582 724.963 435.038V435.688C724.963 436.676 724.798 437.473 724.469 438.08C724.14 438.669 723.628 439.094 722.935 439.354V439.406C723.68 439.683 724.218 440.134 724.547 440.758C724.876 441.382 725.041 442.179 725.041 443.15V444.762C725.041 446.218 724.677 447.336 723.949 448.116C723.238 448.879 722.181 449.26 720.777 449.26ZM731.707 449.26C730.303 449.26 729.237 448.87 728.509 448.09C727.798 447.31 727.443 446.192 727.443 444.736V443.254H730.147V444.866C730.147 446.062 730.641 446.66 731.629 446.66C732.114 446.66 732.478 446.513 732.721 446.218C732.981 445.906 733.111 445.369 733.111 444.606V443.124C733.111 442.292 732.964 441.703 732.669 441.356C732.374 440.992 731.898 440.81 731.239 440.81H730.277V438.21H731.317C731.889 438.21 732.314 438.063 732.591 437.768C732.886 437.473 733.033 436.979 733.033 436.286V434.96C733.033 434.336 732.903 433.877 732.643 433.582C732.383 433.287 732.036 433.14 731.603 433.14C730.684 433.14 730.225 433.703 730.225 434.83V436.026H727.521V435.064C727.521 433.608 727.876 432.49 728.587 431.71C729.315 430.93 730.355 430.54 731.707 430.54C733.076 430.54 734.116 430.93 734.827 431.71C735.538 432.473 735.893 433.582 735.893 435.038V435.688C735.893 436.676 735.728 437.473 735.399 438.08C735.07 438.669 734.558 439.094 733.865 439.354V439.406C734.61 439.683 735.148 440.134 735.477 440.758C735.806 441.382 735.971 442.179 735.971 443.15V444.762C735.971 446.218 735.607 447.336 734.879 448.116C734.168 448.879 733.111 449.26 731.707 449.26Z" fill="black"/>
<rect x="447" y="1" width="362" height="90" rx="9" fill="white" stroke="black" stroke-width="2"/>
<rect x="1" y="252" width="362" height="219" rx="9" fill="white" stroke="black" stroke-width="2"/>
<circle r="4.5" transform="matrix(-1 0 0 1 469.5 22.5)" fill="black"/>
<path d="M480.274 30.2C479.207 30.2 478.394 29.9 477.834 29.3C477.274 28.6867 476.994 27.8133 476.994 26.68V19.32C476.994 18.1867 477.274 17.32 477.834 16.72C478.394 16.1067 479.207 15.8 480.274 15.8C481.341 15.8 482.154 16.1067 482.714 16.72C483.274 17.32 483.554 18.1867 483.554 19.32V20.52H481.474V19.18C481.474 18.26 481.094 17.8 480.334 17.8C479.574 17.8 479.194 18.26 479.194 19.18V26.84C479.194 27.7467 479.574 28.2 480.334 28.2C481.094 28.2 481.474 27.7467 481.474 26.84V24.1H480.374V22.1H483.554V26.68C483.554 27.8133 483.274 28.6867 482.714 29.3C482.154 29.9 481.341 30.2 480.274 30.2ZM488.566 30.2C487.5 30.2 486.686 29.9 486.126 29.3C485.566 28.6867 485.286 27.8133 485.286 26.68V16H487.486V26.84C487.486 27.32 487.58 27.6667 487.766 27.88C487.966 28.0933 488.246 28.2 488.606 28.2C488.966 28.2 489.24 28.0933 489.426 27.88C489.626 27.6667 489.726 27.32 489.726 26.84V16H491.846V26.68C491.846 27.8133 491.566 28.6867 491.006 29.3C490.446 29.9 489.633 30.2 488.566 30.2ZM493.813 16H499.813V18H496.013V21.7H499.033V23.7H496.013V28H499.813V30H493.813V16ZM504.378 30.2C503.311 30.2 502.505 29.9 501.958 29.3C501.411 28.6867 501.138 27.8133 501.138 26.68V25.88H503.218V26.84C503.218 27.7467 503.598 28.2 504.358 28.2C504.731 28.2 505.011 28.0933 505.198 27.88C505.398 27.6533 505.498 27.2933 505.498 26.8C505.498 26.2133 505.365 25.7 505.098 25.26C504.831 24.8067 504.338 24.2667 503.618 23.64C502.711 22.84 502.078 22.12 501.718 21.48C501.358 20.8267 501.178 20.0933 501.178 19.28C501.178 18.1733 501.458 17.32 502.018 16.72C502.578 16.1067 503.391 15.8 504.458 15.8C505.511 15.8 506.305 16.1067 506.838 16.72C507.385 17.32 507.658 18.1867 507.658 19.32V19.9H505.578V19.18C505.578 18.7 505.485 18.3533 505.298 18.14C505.111 17.9133 504.838 17.8 504.478 17.8C503.745 17.8 503.378 18.2467 503.378 19.14C503.378 19.6467 503.511 20.12 503.778 20.56C504.058 21 504.558 21.5333 505.278 22.16C506.198 22.96 506.831 23.6867 507.178 24.34C507.525 24.9933 507.698 25.76 507.698 26.64C507.698 27.7867 507.411 28.6667 506.838 29.28C506.278 29.8933 505.458 30.2 504.378 30.2ZM511.079 18H508.779V16H515.579V18H513.279V30H511.079V18ZM519.905 30.2C518.838 30.2 518.031 29.9 517.485 29.3C516.938 28.6867 516.665 27.8133 516.665 26.68V25.88H518.745V26.84C518.745 27.7467 519.125 28.2 519.885 28.2C520.258 28.2 520.538 28.0933 520.725 27.88C520.925 27.6533 521.025 27.2933 521.025 26.8C521.025 26.2133 520.891 25.7 520.625 25.26C520.358 24.8067 519.865 24.2667 519.145 23.64C518.238 22.84 517.605 22.12 517.245 21.48C516.885 20.8267 516.705 20.0933 516.705 19.28C516.705 18.1733 516.985 17.32 517.545 16.72C518.105 16.1067 518.918 15.8 519.985 15.8C521.038 15.8 521.831 16.1067 522.365 16.72C522.911 17.32 523.185 18.1867 523.185 19.32V19.9H521.105V19.18C521.105 18.7 521.011 18.3533 520.825 18.14C520.638 17.9133 520.365 17.8 520.005 17.8C519.271 17.8 518.905 18.2467 518.905 19.14C518.905 19.6467 519.038 20.12 519.305 20.56C519.585 21 520.085 21.5333 520.805 22.16C521.725 22.96 522.358 23.6867 522.705 24.34C523.051 24.9933 523.225 25.76 523.225 26.64C523.225 27.7867 522.938 28.6667 522.365 29.28C521.805 29.8933 520.985 30.2 519.905 30.2Z" fill="black"/>
<path d="M476.334 31.6H523.665V33.2H476.334V31.6Z" fill="black"/>
<rect x="447" y="121" width="362" height="118" rx="9" fill="white" stroke="black" stroke-width="2"/>
<circle r="4.5" transform="matrix(-1 0 0 1 469.5 142.5)" fill="black"/>
<path d="M477.23 135H480.49C481.623 135 482.45 135.267 482.97 135.8C483.49 136.32 483.75 137.127 483.75 138.22V139.08C483.75 140.533 483.27 141.453 482.31 141.84V141.88C482.843 142.04 483.217 142.367 483.43 142.86C483.657 143.353 483.77 144.013 483.77 144.84V147.3C483.77 147.7 483.783 148.027 483.81 148.28C483.837 148.52 483.903 148.76 484.01 149H481.77C481.69 148.773 481.637 148.56 481.61 148.36C481.583 148.16 481.57 147.8 481.57 147.28V144.72C481.57 144.08 481.463 143.633 481.25 143.38C481.05 143.127 480.697 143 480.19 143H479.43V149H477.23V135ZM480.23 141C480.67 141 480.997 140.887 481.21 140.66C481.437 140.433 481.55 140.053 481.55 139.52V138.44C481.55 137.933 481.457 137.567 481.27 137.34C481.097 137.113 480.817 137 480.43 137H479.43V141H480.23ZM485.697 135H491.697V137H487.897V140.7H490.917V142.7H487.897V147H491.697V149H485.697V135ZM496.482 149.2C495.416 149.2 494.602 148.9 494.042 148.3C493.482 147.687 493.202 146.813 493.202 145.68V138.32C493.202 137.187 493.482 136.32 494.042 135.72C494.602 135.107 495.416 134.8 496.482 134.8C497.549 134.8 498.362 135.107 498.922 135.72C499.482 136.32 499.762 137.187 499.762 138.32V139.52H497.682V138.18C497.682 137.26 497.302 136.8 496.542 136.8C495.782 136.8 495.402 137.26 495.402 138.18V145.84C495.402 146.747 495.782 147.2 496.542 147.2C497.302 147.2 497.682 146.747 497.682 145.84V143.1H496.582V141.1H499.762V145.68C499.762 146.813 499.482 147.687 498.922 148.3C498.362 148.9 497.549 149.2 496.482 149.2ZM501.575 135H503.775V149H501.575V135ZM508.682 149.2C507.616 149.2 506.809 148.9 506.262 148.3C505.716 147.687 505.442 146.813 505.442 145.68V144.88H507.522V145.84C507.522 146.747 507.902 147.2 508.662 147.2C509.036 147.2 509.316 147.093 509.502 146.88C509.702 146.653 509.802 146.293 509.802 145.8C509.802 145.213 509.669 144.7 509.402 144.26C509.136 143.807 508.642 143.267 507.922 142.64C507.016 141.84 506.382 141.12 506.022 140.48C505.662 139.827 505.482 139.093 505.482 138.28C505.482 137.173 505.762 136.32 506.322 135.72C506.882 135.107 507.696 134.8 508.762 134.8C509.816 134.8 510.609 135.107 511.142 135.72C511.689 136.32 511.962 137.187 511.962 138.32V138.9H509.882V138.18C509.882 137.7 509.789 137.353 509.602 137.14C509.416 136.913 509.142 136.8 508.782 136.8C508.049 136.8 507.682 137.247 507.682 138.14C507.682 138.647 507.816 139.12 508.082 139.56C508.362 140 508.862 140.533 509.582 141.16C510.502 141.96 511.136 142.687 511.482 143.34C511.829 143.993 512.002 144.76 512.002 145.64C512.002 146.787 511.716 147.667 511.142 148.28C510.582 148.893 509.762 149.2 508.682 149.2ZM515.384 137H513.084V135H519.884V137H517.584V149H515.384V137ZM521.349 135H524.609C525.742 135 526.569 135.267 527.089 135.8C527.609 136.32 527.869 137.127 527.869 138.22V139.08C527.869 140.533 527.389 141.453 526.429 141.84V141.88C526.962 142.04 527.336 142.367 527.549 142.86C527.776 143.353 527.889 144.013 527.889 144.84V147.3C527.889 147.7 527.902 148.027 527.929 148.28C527.956 148.52 528.022 148.76 528.129 149H525.889C525.809 148.773 525.756 148.56 525.729 148.36C525.702 148.16 525.689 147.8 525.689 147.28V144.72C525.689 144.08 525.582 143.633 525.369 143.38C525.169 143.127 524.816 143 524.309 143H523.549V149H521.349V135ZM524.349 141C524.789 141 525.116 140.887 525.329 140.66C525.556 140.433 525.669 140.053 525.669 139.52V138.44C525.669 137.933 525.576 137.567 525.389 137.34C525.216 137.113 524.936 137 524.549 137H523.549V141H524.349ZM531.515 135H534.495L536.775 149H534.575L534.175 146.22V146.26H531.675L531.275 149H529.235L531.515 135ZM533.915 144.36L532.935 137.44H532.895L531.935 144.36H533.915ZM539.045 137H536.745V135H543.545V137H541.245V149H539.045V137ZM545.01 135H547.21V149H545.01V135ZM552.438 149.2C551.358 149.2 550.531 148.893 549.958 148.28C549.384 147.667 549.097 146.8 549.097 145.68V138.32C549.097 137.2 549.384 136.333 549.958 135.72C550.531 135.107 551.358 134.8 552.438 134.8C553.518 134.8 554.344 135.107 554.918 135.72C555.491 136.333 555.778 137.2 555.778 138.32V145.68C555.778 146.8 555.491 147.667 554.918 148.28C554.344 148.893 553.518 149.2 552.438 149.2ZM552.438 147.2C553.198 147.2 553.577 146.74 553.577 145.82V138.18C553.577 137.26 553.198 136.8 552.438 136.8C551.678 136.8 551.298 137.26 551.298 138.18V145.82C551.298 146.74 551.678 147.2 552.438 147.2ZM557.665 135H560.425L562.565 143.38H562.605V135H564.565V149H562.305L559.665 138.78H559.625V149H557.665V135ZM570.204 135H576.024V137H572.404V140.9H575.244V142.9H572.404V149H570.204V135ZM577.479 135H583.479V137H579.679V140.7H582.699V142.7H579.679V147H583.479V149H577.479V135ZM585.144 135H591.144V137H587.344V140.7H590.364V142.7H587.344V147H591.144V149H585.144V135Z" fill="black"/>
<path d="M476.41 150.6H591.584V152.2H476.41V150.6Z" fill="black"/>
<path d="M481.096 184.26C479.709 184.26 478.652 183.87 477.924 183.09C477.196 182.293 476.832 181.157 476.832 179.684V179.346H479.536V179.866C479.536 181.062 480.03 181.66 481.018 181.66C481.555 181.66 481.954 181.495 482.214 181.166C482.474 180.837 482.604 180.256 482.604 179.424V175.94H482.552C482.049 176.997 481.183 177.526 479.952 177.526C478.912 177.526 478.123 177.171 477.586 176.46C477.049 175.749 476.78 174.718 476.78 173.366V170.116C476.78 168.66 477.153 167.533 477.898 166.736C478.643 165.939 479.718 165.54 481.122 165.54C482.526 165.54 483.601 165.939 484.346 166.736C485.091 167.533 485.464 168.66 485.464 170.116V179.528C485.464 182.683 484.008 184.26 481.096 184.26ZM481.122 174.926C482.11 174.926 482.604 174.328 482.604 173.132V169.908C482.604 168.729 482.11 168.14 481.122 168.14C480.134 168.14 479.64 168.729 479.64 169.908V173.132C479.64 174.328 480.134 174.926 481.122 174.926ZM492.026 184.26C490.639 184.26 489.582 183.87 488.854 183.09C488.126 182.293 487.762 181.157 487.762 179.684V179.346H490.466V179.866C490.466 181.062 490.96 181.66 491.948 181.66C492.485 181.66 492.884 181.495 493.144 181.166C493.404 180.837 493.534 180.256 493.534 179.424V175.94H493.482C492.979 176.997 492.113 177.526 490.882 177.526C489.842 177.526 489.053 177.171 488.516 176.46C487.979 175.749 487.71 174.718 487.71 173.366V170.116C487.71 168.66 488.083 167.533 488.828 166.736C489.573 165.939 490.648 165.54 492.052 165.54C493.456 165.54 494.531 165.939 495.276 166.736C496.021 167.533 496.394 168.66 496.394 170.116V179.528C496.394 182.683 494.938 184.26 492.026 184.26ZM492.052 174.926C493.04 174.926 493.534 174.328 493.534 173.132V169.908C493.534 168.729 493.04 168.14 492.052 168.14C491.064 168.14 490.57 168.729 490.57 169.908V173.132C490.57 174.328 491.064 174.926 492.052 174.926ZM503.61 165.8H507.848C509.322 165.8 510.396 166.147 511.072 166.84C511.748 167.516 512.086 168.565 512.086 169.986V171.104C512.086 172.993 511.462 174.189 510.214 174.692V174.744C510.908 174.952 511.393 175.377 511.67 176.018C511.965 176.659 512.112 177.517 512.112 178.592V181.79C512.112 182.31 512.13 182.735 512.164 183.064C512.199 183.376 512.286 183.688 512.424 184H509.512C509.408 183.705 509.339 183.428 509.304 183.168C509.27 182.908 509.252 182.44 509.252 181.764V178.436C509.252 177.604 509.114 177.023 508.836 176.694C508.576 176.365 508.117 176.2 507.458 176.2H506.47V184H503.61V165.8ZM507.51 173.6C508.082 173.6 508.507 173.453 508.784 173.158C509.079 172.863 509.226 172.369 509.226 171.676V170.272C509.226 169.613 509.105 169.137 508.862 168.842C508.637 168.547 508.273 168.4 507.77 168.4H506.47V173.6H507.51ZM514.617 165.8H517.477V184H514.617V165.8ZM520.139 165.8H524.455C525.928 165.8 527.003 166.147 527.679 166.84C528.355 167.516 528.693 168.565 528.693 169.986V170.714C528.693 171.65 528.537 172.413 528.225 173.002C527.93 173.591 527.471 174.016 526.847 174.276V174.328C528.268 174.813 528.979 176.079 528.979 178.124V179.684C528.979 181.088 528.606 182.163 527.861 182.908C527.133 183.636 526.058 184 524.637 184H520.139V165.8ZM524.117 173.21C524.689 173.21 525.113 173.063 525.391 172.768C525.685 172.473 525.833 171.979 525.833 171.286V170.272C525.833 169.613 525.711 169.137 525.469 168.842C525.243 168.547 524.879 168.4 524.377 168.4H522.999V173.21H524.117ZM524.637 181.4C525.139 181.4 525.512 181.27 525.755 181.01C525.997 180.733 526.119 180.265 526.119 179.606V178.02C526.119 177.188 525.971 176.616 525.677 176.304C525.399 175.975 524.931 175.81 524.273 175.81H522.999V181.4H524.637ZM535.33 184.26C533.944 184.26 532.886 183.87 532.158 183.09C531.43 182.293 531.066 181.157 531.066 179.684V165.8H533.926V179.892C533.926 180.516 534.048 180.967 534.29 181.244C534.55 181.521 534.914 181.66 535.382 181.66C535.85 181.66 536.206 181.521 536.448 181.244C536.708 180.967 536.838 180.516 536.838 179.892V165.8H539.594V179.684C539.594 181.157 539.23 182.293 538.502 183.09C537.774 183.87 536.717 184.26 535.33 184.26Z" fill="black"/>
<circle r="4.5" transform="matrix(-1 0 0 1 23.5 277.5)" fill="black"/>
<path d="M31.0106 270H34.2506C35.344 270 36.164 270.293 36.7106 270.88C37.2573 271.467 37.5306 272.327 37.5306 273.46V274.84C37.5306 275.973 37.2573 276.833 36.7106 277.42C36.164 278.007 35.344 278.3 34.2506 278.3H33.2106V284H31.0106V270ZM34.2506 276.3C34.6106 276.3 34.8773 276.2 35.0506 276C35.2373 275.8 35.3306 275.46 35.3306 274.98V273.32C35.3306 272.84 35.2373 272.5 35.0506 272.3C34.8773 272.1 34.6106 272 34.2506 272H33.2106V276.3H34.2506ZM40.1223 270H43.1023L45.3823 284H43.1823L42.7823 281.22V281.26H40.2823L39.8823 284H37.8423L40.1223 270ZM42.5223 279.36L41.5423 272.44H41.5023L40.5423 279.36H42.5223ZM46.8497 270H50.1097C51.243 270 52.0697 270.267 52.5897 270.8C53.1097 271.32 53.3697 272.127 53.3697 273.22V274.08C53.3697 275.533 52.8897 276.453 51.9297 276.84V276.88C52.463 277.04 52.8364 277.367 53.0497 277.86C53.2764 278.353 53.3897 279.013 53.3897 279.84V282.3C53.3897 282.7 53.403 283.027 53.4297 283.28C53.4564 283.52 53.523 283.76 53.6297 284H51.3897C51.3097 283.773 51.2564 283.56 51.2297 283.36C51.203 283.16 51.1897 282.8 51.1897 282.28V279.72C51.1897 279.08 51.083 278.633 50.8697 278.38C50.6697 278.127 50.3164 278 49.8097 278H49.0497V284H46.8497V270ZM49.8497 276C50.2897 276 50.6164 275.887 50.8297 275.66C51.0564 275.433 51.1697 275.053 51.1697 274.52V273.44C51.1697 272.933 51.0764 272.567 50.8897 272.34C50.7164 272.113 50.4364 272 50.0497 272H49.0497V276H49.8497ZM56.997 272H54.697V270H61.497V272H59.197V284H56.997V272ZM62.9622 270H65.7222L67.8622 278.38H67.9022V270H69.8622V284H67.6022L64.9622 273.78H64.9222V284H62.9622V270ZM71.8973 270H77.8973V272H74.0973V275.7H77.1173V277.7H74.0973V282H77.8973V284H71.8973V270ZM79.563 270H82.823C83.9563 270 84.783 270.267 85.303 270.8C85.823 271.32 86.083 272.127 86.083 273.22V274.08C86.083 275.533 85.603 276.453 84.643 276.84V276.88C85.1763 277.04 85.5496 277.367 85.763 277.86C85.9896 278.353 86.103 279.013 86.103 279.84V282.3C86.103 282.7 86.1163 283.027 86.143 283.28C86.1696 283.52 86.2363 283.76 86.343 284H84.103C84.023 283.773 83.9696 283.56 83.943 283.36C83.9163 283.16 83.903 282.8 83.903 282.28V279.72C83.903 279.08 83.7963 278.633 83.583 278.38C83.383 278.127 83.0296 278 82.523 278H81.763V284H79.563V270ZM82.563 276C83.003 276 83.3296 275.887 83.543 275.66C83.7696 275.433 83.883 275.053 83.883 274.52V273.44C83.883 272.933 83.7896 272.567 83.603 272.34C83.4296 272.113 83.1496 272 82.763 272H81.763V276H82.563Z" fill="black"/>
<path d="M30.1906 285.6H86.803V287.2H30.1906V285.6Z" fill="black"/>
<path d="M477.518 43.8H481.886C483.307 43.8 484.373 44.1813 485.084 44.944C485.794 45.7067 486.15 46.8247 486.15 48.298V57.502C486.15 58.9753 485.794 60.0933 485.084 60.856C484.373 61.6187 483.307 62 481.886 62H477.518V43.8ZM481.834 59.4C482.302 59.4 482.657 59.2613 482.9 58.984C483.16 58.7067 483.29 58.256 483.29 57.632V48.168C483.29 47.544 483.16 47.0933 482.9 46.816C482.657 46.5387 482.302 46.4 481.834 46.4H480.378V59.4H481.834ZM488.6 43.8H496.4V46.4H491.46V51.21H495.386V53.81H491.46V59.4H496.4V62H488.6V43.8ZM498.565 43.8H502.153L504.935 54.694H504.987V43.8H507.535V62H504.597L501.165 48.714H501.113V62H498.565V43.8ZM510.181 43.8H513.769L516.551 54.694H516.603V43.8H519.151V62H516.213L512.781 48.714H512.729V62H510.181V43.8ZM524.423 54.252L520.965 43.8H524.007L525.957 50.482H526.009L527.959 43.8H530.741L527.283 54.252V62H524.423V54.252ZM541.263 62.26C539.894 62.26 538.845 61.87 538.117 61.09C537.407 60.31 537.051 59.2093 537.051 57.788V48.012C537.051 46.5907 537.407 45.49 538.117 44.71C538.845 43.93 539.894 43.54 541.263 43.54C542.633 43.54 543.673 43.93 544.383 44.71C545.111 45.49 545.475 46.5907 545.475 48.012V49.936H542.771V47.83C542.771 46.7033 542.295 46.14 541.341 46.14C540.388 46.14 539.911 46.7033 539.911 47.83V57.996C539.911 59.1053 540.388 59.66 541.341 59.66C542.295 59.66 542.771 59.1053 542.771 57.996V55.214H545.475V57.788C545.475 59.2093 545.111 60.31 544.383 61.09C543.673 61.87 542.633 62.26 541.263 62.26ZM549.916 43.8H553.79L556.754 62H553.894L553.374 58.386V58.438H550.124L549.604 62H546.952L549.916 43.8ZM553.036 55.968L551.762 46.972H551.71L550.462 55.968H553.036ZM558.662 43.8H561.522V51.47L565.162 43.8H568.022L564.616 50.482L568.074 62H565.084L562.666 53.888L561.522 56.202V62H558.662V43.8ZM569.948 43.8H573.536L576.318 54.694H576.37V43.8H578.918V62H575.98L572.548 48.714H572.496V62H569.948V43.8ZM583.773 43.8H587.647L590.611 62H587.751L587.231 58.386V58.438H583.981L583.461 62H580.809L583.773 43.8ZM586.893 55.968L585.619 46.972H585.567L584.319 55.968H586.893ZM592.519 43.8H596.107L598.889 54.694H598.941V43.8H601.489V62H598.551L595.119 48.714H595.067V62H592.519V43.8Z" fill="black"/>
</svg>
