<svg width="810" height="472" viewBox="0 0 810 472" fill="none" xmlns="http://www.w3.org/2000/svg">
<rect x="1" y="1" width="362" height="90" rx="9" fill="white" stroke="black" stroke-width="2"/>
<rect x="447" y="269" width="362" height="88" rx="9" fill="white" stroke="black" stroke-width="2"/>
<rect x="447" y="381" width="362" height="90" rx="9" fill="#1FD57D" stroke="black" stroke-width="2"/>
<circle r="4.5" transform="matrix(-1 0 0 1 23.5 22.5)" fill="black"/>
<path d="M31.297 15H33.497V27H37.117V29H31.297V15ZM41.6738 29.2C40.5938 29.2 39.7672 28.8933 39.1938 28.28C38.6205 27.6667 38.3338 26.8 38.3338 25.68V18.32C38.3338 17.2 38.6205 16.3333 39.1938 15.72C39.7672 15.1067 40.5938 14.8 41.6738 14.8C42.7538 14.8 43.5805 15.1067 44.1538 15.72C44.7272 16.3333 45.0138 17.2 45.0138 18.32V25.68C45.0138 26.8 44.7272 27.6667 44.1538 28.28C43.5805 28.8933 42.7538 29.2 41.6738 29.2ZM41.6738 27.2C42.4338 27.2 42.8138 26.74 42.8138 25.82V18.18C42.8138 17.26 42.4338 16.8 41.6738 16.8C40.9138 16.8 40.5338 17.26 40.5338 18.18V25.82C40.5338 26.74 40.9138 27.2 41.6738 27.2ZM50.0016 29.2C48.9483 29.2 48.1416 28.9 47.5816 28.3C47.035 27.7 46.7616 26.8533 46.7616 25.76V18.24C46.7616 17.1467 47.035 16.3 47.5816 15.7C48.1416 15.1 48.9483 14.8 50.0016 14.8C51.055 14.8 51.855 15.1 52.4016 15.7C52.9616 16.3 53.2416 17.1467 53.2416 18.24V19.72H51.1616V18.1C51.1616 17.2333 50.795 16.8 50.0616 16.8C49.3283 16.8 48.9616 17.2333 48.9616 18.1V25.92C48.9616 26.7733 49.3283 27.2 50.0616 27.2C50.795 27.2 51.1616 26.7733 51.1616 25.92V23.78H53.2416V25.76C53.2416 26.8533 52.9616 27.7 52.4016 28.3C51.855 28.9 51.055 29.2 50.0016 29.2ZM56.6579 15H59.6379L61.9179 29H59.7179L59.3179 26.22V26.26H56.8179L56.4179 29H54.3779L56.6579 15ZM59.0579 24.36L58.0779 17.44H58.0379L57.0779 24.36H59.0579ZM64.1873 17H61.8873V15H68.6873V17H66.3873V29H64.1873V17ZM70.1524 15H72.3524V29H70.1524V15ZM77.5801 29.2C76.5001 29.2 75.6734 28.8933 75.1001 28.28C74.5267 27.6667 74.2401 26.8 74.2401 25.68V18.32C74.2401 17.2 74.5267 16.3333 75.1001 15.72C75.6734 15.1067 76.5001 14.8 77.5801 14.8C78.6601 14.8 79.4867 15.1067 80.0601 15.72C80.6334 16.3333 80.9201 17.2 80.9201 18.32V25.68C80.9201 26.8 80.6334 27.6667 80.0601 28.28C79.4867 28.8933 78.6601 29.2 77.5801 29.2ZM77.5801 27.2C78.3401 27.2 78.7201 26.74 78.7201 25.82V18.18C78.7201 17.26 78.3401 16.8 77.5801 16.8C76.8201 16.8 76.4401 17.26 76.4401 18.18V25.82C76.4401 26.74 76.8201 27.2 77.5801 27.2ZM82.8079 15H85.5679L87.7079 23.38H87.7479V15H89.7079V29H87.4479L84.8079 18.78H84.7679V29H82.8079V15Z" fill="black"/>
<path d="M30.477 30.6H90.5279V32.2H30.477V30.6Z" fill="black"/>
<path d="M33.1046 69.26C31.718 69.26 30.6693 68.87 29.9586 68.09C29.248 67.2927 28.8926 66.1573 28.8926 64.684V63.644H31.5966V64.892C31.5966 66.0707 32.0906 66.66 33.0786 66.66C33.564 66.66 33.928 66.5213 34.1706 66.244C34.4306 65.9493 34.5606 65.4813 34.5606 64.84C34.5606 64.0773 34.3873 63.41 34.0406 62.838C33.694 62.2487 33.0526 61.5467 32.1166 60.732C30.938 59.692 30.1146 58.756 29.6466 57.924C29.1786 57.0747 28.9446 56.1213 28.9446 55.064C28.9446 53.6253 29.3086 52.516 30.0366 51.736C30.7646 50.9387 31.822 50.54 33.2086 50.54C34.578 50.54 35.6093 50.9387 36.3026 51.736C37.0133 52.516 37.3686 53.6427 37.3686 55.116V55.87H34.6646V54.934C34.6646 54.31 34.5433 53.8593 34.3006 53.582C34.058 53.2873 33.7026 53.14 33.2346 53.14C32.2813 53.14 31.8046 53.7207 31.8046 54.882C31.8046 55.5407 31.978 56.156 32.3246 56.728C32.6886 57.3 33.3386 57.9933 34.2746 58.808C35.4706 59.848 36.294 60.7927 36.7446 61.642C37.1953 62.4913 37.4206 63.488 37.4206 64.632C37.4206 66.1227 37.048 67.2667 36.3026 68.064C35.5746 68.8613 34.5086 69.26 33.1046 69.26ZM39.5805 50.8H47.3805V53.4H42.4405V58.21H46.3665V60.81H42.4405V66.4H47.3805V69H39.5805V50.8ZM49.5458 50.8H53.6278L55.4478 63.826H55.4998L57.3198 50.8H61.4018V69H58.6978V55.22H58.6458L56.5658 69H54.1738L52.0938 55.22H52.0418V69H49.5458V50.8ZM66.266 50.8H70.14L73.104 69H70.244L69.724 65.386V65.438H66.474L65.954 69H63.302L66.266 50.8ZM69.386 62.968L68.112 53.972H68.06L66.812 62.968H69.386ZM75.0115 50.8H79.2495C80.7229 50.8 81.7975 51.1467 82.4735 51.84C83.1495 52.516 83.4875 53.5647 83.4875 54.986V56.104C83.4875 57.9933 82.8635 59.1893 81.6155 59.692V59.744C82.3089 59.952 82.7942 60.3767 83.0715 61.018C83.3662 61.6593 83.5135 62.5173 83.5135 63.592V66.79C83.5135 67.31 83.5309 67.7347 83.5655 68.064C83.6002 68.376 83.6869 68.688 83.8255 69H80.9135C80.8095 68.7053 80.7402 68.428 80.7055 68.168C80.6709 67.908 80.6535 67.44 80.6535 66.764V63.436C80.6535 62.604 80.5149 62.0233 80.2375 61.694C79.9775 61.3647 79.5182 61.2 78.8595 61.2H77.8715V69H75.0115V50.8ZM78.9115 58.6C79.4835 58.6 79.9082 58.4527 80.1855 58.158C80.4802 57.8633 80.6275 57.3693 80.6275 56.676V55.272C80.6275 54.6133 80.5062 54.1367 80.2635 53.842C80.0382 53.5473 79.6742 53.4 79.1715 53.4H77.8715V58.6H78.9115ZM88.2279 50.8H92.1019L95.0659 69H92.2059L91.6859 65.386V65.438H88.4359L87.9159 69H85.2639L88.2279 50.8ZM91.3479 62.968L90.0739 53.972H90.0219L88.7739 62.968H91.3479ZM96.9734 50.8H100.561L103.343 61.694H103.395V50.8H105.943V69H103.005L99.5734 55.714H99.5214V69H96.9734V50.8ZM112.645 69.26C111.258 69.26 110.201 68.87 109.473 68.09C108.745 67.2927 108.381 66.1573 108.381 64.684V55.116C108.381 53.6427 108.745 52.516 109.473 51.736C110.201 50.9387 111.258 50.54 112.645 50.54C114.032 50.54 115.089 50.9387 115.817 51.736C116.545 52.516 116.909 53.6427 116.909 55.116V56.676H114.205V54.934C114.205 53.738 113.711 53.14 112.723 53.14C111.735 53.14 111.241 53.738 111.241 54.934V64.892C111.241 66.0707 111.735 66.66 112.723 66.66C113.711 66.66 114.205 66.0707 114.205 64.892V61.33H112.775V58.73H116.909V64.684C116.909 66.1573 116.545 67.2927 115.817 68.09C115.089 68.87 114.032 69.26 112.645 69.26Z" fill="black"/>
<rect x="1" y="119" width="362" height="90" rx="9" fill="white" stroke="black" stroke-width="2"/>
<circle r="4.5" transform="matrix(-1 0 0 1 23.5 142.5)" fill="black"/>
<path d="M30.847 135H34.207C35.3003 135 36.1203 135.293 36.667 135.88C37.2136 136.467 37.487 137.327 37.487 138.46V145.54C37.487 146.673 37.2136 147.533 36.667 148.12C36.1203 148.707 35.3003 149 34.207 149H30.847V135ZM34.167 147C34.527 147 34.8003 146.893 34.987 146.68C35.187 146.467 35.287 146.12 35.287 145.64V138.36C35.287 137.88 35.187 137.533 34.987 137.32C34.8003 137.107 34.527 137 34.167 137H33.047V147H34.167ZM41.0329 135H44.0129L46.2929 149H44.0929L43.6929 146.22V146.26H41.1929L40.7929 149H38.7529L41.0329 135ZM43.4329 144.36L42.4529 137.44H42.4129L41.4529 144.36H43.4329ZM48.5623 137H46.2623V135H53.0623V137H50.7623V149H48.5623V137ZM54.5274 135H60.5274V137H56.7274V140.7H59.7474V142.7H56.7274V147H60.5274V149H54.5274V135Z" fill="black"/>
<path d="M30.027 150.6H60.9674V152.2H30.027V150.6Z" fill="black"/>
<path d="M31.362 182.024C31.362 180.724 31.57 179.615 31.986 178.696C32.402 177.76 33.1474 176.729 34.222 175.602C35.2794 174.475 36.0074 173.513 36.406 172.716C36.822 171.919 37.03 171.087 37.03 170.22C37.03 169.44 36.9 168.903 36.64 168.608C36.3974 168.296 36.0334 168.14 35.548 168.14C34.56 168.14 34.066 168.738 34.066 169.934V171.884H31.362V170.116C31.362 168.643 31.726 167.516 32.454 166.736C33.182 165.939 34.2394 165.54 35.626 165.54C37.0127 165.54 38.07 165.939 38.798 166.736C39.526 167.516 39.89 168.643 39.89 170.116C39.89 171.225 39.6214 172.309 39.084 173.366C38.564 174.423 37.654 175.637 36.354 177.006C35.5047 177.907 34.9327 178.644 34.638 179.216C34.3434 179.771 34.196 180.369 34.196 181.01V181.4H39.63V184H31.362V182.024ZM46.4782 184.26C45.0395 184.26 43.9302 183.879 43.1502 183.116C42.3875 182.336 42.0062 181.218 42.0062 179.762V178.15C42.0062 177.249 42.1535 176.495 42.4482 175.888C42.7429 175.264 43.2195 174.779 43.8782 174.432V174.38C43.2715 174.051 42.8209 173.6 42.5262 173.028C42.2489 172.439 42.1102 171.693 42.1102 170.792V170.038C42.1102 168.582 42.4829 167.473 43.2282 166.71C43.9909 165.93 45.0742 165.54 46.4782 165.54C47.8822 165.54 48.9569 165.93 49.7022 166.71C50.4649 167.473 50.8462 168.582 50.8462 170.038V170.792C50.8462 172.525 50.2569 173.721 49.0782 174.38V174.432C49.7369 174.779 50.2135 175.264 50.5082 175.888C50.8029 176.495 50.9502 177.249 50.9502 178.15V179.762C50.9502 181.218 50.5602 182.336 49.7802 183.116C49.0175 183.879 47.9169 184.26 46.4782 184.26ZM46.4782 173.21C47.4835 173.21 47.9862 172.603 47.9862 171.39V169.96C47.9862 168.747 47.4835 168.14 46.4782 168.14C45.4729 168.14 44.9702 168.747 44.9702 169.96V171.39C44.9702 172.603 45.4729 173.21 46.4782 173.21ZM46.4782 181.66C47.5529 181.66 48.0902 180.975 48.0902 179.606V177.864C48.0902 176.495 47.5529 175.81 46.4782 175.81C45.4035 175.81 44.8662 176.495 44.8662 177.864V179.606C44.8662 180.975 45.4035 181.66 46.4782 181.66ZM57.9584 165.8H65.5244V168.4H60.8184V173.47H64.5104V176.07H60.8184V184H57.9584V165.8ZM67.4159 165.8H75.2159V168.4H70.2759V173.21H74.2019V175.81H70.2759V181.4H75.2159V184H67.4159V165.8ZM77.3812 165.8H81.6972C83.1706 165.8 84.2452 166.147 84.9212 166.84C85.5972 167.516 85.9352 168.565 85.9352 169.986V170.714C85.9352 171.65 85.7792 172.413 85.4672 173.002C85.1726 173.591 84.7132 174.016 84.0892 174.276V174.328C85.5106 174.813 86.2212 176.079 86.2212 178.124V179.684C86.2212 181.088 85.8486 182.163 85.1032 182.908C84.3752 183.636 83.3006 184 81.8792 184H77.3812V165.8ZM81.3592 173.21C81.9312 173.21 82.3559 173.063 82.6332 172.768C82.9279 172.473 83.0752 171.979 83.0752 171.286V170.272C83.0752 169.613 82.9539 169.137 82.7112 168.842C82.4859 168.547 82.1219 168.4 81.6192 168.4H80.2412V173.21H81.3592ZM81.8792 181.4C82.3819 181.4 82.7546 181.27 82.9972 181.01C83.2399 180.733 83.3612 180.265 83.3612 179.606V178.02C83.3612 177.188 83.2139 176.616 82.9192 176.304C82.6419 175.975 82.1739 175.81 81.5152 175.81H80.2412V181.4H81.8792ZM88.413 165.8H92.651C94.1243 165.8 95.199 166.147 95.875 166.84C96.551 167.516 96.889 168.565 96.889 169.986V171.104C96.889 172.993 96.265 174.189 95.017 174.692V174.744C95.7103 174.952 96.1956 175.377 96.473 176.018C96.7676 176.659 96.915 177.517 96.915 178.592V181.79C96.915 182.31 96.9323 182.735 96.967 183.064C97.0016 183.376 97.0883 183.688 97.227 184H94.315C94.211 183.705 94.1416 183.428 94.107 183.168C94.0723 182.908 94.055 182.44 94.055 181.764V178.436C94.055 177.604 93.9163 177.023 93.639 176.694C93.379 176.365 92.9196 176.2 92.261 176.2H91.273V184H88.413V165.8ZM92.313 173.6C92.885 173.6 93.3096 173.453 93.587 173.158C93.8816 172.863 94.029 172.369 94.029 171.676V170.272C94.029 169.613 93.9076 169.137 93.665 168.842C93.4396 168.547 93.0756 168.4 92.573 168.4H91.273V173.6H92.313ZM103.579 184.26C102.193 184.26 101.135 183.87 100.407 183.09C99.6793 182.293 99.3153 181.157 99.3153 179.684V165.8H102.175V179.892C102.175 180.516 102.297 180.967 102.539 181.244C102.799 181.521 103.163 181.66 103.631 181.66C104.099 181.66 104.455 181.521 104.697 181.244C104.957 180.967 105.087 180.516 105.087 179.892V165.8H107.843V179.684C107.843 181.157 107.479 182.293 106.751 183.09C106.023 183.87 104.966 184.26 103.579 184.26ZM112.559 165.8H116.433L119.397 184H116.537L116.017 180.386V180.438H112.767L112.247 184H109.595L112.559 165.8ZM115.679 177.968L114.405 168.972H114.353L113.105 177.968H115.679ZM121.305 165.8H125.543C127.016 165.8 128.091 166.147 128.767 166.84C129.443 167.516 129.781 168.565 129.781 169.986V171.104C129.781 172.993 129.157 174.189 127.909 174.692V174.744C128.602 174.952 129.088 175.377 129.365 176.018C129.66 176.659 129.807 177.517 129.807 178.592V181.79C129.807 182.31 129.824 182.735 129.859 183.064C129.894 183.376 129.98 183.688 130.119 184H127.207C127.103 183.705 127.034 183.428 126.999 183.168C126.964 182.908 126.947 182.44 126.947 181.764V178.436C126.947 177.604 126.808 177.023 126.531 176.694C126.271 176.365 125.812 176.2 125.153 176.2H124.165V184H121.305V165.8ZM125.205 173.6C125.777 173.6 126.202 173.453 126.479 173.158C126.774 172.863 126.921 172.369 126.921 171.676V170.272C126.921 169.613 126.8 169.137 126.557 168.842C126.332 168.547 125.968 168.4 125.465 168.4H124.165V173.6H125.205ZM132.311 165.8H135.171V184H132.311V165.8ZM142.465 182.024C142.465 180.724 142.673 179.615 143.089 178.696C143.505 177.76 144.251 176.729 145.325 175.602C146.383 174.475 147.111 173.513 147.509 172.716C147.925 171.919 148.133 171.087 148.133 170.22C148.133 169.44 148.003 168.903 147.743 168.608C147.501 168.296 147.137 168.14 146.651 168.14C145.663 168.14 145.169 168.738 145.169 169.934V171.884H142.465V170.116C142.465 168.643 142.829 167.516 143.557 166.736C144.285 165.939 145.343 165.54 146.729 165.54C148.116 165.54 149.173 165.939 149.901 166.736C150.629 167.516 150.993 168.643 150.993 170.116C150.993 171.225 150.725 172.309 150.187 173.366C149.667 174.423 148.757 175.637 147.457 177.006C146.608 177.907 146.036 178.644 145.741 179.216C145.447 179.771 145.299 180.369 145.299 181.01V181.4H150.733V184H142.465V182.024ZM157.581 184.26C156.177 184.26 155.103 183.861 154.357 183.064C153.612 182.267 153.239 181.14 153.239 179.684V170.116C153.239 168.66 153.612 167.533 154.357 166.736C155.103 165.939 156.177 165.54 157.581 165.54C158.985 165.54 160.06 165.939 160.805 166.736C161.551 167.533 161.923 168.66 161.923 170.116V179.684C161.923 181.14 161.551 182.267 160.805 183.064C160.06 183.861 158.985 184.26 157.581 184.26ZM157.581 181.66C158.569 181.66 159.063 181.062 159.063 179.866V169.934C159.063 168.738 158.569 168.14 157.581 168.14C156.593 168.14 156.099 168.738 156.099 169.934V179.866C156.099 181.062 156.593 181.66 157.581 181.66ZM168.382 170.116H165.392V168.088C166.206 168.088 166.856 168.019 167.342 167.88C167.844 167.741 168.243 167.516 168.538 167.204C168.832 166.875 169.092 166.407 169.318 165.8H171.242V184H168.382V170.116ZM179.442 184.26C178.003 184.26 176.894 183.879 176.114 183.116C175.351 182.336 174.97 181.218 174.97 179.762V178.15C174.97 177.249 175.117 176.495 175.412 175.888C175.706 175.264 176.183 174.779 176.842 174.432V174.38C176.235 174.051 175.784 173.6 175.49 173.028C175.212 172.439 175.074 171.693 175.074 170.792V170.038C175.074 168.582 175.446 167.473 176.192 166.71C176.954 165.93 178.038 165.54 179.442 165.54C180.846 165.54 181.92 165.93 182.666 166.71C183.428 167.473 183.81 168.582 183.81 170.038V170.792C183.81 172.525 183.22 173.721 182.042 174.38V174.432C182.7 174.779 183.177 175.264 183.472 175.888C183.766 176.495 183.914 177.249 183.914 178.15V179.762C183.914 181.218 183.524 182.336 182.744 183.116C181.981 183.879 180.88 184.26 179.442 184.26ZM179.442 173.21C180.447 173.21 180.95 172.603 180.95 171.39V169.96C180.95 168.747 180.447 168.14 179.442 168.14C178.436 168.14 177.934 168.747 177.934 169.96V171.39C177.934 172.603 178.436 173.21 179.442 173.21ZM179.442 181.66C180.516 181.66 181.054 180.975 181.054 179.606V177.864C181.054 176.495 180.516 175.81 179.442 175.81C178.367 175.81 177.83 176.495 177.83 177.864V179.606C177.83 180.975 178.367 181.66 179.442 181.66Z" fill="black"/>
<path d="M584.078 301.8H588.29C589.711 301.8 590.777 302.181 591.488 302.944C592.199 303.707 592.554 304.825 592.554 306.298V308.092C592.554 309.565 592.199 310.683 591.488 311.446C590.777 312.209 589.711 312.59 588.29 312.59H586.938V320H584.078V301.8ZM588.29 309.99C588.758 309.99 589.105 309.86 589.33 309.6C589.573 309.34 589.694 308.898 589.694 308.274V306.116C589.694 305.492 589.573 305.05 589.33 304.79C589.105 304.53 588.758 304.4 588.29 304.4H586.938V309.99H588.29ZM594.627 301.8H598.865C600.339 301.8 601.413 302.147 602.089 302.84C602.765 303.516 603.103 304.565 603.103 305.986V307.104C603.103 308.993 602.479 310.189 601.231 310.692V310.744C601.925 310.952 602.41 311.377 602.687 312.018C602.982 312.659 603.129 313.517 603.129 314.592V317.79C603.129 318.31 603.147 318.735 603.181 319.064C603.216 319.376 603.303 319.688 603.441 320H600.529C600.425 319.705 600.356 319.428 600.321 319.168C600.287 318.908 600.269 318.44 600.269 317.764V314.436C600.269 313.604 600.131 313.023 599.853 312.694C599.593 312.365 599.134 312.2 598.475 312.2H597.487V320H594.627V301.8ZM598.527 309.6C599.099 309.6 599.524 309.453 599.801 309.158C600.096 308.863 600.243 308.369 600.243 307.676V306.272C600.243 305.613 600.122 305.137 599.879 304.842C599.654 304.547 599.29 304.4 598.787 304.4H597.487V309.6H598.527ZM609.768 320.26C608.364 320.26 607.289 319.861 606.544 319.064C605.798 318.267 605.426 317.14 605.426 315.684V306.116C605.426 304.66 605.798 303.533 606.544 302.736C607.289 301.939 608.364 301.54 609.768 301.54C611.172 301.54 612.246 301.939 612.992 302.736C613.737 303.533 614.11 304.66 614.11 306.116V315.684C614.11 317.14 613.737 318.267 612.992 319.064C612.246 319.861 611.172 320.26 609.768 320.26ZM609.768 317.66C610.756 317.66 611.25 317.062 611.25 315.866V305.934C611.25 304.738 610.756 304.14 609.768 304.14C608.78 304.14 608.286 304.738 608.286 305.934V315.866C608.286 317.062 608.78 317.66 609.768 317.66ZM616.564 301.8H620.776C622.197 301.8 623.263 302.181 623.974 302.944C624.684 303.707 625.04 304.825 625.04 306.298V308.092C625.04 309.565 624.684 310.683 623.974 311.446C623.263 312.209 622.197 312.59 620.776 312.59H619.424V320H616.564V301.8ZM620.776 309.99C621.244 309.99 621.59 309.86 621.816 309.6C622.058 309.34 622.18 308.898 622.18 308.274V306.116C622.18 305.492 622.058 305.05 621.816 304.79C621.59 304.53 621.244 304.4 620.776 304.4H619.424V309.99H620.776ZM631.247 320.26C629.843 320.26 628.768 319.861 628.023 319.064C627.278 318.267 626.905 317.14 626.905 315.684V306.116C626.905 304.66 627.278 303.533 628.023 302.736C628.768 301.939 629.843 301.54 631.247 301.54C632.651 301.54 633.726 301.939 634.471 302.736C635.216 303.533 635.589 304.66 635.589 306.116V315.684C635.589 317.14 635.216 318.267 634.471 319.064C633.726 319.861 632.651 320.26 631.247 320.26ZM631.247 317.66C632.235 317.66 632.729 317.062 632.729 315.866V305.934C632.729 304.738 632.235 304.14 631.247 304.14C630.259 304.14 629.765 304.738 629.765 305.934V315.866C629.765 317.062 630.259 317.66 631.247 317.66ZM641.761 320.26C640.375 320.26 639.326 319.87 638.615 319.09C637.905 318.293 637.549 317.157 637.549 315.684V314.644H640.253V315.892C640.253 317.071 640.747 317.66 641.735 317.66C642.221 317.66 642.585 317.521 642.827 317.244C643.087 316.949 643.217 316.481 643.217 315.84C643.217 315.077 643.044 314.41 642.697 313.838C642.351 313.249 641.709 312.547 640.773 311.732C639.595 310.692 638.771 309.756 638.303 308.924C637.835 308.075 637.601 307.121 637.601 306.064C637.601 304.625 637.965 303.516 638.693 302.736C639.421 301.939 640.479 301.54 641.865 301.54C643.235 301.54 644.266 301.939 644.959 302.736C645.67 303.516 646.025 304.643 646.025 306.116V306.87H643.321V305.934C643.321 305.31 643.2 304.859 642.957 304.582C642.715 304.287 642.359 304.14 641.891 304.14C640.938 304.14 640.461 304.721 640.461 305.882C640.461 306.541 640.635 307.156 640.981 307.728C641.345 308.3 641.995 308.993 642.931 309.808C644.127 310.848 644.951 311.793 645.401 312.642C645.852 313.491 646.077 314.488 646.077 315.632C646.077 317.123 645.705 318.267 644.959 319.064C644.231 319.861 643.165 320.26 641.761 320.26ZM650.371 301.8H654.245L657.209 320H654.349L653.829 316.386V316.438H650.579L650.059 320H647.407L650.371 301.8ZM653.491 313.968L652.217 304.972H652.165L650.917 313.968H653.491ZM659.116 301.8H661.976V317.4H666.682V320H659.116V301.8Z" fill="black"/>
<path d="M600.255 409.26C598.885 409.26 597.837 408.87 597.109 408.09C596.398 407.31 596.043 406.209 596.043 404.788V395.012C596.043 393.591 596.398 392.49 597.109 391.71C597.837 390.93 598.885 390.54 600.255 390.54C601.624 390.54 602.664 390.93 603.375 391.71C604.103 392.49 604.467 393.591 604.467 395.012V396.936H601.763V394.83C601.763 393.703 601.286 393.14 600.333 393.14C599.379 393.14 598.903 393.703 598.903 394.83V404.996C598.903 406.105 599.379 406.66 600.333 406.66C601.286 406.66 601.763 406.105 601.763 404.996V402.214H604.467V404.788C604.467 406.209 604.103 407.31 603.375 408.09C602.664 408.87 601.624 409.26 600.255 409.26ZM608.908 390.8H612.782L615.746 409H612.886L612.366 405.386V405.438H609.116L608.596 409H605.944L608.908 390.8ZM612.028 402.968L610.754 393.972H610.702L609.454 402.968H612.028ZM617.653 390.8H620.513V406.4H625.219V409H617.653V390.8ZM627.111 390.8H629.971V406.4H634.677V409H627.111V390.8ZM645.412 409.26C644.026 409.26 642.968 408.87 642.24 408.09C641.512 407.293 641.148 406.157 641.148 404.684V390.8H644.008V404.892C644.008 405.516 644.13 405.967 644.372 406.244C644.632 406.521 644.996 406.66 645.464 406.66C645.932 406.66 646.288 406.521 646.53 406.244C646.79 405.967 646.92 405.516 646.92 404.892V390.8H649.676V404.684C649.676 406.157 649.312 407.293 648.584 408.09C647.856 408.87 646.799 409.26 645.412 409.26ZM655.951 409.26C654.565 409.26 653.516 408.87 652.805 408.09C652.095 407.293 651.739 406.157 651.739 404.684V403.644H654.443V404.892C654.443 406.071 654.937 406.66 655.925 406.66C656.411 406.66 656.775 406.521 657.017 406.244C657.277 405.949 657.407 405.481 657.407 404.84C657.407 404.077 657.234 403.41 656.887 402.838C656.541 402.249 655.899 401.547 654.963 400.732C653.785 399.692 652.961 398.756 652.493 397.924C652.025 397.075 651.791 396.121 651.791 395.064C651.791 393.625 652.155 392.516 652.883 391.736C653.611 390.939 654.669 390.54 656.055 390.54C657.425 390.54 658.456 390.939 659.149 391.736C659.86 392.516 660.215 393.643 660.215 395.116V395.87H657.511V394.934C657.511 394.31 657.39 393.859 657.147 393.582C656.905 393.287 656.549 393.14 656.081 393.14C655.128 393.14 654.651 393.721 654.651 394.882C654.651 395.541 654.825 396.156 655.171 396.728C655.535 397.3 656.185 397.993 657.121 398.808C658.317 399.848 659.141 400.793 659.591 401.642C660.042 402.491 660.267 403.488 660.267 404.632C660.267 406.123 659.895 407.267 659.149 408.064C658.421 408.861 657.355 409.26 655.951 409.26Z" fill="black"/>
<path d="M530.173 430.8H534.411C535.884 430.8 536.959 431.147 537.635 431.84C538.311 432.516 538.649 433.565 538.649 434.986V436.104C538.649 437.993 538.025 439.189 536.777 439.692V439.744C537.47 439.952 537.956 440.377 538.233 441.018C538.528 441.659 538.675 442.517 538.675 443.592V446.79C538.675 447.31 538.692 447.735 538.727 448.064C538.762 448.376 538.848 448.688 538.987 449H536.075C535.971 448.705 535.902 448.428 535.867 448.168C535.832 447.908 535.815 447.44 535.815 446.764V443.436C535.815 442.604 535.676 442.023 535.399 441.694C535.139 441.365 534.68 441.2 534.021 441.2H533.033V449H530.173V430.8ZM534.073 438.6C534.645 438.6 535.07 438.453 535.347 438.158C535.642 437.863 535.789 437.369 535.789 436.676V435.272C535.789 434.613 535.668 434.137 535.425 433.842C535.2 433.547 534.836 433.4 534.333 433.4H533.033V438.6H534.073ZM541.179 430.8H544.039V438.21H547.107V430.8H549.967V449H547.107V440.81H544.039V449H541.179V430.8ZM552.617 430.8H560.417V433.4H555.477V438.21H559.403V440.81H555.477V446.4H560.417V449H552.617V430.8ZM562.061 446.452L567.365 433.4H562.321V430.8H570.433V433.348L565.129 446.4H570.433V449H562.061V446.452ZM574.783 430.8H578.657L581.621 449H578.761L578.241 445.386V445.438H574.991L574.471 449H571.819L574.783 430.8ZM577.903 442.968L576.629 433.972H576.577L575.329 442.968H577.903ZM588.213 436.338H590.969V439.094H588.213V436.338ZM588.213 446.244H590.969V449H588.213V446.244ZM602.451 449.26C601.047 449.26 599.973 448.861 599.227 448.064C598.482 447.267 598.109 446.14 598.109 444.684V435.116C598.109 433.66 598.482 432.533 599.227 431.736C599.973 430.939 601.047 430.54 602.451 430.54C603.855 430.54 604.93 430.939 605.675 431.736C606.421 432.533 606.793 433.66 606.793 435.116V444.684C606.793 446.14 606.421 447.267 605.675 448.064C604.93 448.861 603.855 449.26 602.451 449.26ZM602.451 446.66C603.439 446.66 603.933 446.062 603.933 444.866V434.934C603.933 433.738 603.439 433.14 602.451 433.14C601.463 433.14 600.969 433.738 600.969 434.934V444.866C600.969 446.062 601.463 446.66 602.451 446.66ZM613.381 449.26C611.943 449.26 610.833 448.879 610.053 448.116C609.291 447.336 608.909 446.218 608.909 444.762V443.15C608.909 442.249 609.057 441.495 609.351 440.888C609.646 440.264 610.123 439.779 610.781 439.432V439.38C610.175 439.051 609.724 438.6 609.429 438.028C609.152 437.439 609.013 436.693 609.013 435.792V435.038C609.013 433.582 609.386 432.473 610.131 431.71C610.894 430.93 611.977 430.54 613.381 430.54C614.785 430.54 615.86 430.93 616.605 431.71C617.368 432.473 617.749 433.582 617.749 435.038V435.792C617.749 437.525 617.16 438.721 615.981 439.38V439.432C616.64 439.779 617.117 440.264 617.411 440.888C617.706 441.495 617.853 442.249 617.853 443.15V444.762C617.853 446.218 617.463 447.336 616.683 448.116C615.921 448.879 614.82 449.26 613.381 449.26ZM613.381 438.21C614.387 438.21 614.889 437.603 614.889 436.39V434.96C614.889 433.747 614.387 433.14 613.381 433.14C612.376 433.14 611.873 433.747 611.873 434.96V436.39C611.873 437.603 612.376 438.21 613.381 438.21ZM613.381 446.66C614.456 446.66 614.993 445.975 614.993 444.606V442.864C614.993 441.495 614.456 440.81 613.381 440.81C612.307 440.81 611.769 441.495 611.769 442.864V444.606C611.769 445.975 612.307 446.66 613.381 446.66ZM624.182 435.116H621.192V433.088C622.006 433.088 622.656 433.019 623.142 432.88C623.644 432.741 624.043 432.516 624.338 432.204C624.632 431.875 624.892 431.407 625.118 430.8H627.042V449H624.182V435.116ZM635.294 449.26C633.907 449.26 632.85 448.87 632.122 448.09C631.394 447.293 631.03 446.157 631.03 444.684V443.254H633.734V444.892C633.734 446.071 634.228 446.66 635.216 446.66C636.204 446.66 636.698 446.071 636.698 444.892V440.81C636.698 439.614 636.204 439.016 635.216 439.016C634.228 439.016 633.734 439.614 633.734 440.81V440.966H631.03L631.55 430.8H639.09V433.4H634.098L633.864 437.742H633.916C634.453 436.858 635.276 436.416 636.386 436.416C637.426 436.416 638.214 436.771 638.752 437.482C639.289 438.193 639.558 439.224 639.558 440.576V444.684C639.558 446.157 639.194 447.293 638.466 448.09C637.738 448.87 636.68 449.26 635.294 449.26ZM647.628 433.4H641.856V430.8H650.436V433.296L645.964 449H643.052L647.628 433.4ZM657.154 449.26C655.767 449.26 654.71 448.87 653.982 448.09C653.254 447.293 652.89 446.157 652.89 444.684V443.254H655.594V444.892C655.594 446.071 656.088 446.66 657.076 446.66C658.064 446.66 658.558 446.071 658.558 444.892V440.81C658.558 439.614 658.064 439.016 657.076 439.016C656.088 439.016 655.594 439.614 655.594 440.81V440.966H652.89L653.41 430.8H660.95V433.4H655.958L655.724 437.742H655.776C656.313 436.858 657.137 436.416 658.246 436.416C659.286 436.416 660.075 436.771 660.612 437.482C661.149 438.193 661.418 439.224 661.418 440.576V444.684C661.418 446.157 661.054 447.293 660.326 448.09C659.598 448.87 658.541 449.26 657.154 449.26ZM668.682 445.698H663.222V443.098L668.422 430.8H671.542V443.098H672.894V445.698H671.542V449H668.682V445.698ZM668.682 443.098V436H668.63L665.822 443.098H668.682ZM678.962 449.26C677.558 449.26 676.484 448.861 675.738 448.064C674.993 447.267 674.62 446.14 674.62 444.684V435.116C674.62 433.66 674.993 432.533 675.738 431.736C676.484 430.939 677.558 430.54 678.962 430.54C680.366 430.54 681.441 430.939 682.186 431.736C682.932 432.533 683.304 433.66 683.304 435.116V444.684C683.304 446.14 682.932 447.267 682.186 448.064C681.441 448.861 680.366 449.26 678.962 449.26ZM678.962 446.66C679.95 446.66 680.444 446.062 680.444 444.866V434.934C680.444 433.738 679.95 433.14 678.962 433.14C677.974 433.14 677.48 433.738 677.48 434.934V444.866C677.48 446.062 677.974 446.66 678.962 446.66ZM689.971 449.26C688.567 449.26 687.492 448.861 686.747 448.064C686.001 447.267 685.629 446.14 685.629 444.684V435.272C685.629 432.117 687.085 430.54 689.997 430.54C691.383 430.54 692.441 430.939 693.169 431.736C693.897 432.516 694.261 433.643 694.261 435.116V435.454H691.557V434.934C691.557 433.738 691.063 433.14 690.075 433.14C689.537 433.14 689.139 433.305 688.879 433.634C688.619 433.963 688.489 434.544 688.489 435.376V438.86H688.541C689.043 437.803 689.91 437.274 691.141 437.274C692.181 437.274 692.969 437.629 693.507 438.34C694.044 439.051 694.313 440.082 694.313 441.434V444.684C694.313 446.14 693.94 447.267 693.195 448.064C692.449 448.861 691.375 449.26 689.971 449.26ZM689.971 446.66C690.959 446.66 691.453 446.071 691.453 444.892V441.668C691.453 440.472 690.959 439.874 689.971 439.874C688.983 439.874 688.489 440.472 688.489 441.668V444.892C688.489 446.071 688.983 446.66 689.971 446.66ZM700.823 449.26C699.419 449.26 698.344 448.861 697.599 448.064C696.853 447.267 696.481 446.14 696.481 444.684V435.116C696.481 433.66 696.853 432.533 697.599 431.736C698.344 430.939 699.419 430.54 700.823 430.54C702.227 430.54 703.301 430.939 704.047 431.736C704.792 432.533 705.165 433.66 705.165 435.116V444.684C705.165 446.14 704.792 447.267 704.047 448.064C703.301 448.861 702.227 449.26 700.823 449.26ZM700.823 446.66C701.811 446.66 702.305 446.062 702.305 444.866V434.934C702.305 433.738 701.811 433.14 700.823 433.14C699.835 433.14 699.341 433.738 699.341 434.934V444.866C699.341 446.062 699.835 446.66 700.823 446.66ZM711.753 449.26C710.314 449.26 709.205 448.879 708.425 448.116C707.662 447.336 707.281 446.218 707.281 444.762V443.15C707.281 442.249 707.428 441.495 707.723 440.888C708.017 440.264 708.494 439.779 709.153 439.432V439.38C708.546 439.051 708.095 438.6 707.801 438.028C707.523 437.439 707.385 436.693 707.385 435.792V435.038C707.385 433.582 707.757 432.473 708.503 431.71C709.265 430.93 710.349 430.54 711.753 430.54C713.157 430.54 714.231 430.93 714.977 431.71C715.739 432.473 716.121 433.582 716.121 435.038V435.792C716.121 437.525 715.531 438.721 714.353 439.38V439.432C715.011 439.779 715.488 440.264 715.783 440.888C716.077 441.495 716.225 442.249 716.225 443.15V444.762C716.225 446.218 715.835 447.336 715.055 448.116C714.292 448.879 713.191 449.26 711.753 449.26ZM711.753 438.21C712.758 438.21 713.261 437.603 713.261 436.39V434.96C713.261 433.747 712.758 433.14 711.753 433.14C710.747 433.14 710.245 433.747 710.245 434.96V436.39C710.245 437.603 710.747 438.21 711.753 438.21ZM711.753 446.66C712.827 446.66 713.365 445.975 713.365 444.606V442.864C713.365 441.495 712.827 440.81 711.753 440.81C710.678 440.81 710.141 441.495 710.141 442.864V444.606C710.141 445.975 710.678 446.66 711.753 446.66ZM722.553 435.116H719.563V433.088C720.378 433.088 721.028 433.019 721.513 432.88C722.016 432.741 722.414 432.516 722.709 432.204C723.004 431.875 723.264 431.407 723.489 430.8H725.413V449H722.553V435.116Z" fill="black"/>
<rect x="447" y="1" width="362" height="90" rx="9" fill="white" stroke="black" stroke-width="2"/>
<rect x="1" y="252" width="362" height="219" rx="9" fill="white" stroke="black" stroke-width="2"/>
<circle r="4.5" transform="matrix(-1 0 0 1 469.5 22.5)" fill="black"/>
<path d="M480.274 30.2C479.207 30.2 478.394 29.9 477.834 29.3C477.274 28.6867 476.994 27.8133 476.994 26.68V19.32C476.994 18.1867 477.274 17.32 477.834 16.72C478.394 16.1067 479.207 15.8 480.274 15.8C481.341 15.8 482.154 16.1067 482.714 16.72C483.274 17.32 483.554 18.1867 483.554 19.32V20.52H481.474V19.18C481.474 18.26 481.094 17.8 480.334 17.8C479.574 17.8 479.194 18.26 479.194 19.18V26.84C479.194 27.7467 479.574 28.2 480.334 28.2C481.094 28.2 481.474 27.7467 481.474 26.84V24.1H480.374V22.1H483.554V26.68C483.554 27.8133 483.274 28.6867 482.714 29.3C482.154 29.9 481.341 30.2 480.274 30.2ZM488.566 30.2C487.5 30.2 486.686 29.9 486.126 29.3C485.566 28.6867 485.286 27.8133 485.286 26.68V16H487.486V26.84C487.486 27.32 487.58 27.6667 487.766 27.88C487.966 28.0933 488.246 28.2 488.606 28.2C488.966 28.2 489.24 28.0933 489.426 27.88C489.626 27.6667 489.726 27.32 489.726 26.84V16H491.846V26.68C491.846 27.8133 491.566 28.6867 491.006 29.3C490.446 29.9 489.633 30.2 488.566 30.2ZM493.813 16H499.813V18H496.013V21.7H499.033V23.7H496.013V28H499.813V30H493.813V16ZM504.378 30.2C503.311 30.2 502.505 29.9 501.958 29.3C501.411 28.6867 501.138 27.8133 501.138 26.68V25.88H503.218V26.84C503.218 27.7467 503.598 28.2 504.358 28.2C504.731 28.2 505.011 28.0933 505.198 27.88C505.398 27.6533 505.498 27.2933 505.498 26.8C505.498 26.2133 505.365 25.7 505.098 25.26C504.831 24.8067 504.338 24.2667 503.618 23.64C502.711 22.84 502.078 22.12 501.718 21.48C501.358 20.8267 501.178 20.0933 501.178 19.28C501.178 18.1733 501.458 17.32 502.018 16.72C502.578 16.1067 503.391 15.8 504.458 15.8C505.511 15.8 506.305 16.1067 506.838 16.72C507.385 17.32 507.658 18.1867 507.658 19.32V19.9H505.578V19.18C505.578 18.7 505.485 18.3533 505.298 18.14C505.111 17.9133 504.838 17.8 504.478 17.8C503.745 17.8 503.378 18.2467 503.378 19.14C503.378 19.6467 503.511 20.12 503.778 20.56C504.058 21 504.558 21.5333 505.278 22.16C506.198 22.96 506.831 23.6867 507.178 24.34C507.525 24.9933 507.698 25.76 507.698 26.64C507.698 27.7867 507.411 28.6667 506.838 29.28C506.278 29.8933 505.458 30.2 504.378 30.2ZM511.079 18H508.779V16H515.579V18H513.279V30H511.079V18ZM519.905 30.2C518.838 30.2 518.031 29.9 517.485 29.3C516.938 28.6867 516.665 27.8133 516.665 26.68V25.88H518.745V26.84C518.745 27.7467 519.125 28.2 519.885 28.2C520.258 28.2 520.538 28.0933 520.725 27.88C520.925 27.6533 521.025 27.2933 521.025 26.8C521.025 26.2133 520.891 25.7 520.625 25.26C520.358 24.8067 519.865 24.2667 519.145 23.64C518.238 22.84 517.605 22.12 517.245 21.48C516.885 20.8267 516.705 20.0933 516.705 19.28C516.705 18.1733 516.985 17.32 517.545 16.72C518.105 16.1067 518.918 15.8 519.985 15.8C521.038 15.8 521.831 16.1067 522.365 16.72C522.911 17.32 523.185 18.1867 523.185 19.32V19.9H521.105V19.18C521.105 18.7 521.011 18.3533 520.825 18.14C520.638 17.9133 520.365 17.8 520.005 17.8C519.271 17.8 518.905 18.2467 518.905 19.14C518.905 19.6467 519.038 20.12 519.305 20.56C519.585 21 520.085 21.5333 520.805 22.16C521.725 22.96 522.358 23.6867 522.705 24.34C523.051 24.9933 523.225 25.76 523.225 26.64C523.225 27.7867 522.938 28.6667 522.365 29.28C521.805 29.8933 520.985 30.2 519.905 30.2Z" fill="black"/>
<path d="M476.334 31.6H523.665V33.2H476.334V31.6Z" fill="black"/>
<rect x="447" y="121" width="362" height="118" rx="9" fill="white" stroke="black" stroke-width="2"/>
<circle r="4.5" transform="matrix(-1 0 0 1 469.5 142.5)" fill="black"/>
<path d="M477.23 135H480.49C481.623 135 482.45 135.267 482.97 135.8C483.49 136.32 483.75 137.127 483.75 138.22V139.08C483.75 140.533 483.27 141.453 482.31 141.84V141.88C482.843 142.04 483.217 142.367 483.43 142.86C483.657 143.353 483.77 144.013 483.77 144.84V147.3C483.77 147.7 483.783 148.027 483.81 148.28C483.837 148.52 483.903 148.76 484.01 149H481.77C481.69 148.773 481.637 148.56 481.61 148.36C481.583 148.16 481.57 147.8 481.57 147.28V144.72C481.57 144.08 481.463 143.633 481.25 143.38C481.05 143.127 480.697 143 480.19 143H479.43V149H477.23V135ZM480.23 141C480.67 141 480.997 140.887 481.21 140.66C481.437 140.433 481.55 140.053 481.55 139.52V138.44C481.55 137.933 481.457 137.567 481.27 137.34C481.097 137.113 480.817 137 480.43 137H479.43V141H480.23ZM485.697 135H491.697V137H487.897V140.7H490.917V142.7H487.897V147H491.697V149H485.697V135ZM496.482 149.2C495.416 149.2 494.602 148.9 494.042 148.3C493.482 147.687 493.202 146.813 493.202 145.68V138.32C493.202 137.187 493.482 136.32 494.042 135.72C494.602 135.107 495.416 134.8 496.482 134.8C497.549 134.8 498.362 135.107 498.922 135.72C499.482 136.32 499.762 137.187 499.762 138.32V139.52H497.682V138.18C497.682 137.26 497.302 136.8 496.542 136.8C495.782 136.8 495.402 137.26 495.402 138.18V145.84C495.402 146.747 495.782 147.2 496.542 147.2C497.302 147.2 497.682 146.747 497.682 145.84V143.1H496.582V141.1H499.762V145.68C499.762 146.813 499.482 147.687 498.922 148.3C498.362 148.9 497.549 149.2 496.482 149.2ZM501.575 135H503.775V149H501.575V135ZM508.682 149.2C507.616 149.2 506.809 148.9 506.262 148.3C505.716 147.687 505.442 146.813 505.442 145.68V144.88H507.522V145.84C507.522 146.747 507.902 147.2 508.662 147.2C509.036 147.2 509.316 147.093 509.502 146.88C509.702 146.653 509.802 146.293 509.802 145.8C509.802 145.213 509.669 144.7 509.402 144.26C509.136 143.807 508.642 143.267 507.922 142.64C507.016 141.84 506.382 141.12 506.022 140.48C505.662 139.827 505.482 139.093 505.482 138.28C505.482 137.173 505.762 136.32 506.322 135.72C506.882 135.107 507.696 134.8 508.762 134.8C509.816 134.8 510.609 135.107 511.142 135.72C511.689 136.32 511.962 137.187 511.962 138.32V138.9H509.882V138.18C509.882 137.7 509.789 137.353 509.602 137.14C509.416 136.913 509.142 136.8 508.782 136.8C508.049 136.8 507.682 137.247 507.682 138.14C507.682 138.647 507.816 139.12 508.082 139.56C508.362 140 508.862 140.533 509.582 141.16C510.502 141.96 511.136 142.687 511.482 143.34C511.829 143.993 512.002 144.76 512.002 145.64C512.002 146.787 511.716 147.667 511.142 148.28C510.582 148.893 509.762 149.2 508.682 149.2ZM515.384 137H513.084V135H519.884V137H517.584V149H515.384V137ZM521.349 135H524.609C525.742 135 526.569 135.267 527.089 135.8C527.609 136.32 527.869 137.127 527.869 138.22V139.08C527.869 140.533 527.389 141.453 526.429 141.84V141.88C526.962 142.04 527.336 142.367 527.549 142.86C527.776 143.353 527.889 144.013 527.889 144.84V147.3C527.889 147.7 527.902 148.027 527.929 148.28C527.956 148.52 528.022 148.76 528.129 149H525.889C525.809 148.773 525.756 148.56 525.729 148.36C525.702 148.16 525.689 147.8 525.689 147.28V144.72C525.689 144.08 525.582 143.633 525.369 143.38C525.169 143.127 524.816 143 524.309 143H523.549V149H521.349V135ZM524.349 141C524.789 141 525.116 140.887 525.329 140.66C525.556 140.433 525.669 140.053 525.669 139.52V138.44C525.669 137.933 525.576 137.567 525.389 137.34C525.216 137.113 524.936 137 524.549 137H523.549V141H524.349ZM531.515 135H534.495L536.775 149H534.575L534.175 146.22V146.26H531.675L531.275 149H529.235L531.515 135ZM533.915 144.36L532.935 137.44H532.895L531.935 144.36H533.915ZM539.045 137H536.745V135H543.545V137H541.245V149H539.045V137ZM545.01 135H547.21V149H545.01V135ZM552.438 149.2C551.358 149.2 550.531 148.893 549.958 148.28C549.384 147.667 549.097 146.8 549.097 145.68V138.32C549.097 137.2 549.384 136.333 549.958 135.72C550.531 135.107 551.358 134.8 552.438 134.8C553.518 134.8 554.344 135.107 554.918 135.72C555.491 136.333 555.778 137.2 555.778 138.32V145.68C555.778 146.8 555.491 147.667 554.918 148.28C554.344 148.893 553.518 149.2 552.438 149.2ZM552.438 147.2C553.198 147.2 553.577 146.74 553.577 145.82V138.18C553.577 137.26 553.198 136.8 552.438 136.8C551.678 136.8 551.298 137.26 551.298 138.18V145.82C551.298 146.74 551.678 147.2 552.438 147.2ZM557.665 135H560.425L562.565 143.38H562.605V135H564.565V149H562.305L559.665 138.78H559.625V149H557.665V135ZM570.204 135H576.024V137H572.404V140.9H575.244V142.9H572.404V149H570.204V135ZM577.479 135H583.479V137H579.679V140.7H582.699V142.7H579.679V147H583.479V149H577.479V135ZM585.144 135H591.144V137H587.344V140.7H590.364V142.7H587.344V147H591.144V149H585.144V135Z" fill="black"/>
<path d="M476.41 150.6H591.584V152.2H476.41V150.6Z" fill="black"/>
<path d="M481.252 184.26C479.865 184.26 478.808 183.87 478.08 183.09C477.352 182.293 476.988 181.157 476.988 179.684V178.254H479.692V179.892C479.692 181.071 480.186 181.66 481.174 181.66C482.162 181.66 482.656 181.071 482.656 179.892V175.81C482.656 174.614 482.162 174.016 481.174 174.016C480.186 174.016 479.692 174.614 479.692 175.81V175.966H476.988L477.508 165.8H485.048V168.4H480.056L479.822 172.742H479.874C480.411 171.858 481.235 171.416 482.344 171.416C483.384 171.416 484.173 171.771 484.71 172.482C485.247 173.193 485.516 174.224 485.516 175.576V179.684C485.516 181.157 485.152 182.293 484.424 183.09C483.696 183.87 482.639 184.26 481.252 184.26ZM492.13 184.26C490.726 184.26 489.651 183.861 488.906 183.064C488.161 182.267 487.788 181.14 487.788 179.684V170.116C487.788 168.66 488.161 167.533 488.906 166.736C489.651 165.939 490.726 165.54 492.13 165.54C493.534 165.54 494.609 165.939 495.354 166.736C496.099 167.533 496.472 168.66 496.472 170.116V179.684C496.472 181.14 496.099 182.267 495.354 183.064C494.609 183.861 493.534 184.26 492.13 184.26ZM492.13 181.66C493.118 181.66 493.612 181.062 493.612 179.866V169.934C493.612 168.738 493.118 168.14 492.13 168.14C491.142 168.14 490.648 168.738 490.648 169.934V179.866C490.648 181.062 491.142 181.66 492.13 181.66ZM503.61 165.8H507.848C509.322 165.8 510.396 166.147 511.072 166.84C511.748 167.516 512.086 168.565 512.086 169.986V171.104C512.086 172.993 511.462 174.189 510.214 174.692V174.744C510.908 174.952 511.393 175.377 511.67 176.018C511.965 176.659 512.112 177.517 512.112 178.592V181.79C512.112 182.31 512.13 182.735 512.164 183.064C512.199 183.376 512.286 183.688 512.424 184H509.512C509.408 183.705 509.339 183.428 509.304 183.168C509.27 182.908 509.252 182.44 509.252 181.764V178.436C509.252 177.604 509.114 177.023 508.836 176.694C508.576 176.365 508.117 176.2 507.458 176.2H506.47V184H503.61V165.8ZM507.51 173.6C508.082 173.6 508.507 173.453 508.784 173.158C509.079 172.863 509.226 172.369 509.226 171.676V170.272C509.226 169.613 509.105 169.137 508.862 168.842C508.637 168.547 508.273 168.4 507.77 168.4H506.47V173.6H507.51ZM514.617 165.8H517.477V184H514.617V165.8ZM520.139 165.8H524.455C525.928 165.8 527.003 166.147 527.679 166.84C528.355 167.516 528.693 168.565 528.693 169.986V170.714C528.693 171.65 528.537 172.413 528.225 173.002C527.93 173.591 527.471 174.016 526.847 174.276V174.328C528.268 174.813 528.979 176.079 528.979 178.124V179.684C528.979 181.088 528.606 182.163 527.861 182.908C527.133 183.636 526.058 184 524.637 184H520.139V165.8ZM524.117 173.21C524.689 173.21 525.113 173.063 525.391 172.768C525.685 172.473 525.833 171.979 525.833 171.286V170.272C525.833 169.613 525.711 169.137 525.469 168.842C525.243 168.547 524.879 168.4 524.377 168.4H522.999V173.21H524.117ZM524.637 181.4C525.139 181.4 525.512 181.27 525.755 181.01C525.997 180.733 526.119 180.265 526.119 179.606V178.02C526.119 177.188 525.971 176.616 525.677 176.304C525.399 175.975 524.931 175.81 524.273 175.81H522.999V181.4H524.637ZM535.33 184.26C533.944 184.26 532.886 183.87 532.158 183.09C531.43 182.293 531.066 181.157 531.066 179.684V165.8H533.926V179.892C533.926 180.516 534.048 180.967 534.29 181.244C534.55 181.521 534.914 181.66 535.382 181.66C535.85 181.66 536.206 181.521 536.448 181.244C536.708 180.967 536.838 180.516 536.838 179.892V165.8H539.594V179.684C539.594 181.157 539.23 182.293 538.502 183.09C537.774 183.87 536.717 184.26 535.33 184.26Z" fill="black"/>
<circle r="4.5" transform="matrix(-1 0 0 1 23.5 277.5)" fill="black"/>
<path d="M31.0106 270H34.2506C35.344 270 36.164 270.293 36.7106 270.88C37.2573 271.467 37.5306 272.327 37.5306 273.46V274.84C37.5306 275.973 37.2573 276.833 36.7106 277.42C36.164 278.007 35.344 278.3 34.2506 278.3H33.2106V284H31.0106V270ZM34.2506 276.3C34.6106 276.3 34.8773 276.2 35.0506 276C35.2373 275.8 35.3306 275.46 35.3306 274.98V273.32C35.3306 272.84 35.2373 272.5 35.0506 272.3C34.8773 272.1 34.6106 272 34.2506 272H33.2106V276.3H34.2506ZM40.1223 270H43.1023L45.3823 284H43.1823L42.7823 281.22V281.26H40.2823L39.8823 284H37.8423L40.1223 270ZM42.5223 279.36L41.5423 272.44H41.5023L40.5423 279.36H42.5223ZM46.8497 270H50.1097C51.243 270 52.0697 270.267 52.5897 270.8C53.1097 271.32 53.3697 272.127 53.3697 273.22V274.08C53.3697 275.533 52.8897 276.453 51.9297 276.84V276.88C52.463 277.04 52.8364 277.367 53.0497 277.86C53.2764 278.353 53.3897 279.013 53.3897 279.84V282.3C53.3897 282.7 53.403 283.027 53.4297 283.28C53.4564 283.52 53.523 283.76 53.6297 284H51.3897C51.3097 283.773 51.2564 283.56 51.2297 283.36C51.203 283.16 51.1897 282.8 51.1897 282.28V279.72C51.1897 279.08 51.083 278.633 50.8697 278.38C50.6697 278.127 50.3164 278 49.8097 278H49.0497V284H46.8497V270ZM49.8497 276C50.2897 276 50.6164 275.887 50.8297 275.66C51.0564 275.433 51.1697 275.053 51.1697 274.52V273.44C51.1697 272.933 51.0764 272.567 50.8897 272.34C50.7164 272.113 50.4364 272 50.0497 272H49.0497V276H49.8497ZM56.997 272H54.697V270H61.497V272H59.197V284H56.997V272ZM62.9622 270H65.7222L67.8622 278.38H67.9022V270H69.8622V284H67.6022L64.9622 273.78H64.9222V284H62.9622V270ZM71.8973 270H77.8973V272H74.0973V275.7H77.1173V277.7H74.0973V282H77.8973V284H71.8973V270ZM79.563 270H82.823C83.9563 270 84.783 270.267 85.303 270.8C85.823 271.32 86.083 272.127 86.083 273.22V274.08C86.083 275.533 85.603 276.453 84.643 276.84V276.88C85.1763 277.04 85.5496 277.367 85.763 277.86C85.9896 278.353 86.103 279.013 86.103 279.84V282.3C86.103 282.7 86.1163 283.027 86.143 283.28C86.1696 283.52 86.2363 283.76 86.343 284H84.103C84.023 283.773 83.9696 283.56 83.943 283.36C83.9163 283.16 83.903 282.8 83.903 282.28V279.72C83.903 279.08 83.7963 278.633 83.583 278.38C83.383 278.127 83.0296 278 82.523 278H81.763V284H79.563V270ZM82.563 276C83.003 276 83.3296 275.887 83.543 275.66C83.7696 275.433 83.883 275.053 83.883 274.52V273.44C83.883 272.933 83.7896 272.567 83.603 272.34C83.4296 272.113 83.1496 272 82.763 272H81.763V276H82.563Z" fill="black"/>
<path d="M30.1906 285.6H86.803V287.2H30.1906V285.6Z" fill="black"/>
</svg>
