<svg width="810" height="472" viewBox="0 0 810 472" fill="none" xmlns="http://www.w3.org/2000/svg">
<rect x="1" y="1" width="362" height="90" rx="9" fill="white" stroke="black" stroke-width="2"/>
<rect x="447" y="269" width="362" height="88" rx="9" fill="white" stroke="black" stroke-width="2"/>
<rect x="447" y="381" width="362" height="90" rx="9" fill="#1FD57D" stroke="black" stroke-width="2"/>
<circle r="4.5" transform="matrix(-1 0 0 1 23.5 22.5)" fill="black"/>
<path d="M31.297 15H33.497V27H37.117V29H31.297V15ZM41.6738 29.2C40.5938 29.2 39.7672 28.8933 39.1938 28.28C38.6205 27.6667 38.3338 26.8 38.3338 25.68V18.32C38.3338 17.2 38.6205 16.3333 39.1938 15.72C39.7672 15.1067 40.5938 14.8 41.6738 14.8C42.7538 14.8 43.5805 15.1067 44.1538 15.72C44.7272 16.3333 45.0138 17.2 45.0138 18.32V25.68C45.0138 26.8 44.7272 27.6667 44.1538 28.28C43.5805 28.8933 42.7538 29.2 41.6738 29.2ZM41.6738 27.2C42.4338 27.2 42.8138 26.74 42.8138 25.82V18.18C42.8138 17.26 42.4338 16.8 41.6738 16.8C40.9138 16.8 40.5338 17.26 40.5338 18.18V25.82C40.5338 26.74 40.9138 27.2 41.6738 27.2ZM50.0016 29.2C48.9483 29.2 48.1416 28.9 47.5816 28.3C47.035 27.7 46.7616 26.8533 46.7616 25.76V18.24C46.7616 17.1467 47.035 16.3 47.5816 15.7C48.1416 15.1 48.9483 14.8 50.0016 14.8C51.055 14.8 51.855 15.1 52.4016 15.7C52.9616 16.3 53.2416 17.1467 53.2416 18.24V19.72H51.1616V18.1C51.1616 17.2333 50.795 16.8 50.0616 16.8C49.3283 16.8 48.9616 17.2333 48.9616 18.1V25.92C48.9616 26.7733 49.3283 27.2 50.0616 27.2C50.795 27.2 51.1616 26.7733 51.1616 25.92V23.78H53.2416V25.76C53.2416 26.8533 52.9616 27.7 52.4016 28.3C51.855 28.9 51.055 29.2 50.0016 29.2ZM56.6579 15H59.6379L61.9179 29H59.7179L59.3179 26.22V26.26H56.8179L56.4179 29H54.3779L56.6579 15ZM59.0579 24.36L58.0779 17.44H58.0379L57.0779 24.36H59.0579ZM64.1873 17H61.8873V15H68.6873V17H66.3873V29H64.1873V17ZM70.1524 15H72.3524V29H70.1524V15ZM77.5801 29.2C76.5001 29.2 75.6734 28.8933 75.1001 28.28C74.5267 27.6667 74.2401 26.8 74.2401 25.68V18.32C74.2401 17.2 74.5267 16.3333 75.1001 15.72C75.6734 15.1067 76.5001 14.8 77.5801 14.8C78.6601 14.8 79.4867 15.1067 80.0601 15.72C80.6334 16.3333 80.9201 17.2 80.9201 18.32V25.68C80.9201 26.8 80.6334 27.6667 80.0601 28.28C79.4867 28.8933 78.6601 29.2 77.5801 29.2ZM77.5801 27.2C78.3401 27.2 78.7201 26.74 78.7201 25.82V18.18C78.7201 17.26 78.3401 16.8 77.5801 16.8C76.8201 16.8 76.4401 17.26 76.4401 18.18V25.82C76.4401 26.74 76.8201 27.2 77.5801 27.2ZM82.8079 15H85.5679L87.7079 23.38H87.7479V15H89.7079V29H87.4479L84.8079 18.78H84.7679V29H82.8079V15Z" fill="black"/>
<path d="M30.477 30.6H90.5279V32.2H30.477V30.6Z" fill="black"/>
<path d="M35.3866 70.26C33.9999 70.26 32.9426 69.87 32.2146 69.09C31.4866 68.2927 31.1226 67.1573 31.1226 65.684V51.8H33.9826V65.892C33.9826 66.516 34.1039 66.9667 34.3466 67.244C34.6066 67.5213 34.9706 67.66 35.4386 67.66C35.9066 67.66 36.2619 67.5213 36.5046 67.244C36.7646 66.9667 36.8946 66.516 36.8946 65.892V51.8H39.6506V65.684C39.6506 67.1573 39.2866 68.2927 38.5586 69.09C37.8306 69.87 36.7733 70.26 35.3866 70.26ZM42.2075 51.8H45.7955L48.5775 62.694H48.6295V51.8H51.1775V70H48.2395L44.8075 56.714H44.7555V70H42.2075V51.8ZM53.8232 51.8H56.6832V70H53.8232V51.8ZM58.5912 51.8H61.4772L63.3492 65.918H63.4012L65.2732 51.8H67.8992L65.1432 70H61.3472L58.5912 51.8ZM69.7929 51.8H77.5929V54.4H72.6529V59.21H76.5789V61.81H72.6529V67.4H77.5929V70H69.7929V51.8ZM79.7582 51.8H83.9962C85.4696 51.8 86.5442 52.1467 87.2202 52.84C87.8962 53.516 88.2342 54.5647 88.2342 55.986V57.104C88.2342 58.9933 87.6102 60.1893 86.3622 60.692V60.744C87.0556 60.952 87.5409 61.3767 87.8182 62.018C88.1129 62.6593 88.2602 63.5173 88.2602 64.592V67.79C88.2602 68.31 88.2776 68.7347 88.3122 69.064C88.3469 69.376 88.4336 69.688 88.5722 70H85.6602C85.5562 69.7053 85.4869 69.428 85.4522 69.168C85.4176 68.908 85.4002 68.44 85.4002 67.764V64.436C85.4002 63.604 85.2616 63.0233 84.9842 62.694C84.7242 62.3647 84.2649 62.2 83.6062 62.2H82.6182V70H79.7582V51.8ZM83.6582 59.6C84.2302 59.6 84.6549 59.4527 84.9322 59.158C85.2269 58.8633 85.3742 58.3693 85.3742 57.676V56.272C85.3742 55.6133 85.2529 55.1367 85.0102 54.842C84.7849 54.5473 84.4209 54.4 83.9182 54.4H82.6182V59.6H83.6582ZM94.4826 70.26C93.0959 70.26 92.0472 69.87 91.3366 69.09C90.6259 68.2927 90.2706 67.1573 90.2706 65.684V64.644H92.9746V65.892C92.9746 67.0707 93.4686 67.66 94.4566 67.66C94.9419 67.66 95.3059 67.5213 95.5486 67.244C95.8086 66.9493 95.9386 66.4813 95.9386 65.84C95.9386 65.0773 95.7652 64.41 95.4186 63.838C95.0719 63.2487 94.4306 62.5467 93.4946 61.732C92.3159 60.692 91.4926 59.756 91.0246 58.924C90.5566 58.0747 90.3226 57.1213 90.3226 56.064C90.3226 54.6253 90.6866 53.516 91.4146 52.736C92.1426 51.9387 93.1999 51.54 94.5866 51.54C95.9559 51.54 96.9872 51.9387 97.6806 52.736C98.3912 53.516 98.7466 54.6427 98.7466 56.116V56.87H96.0426V55.934C96.0426 55.31 95.9212 54.8593 95.6786 54.582C95.4359 54.2873 95.0806 54.14 94.6126 54.14C93.6592 54.14 93.1826 54.7207 93.1826 55.882C93.1826 56.5407 93.3559 57.156 93.7026 57.728C94.0666 58.3 94.7166 58.9933 95.6526 59.808C96.8486 60.848 97.6719 61.7927 98.1226 62.642C98.5732 63.4913 98.7986 64.488 98.7986 65.632C98.7986 67.1227 98.4259 68.2667 97.6806 69.064C96.9526 69.8613 95.8866 70.26 94.4826 70.26ZM100.958 51.8H103.818V70H100.958V51.8ZM108.716 54.4H105.726V51.8H114.566V54.4H111.576V70H108.716V54.4ZM117.488 51.8H121.362L124.326 70H121.466L120.946 66.386V66.438H117.696L117.176 70H114.524L117.488 51.8ZM120.608 63.968L119.334 54.972H119.282L118.034 63.968H120.608ZM129.875 70.26C128.488 70.26 127.44 69.87 126.729 69.09C126.018 68.2927 125.663 67.1573 125.663 65.684V64.644H128.367V65.892C128.367 67.0707 128.861 67.66 129.849 67.66C130.334 67.66 130.698 67.5213 130.941 67.244C131.201 66.9493 131.331 66.4813 131.331 65.84C131.331 65.0773 131.158 64.41 130.811 63.838C130.464 63.2487 129.823 62.5467 128.887 61.732C127.708 60.692 126.885 59.756 126.417 58.924C125.949 58.0747 125.715 57.1213 125.715 56.064C125.715 54.6253 126.079 53.516 126.807 52.736C127.535 51.9387 128.592 51.54 129.979 51.54C131.348 51.54 132.38 51.9387 133.073 52.736C133.784 53.516 134.139 54.6427 134.139 56.116V56.87H131.435V55.934C131.435 55.31 131.314 54.8593 131.071 54.582C130.828 54.2873 130.473 54.14 130.005 54.14C129.052 54.14 128.575 54.7207 128.575 55.882C128.575 56.5407 128.748 57.156 129.095 57.728C129.459 58.3 130.109 58.9933 131.045 59.808C132.241 60.848 133.064 61.7927 133.515 62.642C133.966 63.4913 134.191 64.488 134.191 65.632C134.191 67.1227 133.818 68.2667 133.073 69.064C132.345 69.8613 131.279 70.26 129.875 70.26ZM143.271 54.4H140.281V51.8H149.121V54.4H146.131V70H143.271V54.4ZM151.026 51.8H155.264C156.737 51.8 157.812 52.1467 158.488 52.84C159.164 53.516 159.502 54.5647 159.502 55.986V57.104C159.502 58.9933 158.878 60.1893 157.63 60.692V60.744C158.323 60.952 158.808 61.3767 159.086 62.018C159.38 62.6593 159.528 63.5173 159.528 64.592V67.79C159.528 68.31 159.545 68.7347 159.58 69.064C159.614 69.376 159.701 69.688 159.84 70H156.928C156.824 69.7053 156.754 69.428 156.72 69.168C156.685 68.908 156.668 68.44 156.668 67.764V64.436C156.668 63.604 156.529 63.0233 156.252 62.694C155.992 62.3647 155.532 62.2 154.874 62.2H153.886V70H151.026V51.8ZM154.926 59.6C155.498 59.6 155.922 59.4527 156.2 59.158C156.494 58.8633 156.642 58.3693 156.642 57.676V56.272C156.642 55.6133 156.52 55.1367 156.278 54.842C156.052 54.5473 155.688 54.4 155.186 54.4H153.886V59.6H154.926ZM162.032 51.8H164.892V70H162.032V51.8ZM171.272 70.26C169.885 70.26 168.837 69.87 168.126 69.09C167.415 68.2927 167.06 67.1573 167.06 65.684V64.644H169.764V65.892C169.764 67.0707 170.258 67.66 171.246 67.66C171.731 67.66 172.095 67.5213 172.338 67.244C172.598 66.9493 172.728 66.4813 172.728 65.84C172.728 65.0773 172.555 64.41 172.208 63.838C171.861 63.2487 171.22 62.5467 170.284 61.732C169.105 60.692 168.282 59.756 167.814 58.924C167.346 58.0747 167.112 57.1213 167.112 56.064C167.112 54.6253 167.476 53.516 168.204 52.736C168.932 51.9387 169.989 51.54 171.376 51.54C172.745 51.54 173.777 51.9387 174.47 52.736C175.181 53.516 175.536 54.6427 175.536 56.116V56.87H172.832V55.934C172.832 55.31 172.711 54.8593 172.468 54.582C172.225 54.2873 171.87 54.14 171.402 54.14C170.449 54.14 169.972 54.7207 169.972 55.882C169.972 56.5407 170.145 57.156 170.492 57.728C170.856 58.3 171.506 58.9933 172.442 59.808C173.638 60.848 174.461 61.7927 174.912 62.642C175.363 63.4913 175.588 64.488 175.588 65.632C175.588 67.1227 175.215 68.2667 174.47 69.064C173.742 69.8613 172.676 70.26 171.272 70.26ZM179.882 51.8H183.756L186.72 70H183.86L183.34 66.386V66.438H180.09L179.57 70H176.918L179.882 51.8ZM183.002 63.968L181.728 54.972H181.676L180.428 63.968H183.002ZM188.627 51.8H191.487V59.47L195.127 51.8H197.987L194.581 58.482L198.039 70H195.049L192.631 61.888L191.487 64.202V70H188.627V51.8ZM202.149 54.4H199.159V51.8H207.999V54.4H205.009V70H202.149V54.4ZM209.903 51.8H212.763V70H209.903V51.8Z" fill="black"/>
<rect x="1" y="119" width="362" height="90" rx="9" fill="white" stroke="black" stroke-width="2"/>
<circle r="4.5" transform="matrix(-1 0 0 1 23.5 142.5)" fill="black"/>
<path d="M30.847 135H34.207C35.3003 135 36.1203 135.293 36.667 135.88C37.2136 136.467 37.487 137.327 37.487 138.46V145.54C37.487 146.673 37.2136 147.533 36.667 148.12C36.1203 148.707 35.3003 149 34.207 149H30.847V135ZM34.167 147C34.527 147 34.8003 146.893 34.987 146.68C35.187 146.467 35.287 146.12 35.287 145.64V138.36C35.287 137.88 35.187 137.533 34.987 137.32C34.8003 137.107 34.527 137 34.167 137H33.047V147H34.167ZM41.0329 135H44.0129L46.2929 149H44.0929L43.6929 146.22V146.26H41.1929L40.7929 149H38.7529L41.0329 135ZM43.4329 144.36L42.4529 137.44H42.4129L41.4529 144.36H43.4329ZM48.5623 137H46.2623V135H53.0623V137H50.7623V149H48.5623V137ZM54.5274 135H60.5274V137H56.7274V140.7H59.7474V142.7H56.7274V147H60.5274V149H54.5274V135Z" fill="black"/>
<path d="M30.027 150.6H60.9674V152.2H30.027V150.6Z" fill="black"/>
<path d="M31.0397 182.024C31.0397 180.724 31.2477 179.615 31.6637 178.696C32.0797 177.76 32.8251 176.729 33.8997 175.602C34.9571 174.475 35.6851 173.513 36.0837 172.716C36.4997 171.919 36.7077 171.087 36.7077 170.22C36.7077 169.44 36.5777 168.903 36.3177 168.608C36.0751 168.296 35.7111 168.14 35.2257 168.14C34.2377 168.14 33.7437 168.738 33.7437 169.934V171.884H31.0397V170.116C31.0397 168.643 31.4037 167.516 32.1317 166.736C32.8597 165.939 33.9171 165.54 35.3037 165.54C36.6904 165.54 37.7477 165.939 38.4757 166.736C39.2037 167.516 39.5677 168.643 39.5677 170.116C39.5677 171.225 39.2991 172.309 38.7617 173.366C38.2417 174.423 37.3317 175.637 36.0317 177.006C35.1824 177.907 34.6104 178.644 34.3157 179.216C34.0211 179.771 33.8737 180.369 33.8737 181.01V181.4H39.3077V184H31.0397V182.024ZM46.2079 184.26C44.8212 184.26 43.7639 183.87 43.0359 183.09C42.3079 182.293 41.9439 181.157 41.9439 179.684V178.254H44.6479V179.892C44.6479 181.071 45.1419 181.66 46.1299 181.66C47.1179 181.66 47.6119 181.071 47.6119 179.892V175.81C47.6119 174.614 47.1179 174.016 46.1299 174.016C45.1419 174.016 44.6479 174.614 44.6479 175.81V175.966H41.9439L42.4639 165.8H50.0039V168.4H45.0119L44.7779 172.742H44.8299C45.3672 171.858 46.1906 171.416 47.2999 171.416C48.3399 171.416 49.1286 171.771 49.6659 172.482C50.2032 173.193 50.4719 174.224 50.4719 175.576V179.684C50.4719 181.157 50.1079 182.293 49.3799 183.09C48.6519 183.87 47.5946 184.26 46.2079 184.26ZM58.3121 184.104C57.7921 184.104 57.3501 184.069 56.9861 184V181.4C57.2634 181.469 57.5754 181.504 57.9221 181.504C58.4941 181.504 58.9188 181.365 59.1961 181.088C59.4734 180.793 59.6121 180.351 59.6121 179.762V165.8H62.4721V179.684C62.4721 181.175 62.1254 182.284 61.4321 183.012C60.7561 183.74 59.7161 184.104 58.3121 184.104ZM69.197 184.26C67.8103 184.26 66.753 183.87 66.025 183.09C65.297 182.293 64.933 181.157 64.933 179.684V165.8H67.793V179.892C67.793 180.516 67.9143 180.967 68.157 181.244C68.417 181.521 68.781 181.66 69.249 181.66C69.717 181.66 70.0723 181.521 70.315 181.244C70.575 180.967 70.705 180.516 70.705 179.892V165.8H73.461V179.684C73.461 181.157 73.097 182.293 72.369 183.09C71.641 183.87 70.5836 184.26 69.197 184.26ZM76.0179 165.8H79.6059L82.3879 176.694H82.4399V165.8H84.9879V184H82.0499L78.6179 170.714H78.5659V184H76.0179V165.8ZM87.6336 165.8H90.4936V184H87.6336V165.8ZM97.7876 182.024C97.7876 180.724 97.9956 179.615 98.4116 178.696C98.8276 177.76 99.573 176.729 100.648 175.602C101.705 174.475 102.433 173.513 102.832 172.716C103.248 171.919 103.456 171.087 103.456 170.22C103.456 169.44 103.326 168.903 103.066 168.608C102.823 168.296 102.459 168.14 101.974 168.14C100.986 168.14 100.492 168.738 100.492 169.934V171.884H97.7876V170.116C97.7876 168.643 98.1516 167.516 98.8796 166.736C99.6076 165.939 100.665 165.54 102.052 165.54C103.438 165.54 104.496 165.939 105.224 166.736C105.952 167.516 106.316 168.643 106.316 170.116C106.316 171.225 106.047 172.309 105.51 173.366C104.99 174.423 104.08 175.637 102.78 177.006C101.93 177.907 101.358 178.644 101.064 179.216C100.769 179.771 100.622 180.369 100.622 181.01V181.4H106.056V184H97.7876V182.024ZM112.904 184.26C111.5 184.26 110.425 183.861 109.68 183.064C108.934 182.267 108.562 181.14 108.562 179.684V170.116C108.562 168.66 108.934 167.533 109.68 166.736C110.425 165.939 111.5 165.54 112.904 165.54C114.308 165.54 115.382 165.939 116.128 166.736C116.873 167.533 117.246 168.66 117.246 170.116V179.684C117.246 181.14 116.873 182.267 116.128 183.064C115.382 183.861 114.308 184.26 112.904 184.26ZM112.904 181.66C113.892 181.66 114.386 181.062 114.386 179.866V169.934C114.386 168.738 113.892 168.14 112.904 168.14C111.916 168.14 111.422 168.738 111.422 169.934V179.866C111.422 181.062 111.916 181.66 112.904 181.66ZM119.648 182.024C119.648 180.724 119.856 179.615 120.272 178.696C120.688 177.76 121.433 176.729 122.508 175.602C123.565 174.475 124.293 173.513 124.692 172.716C125.108 171.919 125.316 171.087 125.316 170.22C125.316 169.44 125.186 168.903 124.926 168.608C124.683 168.296 124.319 168.14 123.834 168.14C122.846 168.14 122.352 168.738 122.352 169.934V171.884H119.648V170.116C119.648 168.643 120.012 167.516 120.74 166.736C121.468 165.939 122.525 165.54 123.912 165.54C125.299 165.54 126.356 165.939 127.084 166.736C127.812 167.516 128.176 168.643 128.176 170.116C128.176 171.225 127.907 172.309 127.37 173.366C126.85 174.423 125.94 175.637 124.64 177.006C123.791 177.907 123.219 178.644 122.924 179.216C122.629 179.771 122.482 180.369 122.482 181.01V181.4H127.916V184H119.648V182.024ZM130.578 182.024C130.578 180.724 130.786 179.615 131.202 178.696C131.618 177.76 132.363 176.729 133.438 175.602C134.495 174.475 135.223 173.513 135.622 172.716C136.038 171.919 136.246 171.087 136.246 170.22C136.246 169.44 136.116 168.903 135.856 168.608C135.613 168.296 135.249 168.14 134.764 168.14C133.776 168.14 133.282 168.738 133.282 169.934V171.884H130.578V170.116C130.578 168.643 130.942 167.516 131.67 166.736C132.398 165.939 133.455 165.54 134.842 165.54C136.229 165.54 137.286 165.939 138.014 166.736C138.742 167.516 139.106 168.643 139.106 170.116C139.106 171.225 138.837 172.309 138.3 173.366C137.78 174.423 136.87 175.637 135.57 177.006C134.721 177.907 134.149 178.644 133.854 179.216C133.559 179.771 133.412 180.369 133.412 181.01V181.4H138.846V184H130.578V182.024Z" fill="black"/>
<path d="M584.078 301.8H588.29C589.711 301.8 590.777 302.181 591.488 302.944C592.199 303.707 592.554 304.825 592.554 306.298V308.092C592.554 309.565 592.199 310.683 591.488 311.446C590.777 312.209 589.711 312.59 588.29 312.59H586.938V320H584.078V301.8ZM588.29 309.99C588.758 309.99 589.105 309.86 589.33 309.6C589.573 309.34 589.694 308.898 589.694 308.274V306.116C589.694 305.492 589.573 305.05 589.33 304.79C589.105 304.53 588.758 304.4 588.29 304.4H586.938V309.99H588.29ZM594.627 301.8H598.865C600.339 301.8 601.413 302.147 602.089 302.84C602.765 303.516 603.103 304.565 603.103 305.986V307.104C603.103 308.993 602.479 310.189 601.231 310.692V310.744C601.925 310.952 602.41 311.377 602.687 312.018C602.982 312.659 603.129 313.517 603.129 314.592V317.79C603.129 318.31 603.147 318.735 603.181 319.064C603.216 319.376 603.303 319.688 603.441 320H600.529C600.425 319.705 600.356 319.428 600.321 319.168C600.287 318.908 600.269 318.44 600.269 317.764V314.436C600.269 313.604 600.131 313.023 599.853 312.694C599.593 312.365 599.134 312.2 598.475 312.2H597.487V320H594.627V301.8ZM598.527 309.6C599.099 309.6 599.524 309.453 599.801 309.158C600.096 308.863 600.243 308.369 600.243 307.676V306.272C600.243 305.613 600.122 305.137 599.879 304.842C599.654 304.547 599.29 304.4 598.787 304.4H597.487V309.6H598.527ZM609.768 320.26C608.364 320.26 607.289 319.861 606.544 319.064C605.798 318.267 605.426 317.14 605.426 315.684V306.116C605.426 304.66 605.798 303.533 606.544 302.736C607.289 301.939 608.364 301.54 609.768 301.54C611.172 301.54 612.246 301.939 612.992 302.736C613.737 303.533 614.11 304.66 614.11 306.116V315.684C614.11 317.14 613.737 318.267 612.992 319.064C612.246 319.861 611.172 320.26 609.768 320.26ZM609.768 317.66C610.756 317.66 611.25 317.062 611.25 315.866V305.934C611.25 304.738 610.756 304.14 609.768 304.14C608.78 304.14 608.286 304.738 608.286 305.934V315.866C608.286 317.062 608.78 317.66 609.768 317.66ZM616.564 301.8H620.776C622.197 301.8 623.263 302.181 623.974 302.944C624.684 303.707 625.04 304.825 625.04 306.298V308.092C625.04 309.565 624.684 310.683 623.974 311.446C623.263 312.209 622.197 312.59 620.776 312.59H619.424V320H616.564V301.8ZM620.776 309.99C621.244 309.99 621.59 309.86 621.816 309.6C622.058 309.34 622.18 308.898 622.18 308.274V306.116C622.18 305.492 622.058 305.05 621.816 304.79C621.59 304.53 621.244 304.4 620.776 304.4H619.424V309.99H620.776ZM631.247 320.26C629.843 320.26 628.768 319.861 628.023 319.064C627.278 318.267 626.905 317.14 626.905 315.684V306.116C626.905 304.66 627.278 303.533 628.023 302.736C628.768 301.939 629.843 301.54 631.247 301.54C632.651 301.54 633.726 301.939 634.471 302.736C635.216 303.533 635.589 304.66 635.589 306.116V315.684C635.589 317.14 635.216 318.267 634.471 319.064C633.726 319.861 632.651 320.26 631.247 320.26ZM631.247 317.66C632.235 317.66 632.729 317.062 632.729 315.866V305.934C632.729 304.738 632.235 304.14 631.247 304.14C630.259 304.14 629.765 304.738 629.765 305.934V315.866C629.765 317.062 630.259 317.66 631.247 317.66ZM641.761 320.26C640.375 320.26 639.326 319.87 638.615 319.09C637.905 318.293 637.549 317.157 637.549 315.684V314.644H640.253V315.892C640.253 317.071 640.747 317.66 641.735 317.66C642.221 317.66 642.585 317.521 642.827 317.244C643.087 316.949 643.217 316.481 643.217 315.84C643.217 315.077 643.044 314.41 642.697 313.838C642.351 313.249 641.709 312.547 640.773 311.732C639.595 310.692 638.771 309.756 638.303 308.924C637.835 308.075 637.601 307.121 637.601 306.064C637.601 304.625 637.965 303.516 638.693 302.736C639.421 301.939 640.479 301.54 641.865 301.54C643.235 301.54 644.266 301.939 644.959 302.736C645.67 303.516 646.025 304.643 646.025 306.116V306.87H643.321V305.934C643.321 305.31 643.2 304.859 642.957 304.582C642.715 304.287 642.359 304.14 641.891 304.14C640.938 304.14 640.461 304.721 640.461 305.882C640.461 306.541 640.635 307.156 640.981 307.728C641.345 308.3 641.995 308.993 642.931 309.808C644.127 310.848 644.951 311.793 645.401 312.642C645.852 313.491 646.077 314.488 646.077 315.632C646.077 317.123 645.705 318.267 644.959 319.064C644.231 319.861 643.165 320.26 641.761 320.26ZM650.371 301.8H654.245L657.209 320H654.349L653.829 316.386V316.438H650.579L650.059 320H647.407L650.371 301.8ZM653.491 313.968L652.217 304.972H652.165L650.917 313.968H653.491ZM659.116 301.8H661.976V317.4H666.682V320H659.116V301.8Z" fill="black"/>
<path d="M600.255 409.26C598.885 409.26 597.837 408.87 597.109 408.09C596.398 407.31 596.043 406.209 596.043 404.788V395.012C596.043 393.591 596.398 392.49 597.109 391.71C597.837 390.93 598.885 390.54 600.255 390.54C601.624 390.54 602.664 390.93 603.375 391.71C604.103 392.49 604.467 393.591 604.467 395.012V396.936H601.763V394.83C601.763 393.703 601.286 393.14 600.333 393.14C599.379 393.14 598.903 393.703 598.903 394.83V404.996C598.903 406.105 599.379 406.66 600.333 406.66C601.286 406.66 601.763 406.105 601.763 404.996V402.214H604.467V404.788C604.467 406.209 604.103 407.31 603.375 408.09C602.664 408.87 601.624 409.26 600.255 409.26ZM608.908 390.8H612.782L615.746 409H612.886L612.366 405.386V405.438H609.116L608.596 409H605.944L608.908 390.8ZM612.028 402.968L610.754 393.972H610.702L609.454 402.968H612.028ZM617.653 390.8H620.513V406.4H625.219V409H617.653V390.8ZM627.111 390.8H629.971V406.4H634.677V409H627.111V390.8ZM645.412 409.26C644.026 409.26 642.968 408.87 642.24 408.09C641.512 407.293 641.148 406.157 641.148 404.684V390.8H644.008V404.892C644.008 405.516 644.13 405.967 644.372 406.244C644.632 406.521 644.996 406.66 645.464 406.66C645.932 406.66 646.288 406.521 646.53 406.244C646.79 405.967 646.92 405.516 646.92 404.892V390.8H649.676V404.684C649.676 406.157 649.312 407.293 648.584 408.09C647.856 408.87 646.799 409.26 645.412 409.26ZM655.951 409.26C654.565 409.26 653.516 408.87 652.805 408.09C652.095 407.293 651.739 406.157 651.739 404.684V403.644H654.443V404.892C654.443 406.071 654.937 406.66 655.925 406.66C656.411 406.66 656.775 406.521 657.017 406.244C657.277 405.949 657.407 405.481 657.407 404.84C657.407 404.077 657.234 403.41 656.887 402.838C656.541 402.249 655.899 401.547 654.963 400.732C653.785 399.692 652.961 398.756 652.493 397.924C652.025 397.075 651.791 396.121 651.791 395.064C651.791 393.625 652.155 392.516 652.883 391.736C653.611 390.939 654.669 390.54 656.055 390.54C657.425 390.54 658.456 390.939 659.149 391.736C659.86 392.516 660.215 393.643 660.215 395.116V395.87H657.511V394.934C657.511 394.31 657.39 393.859 657.147 393.582C656.905 393.287 656.549 393.14 656.081 393.14C655.128 393.14 654.651 393.721 654.651 394.882C654.651 395.541 654.825 396.156 655.171 396.728C655.535 397.3 656.185 397.993 657.121 398.808C658.317 399.848 659.141 400.793 659.591 401.642C660.042 402.491 660.267 403.488 660.267 404.632C660.267 406.123 659.895 407.267 659.149 408.064C658.421 408.861 657.355 409.26 655.951 409.26Z" fill="black"/>
<path d="M521.071 430.8H525.309C526.782 430.8 527.857 431.147 528.533 431.84C529.209 432.516 529.547 433.565 529.547 434.986V436.104C529.547 437.993 528.923 439.189 527.675 439.692V439.744C528.368 439.952 528.854 440.377 529.131 441.018C529.426 441.659 529.573 442.517 529.573 443.592V446.79C529.573 447.31 529.59 447.735 529.625 448.064C529.66 448.376 529.746 448.688 529.885 449H526.973C526.869 448.705 526.8 448.428 526.765 448.168C526.73 447.908 526.713 447.44 526.713 446.764V443.436C526.713 442.604 526.574 442.023 526.297 441.694C526.037 441.365 525.578 441.2 524.919 441.2H523.931V449H521.071V430.8ZM524.971 438.6C525.543 438.6 525.968 438.453 526.245 438.158C526.54 437.863 526.687 437.369 526.687 436.676V435.272C526.687 434.613 526.566 434.137 526.323 433.842C526.098 433.547 525.734 433.4 525.231 433.4H523.931V438.6H524.971ZM536.211 449.26C534.807 449.26 533.733 448.861 532.987 448.064C532.242 447.267 531.869 446.14 531.869 444.684V435.116C531.869 433.66 532.242 432.533 532.987 431.736C533.733 430.939 534.807 430.54 536.211 430.54C537.615 430.54 538.69 430.939 539.435 431.736C540.181 432.533 540.553 433.66 540.553 435.116V444.684C540.553 446.14 540.181 447.267 539.435 448.064C538.69 448.861 537.615 449.26 536.211 449.26ZM536.211 446.66C537.199 446.66 537.693 446.062 537.693 444.866V434.934C537.693 433.738 537.199 433.14 536.211 433.14C535.223 433.14 534.729 433.738 534.729 434.934V444.866C534.729 446.062 535.223 446.66 536.211 446.66ZM543.007 430.8H545.867V438.21H548.935V430.8H551.795V449H548.935V440.81H545.867V449H543.007V430.8ZM554.445 430.8H562.245V433.4H557.305V438.21H561.231V440.81H557.305V446.4H562.245V449H554.445V430.8ZM564.411 430.8H567.999L570.781 441.694H570.833V430.8H573.381V449H570.443L567.011 435.714H566.959V449H564.411V430.8ZM576.026 430.8H580.394C581.816 430.8 582.882 431.181 583.592 431.944C584.303 432.707 584.658 433.825 584.658 435.298V444.502C584.658 445.975 584.303 447.093 583.592 447.856C582.882 448.619 581.816 449 580.394 449H576.026V430.8ZM580.342 446.4C580.81 446.4 581.166 446.261 581.408 445.984C581.668 445.707 581.798 445.256 581.798 444.632V435.168C581.798 434.544 581.668 434.093 581.408 433.816C581.166 433.539 580.81 433.4 580.342 433.4H578.886V446.4H580.342ZM587.109 430.8H589.969V449H587.109V430.8ZM597.315 436.338H600.071V439.094H597.315V436.338ZM597.315 446.244H600.071V449H597.315V446.244ZM611.553 449.26C610.149 449.26 609.075 448.861 608.329 448.064C607.584 447.267 607.211 446.14 607.211 444.684V435.116C607.211 433.66 607.584 432.533 608.329 431.736C609.075 430.939 610.149 430.54 611.553 430.54C612.957 430.54 614.032 430.939 614.777 431.736C615.523 432.533 615.895 433.66 615.895 435.116V444.684C615.895 446.14 615.523 447.267 614.777 448.064C614.032 448.861 612.957 449.26 611.553 449.26ZM611.553 446.66C612.541 446.66 613.035 446.062 613.035 444.866V434.934C613.035 433.738 612.541 433.14 611.553 433.14C610.565 433.14 610.071 433.738 610.071 434.934V444.866C610.071 446.062 610.565 446.66 611.553 446.66ZM622.483 449.26C621.045 449.26 619.935 448.879 619.155 448.116C618.393 447.336 618.011 446.218 618.011 444.762V443.15C618.011 442.249 618.159 441.495 618.453 440.888C618.748 440.264 619.225 439.779 619.883 439.432V439.38C619.277 439.051 618.826 438.6 618.531 438.028C618.254 437.439 618.115 436.693 618.115 435.792V435.038C618.115 433.582 618.488 432.473 619.233 431.71C619.996 430.93 621.079 430.54 622.483 430.54C623.887 430.54 624.962 430.93 625.707 431.71C626.47 432.473 626.851 433.582 626.851 435.038V435.792C626.851 437.525 626.262 438.721 625.083 439.38V439.432C625.742 439.779 626.219 440.264 626.513 440.888C626.808 441.495 626.955 442.249 626.955 443.15V444.762C626.955 446.218 626.565 447.336 625.785 448.116C625.023 448.879 623.922 449.26 622.483 449.26ZM622.483 438.21C623.489 438.21 623.991 437.603 623.991 436.39V434.96C623.991 433.747 623.489 433.14 622.483 433.14C621.478 433.14 620.975 433.747 620.975 434.96V436.39C620.975 437.603 621.478 438.21 622.483 438.21ZM622.483 446.66C623.558 446.66 624.095 445.975 624.095 444.606V442.864C624.095 441.495 623.558 440.81 622.483 440.81C621.409 440.81 620.871 441.495 620.871 442.864V444.606C620.871 445.975 621.409 446.66 622.483 446.66ZM633.284 435.116H630.294V433.088C631.108 433.088 631.758 433.019 632.244 432.88C632.746 432.741 633.145 432.516 633.44 432.204C633.734 431.875 633.994 431.407 634.22 430.8H636.144V449H633.284V435.116ZM640.158 447.024C640.158 445.724 640.366 444.615 640.782 443.696C641.198 442.76 641.943 441.729 643.018 440.602C644.075 439.475 644.803 438.513 645.202 437.716C645.618 436.919 645.826 436.087 645.826 435.22C645.826 434.44 645.696 433.903 645.436 433.608C645.193 433.296 644.829 433.14 644.344 433.14C643.356 433.14 642.862 433.738 642.862 434.934V436.884H640.158V435.116C640.158 433.643 640.522 432.516 641.25 431.736C641.978 430.939 643.035 430.54 644.422 430.54C645.808 430.54 646.866 430.939 647.594 431.736C648.322 432.516 648.686 433.643 648.686 435.116C648.686 436.225 648.417 437.309 647.88 438.366C647.36 439.423 646.45 440.637 645.15 442.006C644.3 442.907 643.728 443.644 643.434 444.216C643.139 444.771 642.992 445.369 642.992 446.01V446.4H648.426V449H640.158V447.024ZM655.326 449.26C653.939 449.26 652.882 448.87 652.154 448.09C651.426 447.293 651.062 446.157 651.062 444.684V443.254H653.766V444.892C653.766 446.071 654.26 446.66 655.248 446.66C656.236 446.66 656.73 446.071 656.73 444.892V440.81C656.73 439.614 656.236 439.016 655.248 439.016C654.26 439.016 653.766 439.614 653.766 440.81V440.966H651.062L651.582 430.8H659.122V433.4H654.13L653.896 437.742H653.948C654.485 436.858 655.309 436.416 656.418 436.416C657.458 436.416 658.247 436.771 658.784 437.482C659.321 438.193 659.59 439.224 659.59 440.576V444.684C659.59 446.157 659.226 447.293 658.498 448.09C657.77 448.87 656.713 449.26 655.326 449.26ZM666.282 449.26C664.878 449.26 663.803 448.861 663.058 448.064C662.313 447.267 661.94 446.14 661.94 444.684V435.272C661.94 432.117 663.396 430.54 666.308 430.54C667.695 430.54 668.752 430.939 669.48 431.736C670.208 432.516 670.572 433.643 670.572 435.116V435.454H667.868V434.934C667.868 433.738 667.374 433.14 666.386 433.14C665.849 433.14 665.45 433.305 665.19 433.634C664.93 433.963 664.8 434.544 664.8 435.376V438.86H664.852C665.355 437.803 666.221 437.274 667.452 437.274C668.492 437.274 669.281 437.629 669.818 438.34C670.355 439.051 670.624 440.082 670.624 441.434V444.684C670.624 446.14 670.251 447.267 669.506 448.064C668.761 448.861 667.686 449.26 666.282 449.26ZM666.282 446.66C667.27 446.66 667.764 446.071 667.764 444.892V441.668C667.764 440.472 667.27 439.874 666.282 439.874C665.294 439.874 664.8 440.472 664.8 441.668V444.892C664.8 446.071 665.294 446.66 666.282 446.66ZM677.784 445.698H672.324V443.098L677.524 430.8H680.644V443.098H681.996V445.698H680.644V449H677.784V445.698ZM677.784 443.098V436H677.732L674.924 443.098H677.784ZM687.986 449.26C686.582 449.26 685.516 448.87 684.788 448.09C684.078 447.31 683.722 446.192 683.722 444.736V443.254H686.426V444.866C686.426 446.062 686.92 446.66 687.908 446.66C688.394 446.66 688.758 446.513 689 446.218C689.26 445.906 689.39 445.369 689.39 444.606V443.124C689.39 442.292 689.243 441.703 688.948 441.356C688.654 440.992 688.177 440.81 687.518 440.81H686.556V438.21H687.596C688.168 438.21 688.593 438.063 688.87 437.768C689.165 437.473 689.312 436.979 689.312 436.286V434.96C689.312 434.336 689.182 433.877 688.922 433.582C688.662 433.287 688.316 433.14 687.882 433.14C686.964 433.14 686.504 433.703 686.504 434.83V436.026H683.8V435.064C683.8 433.608 684.156 432.49 684.866 431.71C685.594 430.93 686.634 430.54 687.986 430.54C689.356 430.54 690.396 430.93 691.106 431.71C691.817 432.473 692.172 433.582 692.172 435.038V435.688C692.172 436.676 692.008 437.473 691.678 438.08C691.349 438.669 690.838 439.094 690.144 439.354V439.406C690.89 439.683 691.427 440.134 691.756 440.758C692.086 441.382 692.25 442.179 692.25 443.15V444.762C692.25 446.218 691.886 447.336 691.158 448.116C690.448 448.879 689.39 449.26 687.986 449.26ZM694.809 447.024C694.809 445.724 695.017 444.615 695.433 443.696C695.849 442.76 696.594 441.729 697.669 440.602C698.726 439.475 699.454 438.513 699.853 437.716C700.269 436.919 700.477 436.087 700.477 435.22C700.477 434.44 700.347 433.903 700.087 433.608C699.844 433.296 699.48 433.14 698.995 433.14C698.007 433.14 697.513 433.738 697.513 434.934V436.884H694.809V435.116C694.809 433.643 695.173 432.516 695.901 431.736C696.629 430.939 697.686 430.54 699.073 430.54C700.459 430.54 701.517 430.939 702.245 431.736C702.973 432.516 703.337 433.643 703.337 435.116C703.337 436.225 703.068 437.309 702.531 438.366C702.011 439.423 701.101 440.637 699.801 442.006C698.951 442.907 698.379 443.644 698.085 444.216C697.79 444.771 697.643 445.369 697.643 446.01V446.4H703.077V449H694.809V447.024ZM709.795 435.116H706.805V433.088C707.619 433.088 708.269 433.019 708.755 432.88C709.257 432.741 709.656 432.516 709.951 432.204C710.245 431.875 710.505 431.407 710.731 430.8H712.655V449H709.795V435.116ZM720.777 449.26C719.373 449.26 718.307 448.87 717.579 448.09C716.868 447.31 716.513 446.192 716.513 444.736V443.254H719.217V444.866C719.217 446.062 719.711 446.66 720.699 446.66C721.184 446.66 721.548 446.513 721.791 446.218C722.051 445.906 722.181 445.369 722.181 444.606V443.124C722.181 442.292 722.034 441.703 721.739 441.356C721.444 440.992 720.968 440.81 720.309 440.81H719.347V438.21H720.387C720.959 438.21 721.384 438.063 721.661 437.768C721.956 437.473 722.103 436.979 722.103 436.286V434.96C722.103 434.336 721.973 433.877 721.713 433.582C721.453 433.287 721.106 433.14 720.673 433.14C719.754 433.14 719.295 433.703 719.295 434.83V436.026H716.591V435.064C716.591 433.608 716.946 432.49 717.657 431.71C718.385 430.93 719.425 430.54 720.777 430.54C722.146 430.54 723.186 430.93 723.897 431.71C724.608 432.473 724.963 433.582 724.963 435.038V435.688C724.963 436.676 724.798 437.473 724.469 438.08C724.14 438.669 723.628 439.094 722.935 439.354V439.406C723.68 439.683 724.218 440.134 724.547 440.758C724.876 441.382 725.041 442.179 725.041 443.15V444.762C725.041 446.218 724.677 447.336 723.949 448.116C723.238 448.879 722.181 449.26 720.777 449.26ZM731.707 449.26C730.303 449.26 729.237 448.87 728.509 448.09C727.798 447.31 727.443 446.192 727.443 444.736V443.254H730.147V444.866C730.147 446.062 730.641 446.66 731.629 446.66C732.114 446.66 732.478 446.513 732.721 446.218C732.981 445.906 733.111 445.369 733.111 444.606V443.124C733.111 442.292 732.964 441.703 732.669 441.356C732.374 440.992 731.898 440.81 731.239 440.81H730.277V438.21H731.317C731.889 438.21 732.314 438.063 732.591 437.768C732.886 437.473 733.033 436.979 733.033 436.286V434.96C733.033 434.336 732.903 433.877 732.643 433.582C732.383 433.287 732.036 433.14 731.603 433.14C730.684 433.14 730.225 433.703 730.225 434.83V436.026H727.521V435.064C727.521 433.608 727.876 432.49 728.587 431.71C729.315 430.93 730.355 430.54 731.707 430.54C733.076 430.54 734.116 430.93 734.827 431.71C735.538 432.473 735.893 433.582 735.893 435.038V435.688C735.893 436.676 735.728 437.473 735.399 438.08C735.07 438.669 734.558 439.094 733.865 439.354V439.406C734.61 439.683 735.148 440.134 735.477 440.758C735.806 441.382 735.971 442.179 735.971 443.15V444.762C735.971 446.218 735.607 447.336 734.879 448.116C734.168 448.879 733.111 449.26 731.707 449.26Z" fill="black"/>
<rect x="447" y="1" width="362" height="90" rx="9" fill="white" stroke="black" stroke-width="2"/>
<rect x="1" y="252" width="362" height="219" rx="9" fill="white" stroke="black" stroke-width="2"/>
<circle r="4.5" transform="matrix(-1 0 0 1 469.5 22.5)" fill="black"/>
<path d="M480.274 30.2C479.207 30.2 478.394 29.9 477.834 29.3C477.274 28.6867 476.994 27.8133 476.994 26.68V19.32C476.994 18.1867 477.274 17.32 477.834 16.72C478.394 16.1067 479.207 15.8 480.274 15.8C481.341 15.8 482.154 16.1067 482.714 16.72C483.274 17.32 483.554 18.1867 483.554 19.32V20.52H481.474V19.18C481.474 18.26 481.094 17.8 480.334 17.8C479.574 17.8 479.194 18.26 479.194 19.18V26.84C479.194 27.7467 479.574 28.2 480.334 28.2C481.094 28.2 481.474 27.7467 481.474 26.84V24.1H480.374V22.1H483.554V26.68C483.554 27.8133 483.274 28.6867 482.714 29.3C482.154 29.9 481.341 30.2 480.274 30.2ZM488.566 30.2C487.5 30.2 486.686 29.9 486.126 29.3C485.566 28.6867 485.286 27.8133 485.286 26.68V16H487.486V26.84C487.486 27.32 487.58 27.6667 487.766 27.88C487.966 28.0933 488.246 28.2 488.606 28.2C488.966 28.2 489.24 28.0933 489.426 27.88C489.626 27.6667 489.726 27.32 489.726 26.84V16H491.846V26.68C491.846 27.8133 491.566 28.6867 491.006 29.3C490.446 29.9 489.633 30.2 488.566 30.2ZM493.813 16H499.813V18H496.013V21.7H499.033V23.7H496.013V28H499.813V30H493.813V16ZM504.378 30.2C503.311 30.2 502.505 29.9 501.958 29.3C501.411 28.6867 501.138 27.8133 501.138 26.68V25.88H503.218V26.84C503.218 27.7467 503.598 28.2 504.358 28.2C504.731 28.2 505.011 28.0933 505.198 27.88C505.398 27.6533 505.498 27.2933 505.498 26.8C505.498 26.2133 505.365 25.7 505.098 25.26C504.831 24.8067 504.338 24.2667 503.618 23.64C502.711 22.84 502.078 22.12 501.718 21.48C501.358 20.8267 501.178 20.0933 501.178 19.28C501.178 18.1733 501.458 17.32 502.018 16.72C502.578 16.1067 503.391 15.8 504.458 15.8C505.511 15.8 506.305 16.1067 506.838 16.72C507.385 17.32 507.658 18.1867 507.658 19.32V19.9H505.578V19.18C505.578 18.7 505.485 18.3533 505.298 18.14C505.111 17.9133 504.838 17.8 504.478 17.8C503.745 17.8 503.378 18.2467 503.378 19.14C503.378 19.6467 503.511 20.12 503.778 20.56C504.058 21 504.558 21.5333 505.278 22.16C506.198 22.96 506.831 23.6867 507.178 24.34C507.525 24.9933 507.698 25.76 507.698 26.64C507.698 27.7867 507.411 28.6667 506.838 29.28C506.278 29.8933 505.458 30.2 504.378 30.2ZM511.079 18H508.779V16H515.579V18H513.279V30H511.079V18ZM519.905 30.2C518.838 30.2 518.031 29.9 517.485 29.3C516.938 28.6867 516.665 27.8133 516.665 26.68V25.88H518.745V26.84C518.745 27.7467 519.125 28.2 519.885 28.2C520.258 28.2 520.538 28.0933 520.725 27.88C520.925 27.6533 521.025 27.2933 521.025 26.8C521.025 26.2133 520.891 25.7 520.625 25.26C520.358 24.8067 519.865 24.2667 519.145 23.64C518.238 22.84 517.605 22.12 517.245 21.48C516.885 20.8267 516.705 20.0933 516.705 19.28C516.705 18.1733 516.985 17.32 517.545 16.72C518.105 16.1067 518.918 15.8 519.985 15.8C521.038 15.8 521.831 16.1067 522.365 16.72C522.911 17.32 523.185 18.1867 523.185 19.32V19.9H521.105V19.18C521.105 18.7 521.011 18.3533 520.825 18.14C520.638 17.9133 520.365 17.8 520.005 17.8C519.271 17.8 518.905 18.2467 518.905 19.14C518.905 19.6467 519.038 20.12 519.305 20.56C519.585 21 520.085 21.5333 520.805 22.16C521.725 22.96 522.358 23.6867 522.705 24.34C523.051 24.9933 523.225 25.76 523.225 26.64C523.225 27.7867 522.938 28.6667 522.365 29.28C521.805 29.8933 520.985 30.2 519.905 30.2Z" fill="black"/>
<path d="M476.334 31.6H523.665V33.2H476.334V31.6Z" fill="black"/>
<rect x="447" y="121" width="362" height="118" rx="9" fill="white" stroke="black" stroke-width="2"/>
<circle r="4.5" transform="matrix(-1 0 0 1 469.5 142.5)" fill="black"/>
<path d="M477.23 135H480.49C481.623 135 482.45 135.267 482.97 135.8C483.49 136.32 483.75 137.127 483.75 138.22V139.08C483.75 140.533 483.27 141.453 482.31 141.84V141.88C482.843 142.04 483.217 142.367 483.43 142.86C483.657 143.353 483.77 144.013 483.77 144.84V147.3C483.77 147.7 483.783 148.027 483.81 148.28C483.837 148.52 483.903 148.76 484.01 149H481.77C481.69 148.773 481.637 148.56 481.61 148.36C481.583 148.16 481.57 147.8 481.57 147.28V144.72C481.57 144.08 481.463 143.633 481.25 143.38C481.05 143.127 480.697 143 480.19 143H479.43V149H477.23V135ZM480.23 141C480.67 141 480.997 140.887 481.21 140.66C481.437 140.433 481.55 140.053 481.55 139.52V138.44C481.55 137.933 481.457 137.567 481.27 137.34C481.097 137.113 480.817 137 480.43 137H479.43V141H480.23ZM485.697 135H491.697V137H487.897V140.7H490.917V142.7H487.897V147H491.697V149H485.697V135ZM496.482 149.2C495.416 149.2 494.602 148.9 494.042 148.3C493.482 147.687 493.202 146.813 493.202 145.68V138.32C493.202 137.187 493.482 136.32 494.042 135.72C494.602 135.107 495.416 134.8 496.482 134.8C497.549 134.8 498.362 135.107 498.922 135.72C499.482 136.32 499.762 137.187 499.762 138.32V139.52H497.682V138.18C497.682 137.26 497.302 136.8 496.542 136.8C495.782 136.8 495.402 137.26 495.402 138.18V145.84C495.402 146.747 495.782 147.2 496.542 147.2C497.302 147.2 497.682 146.747 497.682 145.84V143.1H496.582V141.1H499.762V145.68C499.762 146.813 499.482 147.687 498.922 148.3C498.362 148.9 497.549 149.2 496.482 149.2ZM501.575 135H503.775V149H501.575V135ZM508.682 149.2C507.616 149.2 506.809 148.9 506.262 148.3C505.716 147.687 505.442 146.813 505.442 145.68V144.88H507.522V145.84C507.522 146.747 507.902 147.2 508.662 147.2C509.036 147.2 509.316 147.093 509.502 146.88C509.702 146.653 509.802 146.293 509.802 145.8C509.802 145.213 509.669 144.7 509.402 144.26C509.136 143.807 508.642 143.267 507.922 142.64C507.016 141.84 506.382 141.12 506.022 140.48C505.662 139.827 505.482 139.093 505.482 138.28C505.482 137.173 505.762 136.32 506.322 135.72C506.882 135.107 507.696 134.8 508.762 134.8C509.816 134.8 510.609 135.107 511.142 135.72C511.689 136.32 511.962 137.187 511.962 138.32V138.9H509.882V138.18C509.882 137.7 509.789 137.353 509.602 137.14C509.416 136.913 509.142 136.8 508.782 136.8C508.049 136.8 507.682 137.247 507.682 138.14C507.682 138.647 507.816 139.12 508.082 139.56C508.362 140 508.862 140.533 509.582 141.16C510.502 141.96 511.136 142.687 511.482 143.34C511.829 143.993 512.002 144.76 512.002 145.64C512.002 146.787 511.716 147.667 511.142 148.28C510.582 148.893 509.762 149.2 508.682 149.2ZM515.384 137H513.084V135H519.884V137H517.584V149H515.384V137ZM521.349 135H524.609C525.742 135 526.569 135.267 527.089 135.8C527.609 136.32 527.869 137.127 527.869 138.22V139.08C527.869 140.533 527.389 141.453 526.429 141.84V141.88C526.962 142.04 527.336 142.367 527.549 142.86C527.776 143.353 527.889 144.013 527.889 144.84V147.3C527.889 147.7 527.902 148.027 527.929 148.28C527.956 148.52 528.022 148.76 528.129 149H525.889C525.809 148.773 525.756 148.56 525.729 148.36C525.702 148.16 525.689 147.8 525.689 147.28V144.72C525.689 144.08 525.582 143.633 525.369 143.38C525.169 143.127 524.816 143 524.309 143H523.549V149H521.349V135ZM524.349 141C524.789 141 525.116 140.887 525.329 140.66C525.556 140.433 525.669 140.053 525.669 139.52V138.44C525.669 137.933 525.576 137.567 525.389 137.34C525.216 137.113 524.936 137 524.549 137H523.549V141H524.349ZM531.515 135H534.495L536.775 149H534.575L534.175 146.22V146.26H531.675L531.275 149H529.235L531.515 135ZM533.915 144.36L532.935 137.44H532.895L531.935 144.36H533.915ZM539.045 137H536.745V135H543.545V137H541.245V149H539.045V137ZM545.01 135H547.21V149H545.01V135ZM552.438 149.2C551.358 149.2 550.531 148.893 549.958 148.28C549.384 147.667 549.097 146.8 549.097 145.68V138.32C549.097 137.2 549.384 136.333 549.958 135.72C550.531 135.107 551.358 134.8 552.438 134.8C553.518 134.8 554.344 135.107 554.918 135.72C555.491 136.333 555.778 137.2 555.778 138.32V145.68C555.778 146.8 555.491 147.667 554.918 148.28C554.344 148.893 553.518 149.2 552.438 149.2ZM552.438 147.2C553.198 147.2 553.577 146.74 553.577 145.82V138.18C553.577 137.26 553.198 136.8 552.438 136.8C551.678 136.8 551.298 137.26 551.298 138.18V145.82C551.298 146.74 551.678 147.2 552.438 147.2ZM557.665 135H560.425L562.565 143.38H562.605V135H564.565V149H562.305L559.665 138.78H559.625V149H557.665V135ZM570.204 135H576.024V137H572.404V140.9H575.244V142.9H572.404V149H570.204V135ZM577.479 135H583.479V137H579.679V140.7H582.699V142.7H579.679V147H583.479V149H577.479V135ZM585.144 135H591.144V137H587.344V140.7H590.364V142.7H587.344V147H591.144V149H585.144V135Z" fill="black"/>
<path d="M476.41 150.6H591.584V152.2H476.41V150.6Z" fill="black"/>
<path d="M481.252 184.26C479.865 184.26 478.808 183.87 478.08 183.09C477.352 182.293 476.988 181.157 476.988 179.684V178.254H479.692V179.892C479.692 181.071 480.186 181.66 481.174 181.66C482.162 181.66 482.656 181.071 482.656 179.892V175.81C482.656 174.614 482.162 174.016 481.174 174.016C480.186 174.016 479.692 174.614 479.692 175.81V175.966H476.988L477.508 165.8H485.048V168.4H480.056L479.822 172.742H479.874C480.411 171.858 481.235 171.416 482.344 171.416C483.384 171.416 484.173 171.771 484.71 172.482C485.247 173.193 485.516 174.224 485.516 175.576V179.684C485.516 181.157 485.152 182.293 484.424 183.09C483.696 183.87 482.639 184.26 481.252 184.26ZM492.13 184.26C490.726 184.26 489.651 183.861 488.906 183.064C488.161 182.267 487.788 181.14 487.788 179.684V170.116C487.788 168.66 488.161 167.533 488.906 166.736C489.651 165.939 490.726 165.54 492.13 165.54C493.534 165.54 494.609 165.939 495.354 166.736C496.099 167.533 496.472 168.66 496.472 170.116V179.684C496.472 181.14 496.099 182.267 495.354 183.064C494.609 183.861 493.534 184.26 492.13 184.26ZM492.13 181.66C493.118 181.66 493.612 181.062 493.612 179.866V169.934C493.612 168.738 493.118 168.14 492.13 168.14C491.142 168.14 490.648 168.738 490.648 169.934V179.866C490.648 181.062 491.142 181.66 492.13 181.66ZM503.61 165.8H507.848C509.322 165.8 510.396 166.147 511.072 166.84C511.748 167.516 512.086 168.565 512.086 169.986V171.104C512.086 172.993 511.462 174.189 510.214 174.692V174.744C510.908 174.952 511.393 175.377 511.67 176.018C511.965 176.659 512.112 177.517 512.112 178.592V181.79C512.112 182.31 512.13 182.735 512.164 183.064C512.199 183.376 512.286 183.688 512.424 184H509.512C509.408 183.705 509.339 183.428 509.304 183.168C509.27 182.908 509.252 182.44 509.252 181.764V178.436C509.252 177.604 509.114 177.023 508.836 176.694C508.576 176.365 508.117 176.2 507.458 176.2H506.47V184H503.61V165.8ZM507.51 173.6C508.082 173.6 508.507 173.453 508.784 173.158C509.079 172.863 509.226 172.369 509.226 171.676V170.272C509.226 169.613 509.105 169.137 508.862 168.842C508.637 168.547 508.273 168.4 507.77 168.4H506.47V173.6H507.51ZM514.617 165.8H517.477V184H514.617V165.8ZM520.139 165.8H524.455C525.928 165.8 527.003 166.147 527.679 166.84C528.355 167.516 528.693 168.565 528.693 169.986V170.714C528.693 171.65 528.537 172.413 528.225 173.002C527.93 173.591 527.471 174.016 526.847 174.276V174.328C528.268 174.813 528.979 176.079 528.979 178.124V179.684C528.979 181.088 528.606 182.163 527.861 182.908C527.133 183.636 526.058 184 524.637 184H520.139V165.8ZM524.117 173.21C524.689 173.21 525.113 173.063 525.391 172.768C525.685 172.473 525.833 171.979 525.833 171.286V170.272C525.833 169.613 525.711 169.137 525.469 168.842C525.243 168.547 524.879 168.4 524.377 168.4H522.999V173.21H524.117ZM524.637 181.4C525.139 181.4 525.512 181.27 525.755 181.01C525.997 180.733 526.119 180.265 526.119 179.606V178.02C526.119 177.188 525.971 176.616 525.677 176.304C525.399 175.975 524.931 175.81 524.273 175.81H522.999V181.4H524.637ZM535.33 184.26C533.944 184.26 532.886 183.87 532.158 183.09C531.43 182.293 531.066 181.157 531.066 179.684V165.8H533.926V179.892C533.926 180.516 534.048 180.967 534.29 181.244C534.55 181.521 534.914 181.66 535.382 181.66C535.85 181.66 536.206 181.521 536.448 181.244C536.708 180.967 536.838 180.516 536.838 179.892V165.8H539.594V179.684C539.594 181.157 539.23 182.293 538.502 183.09C537.774 183.87 536.717 184.26 535.33 184.26Z" fill="black"/>
<circle r="4.5" transform="matrix(-1 0 0 1 23.5 277.5)" fill="black"/>
<path d="M31.0106 270H34.2506C35.344 270 36.164 270.293 36.7106 270.88C37.2573 271.467 37.5306 272.327 37.5306 273.46V274.84C37.5306 275.973 37.2573 276.833 36.7106 277.42C36.164 278.007 35.344 278.3 34.2506 278.3H33.2106V284H31.0106V270ZM34.2506 276.3C34.6106 276.3 34.8773 276.2 35.0506 276C35.2373 275.8 35.3306 275.46 35.3306 274.98V273.32C35.3306 272.84 35.2373 272.5 35.0506 272.3C34.8773 272.1 34.6106 272 34.2506 272H33.2106V276.3H34.2506ZM40.1223 270H43.1023L45.3823 284H43.1823L42.7823 281.22V281.26H40.2823L39.8823 284H37.8423L40.1223 270ZM42.5223 279.36L41.5423 272.44H41.5023L40.5423 279.36H42.5223ZM46.8497 270H50.1097C51.243 270 52.0697 270.267 52.5897 270.8C53.1097 271.32 53.3697 272.127 53.3697 273.22V274.08C53.3697 275.533 52.8897 276.453 51.9297 276.84V276.88C52.463 277.04 52.8364 277.367 53.0497 277.86C53.2764 278.353 53.3897 279.013 53.3897 279.84V282.3C53.3897 282.7 53.403 283.027 53.4297 283.28C53.4564 283.52 53.523 283.76 53.6297 284H51.3897C51.3097 283.773 51.2564 283.56 51.2297 283.36C51.203 283.16 51.1897 282.8 51.1897 282.28V279.72C51.1897 279.08 51.083 278.633 50.8697 278.38C50.6697 278.127 50.3164 278 49.8097 278H49.0497V284H46.8497V270ZM49.8497 276C50.2897 276 50.6164 275.887 50.8297 275.66C51.0564 275.433 51.1697 275.053 51.1697 274.52V273.44C51.1697 272.933 51.0764 272.567 50.8897 272.34C50.7164 272.113 50.4364 272 50.0497 272H49.0497V276H49.8497ZM56.997 272H54.697V270H61.497V272H59.197V284H56.997V272ZM62.9622 270H65.7222L67.8622 278.38H67.9022V270H69.8622V284H67.6022L64.9622 273.78H64.9222V284H62.9622V270ZM71.8973 270H77.8973V272H74.0973V275.7H77.1173V277.7H74.0973V282H77.8973V284H71.8973V270ZM79.563 270H82.823C83.9563 270 84.783 270.267 85.303 270.8C85.823 271.32 86.083 272.127 86.083 273.22V274.08C86.083 275.533 85.603 276.453 84.643 276.84V276.88C85.1763 277.04 85.5496 277.367 85.763 277.86C85.9896 278.353 86.103 279.013 86.103 279.84V282.3C86.103 282.7 86.1163 283.027 86.143 283.28C86.1696 283.52 86.2363 283.76 86.343 284H84.103C84.023 283.773 83.9696 283.56 83.943 283.36C83.9163 283.16 83.903 282.8 83.903 282.28V279.72C83.903 279.08 83.7963 278.633 83.583 278.38C83.383 278.127 83.0296 278 82.523 278H81.763V284H79.563V270ZM82.563 276C83.003 276 83.3296 275.887 83.543 275.66C83.7696 275.433 83.883 275.053 83.883 274.52V273.44C83.883 272.933 83.7896 272.567 83.603 272.34C83.4296 272.113 83.1496 272 82.763 272H81.763V276H82.563Z" fill="black"/>
<path d="M30.1906 285.6H86.803V287.2H30.1906V285.6Z" fill="black"/>
<path d="M477.505 44.8H480.365V63H477.505V44.8ZM483.027 44.8H487.265C488.738 44.8 489.813 45.1467 490.489 45.84C491.165 46.516 491.503 47.5647 491.503 48.986V50.104C491.503 51.9933 490.879 53.1893 489.631 53.692V53.744C490.324 53.952 490.809 54.3767 491.087 55.018C491.381 55.6593 491.529 56.5173 491.529 57.592V60.79C491.529 61.31 491.546 61.7347 491.581 62.064C491.615 62.376 491.702 62.688 491.841 63H488.929C488.825 62.7053 488.755 62.428 488.721 62.168C488.686 61.908 488.669 61.44 488.669 60.764V57.436C488.669 56.604 488.53 56.0233 488.253 55.694C487.993 55.3647 487.533 55.2 486.875 55.2H485.887V63H483.027V44.8ZM486.927 52.6C487.499 52.6 487.923 52.4527 488.201 52.158C488.495 51.8633 488.643 51.3693 488.643 50.676V49.272C488.643 48.6133 488.521 48.1367 488.279 47.842C488.053 47.5473 487.689 47.4 487.187 47.4H485.887V52.6H486.927ZM494.16 60.244H496.916V63H494.16V60.244ZM507.983 63.26C506.596 63.26 505.547 62.87 504.837 62.09C504.126 61.2927 503.771 60.1573 503.771 58.684V57.644H506.475V58.892C506.475 60.0707 506.969 60.66 507.957 60.66C508.442 60.66 508.806 60.5213 509.049 60.244C509.309 59.9493 509.439 59.4813 509.439 58.84C509.439 58.0773 509.265 57.41 508.919 56.838C508.572 56.2487 507.931 55.5467 506.995 54.732C505.816 53.692 504.993 52.756 504.525 51.924C504.057 51.0747 503.823 50.1213 503.823 49.064C503.823 47.6253 504.187 46.516 504.915 45.736C505.643 44.9387 506.7 44.54 508.087 44.54C509.456 44.54 510.487 44.9387 511.181 45.736C511.891 46.516 512.247 47.6427 512.247 49.116V49.87H509.543V48.934C509.543 48.31 509.421 47.8593 509.179 47.582C508.936 47.2873 508.581 47.14 508.113 47.14C507.159 47.14 506.683 47.7207 506.683 48.882C506.683 49.5407 506.856 50.156 507.203 50.728C507.567 51.3 508.217 51.9933 509.153 52.808C510.349 53.848 511.172 54.7927 511.623 55.642C512.073 56.4913 512.299 57.488 512.299 58.632C512.299 60.1227 511.926 61.2667 511.181 62.064C510.453 62.8613 509.387 63.26 507.983 63.26ZM518.592 63.26C517.188 63.26 516.114 62.8613 515.368 62.064C514.623 61.2667 514.25 60.14 514.25 58.684V49.116C514.25 47.66 514.623 46.5333 515.368 45.736C516.114 44.9387 517.188 44.54 518.592 44.54C519.996 44.54 521.071 44.9387 521.816 45.736C522.562 46.5333 522.934 47.66 522.934 49.116V58.684C522.934 60.14 522.562 61.2667 521.816 62.064C521.071 62.8613 519.996 63.26 518.592 63.26ZM518.592 60.66C519.58 60.66 520.074 60.062 520.074 58.866V48.934C520.074 47.738 519.58 47.14 518.592 47.14C517.604 47.14 517.11 47.738 517.11 48.934V58.866C517.11 60.062 517.604 60.66 518.592 60.66ZM525.388 44.8H533.188V47.4H528.248V52.21H532.174V54.81H528.248V60.4H533.188V63H525.388V44.8ZM535.354 44.8H538.214V52.47L541.854 44.8H544.714L541.308 51.482L544.766 63H541.776L539.358 54.888L538.214 57.202V63H535.354V44.8ZM548.849 44.8H552.723L555.687 63H552.827L552.307 59.386V59.438H549.057L548.537 63H545.885L548.849 44.8ZM551.969 56.968L550.695 47.972H550.643L549.395 56.968H551.969ZM557.595 44.8H561.833C563.306 44.8 564.381 45.1467 565.057 45.84C565.733 46.516 566.071 47.5647 566.071 48.986V50.104C566.071 51.9933 565.447 53.1893 564.199 53.692V53.744C564.892 53.952 565.378 54.3767 565.655 55.018C565.95 55.6593 566.097 56.5173 566.097 57.592V60.79C566.097 61.31 566.114 61.7347 566.149 62.064C566.184 62.376 566.27 62.688 566.409 63H563.497C563.393 62.7053 563.324 62.428 563.289 62.168C563.254 61.908 563.237 61.44 563.237 60.764V57.436C563.237 56.604 563.098 56.0233 562.821 55.694C562.561 55.3647 562.102 55.2 561.443 55.2H560.455V63H557.595V44.8ZM561.495 52.6C562.067 52.6 562.492 52.4527 562.769 52.158C563.064 51.8633 563.211 51.3693 563.211 50.676V49.272C563.211 48.6133 563.09 48.1367 562.847 47.842C562.622 47.5473 562.258 47.4 561.755 47.4H560.455V52.6H561.495ZM568.601 44.8H572.189L574.971 55.694H575.023V44.8H577.571V63H574.633L571.201 49.714H571.149V63H568.601V44.8ZM584.351 63.26C582.947 63.26 581.872 62.8613 581.127 62.064C580.382 61.2667 580.009 60.14 580.009 58.684V49.116C580.009 47.66 580.382 46.5333 581.127 45.736C581.872 44.9387 582.947 44.54 584.351 44.54C585.755 44.54 586.83 44.9387 587.575 45.736C588.32 46.5333 588.693 47.66 588.693 49.116V58.684C588.693 60.14 588.32 61.2667 587.575 62.064C586.83 62.8613 585.755 63.26 584.351 63.26ZM584.351 60.66C585.339 60.66 585.833 60.062 585.833 58.866V48.934C585.833 47.738 585.339 47.14 584.351 47.14C583.363 47.14 582.869 47.738 582.869 48.934V58.866C582.869 60.062 583.363 60.66 584.351 60.66Z" fill="black"/>
</svg>
