<svg width="810" height="472" viewBox="0 0 810 472" fill="none" xmlns="http://www.w3.org/2000/svg">
<rect x="1" y="1" width="362" height="90" rx="9" fill="white" stroke="black" stroke-width="2"/>
<rect x="447" y="269" width="362" height="88" rx="9" fill="white" stroke="black" stroke-width="2"/>
<rect x="447" y="381" width="362" height="90" rx="9" fill="#1FD57D" stroke="black" stroke-width="2"/>
<circle r="4.5" transform="matrix(-1 0 0 1 23.5 22.5)" fill="black"/>
<path d="M31.297 15H33.497V27H37.117V29H31.297V15ZM41.6738 29.2C40.5938 29.2 39.7672 28.8933 39.1938 28.28C38.6205 27.6667 38.3338 26.8 38.3338 25.68V18.32C38.3338 17.2 38.6205 16.3333 39.1938 15.72C39.7672 15.1067 40.5938 14.8 41.6738 14.8C42.7538 14.8 43.5805 15.1067 44.1538 15.72C44.7272 16.3333 45.0138 17.2 45.0138 18.32V25.68C45.0138 26.8 44.7272 27.6667 44.1538 28.28C43.5805 28.8933 42.7538 29.2 41.6738 29.2ZM41.6738 27.2C42.4338 27.2 42.8138 26.74 42.8138 25.82V18.18C42.8138 17.26 42.4338 16.8 41.6738 16.8C40.9138 16.8 40.5338 17.26 40.5338 18.18V25.82C40.5338 26.74 40.9138 27.2 41.6738 27.2ZM50.0016 29.2C48.9483 29.2 48.1416 28.9 47.5816 28.3C47.035 27.7 46.7616 26.8533 46.7616 25.76V18.24C46.7616 17.1467 47.035 16.3 47.5816 15.7C48.1416 15.1 48.9483 14.8 50.0016 14.8C51.055 14.8 51.855 15.1 52.4016 15.7C52.9616 16.3 53.2416 17.1467 53.2416 18.24V19.72H51.1616V18.1C51.1616 17.2333 50.795 16.8 50.0616 16.8C49.3283 16.8 48.9616 17.2333 48.9616 18.1V25.92C48.9616 26.7733 49.3283 27.2 50.0616 27.2C50.795 27.2 51.1616 26.7733 51.1616 25.92V23.78H53.2416V25.76C53.2416 26.8533 52.9616 27.7 52.4016 28.3C51.855 28.9 51.055 29.2 50.0016 29.2ZM56.6579 15H59.6379L61.9179 29H59.7179L59.3179 26.22V26.26H56.8179L56.4179 29H54.3779L56.6579 15ZM59.0579 24.36L58.0779 17.44H58.0379L57.0779 24.36H59.0579ZM64.1873 17H61.8873V15H68.6873V17H66.3873V29H64.1873V17ZM70.1524 15H72.3524V29H70.1524V15ZM77.5801 29.2C76.5001 29.2 75.6734 28.8933 75.1001 28.28C74.5267 27.6667 74.2401 26.8 74.2401 25.68V18.32C74.2401 17.2 74.5267 16.3333 75.1001 15.72C75.6734 15.1067 76.5001 14.8 77.5801 14.8C78.6601 14.8 79.4867 15.1067 80.0601 15.72C80.6334 16.3333 80.9201 17.2 80.9201 18.32V25.68C80.9201 26.8 80.6334 27.6667 80.0601 28.28C79.4867 28.8933 78.6601 29.2 77.5801 29.2ZM77.5801 27.2C78.3401 27.2 78.7201 26.74 78.7201 25.82V18.18C78.7201 17.26 78.3401 16.8 77.5801 16.8C76.8201 16.8 76.4401 17.26 76.4401 18.18V25.82C76.4401 26.74 76.8201 27.2 77.5801 27.2ZM82.8079 15H85.5679L87.7079 23.38H87.7479V15H89.7079V29H87.4479L84.8079 18.78H84.7679V29H82.8079V15Z" fill="black"/>
<path d="M30.477 30.6H90.5279V32.2H30.477V30.6Z" fill="black"/>
<rect x="1" y="119" width="362" height="90" rx="9" fill="white" stroke="black" stroke-width="2"/>
<circle r="4.5" transform="matrix(-1 0 0 1 23.5 142.5)" fill="black"/>
<path d="M30.847 135H34.207C35.3003 135 36.1203 135.293 36.667 135.88C37.2136 136.467 37.487 137.327 37.487 138.46V145.54C37.487 146.673 37.2136 147.533 36.667 148.12C36.1203 148.707 35.3003 149 34.207 149H30.847V135ZM34.167 147C34.527 147 34.8003 146.893 34.987 146.68C35.187 146.467 35.287 146.12 35.287 145.64V138.36C35.287 137.88 35.187 137.533 34.987 137.32C34.8003 137.107 34.527 137 34.167 137H33.047V147H34.167ZM41.0329 135H44.0129L46.2929 149H44.0929L43.6929 146.22V146.26H41.1929L40.7929 149H38.7529L41.0329 135ZM43.4329 144.36L42.4529 137.44H42.4129L41.4529 144.36H43.4329ZM48.5623 137H46.2623V135H53.0623V137H50.7623V149H48.5623V137ZM54.5274 135H60.5274V137H56.7274V140.7H59.7474V142.7H56.7274V147H60.5274V149H54.5274V135Z" fill="black"/>
<path d="M30.027 150.6H60.9674V152.2H30.027V150.6Z" fill="black"/>
<path d="M30.149 173.116H27.159V171.088C27.9737 171.088 28.6237 171.019 29.109 170.88C29.6117 170.741 30.0103 170.516 30.305 170.204C30.5997 169.875 30.8597 169.407 31.085 168.8H33.009V187H30.149V173.116ZM41.1051 187.26C39.7185 187.26 38.6611 186.87 37.9331 186.09C37.2051 185.293 36.8411 184.157 36.8411 182.684V182.346H39.5451V182.866C39.5451 184.062 40.0391 184.66 41.0271 184.66C41.5645 184.66 41.9631 184.495 42.2231 184.166C42.4831 183.837 42.6131 183.256 42.6131 182.424V178.94H42.5611C42.0585 179.997 41.1918 180.526 39.9611 180.526C38.9211 180.526 38.1325 180.171 37.5951 179.46C37.0578 178.749 36.7891 177.718 36.7891 176.366V173.116C36.7891 171.66 37.1618 170.533 37.9071 169.736C38.6525 168.939 39.7271 168.54 41.1311 168.54C42.5351 168.54 43.6098 168.939 44.3551 169.736C45.1005 170.533 45.4731 171.66 45.4731 173.116V182.528C45.4731 185.683 44.0171 187.26 41.1051 187.26ZM41.1311 177.926C42.1191 177.926 42.6131 177.328 42.6131 176.132V172.908C42.6131 171.729 42.1191 171.14 41.1311 171.14C40.1431 171.14 39.6491 171.729 39.6491 172.908V176.132C39.6491 177.328 40.1431 177.926 41.1311 177.926ZM47.5893 176.6H53.3093V179.2H47.5893V176.6ZM55.4811 185.024C55.4811 183.724 55.6891 182.615 56.1051 181.696C56.5211 180.76 57.2664 179.729 58.3411 178.602C59.3984 177.475 60.1264 176.513 60.5251 175.716C60.9411 174.919 61.1491 174.087 61.1491 173.22C61.1491 172.44 61.0191 171.903 60.7591 171.608C60.5164 171.296 60.1524 171.14 59.6671 171.14C58.6791 171.14 58.1851 171.738 58.1851 172.934V174.884H55.4811V173.116C55.4811 171.643 55.8451 170.516 56.5731 169.736C57.3011 168.939 58.3584 168.54 59.7451 168.54C61.1318 168.54 62.1891 168.939 62.9171 169.736C63.6451 170.516 64.0091 171.643 64.0091 173.116C64.0091 174.225 63.7404 175.309 63.2031 176.366C62.6831 177.423 61.7731 178.637 60.4731 180.006C59.6238 180.907 59.0518 181.644 58.7571 182.216C58.4624 182.771 58.3151 183.369 58.3151 184.01V184.4H63.7491V187H55.4811V185.024ZM70.4673 173.116H67.4773V171.088C68.2919 171.088 68.9419 171.019 69.4273 170.88C69.9299 170.741 70.3286 170.516 70.6233 170.204C70.9179 169.875 71.1779 169.407 71.4033 168.8H73.3273V187H70.4673V173.116ZM82.0775 168.8H86.1595L87.9795 181.826H88.0315L89.8515 168.8H93.9335V187H91.2295V173.22H91.1775L89.0975 187H86.7055L84.6255 173.22H84.5735V187H82.0775V168.8ZM98.7977 168.8H102.672L105.636 187H102.776L102.256 183.386V183.438H99.0057L98.4857 187H95.8337L98.7977 168.8ZM101.918 180.968L100.644 171.972H100.592L99.3437 180.968H101.918ZM108.976 179.252L105.518 168.8H108.56L110.51 175.482H110.562L112.512 168.8H115.294L111.836 179.252V187H108.976V179.252ZM121.734 185.024C121.734 183.724 121.942 182.615 122.358 181.696C122.774 180.76 123.52 179.729 124.594 178.602C125.652 177.475 126.38 176.513 126.778 175.716C127.194 174.919 127.402 174.087 127.402 173.22C127.402 172.44 127.272 171.903 127.012 171.608C126.77 171.296 126.406 171.14 125.92 171.14C124.932 171.14 124.438 171.738 124.438 172.934V174.884H121.734V173.116C121.734 171.643 122.098 170.516 122.826 169.736C123.554 168.939 124.612 168.54 125.998 168.54C127.385 168.54 128.442 168.939 129.17 169.736C129.898 170.516 130.262 171.643 130.262 173.116C130.262 174.225 129.994 175.309 129.456 176.366C128.936 177.423 128.026 178.637 126.726 180.006C125.877 180.907 125.305 181.644 125.01 182.216C124.716 182.771 124.568 183.369 124.568 184.01V184.4H130.002V187H121.734V185.024ZM136.851 187.26C135.447 187.26 134.372 186.861 133.627 186.064C132.881 185.267 132.509 184.14 132.509 182.684V173.116C132.509 171.66 132.881 170.533 133.627 169.736C134.372 168.939 135.447 168.54 136.851 168.54C138.255 168.54 139.329 168.939 140.075 169.736C140.82 170.533 141.193 171.66 141.193 173.116V182.684C141.193 184.14 140.82 185.267 140.075 186.064C139.329 186.861 138.255 187.26 136.851 187.26ZM136.851 184.66C137.839 184.66 138.333 184.062 138.333 182.866V172.934C138.333 171.738 137.839 171.14 136.851 171.14C135.863 171.14 135.369 171.738 135.369 172.934V182.866C135.369 184.062 135.863 184.66 136.851 184.66ZM147.651 173.116H144.661V171.088C145.475 171.088 146.125 171.019 146.611 170.88C147.113 170.741 147.512 170.516 147.807 170.204C148.101 169.875 148.361 169.407 148.587 168.8H150.511V187H147.651V173.116ZM158.607 187.26C157.22 187.26 156.163 186.87 155.435 186.09C154.707 185.293 154.343 184.157 154.343 182.684V182.346H157.047V182.866C157.047 184.062 157.541 184.66 158.529 184.66C159.066 184.66 159.465 184.495 159.725 184.166C159.985 183.837 160.115 183.256 160.115 182.424V178.94H160.063C159.56 179.997 158.694 180.526 157.463 180.526C156.423 180.526 155.634 180.171 155.097 179.46C154.56 178.749 154.291 177.718 154.291 176.366V173.116C154.291 171.66 154.664 170.533 155.409 169.736C156.154 168.939 157.229 168.54 158.633 168.54C160.037 168.54 161.112 168.939 161.857 169.736C162.602 170.533 162.975 171.66 162.975 173.116V182.528C162.975 185.683 161.519 187.26 158.607 187.26ZM158.633 177.926C159.621 177.926 160.115 177.328 160.115 176.132V172.908C160.115 171.729 159.621 171.14 158.633 171.14C157.645 171.14 157.151 171.729 157.151 172.908V176.132C157.151 177.328 157.645 177.926 158.633 177.926Z" fill="black"/>
<path d="M584.078 301.8H588.29C589.711 301.8 590.777 302.181 591.488 302.944C592.199 303.707 592.554 304.825 592.554 306.298V308.092C592.554 309.565 592.199 310.683 591.488 311.446C590.777 312.209 589.711 312.59 588.29 312.59H586.938V320H584.078V301.8ZM588.29 309.99C588.758 309.99 589.105 309.86 589.33 309.6C589.573 309.34 589.694 308.898 589.694 308.274V306.116C589.694 305.492 589.573 305.05 589.33 304.79C589.105 304.53 588.758 304.4 588.29 304.4H586.938V309.99H588.29ZM594.627 301.8H598.865C600.339 301.8 601.413 302.147 602.089 302.84C602.765 303.516 603.103 304.565 603.103 305.986V307.104C603.103 308.993 602.479 310.189 601.231 310.692V310.744C601.925 310.952 602.41 311.377 602.687 312.018C602.982 312.659 603.129 313.517 603.129 314.592V317.79C603.129 318.31 603.147 318.735 603.181 319.064C603.216 319.376 603.303 319.688 603.441 320H600.529C600.425 319.705 600.356 319.428 600.321 319.168C600.287 318.908 600.269 318.44 600.269 317.764V314.436C600.269 313.604 600.131 313.023 599.853 312.694C599.593 312.365 599.134 312.2 598.475 312.2H597.487V320H594.627V301.8ZM598.527 309.6C599.099 309.6 599.524 309.453 599.801 309.158C600.096 308.863 600.243 308.369 600.243 307.676V306.272C600.243 305.613 600.122 305.137 599.879 304.842C599.654 304.547 599.29 304.4 598.787 304.4H597.487V309.6H598.527ZM609.768 320.26C608.364 320.26 607.289 319.861 606.544 319.064C605.798 318.267 605.426 317.14 605.426 315.684V306.116C605.426 304.66 605.798 303.533 606.544 302.736C607.289 301.939 608.364 301.54 609.768 301.54C611.172 301.54 612.246 301.939 612.992 302.736C613.737 303.533 614.11 304.66 614.11 306.116V315.684C614.11 317.14 613.737 318.267 612.992 319.064C612.246 319.861 611.172 320.26 609.768 320.26ZM609.768 317.66C610.756 317.66 611.25 317.062 611.25 315.866V305.934C611.25 304.738 610.756 304.14 609.768 304.14C608.78 304.14 608.286 304.738 608.286 305.934V315.866C608.286 317.062 608.78 317.66 609.768 317.66ZM616.564 301.8H620.776C622.197 301.8 623.263 302.181 623.974 302.944C624.684 303.707 625.04 304.825 625.04 306.298V308.092C625.04 309.565 624.684 310.683 623.974 311.446C623.263 312.209 622.197 312.59 620.776 312.59H619.424V320H616.564V301.8ZM620.776 309.99C621.244 309.99 621.59 309.86 621.816 309.6C622.058 309.34 622.18 308.898 622.18 308.274V306.116C622.18 305.492 622.058 305.05 621.816 304.79C621.59 304.53 621.244 304.4 620.776 304.4H619.424V309.99H620.776ZM631.247 320.26C629.843 320.26 628.768 319.861 628.023 319.064C627.278 318.267 626.905 317.14 626.905 315.684V306.116C626.905 304.66 627.278 303.533 628.023 302.736C628.768 301.939 629.843 301.54 631.247 301.54C632.651 301.54 633.726 301.939 634.471 302.736C635.216 303.533 635.589 304.66 635.589 306.116V315.684C635.589 317.14 635.216 318.267 634.471 319.064C633.726 319.861 632.651 320.26 631.247 320.26ZM631.247 317.66C632.235 317.66 632.729 317.062 632.729 315.866V305.934C632.729 304.738 632.235 304.14 631.247 304.14C630.259 304.14 629.765 304.738 629.765 305.934V315.866C629.765 317.062 630.259 317.66 631.247 317.66ZM641.761 320.26C640.375 320.26 639.326 319.87 638.615 319.09C637.905 318.293 637.549 317.157 637.549 315.684V314.644H640.253V315.892C640.253 317.071 640.747 317.66 641.735 317.66C642.221 317.66 642.585 317.521 642.827 317.244C643.087 316.949 643.217 316.481 643.217 315.84C643.217 315.077 643.044 314.41 642.697 313.838C642.351 313.249 641.709 312.547 640.773 311.732C639.595 310.692 638.771 309.756 638.303 308.924C637.835 308.075 637.601 307.121 637.601 306.064C637.601 304.625 637.965 303.516 638.693 302.736C639.421 301.939 640.479 301.54 641.865 301.54C643.235 301.54 644.266 301.939 644.959 302.736C645.67 303.516 646.025 304.643 646.025 306.116V306.87H643.321V305.934C643.321 305.31 643.2 304.859 642.957 304.582C642.715 304.287 642.359 304.14 641.891 304.14C640.938 304.14 640.461 304.721 640.461 305.882C640.461 306.541 640.635 307.156 640.981 307.728C641.345 308.3 641.995 308.993 642.931 309.808C644.127 310.848 644.951 311.793 645.401 312.642C645.852 313.491 646.077 314.488 646.077 315.632C646.077 317.123 645.705 318.267 644.959 319.064C644.231 319.861 643.165 320.26 641.761 320.26ZM650.371 301.8H654.245L657.209 320H654.349L653.829 316.386V316.438H650.579L650.059 320H647.407L650.371 301.8ZM653.491 313.968L652.217 304.972H652.165L650.917 313.968H653.491ZM659.116 301.8H661.976V317.4H666.682V320H659.116V301.8Z" fill="black"/>
<path d="M600.255 409.26C598.885 409.26 597.837 408.87 597.109 408.09C596.398 407.31 596.043 406.209 596.043 404.788V395.012C596.043 393.591 596.398 392.49 597.109 391.71C597.837 390.93 598.885 390.54 600.255 390.54C601.624 390.54 602.664 390.93 603.375 391.71C604.103 392.49 604.467 393.591 604.467 395.012V396.936H601.763V394.83C601.763 393.703 601.286 393.14 600.333 393.14C599.379 393.14 598.903 393.703 598.903 394.83V404.996C598.903 406.105 599.379 406.66 600.333 406.66C601.286 406.66 601.763 406.105 601.763 404.996V402.214H604.467V404.788C604.467 406.209 604.103 407.31 603.375 408.09C602.664 408.87 601.624 409.26 600.255 409.26ZM608.908 390.8H612.782L615.746 409H612.886L612.366 405.386V405.438H609.116L608.596 409H605.944L608.908 390.8ZM612.028 402.968L610.754 393.972H610.702L609.454 402.968H612.028ZM617.653 390.8H620.513V406.4H625.219V409H617.653V390.8ZM627.111 390.8H629.971V406.4H634.677V409H627.111V390.8ZM645.412 409.26C644.026 409.26 642.968 408.87 642.24 408.09C641.512 407.293 641.148 406.157 641.148 404.684V390.8H644.008V404.892C644.008 405.516 644.13 405.967 644.372 406.244C644.632 406.521 644.996 406.66 645.464 406.66C645.932 406.66 646.288 406.521 646.53 406.244C646.79 405.967 646.92 405.516 646.92 404.892V390.8H649.676V404.684C649.676 406.157 649.312 407.293 648.584 408.09C647.856 408.87 646.799 409.26 645.412 409.26ZM655.951 409.26C654.565 409.26 653.516 408.87 652.805 408.09C652.095 407.293 651.739 406.157 651.739 404.684V403.644H654.443V404.892C654.443 406.071 654.937 406.66 655.925 406.66C656.411 406.66 656.775 406.521 657.017 406.244C657.277 405.949 657.407 405.481 657.407 404.84C657.407 404.077 657.234 403.41 656.887 402.838C656.541 402.249 655.899 401.547 654.963 400.732C653.785 399.692 652.961 398.756 652.493 397.924C652.025 397.075 651.791 396.121 651.791 395.064C651.791 393.625 652.155 392.516 652.883 391.736C653.611 390.939 654.669 390.54 656.055 390.54C657.425 390.54 658.456 390.939 659.149 391.736C659.86 392.516 660.215 393.643 660.215 395.116V395.87H657.511V394.934C657.511 394.31 657.39 393.859 657.147 393.582C656.905 393.287 656.549 393.14 656.081 393.14C655.128 393.14 654.651 393.721 654.651 394.882C654.651 395.541 654.825 396.156 655.171 396.728C655.535 397.3 656.185 397.993 657.121 398.808C658.317 399.848 659.141 400.793 659.591 401.642C660.042 402.491 660.267 403.488 660.267 404.632C660.267 406.123 659.895 407.267 659.149 408.064C658.421 408.861 657.355 409.26 655.951 409.26Z" fill="black"/>
<path d="M568.379 449.26C566.975 449.26 565.9 448.861 565.155 448.064C564.41 447.267 564.037 446.14 564.037 444.684V435.116C564.037 433.66 564.41 432.533 565.155 431.736C565.9 430.939 566.975 430.54 568.379 430.54C569.783 430.54 570.858 430.939 571.603 431.736C572.348 432.533 572.721 433.66 572.721 435.116V444.684C572.721 446.14 572.348 447.267 571.603 448.064C570.858 448.861 569.783 449.26 568.379 449.26ZM568.379 446.66C569.367 446.66 569.861 446.062 569.861 444.866V434.934C569.861 433.738 569.367 433.14 568.379 433.14C567.391 433.14 566.897 433.738 566.897 434.934V444.866C566.897 446.062 567.391 446.66 568.379 446.66ZM579.309 449.26C577.871 449.26 576.761 448.879 575.981 448.116C575.219 447.336 574.837 446.218 574.837 444.762V443.15C574.837 442.249 574.985 441.495 575.279 440.888C575.574 440.264 576.051 439.779 576.709 439.432V439.38C576.103 439.051 575.652 438.6 575.357 438.028C575.08 437.439 574.941 436.693 574.941 435.792V435.038C574.941 433.582 575.314 432.473 576.059 431.71C576.822 430.93 577.905 430.54 579.309 430.54C580.713 430.54 581.788 430.93 582.533 431.71C583.296 432.473 583.677 433.582 583.677 435.038V435.792C583.677 437.525 583.088 438.721 581.909 439.38V439.432C582.568 439.779 583.045 440.264 583.339 440.888C583.634 441.495 583.781 442.249 583.781 443.15V444.762C583.781 446.218 583.391 447.336 582.611 448.116C581.849 448.879 580.748 449.26 579.309 449.26ZM579.309 438.21C580.315 438.21 580.817 437.603 580.817 436.39V434.96C580.817 433.747 580.315 433.14 579.309 433.14C578.304 433.14 577.801 433.747 577.801 434.96V436.39C577.801 437.603 578.304 438.21 579.309 438.21ZM579.309 446.66C580.384 446.66 580.921 445.975 580.921 444.606V442.864C580.921 441.495 580.384 440.81 579.309 440.81C578.235 440.81 577.697 441.495 577.697 442.864V444.606C577.697 445.975 578.235 446.66 579.309 446.66ZM590.109 435.116H587.119V433.088C587.934 433.088 588.584 433.019 589.069 432.88C589.572 432.741 589.971 432.516 590.265 432.204C590.56 431.875 590.82 431.407 591.045 430.8H592.969V449H590.109V435.116ZM601.092 449.26C599.688 449.26 598.622 448.87 597.894 448.09C597.183 447.31 596.828 446.192 596.828 444.736V443.254H599.532V444.866C599.532 446.062 600.026 446.66 601.014 446.66C601.499 446.66 601.863 446.513 602.106 446.218C602.366 445.906 602.496 445.369 602.496 444.606V443.124C602.496 442.292 602.348 441.703 602.054 441.356C601.759 440.992 601.282 440.81 600.624 440.81H599.662V438.21H600.702C601.274 438.21 601.698 438.063 601.976 437.768C602.27 437.473 602.418 436.979 602.418 436.286V434.96C602.418 434.336 602.288 433.877 602.028 433.582C601.768 433.287 601.421 433.14 600.988 433.14C600.069 433.14 599.61 433.703 599.61 434.83V436.026H596.906V435.064C596.906 433.608 597.261 432.49 597.972 431.71C598.7 430.93 599.74 430.54 601.092 430.54C602.461 430.54 603.501 430.93 604.212 431.71C604.922 432.473 605.278 433.582 605.278 435.038V435.688C605.278 436.676 605.113 437.473 604.784 438.08C604.454 438.669 603.943 439.094 603.25 439.354V439.406C603.995 439.683 604.532 440.134 604.862 440.758C605.191 441.382 605.356 442.179 605.356 443.15V444.762C605.356 446.218 604.992 447.336 604.264 448.116C603.553 448.879 602.496 449.26 601.092 449.26ZM611.97 435.116H608.98V433.088C609.794 433.088 610.444 433.019 610.93 432.88C611.432 432.741 611.831 432.516 612.126 432.204C612.42 431.875 612.68 431.407 612.906 430.8H614.83V449H611.97V435.116ZM622.952 449.26C621.548 449.26 620.482 448.87 619.754 448.09C619.043 447.31 618.688 446.192 618.688 444.736V443.254H621.392V444.866C621.392 446.062 621.886 446.66 622.874 446.66C623.359 446.66 623.723 446.513 623.966 446.218C624.226 445.906 624.356 445.369 624.356 444.606V443.124C624.356 442.292 624.209 441.703 623.914 441.356C623.619 440.992 623.143 440.81 622.484 440.81H621.522V438.21H622.562C623.134 438.21 623.559 438.063 623.836 437.768C624.131 437.473 624.278 436.979 624.278 436.286V434.96C624.278 434.336 624.148 433.877 623.888 433.582C623.628 433.287 623.281 433.14 622.848 433.14C621.929 433.14 621.47 433.703 621.47 434.83V436.026H618.766V435.064C618.766 433.608 619.121 432.49 619.832 431.71C620.56 430.93 621.6 430.54 622.952 430.54C624.321 430.54 625.361 430.93 626.072 431.71C626.783 432.473 627.138 433.582 627.138 435.038V435.688C627.138 436.676 626.973 437.473 626.644 438.08C626.315 438.669 625.803 439.094 625.11 439.354V439.406C625.855 439.683 626.393 440.134 626.722 440.758C627.051 441.382 627.216 442.179 627.216 443.15V444.762C627.216 446.218 626.852 447.336 626.124 448.116C625.413 448.879 624.356 449.26 622.952 449.26ZM634.012 449.26C632.625 449.26 631.568 448.87 630.84 448.09C630.112 447.293 629.748 446.157 629.748 444.684V443.254H632.452V444.892C632.452 446.071 632.946 446.66 633.934 446.66C634.922 446.66 635.416 446.071 635.416 444.892V440.81C635.416 439.614 634.922 439.016 633.934 439.016C632.946 439.016 632.452 439.614 632.452 440.81V440.966H629.748L630.268 430.8H637.808V433.4H632.816L632.582 437.742H632.634C633.171 436.858 633.995 436.416 635.104 436.416C636.144 436.416 636.933 436.771 637.47 437.482C638.007 438.193 638.276 439.224 638.276 440.576V444.684C638.276 446.157 637.912 447.293 637.184 448.09C636.456 448.87 635.399 449.26 634.012 449.26ZM644.942 449.26C643.555 449.26 642.498 448.87 641.77 448.09C641.042 447.293 640.678 446.157 640.678 444.684V443.254H643.382V444.892C643.382 446.071 643.876 446.66 644.864 446.66C645.852 446.66 646.346 446.071 646.346 444.892V440.81C646.346 439.614 645.852 439.016 644.864 439.016C643.876 439.016 643.382 439.614 643.382 440.81V440.966H640.678L641.198 430.8H648.738V433.4H643.746L643.512 437.742H643.564C644.101 436.858 644.925 436.416 646.034 436.416C647.074 436.416 647.863 436.771 648.4 437.482C648.937 438.193 649.206 439.224 649.206 440.576V444.684C649.206 446.157 648.842 447.293 648.114 448.09C647.386 448.87 646.329 449.26 644.942 449.26ZM655.716 449.26C654.33 449.26 653.272 448.87 652.544 448.09C651.816 447.293 651.452 446.157 651.452 444.684V444.346H654.156V444.866C654.156 446.062 654.65 446.66 655.638 446.66C656.176 446.66 656.574 446.495 656.834 446.166C657.094 445.837 657.224 445.256 657.224 444.424V440.94H657.172C656.67 441.997 655.803 442.526 654.572 442.526C653.532 442.526 652.744 442.171 652.206 441.46C651.669 440.749 651.4 439.718 651.4 438.366V435.116C651.4 433.66 651.773 432.533 652.518 431.736C653.264 430.939 654.338 430.54 655.742 430.54C657.146 430.54 658.221 430.939 658.966 431.736C659.712 432.533 660.084 433.66 660.084 435.116V444.528C660.084 447.683 658.628 449.26 655.716 449.26ZM655.742 439.926C656.73 439.926 657.224 439.328 657.224 438.132V434.908C657.224 433.729 656.73 433.14 655.742 433.14C654.754 433.14 654.26 433.729 654.26 434.908V438.132C654.26 439.328 654.754 439.926 655.742 439.926ZM666.646 449.26C665.26 449.26 664.202 448.87 663.474 448.09C662.746 447.293 662.382 446.157 662.382 444.684V444.346H665.086V444.866C665.086 446.062 665.58 446.66 666.568 446.66C667.106 446.66 667.504 446.495 667.764 446.166C668.024 445.837 668.154 445.256 668.154 444.424V440.94H668.102C667.6 441.997 666.733 442.526 665.502 442.526C664.462 442.526 663.674 442.171 663.136 441.46C662.599 440.749 662.33 439.718 662.33 438.366V435.116C662.33 433.66 662.703 432.533 663.448 431.736C664.194 430.939 665.268 430.54 666.672 430.54C668.076 430.54 669.151 430.939 669.896 431.736C670.642 432.533 671.014 433.66 671.014 435.116V444.528C671.014 447.683 669.558 449.26 666.646 449.26ZM666.672 439.926C667.66 439.926 668.154 439.328 668.154 438.132V434.908C668.154 433.729 667.66 433.14 666.672 433.14C665.684 433.14 665.19 433.729 665.19 434.908V438.132C665.19 439.328 665.684 439.926 666.672 439.926ZM677.681 449.26C676.277 449.26 675.202 448.861 674.457 448.064C673.711 447.267 673.339 446.14 673.339 444.684V435.116C673.339 433.66 673.711 432.533 674.457 431.736C675.202 430.939 676.277 430.54 677.681 430.54C679.085 430.54 680.159 430.939 680.905 431.736C681.65 432.533 682.023 433.66 682.023 435.116V444.684C682.023 446.14 681.65 447.267 680.905 448.064C680.159 448.861 679.085 449.26 677.681 449.26ZM677.681 446.66C678.669 446.66 679.163 446.062 679.163 444.866V434.934C679.163 433.738 678.669 433.14 677.681 433.14C676.693 433.14 676.199 433.738 676.199 434.934V444.866C676.199 446.062 676.693 446.66 677.681 446.66ZM688.611 449.26C687.207 449.26 686.132 448.861 685.387 448.064C684.641 447.267 684.269 446.14 684.269 444.684V435.116C684.269 433.66 684.641 432.533 685.387 431.736C686.132 430.939 687.207 430.54 688.611 430.54C690.015 430.54 691.089 430.939 691.835 431.736C692.58 432.533 692.953 433.66 692.953 435.116V444.684C692.953 446.14 692.58 447.267 691.835 448.064C691.089 448.861 690.015 449.26 688.611 449.26ZM688.611 446.66C689.599 446.66 690.093 446.062 690.093 444.866V434.934C690.093 433.738 689.599 433.14 688.611 433.14C687.623 433.14 687.129 433.738 687.129 434.934V444.866C687.129 446.062 687.623 446.66 688.611 446.66Z" fill="black"/>
<rect x="447" y="1" width="362" height="90" rx="9" fill="white" stroke="black" stroke-width="2"/>
<rect x="1" y="252" width="362" height="219" rx="9" fill="white" stroke="black" stroke-width="2"/>
<circle r="4.5" transform="matrix(-1 0 0 1 469.5 22.5)" fill="black"/>
<path d="M480.274 30.2C479.207 30.2 478.394 29.9 477.834 29.3C477.274 28.6867 476.994 27.8133 476.994 26.68V19.32C476.994 18.1867 477.274 17.32 477.834 16.72C478.394 16.1067 479.207 15.8 480.274 15.8C481.341 15.8 482.154 16.1067 482.714 16.72C483.274 17.32 483.554 18.1867 483.554 19.32V20.52H481.474V19.18C481.474 18.26 481.094 17.8 480.334 17.8C479.574 17.8 479.194 18.26 479.194 19.18V26.84C479.194 27.7467 479.574 28.2 480.334 28.2C481.094 28.2 481.474 27.7467 481.474 26.84V24.1H480.374V22.1H483.554V26.68C483.554 27.8133 483.274 28.6867 482.714 29.3C482.154 29.9 481.341 30.2 480.274 30.2ZM488.566 30.2C487.5 30.2 486.686 29.9 486.126 29.3C485.566 28.6867 485.286 27.8133 485.286 26.68V16H487.486V26.84C487.486 27.32 487.58 27.6667 487.766 27.88C487.966 28.0933 488.246 28.2 488.606 28.2C488.966 28.2 489.24 28.0933 489.426 27.88C489.626 27.6667 489.726 27.32 489.726 26.84V16H491.846V26.68C491.846 27.8133 491.566 28.6867 491.006 29.3C490.446 29.9 489.633 30.2 488.566 30.2ZM493.813 16H499.813V18H496.013V21.7H499.033V23.7H496.013V28H499.813V30H493.813V16ZM504.378 30.2C503.311 30.2 502.505 29.9 501.958 29.3C501.411 28.6867 501.138 27.8133 501.138 26.68V25.88H503.218V26.84C503.218 27.7467 503.598 28.2 504.358 28.2C504.731 28.2 505.011 28.0933 505.198 27.88C505.398 27.6533 505.498 27.2933 505.498 26.8C505.498 26.2133 505.365 25.7 505.098 25.26C504.831 24.8067 504.338 24.2667 503.618 23.64C502.711 22.84 502.078 22.12 501.718 21.48C501.358 20.8267 501.178 20.0933 501.178 19.28C501.178 18.1733 501.458 17.32 502.018 16.72C502.578 16.1067 503.391 15.8 504.458 15.8C505.511 15.8 506.305 16.1067 506.838 16.72C507.385 17.32 507.658 18.1867 507.658 19.32V19.9H505.578V19.18C505.578 18.7 505.485 18.3533 505.298 18.14C505.111 17.9133 504.838 17.8 504.478 17.8C503.745 17.8 503.378 18.2467 503.378 19.14C503.378 19.6467 503.511 20.12 503.778 20.56C504.058 21 504.558 21.5333 505.278 22.16C506.198 22.96 506.831 23.6867 507.178 24.34C507.525 24.9933 507.698 25.76 507.698 26.64C507.698 27.7867 507.411 28.6667 506.838 29.28C506.278 29.8933 505.458 30.2 504.378 30.2ZM511.079 18H508.779V16H515.579V18H513.279V30H511.079V18ZM519.905 30.2C518.838 30.2 518.031 29.9 517.485 29.3C516.938 28.6867 516.665 27.8133 516.665 26.68V25.88H518.745V26.84C518.745 27.7467 519.125 28.2 519.885 28.2C520.258 28.2 520.538 28.0933 520.725 27.88C520.925 27.6533 521.025 27.2933 521.025 26.8C521.025 26.2133 520.891 25.7 520.625 25.26C520.358 24.8067 519.865 24.2667 519.145 23.64C518.238 22.84 517.605 22.12 517.245 21.48C516.885 20.8267 516.705 20.0933 516.705 19.28C516.705 18.1733 516.985 17.32 517.545 16.72C518.105 16.1067 518.918 15.8 519.985 15.8C521.038 15.8 521.831 16.1067 522.365 16.72C522.911 17.32 523.185 18.1867 523.185 19.32V19.9H521.105V19.18C521.105 18.7 521.011 18.3533 520.825 18.14C520.638 17.9133 520.365 17.8 520.005 17.8C519.271 17.8 518.905 18.2467 518.905 19.14C518.905 19.6467 519.038 20.12 519.305 20.56C519.585 21 520.085 21.5333 520.805 22.16C521.725 22.96 522.358 23.6867 522.705 24.34C523.051 24.9933 523.225 25.76 523.225 26.64C523.225 27.7867 522.938 28.6667 522.365 29.28C521.805 29.8933 520.985 30.2 519.905 30.2Z" fill="black"/>
<path d="M476.334 31.6H523.665V33.2H476.334V31.6Z" fill="black"/>
<rect x="447" y="121" width="362" height="118" rx="9" fill="white" stroke="black" stroke-width="2"/>
<circle r="4.5" transform="matrix(-1 0 0 1 469.5 142.5)" fill="black"/>
<path d="M477.23 135H480.49C481.623 135 482.45 135.267 482.97 135.8C483.49 136.32 483.75 137.127 483.75 138.22V139.08C483.75 140.533 483.27 141.453 482.31 141.84V141.88C482.843 142.04 483.217 142.367 483.43 142.86C483.657 143.353 483.77 144.013 483.77 144.84V147.3C483.77 147.7 483.783 148.027 483.81 148.28C483.837 148.52 483.903 148.76 484.01 149H481.77C481.69 148.773 481.637 148.56 481.61 148.36C481.583 148.16 481.57 147.8 481.57 147.28V144.72C481.57 144.08 481.463 143.633 481.25 143.38C481.05 143.127 480.697 143 480.19 143H479.43V149H477.23V135ZM480.23 141C480.67 141 480.997 140.887 481.21 140.66C481.437 140.433 481.55 140.053 481.55 139.52V138.44C481.55 137.933 481.457 137.567 481.27 137.34C481.097 137.113 480.817 137 480.43 137H479.43V141H480.23ZM485.697 135H491.697V137H487.897V140.7H490.917V142.7H487.897V147H491.697V149H485.697V135ZM496.482 149.2C495.416 149.2 494.602 148.9 494.042 148.3C493.482 147.687 493.202 146.813 493.202 145.68V138.32C493.202 137.187 493.482 136.32 494.042 135.72C494.602 135.107 495.416 134.8 496.482 134.8C497.549 134.8 498.362 135.107 498.922 135.72C499.482 136.32 499.762 137.187 499.762 138.32V139.52H497.682V138.18C497.682 137.26 497.302 136.8 496.542 136.8C495.782 136.8 495.402 137.26 495.402 138.18V145.84C495.402 146.747 495.782 147.2 496.542 147.2C497.302 147.2 497.682 146.747 497.682 145.84V143.1H496.582V141.1H499.762V145.68C499.762 146.813 499.482 147.687 498.922 148.3C498.362 148.9 497.549 149.2 496.482 149.2ZM501.575 135H503.775V149H501.575V135ZM508.682 149.2C507.616 149.2 506.809 148.9 506.262 148.3C505.716 147.687 505.442 146.813 505.442 145.68V144.88H507.522V145.84C507.522 146.747 507.902 147.2 508.662 147.2C509.036 147.2 509.316 147.093 509.502 146.88C509.702 146.653 509.802 146.293 509.802 145.8C509.802 145.213 509.669 144.7 509.402 144.26C509.136 143.807 508.642 143.267 507.922 142.64C507.016 141.84 506.382 141.12 506.022 140.48C505.662 139.827 505.482 139.093 505.482 138.28C505.482 137.173 505.762 136.32 506.322 135.72C506.882 135.107 507.696 134.8 508.762 134.8C509.816 134.8 510.609 135.107 511.142 135.72C511.689 136.32 511.962 137.187 511.962 138.32V138.9H509.882V138.18C509.882 137.7 509.789 137.353 509.602 137.14C509.416 136.913 509.142 136.8 508.782 136.8C508.049 136.8 507.682 137.247 507.682 138.14C507.682 138.647 507.816 139.12 508.082 139.56C508.362 140 508.862 140.533 509.582 141.16C510.502 141.96 511.136 142.687 511.482 143.34C511.829 143.993 512.002 144.76 512.002 145.64C512.002 146.787 511.716 147.667 511.142 148.28C510.582 148.893 509.762 149.2 508.682 149.2ZM515.384 137H513.084V135H519.884V137H517.584V149H515.384V137ZM521.349 135H524.609C525.742 135 526.569 135.267 527.089 135.8C527.609 136.32 527.869 137.127 527.869 138.22V139.08C527.869 140.533 527.389 141.453 526.429 141.84V141.88C526.962 142.04 527.336 142.367 527.549 142.86C527.776 143.353 527.889 144.013 527.889 144.84V147.3C527.889 147.7 527.902 148.027 527.929 148.28C527.956 148.52 528.022 148.76 528.129 149H525.889C525.809 148.773 525.756 148.56 525.729 148.36C525.702 148.16 525.689 147.8 525.689 147.28V144.72C525.689 144.08 525.582 143.633 525.369 143.38C525.169 143.127 524.816 143 524.309 143H523.549V149H521.349V135ZM524.349 141C524.789 141 525.116 140.887 525.329 140.66C525.556 140.433 525.669 140.053 525.669 139.52V138.44C525.669 137.933 525.576 137.567 525.389 137.34C525.216 137.113 524.936 137 524.549 137H523.549V141H524.349ZM531.515 135H534.495L536.775 149H534.575L534.175 146.22V146.26H531.675L531.275 149H529.235L531.515 135ZM533.915 144.36L532.935 137.44H532.895L531.935 144.36H533.915ZM539.045 137H536.745V135H543.545V137H541.245V149H539.045V137ZM545.01 135H547.21V149H545.01V135ZM552.438 149.2C551.358 149.2 550.531 148.893 549.958 148.28C549.384 147.667 549.097 146.8 549.097 145.68V138.32C549.097 137.2 549.384 136.333 549.958 135.72C550.531 135.107 551.358 134.8 552.438 134.8C553.518 134.8 554.344 135.107 554.918 135.72C555.491 136.333 555.778 137.2 555.778 138.32V145.68C555.778 146.8 555.491 147.667 554.918 148.28C554.344 148.893 553.518 149.2 552.438 149.2ZM552.438 147.2C553.198 147.2 553.577 146.74 553.577 145.82V138.18C553.577 137.26 553.198 136.8 552.438 136.8C551.678 136.8 551.298 137.26 551.298 138.18V145.82C551.298 146.74 551.678 147.2 552.438 147.2ZM557.665 135H560.425L562.565 143.38H562.605V135H564.565V149H562.305L559.665 138.78H559.625V149H557.665V135ZM570.204 135H576.024V137H572.404V140.9H575.244V142.9H572.404V149H570.204V135ZM577.479 135H583.479V137H579.679V140.7H582.699V142.7H579.679V147H583.479V149H577.479V135ZM585.144 135H591.144V137H587.344V140.7H590.364V142.7H587.344V147H591.144V149H585.144V135Z" fill="black"/>
<path d="M476.41 150.6H591.584V152.2H476.41V150.6Z" fill="black"/>
<path d="M481.252 184.26C479.865 184.26 478.808 183.87 478.08 183.09C477.352 182.293 476.988 181.157 476.988 179.684V178.254H479.692V179.892C479.692 181.071 480.186 181.66 481.174 181.66C482.162 181.66 482.656 181.071 482.656 179.892V175.81C482.656 174.614 482.162 174.016 481.174 174.016C480.186 174.016 479.692 174.614 479.692 175.81V175.966H476.988L477.508 165.8H485.048V168.4H480.056L479.822 172.742H479.874C480.411 171.858 481.235 171.416 482.344 171.416C483.384 171.416 484.173 171.771 484.71 172.482C485.247 173.193 485.516 174.224 485.516 175.576V179.684C485.516 181.157 485.152 182.293 484.424 183.09C483.696 183.87 482.639 184.26 481.252 184.26ZM492.13 184.26C490.726 184.26 489.651 183.861 488.906 183.064C488.161 182.267 487.788 181.14 487.788 179.684V170.116C487.788 168.66 488.161 167.533 488.906 166.736C489.651 165.939 490.726 165.54 492.13 165.54C493.534 165.54 494.609 165.939 495.354 166.736C496.099 167.533 496.472 168.66 496.472 170.116V179.684C496.472 181.14 496.099 182.267 495.354 183.064C494.609 183.861 493.534 184.26 492.13 184.26ZM492.13 181.66C493.118 181.66 493.612 181.062 493.612 179.866V169.934C493.612 168.738 493.118 168.14 492.13 168.14C491.142 168.14 490.648 168.738 490.648 169.934V179.866C490.648 181.062 491.142 181.66 492.13 181.66ZM503.61 165.8H507.848C509.322 165.8 510.396 166.147 511.072 166.84C511.748 167.516 512.086 168.565 512.086 169.986V171.104C512.086 172.993 511.462 174.189 510.214 174.692V174.744C510.908 174.952 511.393 175.377 511.67 176.018C511.965 176.659 512.112 177.517 512.112 178.592V181.79C512.112 182.31 512.13 182.735 512.164 183.064C512.199 183.376 512.286 183.688 512.424 184H509.512C509.408 183.705 509.339 183.428 509.304 183.168C509.27 182.908 509.252 182.44 509.252 181.764V178.436C509.252 177.604 509.114 177.023 508.836 176.694C508.576 176.365 508.117 176.2 507.458 176.2H506.47V184H503.61V165.8ZM507.51 173.6C508.082 173.6 508.507 173.453 508.784 173.158C509.079 172.863 509.226 172.369 509.226 171.676V170.272C509.226 169.613 509.105 169.137 508.862 168.842C508.637 168.547 508.273 168.4 507.77 168.4H506.47V173.6H507.51ZM514.617 165.8H517.477V184H514.617V165.8ZM520.139 165.8H524.455C525.928 165.8 527.003 166.147 527.679 166.84C528.355 167.516 528.693 168.565 528.693 169.986V170.714C528.693 171.65 528.537 172.413 528.225 173.002C527.93 173.591 527.471 174.016 526.847 174.276V174.328C528.268 174.813 528.979 176.079 528.979 178.124V179.684C528.979 181.088 528.606 182.163 527.861 182.908C527.133 183.636 526.058 184 524.637 184H520.139V165.8ZM524.117 173.21C524.689 173.21 525.113 173.063 525.391 172.768C525.685 172.473 525.833 171.979 525.833 171.286V170.272C525.833 169.613 525.711 169.137 525.469 168.842C525.243 168.547 524.879 168.4 524.377 168.4H522.999V173.21H524.117ZM524.637 181.4C525.139 181.4 525.512 181.27 525.755 181.01C525.997 180.733 526.119 180.265 526.119 179.606V178.02C526.119 177.188 525.971 176.616 525.677 176.304C525.399 175.975 524.931 175.81 524.273 175.81H522.999V181.4H524.637ZM535.33 184.26C533.944 184.26 532.886 183.87 532.158 183.09C531.43 182.293 531.066 181.157 531.066 179.684V165.8H533.926V179.892C533.926 180.516 534.048 180.967 534.29 181.244C534.55 181.521 534.914 181.66 535.382 181.66C535.85 181.66 536.206 181.521 536.448 181.244C536.708 180.967 536.838 180.516 536.838 179.892V165.8H539.594V179.684C539.594 181.157 539.23 182.293 538.502 183.09C537.774 183.87 536.717 184.26 535.33 184.26ZM548.241 165.8H550.711L543.535 184H541.065L548.241 165.8ZM555.013 168.4H552.023V165.8H560.863V168.4H557.873V184H555.013V168.4ZM562.767 165.8H570.567V168.4H565.627V173.21H569.553V175.81H565.627V181.4H570.567V184H562.767V165.8ZM574.943 165.8H578.817L581.781 184H578.921L578.401 180.386V180.438H575.151L574.631 184H571.979L574.943 165.8ZM578.063 177.968L576.789 168.972H576.737L575.489 177.968H578.063ZM583.688 165.8H587.77L589.59 178.826H589.642L591.462 165.8H595.544V184H592.84V170.22H592.788L590.708 184H588.316L586.236 170.22H586.184V184H583.688V165.8Z" fill="black"/>
<circle r="4.5" transform="matrix(-1 0 0 1 23.5 277.5)" fill="black"/>
<path d="M31.0106 270H34.2506C35.344 270 36.164 270.293 36.7106 270.88C37.2573 271.467 37.5306 272.327 37.5306 273.46V274.84C37.5306 275.973 37.2573 276.833 36.7106 277.42C36.164 278.007 35.344 278.3 34.2506 278.3H33.2106V284H31.0106V270ZM34.2506 276.3C34.6106 276.3 34.8773 276.2 35.0506 276C35.2373 275.8 35.3306 275.46 35.3306 274.98V273.32C35.3306 272.84 35.2373 272.5 35.0506 272.3C34.8773 272.1 34.6106 272 34.2506 272H33.2106V276.3H34.2506ZM40.1223 270H43.1023L45.3823 284H43.1823L42.7823 281.22V281.26H40.2823L39.8823 284H37.8423L40.1223 270ZM42.5223 279.36L41.5423 272.44H41.5023L40.5423 279.36H42.5223ZM46.8497 270H50.1097C51.243 270 52.0697 270.267 52.5897 270.8C53.1097 271.32 53.3697 272.127 53.3697 273.22V274.08C53.3697 275.533 52.8897 276.453 51.9297 276.84V276.88C52.463 277.04 52.8364 277.367 53.0497 277.86C53.2764 278.353 53.3897 279.013 53.3897 279.84V282.3C53.3897 282.7 53.403 283.027 53.4297 283.28C53.4564 283.52 53.523 283.76 53.6297 284H51.3897C51.3097 283.773 51.2564 283.56 51.2297 283.36C51.203 283.16 51.1897 282.8 51.1897 282.28V279.72C51.1897 279.08 51.083 278.633 50.8697 278.38C50.6697 278.127 50.3164 278 49.8097 278H49.0497V284H46.8497V270ZM49.8497 276C50.2897 276 50.6164 275.887 50.8297 275.66C51.0564 275.433 51.1697 275.053 51.1697 274.52V273.44C51.1697 272.933 51.0764 272.567 50.8897 272.34C50.7164 272.113 50.4364 272 50.0497 272H49.0497V276H49.8497ZM56.997 272H54.697V270H61.497V272H59.197V284H56.997V272ZM62.9622 270H65.7222L67.8622 278.38H67.9022V270H69.8622V284H67.6022L64.9622 273.78H64.9222V284H62.9622V270ZM71.8973 270H77.8973V272H74.0973V275.7H77.1173V277.7H74.0973V282H77.8973V284H71.8973V270ZM79.563 270H82.823C83.9563 270 84.783 270.267 85.303 270.8C85.823 271.32 86.083 272.127 86.083 273.22V274.08C86.083 275.533 85.603 276.453 84.643 276.84V276.88C85.1763 277.04 85.5496 277.367 85.763 277.86C85.9896 278.353 86.103 279.013 86.103 279.84V282.3C86.103 282.7 86.1163 283.027 86.143 283.28C86.1696 283.52 86.2363 283.76 86.343 284H84.103C84.023 283.773 83.9696 283.56 83.943 283.36C83.9163 283.16 83.903 282.8 83.903 282.28V279.72C83.903 279.08 83.7963 278.633 83.583 278.38C83.383 278.127 83.0296 278 82.523 278H81.763V284H79.563V270ZM82.563 276C83.003 276 83.3296 275.887 83.543 275.66C83.7696 275.433 83.883 275.053 83.883 274.52V273.44C83.883 272.933 83.7896 272.567 83.603 272.34C83.4296 272.113 83.1496 272 82.763 272H81.763V276H82.563Z" fill="black"/>
<path d="M30.1906 285.6H86.803V287.2H30.1906V285.6Z" fill="black"/>
</svg>
