<svg width="810" height="472" viewBox="0 0 810 472" fill="none" xmlns="http://www.w3.org/2000/svg">
<rect x="1" y="1" width="362" height="90" rx="9" fill="white" stroke="black" stroke-width="2"/>
<rect x="447" y="269" width="362" height="88" rx="9" fill="white" stroke="black" stroke-width="2"/>
<rect x="447" y="381" width="362" height="90" rx="9" fill="#1FD57D" stroke="black" stroke-width="2"/>
<circle r="4.5" transform="matrix(-1 0 0 1 23.5 22.5)" fill="black"/>
<path d="M31.297 15H33.497V27H37.117V29H31.297V15ZM41.6738 29.2C40.5938 29.2 39.7672 28.8933 39.1938 28.28C38.6205 27.6667 38.3338 26.8 38.3338 25.68V18.32C38.3338 17.2 38.6205 16.3333 39.1938 15.72C39.7672 15.1067 40.5938 14.8 41.6738 14.8C42.7538 14.8 43.5805 15.1067 44.1538 15.72C44.7272 16.3333 45.0138 17.2 45.0138 18.32V25.68C45.0138 26.8 44.7272 27.6667 44.1538 28.28C43.5805 28.8933 42.7538 29.2 41.6738 29.2ZM41.6738 27.2C42.4338 27.2 42.8138 26.74 42.8138 25.82V18.18C42.8138 17.26 42.4338 16.8 41.6738 16.8C40.9138 16.8 40.5338 17.26 40.5338 18.18V25.82C40.5338 26.74 40.9138 27.2 41.6738 27.2ZM50.0016 29.2C48.9483 29.2 48.1416 28.9 47.5816 28.3C47.035 27.7 46.7616 26.8533 46.7616 25.76V18.24C46.7616 17.1467 47.035 16.3 47.5816 15.7C48.1416 15.1 48.9483 14.8 50.0016 14.8C51.055 14.8 51.855 15.1 52.4016 15.7C52.9616 16.3 53.2416 17.1467 53.2416 18.24V19.72H51.1616V18.1C51.1616 17.2333 50.795 16.8 50.0616 16.8C49.3283 16.8 48.9616 17.2333 48.9616 18.1V25.92C48.9616 26.7733 49.3283 27.2 50.0616 27.2C50.795 27.2 51.1616 26.7733 51.1616 25.92V23.78H53.2416V25.76C53.2416 26.8533 52.9616 27.7 52.4016 28.3C51.855 28.9 51.055 29.2 50.0016 29.2ZM56.6579 15H59.6379L61.9179 29H59.7179L59.3179 26.22V26.26H56.8179L56.4179 29H54.3779L56.6579 15ZM59.0579 24.36L58.0779 17.44H58.0379L57.0779 24.36H59.0579ZM64.1873 17H61.8873V15H68.6873V17H66.3873V29H64.1873V17ZM70.1524 15H72.3524V29H70.1524V15ZM77.5801 29.2C76.5001 29.2 75.6734 28.8933 75.1001 28.28C74.5267 27.6667 74.2401 26.8 74.2401 25.68V18.32C74.2401 17.2 74.5267 16.3333 75.1001 15.72C75.6734 15.1067 76.5001 14.8 77.5801 14.8C78.6601 14.8 79.4867 15.1067 80.0601 15.72C80.6334 16.3333 80.9201 17.2 80.9201 18.32V25.68C80.9201 26.8 80.6334 27.6667 80.0601 28.28C79.4867 28.8933 78.6601 29.2 77.5801 29.2ZM77.5801 27.2C78.3401 27.2 78.7201 26.74 78.7201 25.82V18.18C78.7201 17.26 78.3401 16.8 77.5801 16.8C76.8201 16.8 76.4401 17.26 76.4401 18.18V25.82C76.4401 26.74 76.8201 27.2 77.5801 27.2ZM82.8079 15H85.5679L87.7079 23.38H87.7479V15H89.7079V29H87.4479L84.8079 18.78H84.7679V29H82.8079V15Z" fill="black"/>
<path d="M30.477 30.6H90.5279V32.2H30.477V30.6Z" fill="black"/>
<path d="M33.6729 50.8H37.5469L40.5109 69H37.6509L37.1309 65.386V65.438H33.8809L33.3609 69H30.7089L33.6729 50.8ZM36.7929 62.968L35.5189 53.972H35.4669L34.2189 62.968H36.7929ZM43.4611 53.4H40.4711V50.8H49.3111V53.4H46.3211V69H43.4611V53.4ZM51.2158 50.8H54.0758V66.4H58.7818V69H51.2158V50.8ZM62.9848 50.8H66.8588L69.8228 69H66.9628L66.4428 65.386V65.438H63.1928L62.6728 69H60.0208L62.9848 50.8ZM66.1048 62.968L64.8308 53.972H64.7788L63.5308 62.968H66.1048ZM71.7304 50.8H75.3184L78.1004 61.694H78.1524V50.8H80.7004V69H77.7624L74.3304 55.714H74.2784V69H71.7304V50.8ZM85.5821 53.4H82.5921V50.8H91.4321V53.4H88.4421V69H85.5821V53.4ZM94.3534 50.8H98.2274L101.191 69H98.3314L97.8114 65.386V65.438H94.5614L94.0414 69H91.3894L94.3534 50.8ZM97.4734 62.968L96.1994 53.972H96.1474L94.8994 62.968H97.4734ZM104.289 69H103.353V66.244H106.109V68.714L104.679 72.12H103.353L104.289 69ZM117.513 69.26C116.127 69.26 115.069 68.87 114.341 68.09C113.613 67.2927 113.249 66.1573 113.249 64.684V55.116C113.249 53.6427 113.613 52.516 114.341 51.736C115.069 50.9387 116.127 50.54 117.513 50.54C118.9 50.54 119.957 50.9387 120.685 51.736C121.413 52.516 121.777 53.6427 121.777 55.116V56.676H119.073V54.934C119.073 53.738 118.579 53.14 117.591 53.14C116.603 53.14 116.109 53.738 116.109 54.934V64.892C116.109 66.0707 116.603 66.66 117.591 66.66C118.579 66.66 119.073 66.0707 119.073 64.892V61.33H117.643V58.73H121.777V64.684C121.777 66.1573 121.413 67.2927 120.685 68.09C119.957 68.87 118.9 69.26 117.513 69.26ZM124.134 50.8H131.934V53.4H126.994V58.21H130.92V60.81H126.994V66.4H131.934V69H124.134V50.8ZM138.233 69.26C136.829 69.26 135.754 68.8613 135.009 68.064C134.264 67.2667 133.891 66.14 133.891 64.684V55.116C133.891 53.66 134.264 52.5333 135.009 51.736C135.754 50.9387 136.829 50.54 138.233 50.54C139.637 50.54 140.712 50.9387 141.457 51.736C142.202 52.5333 142.575 53.66 142.575 55.116V64.684C142.575 66.14 142.202 67.2667 141.457 68.064C140.712 68.8613 139.637 69.26 138.233 69.26ZM138.233 66.66C139.221 66.66 139.715 66.062 139.715 64.866V54.934C139.715 53.738 139.221 53.14 138.233 53.14C137.245 53.14 136.751 53.738 136.751 54.934V64.866C136.751 66.062 137.245 66.66 138.233 66.66ZM145.029 50.8H149.267C150.74 50.8 151.815 51.1467 152.491 51.84C153.167 52.516 153.505 53.5647 153.505 54.986V56.104C153.505 57.9933 152.881 59.1893 151.633 59.692V59.744C152.326 59.952 152.812 60.3767 153.089 61.018C153.384 61.6593 153.531 62.5173 153.531 63.592V66.79C153.531 67.31 153.548 67.7347 153.583 68.064C153.618 68.376 153.704 68.688 153.843 69H150.931C150.827 68.7053 150.758 68.428 150.723 68.168C150.688 67.908 150.671 67.44 150.671 66.764V63.436C150.671 62.604 150.532 62.0233 150.255 61.694C149.995 61.3647 149.536 61.2 148.877 61.2H147.889V69H145.029V50.8ZM148.929 58.6C149.501 58.6 149.926 58.4527 150.203 58.158C150.498 57.8633 150.645 57.3693 150.645 56.676V55.272C150.645 54.6133 150.524 54.1367 150.281 53.842C150.056 53.5473 149.692 53.4 149.189 53.4H147.889V58.6H148.929ZM160.091 69.26C158.705 69.26 157.647 68.87 156.919 68.09C156.191 67.2927 155.827 66.1573 155.827 64.684V55.116C155.827 53.6427 156.191 52.516 156.919 51.736C157.647 50.9387 158.705 50.54 160.091 50.54C161.478 50.54 162.535 50.9387 163.263 51.736C163.991 52.516 164.355 53.6427 164.355 55.116V56.676H161.651V54.934C161.651 53.738 161.157 53.14 160.169 53.14C159.181 53.14 158.687 53.738 158.687 54.934V64.892C158.687 66.0707 159.181 66.66 160.169 66.66C161.157 66.66 161.651 66.0707 161.651 64.892V61.33H160.221V58.73H164.355V64.684C164.355 66.1573 163.991 67.2927 163.263 68.09C162.535 68.87 161.478 69.26 160.091 69.26ZM166.712 50.8H169.572V69H166.712V50.8ZM174.444 50.8H178.318L181.282 69H178.422L177.902 65.386V65.438H174.652L174.132 69H171.48L174.444 50.8ZM177.564 62.968L176.29 53.972H176.238L174.99 62.968H177.564Z" fill="black"/>
<rect x="1" y="119" width="362" height="90" rx="9" fill="white" stroke="black" stroke-width="2"/>
<circle r="4.5" transform="matrix(-1 0 0 1 23.5 142.5)" fill="black"/>
<path d="M30.847 135H34.207C35.3003 135 36.1203 135.293 36.667 135.88C37.2136 136.467 37.487 137.327 37.487 138.46V145.54C37.487 146.673 37.2136 147.533 36.667 148.12C36.1203 148.707 35.3003 149 34.207 149H30.847V135ZM34.167 147C34.527 147 34.8003 146.893 34.987 146.68C35.187 146.467 35.287 146.12 35.287 145.64V138.36C35.287 137.88 35.187 137.533 34.987 137.32C34.8003 137.107 34.527 137 34.167 137H33.047V147H34.167ZM41.0329 135H44.0129L46.2929 149H44.0929L43.6929 146.22V146.26H41.1929L40.7929 149H38.7529L41.0329 135ZM43.4329 144.36L42.4529 137.44H42.4129L41.4529 144.36H43.4329ZM48.5623 137H46.2623V135H53.0623V137H50.7623V149H48.5623V137ZM54.5274 135H60.5274V137H56.7274V140.7H59.7474V142.7H56.7274V147H60.5274V149H54.5274V135Z" fill="black"/>
<path d="M30.027 150.6H60.9674V152.2H30.027V150.6Z" fill="black"/>
<path d="M36.1612 180.698H30.7012V178.098L35.9012 165.8H39.0212V178.098H40.3732V180.698H39.0212V184H36.1612V180.698ZM36.1612 178.098V171H36.1092L33.3012 178.098H36.1612ZM41.8913 173.6H47.6113V176.2H41.8913V173.6ZM53.8391 170.116H50.8491V168.088C51.6638 168.088 52.3138 168.019 52.7991 167.88C53.3018 167.741 53.7005 167.516 53.9951 167.204C54.2898 166.875 54.5498 166.407 54.7751 165.8H56.6991V184H53.8391V170.116ZM64.8993 184.26C63.4953 184.26 62.4206 183.861 61.6753 183.064C60.93 182.267 60.5573 181.14 60.5573 179.684V170.116C60.5573 168.66 60.93 167.533 61.6753 166.736C62.4206 165.939 63.4953 165.54 64.8993 165.54C66.3033 165.54 67.378 165.939 68.1233 166.736C68.8686 167.533 69.2413 168.66 69.2413 170.116V179.684C69.2413 181.14 68.8686 182.267 68.1233 183.064C67.378 183.861 66.3033 184.26 64.8993 184.26ZM64.8993 181.66C65.8873 181.66 66.3813 181.062 66.3813 179.866V169.934C66.3813 168.738 65.8873 168.14 64.8993 168.14C63.9113 168.14 63.4173 168.738 63.4173 169.934V179.866C63.4173 181.062 63.9113 181.66 64.8993 181.66ZM78.5895 165.8H82.4635L85.4275 184H82.5675L82.0475 180.386V180.438H78.7975L78.2775 184H75.6255L78.5895 165.8ZM81.7095 177.968L80.4355 168.972H80.3835L79.1355 177.968H81.7095ZM87.3351 165.8H91.5471C92.9684 165.8 94.0344 166.181 94.7451 166.944C95.4557 167.707 95.8111 168.825 95.8111 170.298V172.092C95.8111 173.565 95.4557 174.683 94.7451 175.446C94.0344 176.209 92.9684 176.59 91.5471 176.59H90.1951V184H87.3351V165.8ZM91.5471 173.99C92.0151 173.99 92.3617 173.86 92.5871 173.6C92.8297 173.34 92.9511 172.898 92.9511 172.274V170.116C92.9511 169.492 92.8297 169.05 92.5871 168.79C92.3617 168.53 92.0151 168.4 91.5471 168.4H90.1951V173.99H91.5471ZM97.8844 165.8H102.122C103.596 165.8 104.67 166.147 105.346 166.84C106.022 167.516 106.36 168.565 106.36 169.986V171.104C106.36 172.993 105.736 174.189 104.488 174.692V174.744C105.182 174.952 105.667 175.377 105.944 176.018C106.239 176.659 106.386 177.517 106.386 178.592V181.79C106.386 182.31 106.404 182.735 106.438 183.064C106.473 183.376 106.56 183.688 106.698 184H103.786C103.682 183.705 103.613 183.428 103.578 183.168C103.544 182.908 103.526 182.44 103.526 181.764V178.436C103.526 177.604 103.388 177.023 103.11 176.694C102.85 176.365 102.391 176.2 101.732 176.2H100.744V184H97.8844V165.8ZM101.784 173.6C102.356 173.6 102.781 173.453 103.058 173.158C103.353 172.863 103.5 172.369 103.5 171.676V170.272C103.5 169.613 103.379 169.137 103.136 168.842C102.911 168.547 102.547 168.4 102.044 168.4H100.744V173.6H101.784ZM108.891 165.8H111.751V184H108.891V165.8ZM114.413 165.8H117.273V181.4H121.979V184H114.413V165.8ZM128.502 182.024C128.502 180.724 128.71 179.615 129.126 178.696C129.542 177.76 130.288 176.729 131.362 175.602C132.42 174.475 133.148 173.513 133.546 172.716C133.962 171.919 134.17 171.087 134.17 170.22C134.17 169.44 134.04 168.903 133.78 168.608C133.538 168.296 133.174 168.14 132.688 168.14C131.7 168.14 131.206 168.738 131.206 169.934V171.884H128.502V170.116C128.502 168.643 128.866 167.516 129.594 166.736C130.322 165.939 131.38 165.54 132.766 165.54C134.153 165.54 135.21 165.939 135.938 166.736C136.666 167.516 137.03 168.643 137.03 170.116C137.03 171.225 136.762 172.309 136.224 173.366C135.704 174.423 134.794 175.637 133.494 177.006C132.645 177.907 132.073 178.644 131.778 179.216C131.484 179.771 131.336 180.369 131.336 181.01V181.4H136.77V184H128.502V182.024ZM143.618 184.26C142.214 184.26 141.14 183.861 140.394 183.064C139.649 182.267 139.276 181.14 139.276 179.684V170.116C139.276 168.66 139.649 167.533 140.394 166.736C141.14 165.939 142.214 165.54 143.618 165.54C145.022 165.54 146.097 165.939 146.842 166.736C147.588 167.533 147.96 168.66 147.96 170.116V179.684C147.96 181.14 147.588 182.267 146.842 183.064C146.097 183.861 145.022 184.26 143.618 184.26ZM143.618 181.66C144.606 181.66 145.1 181.062 145.1 179.866V169.934C145.1 168.738 144.606 168.14 143.618 168.14C142.63 168.14 142.136 168.738 142.136 169.934V179.866C142.136 181.062 142.63 181.66 143.618 181.66ZM150.363 182.024C150.363 180.724 150.571 179.615 150.987 178.696C151.403 177.76 152.148 176.729 153.223 175.602C154.28 174.475 155.008 173.513 155.407 172.716C155.823 171.919 156.031 171.087 156.031 170.22C156.031 169.44 155.901 168.903 155.641 168.608C155.398 168.296 155.034 168.14 154.549 168.14C153.561 168.14 153.067 168.738 153.067 169.934V171.884H150.363V170.116C150.363 168.643 150.727 167.516 151.455 166.736C152.183 165.939 153.24 165.54 154.627 165.54C156.013 165.54 157.071 165.939 157.799 166.736C158.527 167.516 158.891 168.643 158.891 170.116C158.891 171.225 158.622 172.309 158.085 173.366C157.565 174.423 156.655 175.637 155.355 177.006C154.505 177.907 153.933 178.644 153.639 179.216C153.344 179.771 153.197 180.369 153.197 181.01V181.4H158.631V184H150.363V182.024ZM161.293 182.024C161.293 180.724 161.501 179.615 161.917 178.696C162.333 177.76 163.078 176.729 164.153 175.602C165.21 174.475 165.938 173.513 166.337 172.716C166.753 171.919 166.961 171.087 166.961 170.22C166.961 169.44 166.831 168.903 166.571 168.608C166.328 168.296 165.964 168.14 165.479 168.14C164.491 168.14 163.997 168.738 163.997 169.934V171.884H161.293V170.116C161.293 168.643 161.657 167.516 162.385 166.736C163.113 165.939 164.17 165.54 165.557 165.54C166.943 165.54 168.001 165.939 168.729 166.736C169.457 167.516 169.821 168.643 169.821 170.116C169.821 171.225 169.552 172.309 169.015 173.366C168.495 174.423 167.585 175.637 166.285 177.006C165.435 177.907 164.863 178.644 164.569 179.216C164.274 179.771 164.127 180.369 164.127 181.01V181.4H169.561V184H161.293V182.024Z" fill="black"/>
<path d="M584.078 301.8H588.29C589.711 301.8 590.777 302.181 591.488 302.944C592.199 303.707 592.554 304.825 592.554 306.298V308.092C592.554 309.565 592.199 310.683 591.488 311.446C590.777 312.209 589.711 312.59 588.29 312.59H586.938V320H584.078V301.8ZM588.29 309.99C588.758 309.99 589.105 309.86 589.33 309.6C589.573 309.34 589.694 308.898 589.694 308.274V306.116C589.694 305.492 589.573 305.05 589.33 304.79C589.105 304.53 588.758 304.4 588.29 304.4H586.938V309.99H588.29ZM594.627 301.8H598.865C600.339 301.8 601.413 302.147 602.089 302.84C602.765 303.516 603.103 304.565 603.103 305.986V307.104C603.103 308.993 602.479 310.189 601.231 310.692V310.744C601.925 310.952 602.41 311.377 602.687 312.018C602.982 312.659 603.129 313.517 603.129 314.592V317.79C603.129 318.31 603.147 318.735 603.181 319.064C603.216 319.376 603.303 319.688 603.441 320H600.529C600.425 319.705 600.356 319.428 600.321 319.168C600.287 318.908 600.269 318.44 600.269 317.764V314.436C600.269 313.604 600.131 313.023 599.853 312.694C599.593 312.365 599.134 312.2 598.475 312.2H597.487V320H594.627V301.8ZM598.527 309.6C599.099 309.6 599.524 309.453 599.801 309.158C600.096 308.863 600.243 308.369 600.243 307.676V306.272C600.243 305.613 600.122 305.137 599.879 304.842C599.654 304.547 599.29 304.4 598.787 304.4H597.487V309.6H598.527ZM609.768 320.26C608.364 320.26 607.289 319.861 606.544 319.064C605.798 318.267 605.426 317.14 605.426 315.684V306.116C605.426 304.66 605.798 303.533 606.544 302.736C607.289 301.939 608.364 301.54 609.768 301.54C611.172 301.54 612.246 301.939 612.992 302.736C613.737 303.533 614.11 304.66 614.11 306.116V315.684C614.11 317.14 613.737 318.267 612.992 319.064C612.246 319.861 611.172 320.26 609.768 320.26ZM609.768 317.66C610.756 317.66 611.25 317.062 611.25 315.866V305.934C611.25 304.738 610.756 304.14 609.768 304.14C608.78 304.14 608.286 304.738 608.286 305.934V315.866C608.286 317.062 608.78 317.66 609.768 317.66ZM616.564 301.8H620.776C622.197 301.8 623.263 302.181 623.974 302.944C624.684 303.707 625.04 304.825 625.04 306.298V308.092C625.04 309.565 624.684 310.683 623.974 311.446C623.263 312.209 622.197 312.59 620.776 312.59H619.424V320H616.564V301.8ZM620.776 309.99C621.244 309.99 621.59 309.86 621.816 309.6C622.058 309.34 622.18 308.898 622.18 308.274V306.116C622.18 305.492 622.058 305.05 621.816 304.79C621.59 304.53 621.244 304.4 620.776 304.4H619.424V309.99H620.776ZM631.247 320.26C629.843 320.26 628.768 319.861 628.023 319.064C627.278 318.267 626.905 317.14 626.905 315.684V306.116C626.905 304.66 627.278 303.533 628.023 302.736C628.768 301.939 629.843 301.54 631.247 301.54C632.651 301.54 633.726 301.939 634.471 302.736C635.216 303.533 635.589 304.66 635.589 306.116V315.684C635.589 317.14 635.216 318.267 634.471 319.064C633.726 319.861 632.651 320.26 631.247 320.26ZM631.247 317.66C632.235 317.66 632.729 317.062 632.729 315.866V305.934C632.729 304.738 632.235 304.14 631.247 304.14C630.259 304.14 629.765 304.738 629.765 305.934V315.866C629.765 317.062 630.259 317.66 631.247 317.66ZM641.761 320.26C640.375 320.26 639.326 319.87 638.615 319.09C637.905 318.293 637.549 317.157 637.549 315.684V314.644H640.253V315.892C640.253 317.071 640.747 317.66 641.735 317.66C642.221 317.66 642.585 317.521 642.827 317.244C643.087 316.949 643.217 316.481 643.217 315.84C643.217 315.077 643.044 314.41 642.697 313.838C642.351 313.249 641.709 312.547 640.773 311.732C639.595 310.692 638.771 309.756 638.303 308.924C637.835 308.075 637.601 307.121 637.601 306.064C637.601 304.625 637.965 303.516 638.693 302.736C639.421 301.939 640.479 301.54 641.865 301.54C643.235 301.54 644.266 301.939 644.959 302.736C645.67 303.516 646.025 304.643 646.025 306.116V306.87H643.321V305.934C643.321 305.31 643.2 304.859 642.957 304.582C642.715 304.287 642.359 304.14 641.891 304.14C640.938 304.14 640.461 304.721 640.461 305.882C640.461 306.541 640.635 307.156 640.981 307.728C641.345 308.3 641.995 308.993 642.931 309.808C644.127 310.848 644.951 311.793 645.401 312.642C645.852 313.491 646.077 314.488 646.077 315.632C646.077 317.123 645.705 318.267 644.959 319.064C644.231 319.861 643.165 320.26 641.761 320.26ZM650.371 301.8H654.245L657.209 320H654.349L653.829 316.386V316.438H650.579L650.059 320H647.407L650.371 301.8ZM653.491 313.968L652.217 304.972H652.165L650.917 313.968H653.491ZM659.116 301.8H661.976V317.4H666.682V320H659.116V301.8Z" fill="black"/>
<path d="M600.255 409.26C598.885 409.26 597.837 408.87 597.109 408.09C596.398 407.31 596.043 406.209 596.043 404.788V395.012C596.043 393.591 596.398 392.49 597.109 391.71C597.837 390.93 598.885 390.54 600.255 390.54C601.624 390.54 602.664 390.93 603.375 391.71C604.103 392.49 604.467 393.591 604.467 395.012V396.936H601.763V394.83C601.763 393.703 601.286 393.14 600.333 393.14C599.379 393.14 598.903 393.703 598.903 394.83V404.996C598.903 406.105 599.379 406.66 600.333 406.66C601.286 406.66 601.763 406.105 601.763 404.996V402.214H604.467V404.788C604.467 406.209 604.103 407.31 603.375 408.09C602.664 408.87 601.624 409.26 600.255 409.26ZM608.908 390.8H612.782L615.746 409H612.886L612.366 405.386V405.438H609.116L608.596 409H605.944L608.908 390.8ZM612.028 402.968L610.754 393.972H610.702L609.454 402.968H612.028ZM617.653 390.8H620.513V406.4H625.219V409H617.653V390.8ZM627.111 390.8H629.971V406.4H634.677V409H627.111V390.8ZM645.412 409.26C644.026 409.26 642.968 408.87 642.24 408.09C641.512 407.293 641.148 406.157 641.148 404.684V390.8H644.008V404.892C644.008 405.516 644.13 405.967 644.372 406.244C644.632 406.521 644.996 406.66 645.464 406.66C645.932 406.66 646.288 406.521 646.53 406.244C646.79 405.967 646.92 405.516 646.92 404.892V390.8H649.676V404.684C649.676 406.157 649.312 407.293 648.584 408.09C647.856 408.87 646.799 409.26 645.412 409.26ZM655.951 409.26C654.565 409.26 653.516 408.87 652.805 408.09C652.095 407.293 651.739 406.157 651.739 404.684V403.644H654.443V404.892C654.443 406.071 654.937 406.66 655.925 406.66C656.411 406.66 656.775 406.521 657.017 406.244C657.277 405.949 657.407 405.481 657.407 404.84C657.407 404.077 657.234 403.41 656.887 402.838C656.541 402.249 655.899 401.547 654.963 400.732C653.785 399.692 652.961 398.756 652.493 397.924C652.025 397.075 651.791 396.121 651.791 395.064C651.791 393.625 652.155 392.516 652.883 391.736C653.611 390.939 654.669 390.54 656.055 390.54C657.425 390.54 658.456 390.939 659.149 391.736C659.86 392.516 660.215 393.643 660.215 395.116V395.87H657.511V394.934C657.511 394.31 657.39 393.859 657.147 393.582C656.905 393.287 656.549 393.14 656.081 393.14C655.128 393.14 654.651 393.721 654.651 394.882C654.651 395.541 654.825 396.156 655.171 396.728C655.535 397.3 656.185 397.993 657.121 398.808C658.317 399.848 659.141 400.793 659.591 401.642C660.042 402.491 660.267 403.488 660.267 404.632C660.267 406.123 659.895 407.267 659.149 408.064C658.421 408.861 657.355 409.26 655.951 409.26Z" fill="black"/>
<path d="M571.931 445.698H566.471V443.098L571.671 430.8H574.791V443.098H576.143V445.698H574.791V449H571.931V445.698ZM571.931 443.098V436H571.879L569.071 443.098H571.931ZM582.212 449.26C580.808 449.26 579.733 448.861 578.988 448.064C578.242 447.267 577.87 446.14 577.87 444.684V435.116C577.87 433.66 578.242 432.533 578.988 431.736C579.733 430.939 580.808 430.54 582.212 430.54C583.616 430.54 584.69 430.939 585.436 431.736C586.181 432.533 586.554 433.66 586.554 435.116V444.684C586.554 446.14 586.181 447.267 585.436 448.064C584.69 448.861 583.616 449.26 582.212 449.26ZM582.212 446.66C583.2 446.66 583.694 446.062 583.694 444.866V434.934C583.694 433.738 583.2 433.14 582.212 433.14C581.224 433.14 580.73 433.738 580.73 434.934V444.866C580.73 446.062 581.224 446.66 582.212 446.66ZM593.792 445.698H588.332V443.098L593.532 430.8H596.652V443.098H598.004V445.698H596.652V449H593.792V445.698ZM593.792 443.098V436H593.74L590.932 443.098H593.792ZM599.522 438.6H605.242V441.2H599.522V438.6ZM611.678 449.26C610.274 449.26 609.199 448.861 608.454 448.064C607.708 447.267 607.336 446.14 607.336 444.684V435.272C607.336 432.117 608.792 430.54 611.704 430.54C613.09 430.54 614.148 430.939 614.876 431.736C615.604 432.516 615.968 433.643 615.968 435.116V435.454H613.264V434.934C613.264 433.738 612.77 433.14 611.782 433.14C611.244 433.14 610.846 433.305 610.586 433.634C610.326 433.963 610.196 434.544 610.196 435.376V438.86H610.248C610.75 437.803 611.617 437.274 612.848 437.274C613.888 437.274 614.676 437.629 615.214 438.34C615.751 439.051 616.02 440.082 616.02 441.434V444.684C616.02 446.14 615.647 447.267 614.902 448.064C614.156 448.861 613.082 449.26 611.678 449.26ZM611.678 446.66C612.666 446.66 613.16 446.071 613.16 444.892V441.668C613.16 440.472 612.666 439.874 611.678 439.874C610.69 439.874 610.196 440.472 610.196 441.668V444.892C610.196 446.071 610.69 446.66 611.678 446.66ZM622.53 449.26C621.091 449.26 619.982 448.879 619.202 448.116C618.439 447.336 618.058 446.218 618.058 444.762V443.15C618.058 442.249 618.205 441.495 618.5 440.888C618.795 440.264 619.271 439.779 619.93 439.432V439.38C619.323 439.051 618.873 438.6 618.578 438.028C618.301 437.439 618.162 436.693 618.162 435.792V435.038C618.162 433.582 618.535 432.473 619.28 431.71C620.043 430.93 621.126 430.54 622.53 430.54C623.934 430.54 625.009 430.93 625.754 431.71C626.517 432.473 626.898 433.582 626.898 435.038V435.792C626.898 437.525 626.309 438.721 625.13 439.38V439.432C625.789 439.779 626.265 440.264 626.56 440.888C626.855 441.495 627.002 442.249 627.002 443.15V444.762C627.002 446.218 626.612 447.336 625.832 448.116C625.069 448.879 623.969 449.26 622.53 449.26ZM622.53 438.21C623.535 438.21 624.038 437.603 624.038 436.39V434.96C624.038 433.747 623.535 433.14 622.53 433.14C621.525 433.14 621.022 433.747 621.022 434.96V436.39C621.022 437.603 621.525 438.21 622.53 438.21ZM622.53 446.66C623.605 446.66 624.142 445.975 624.142 444.606V442.864C624.142 441.495 623.605 440.81 622.53 440.81C621.455 440.81 620.918 441.495 620.918 442.864V444.606C620.918 445.975 621.455 446.66 622.53 446.66ZM633.33 435.116H630.34V433.088C631.155 433.088 631.805 433.019 632.29 432.88C632.793 432.741 633.191 432.516 633.486 432.204C633.781 431.875 634.041 431.407 634.266 430.8H636.19V449H633.33V435.116ZM639.84 438.6H645.56V441.2H639.84V438.6ZM651.996 449.26C650.592 449.26 649.517 448.861 648.772 448.064C648.027 447.267 647.654 446.14 647.654 444.684V435.272C647.654 432.117 649.11 430.54 652.022 430.54C653.409 430.54 654.466 430.939 655.194 431.736C655.922 432.516 656.286 433.643 656.286 435.116V435.454H653.582V434.934C653.582 433.738 653.088 433.14 652.1 433.14C651.563 433.14 651.164 433.305 650.904 433.634C650.644 433.963 650.514 434.544 650.514 435.376V438.86H650.566C651.069 437.803 651.935 437.274 653.166 437.274C654.206 437.274 654.995 437.629 655.532 438.34C656.069 439.051 656.338 440.082 656.338 441.434V444.684C656.338 446.14 655.965 447.267 655.22 448.064C654.475 448.861 653.4 449.26 651.996 449.26ZM651.996 446.66C652.984 446.66 653.478 446.071 653.478 444.892V441.668C653.478 440.472 652.984 439.874 651.996 439.874C651.008 439.874 650.514 440.472 650.514 441.668V444.892C650.514 446.071 651.008 446.66 651.996 446.66ZM663.498 445.698H658.038V443.098L663.238 430.8H666.358V443.098H667.71V445.698H666.358V449H663.498V445.698ZM663.498 443.098V436H663.446L660.638 443.098H663.498ZM673.778 449.26C672.374 449.26 671.3 448.861 670.554 448.064C669.809 447.267 669.436 446.14 669.436 444.684V435.116C669.436 433.66 669.809 432.533 670.554 431.736C671.3 430.939 672.374 430.54 673.778 430.54C675.182 430.54 676.257 430.939 677.002 431.736C677.748 432.533 678.12 433.66 678.12 435.116V444.684C678.12 446.14 677.748 447.267 677.002 448.064C676.257 448.861 675.182 449.26 673.778 449.26ZM673.778 446.66C674.766 446.66 675.26 446.062 675.26 444.866V434.934C675.26 433.738 674.766 433.14 673.778 433.14C672.79 433.14 672.296 433.738 672.296 434.934V444.866C672.296 446.062 672.79 446.66 673.778 446.66ZM684.76 449.26C683.374 449.26 682.316 448.87 681.588 448.09C680.86 447.293 680.496 446.157 680.496 444.684V443.254H683.2V444.892C683.2 446.071 683.694 446.66 684.682 446.66C685.67 446.66 686.164 446.071 686.164 444.892V440.81C686.164 439.614 685.67 439.016 684.682 439.016C683.694 439.016 683.2 439.614 683.2 440.81V440.966H680.496L681.016 430.8H688.556V433.4H683.564L683.33 437.742H683.382C683.92 436.858 684.743 436.416 685.852 436.416C686.892 436.416 687.681 436.771 688.218 437.482C688.756 438.193 689.024 439.224 689.024 440.576V444.684C689.024 446.157 688.66 447.293 687.932 448.09C687.204 448.87 686.147 449.26 684.76 449.26Z" fill="black"/>
<rect x="447" y="1" width="362" height="90" rx="9" fill="white" stroke="black" stroke-width="2"/>
<path d="M479.306 53.4H476.316V50.8H485.156V53.4H482.166V69H479.306V53.4ZM487.061 50.8H494.861V53.4H489.921V58.21H493.847V60.81H489.921V66.4H494.861V69H487.061V50.8ZM497.026 50.8H500.614L503.396 61.694H503.448V50.8H505.996V69H503.058L499.626 55.714H499.574V69H497.026V50.8ZM508.07 66.452L513.374 53.4H508.33V50.8H516.442V53.348L511.138 66.4H516.442V69H508.07V66.452Z" fill="black"/>
<rect x="1" y="252" width="362" height="219" rx="9" fill="white" stroke="black" stroke-width="2"/>
<circle r="4.5" transform="matrix(-1 0 0 1 469.5 22.5)" fill="black"/>
<path d="M480.274 30.2C479.207 30.2 478.394 29.9 477.834 29.3C477.274 28.6867 476.994 27.8133 476.994 26.68V19.32C476.994 18.1867 477.274 17.32 477.834 16.72C478.394 16.1067 479.207 15.8 480.274 15.8C481.341 15.8 482.154 16.1067 482.714 16.72C483.274 17.32 483.554 18.1867 483.554 19.32V20.52H481.474V19.18C481.474 18.26 481.094 17.8 480.334 17.8C479.574 17.8 479.194 18.26 479.194 19.18V26.84C479.194 27.7467 479.574 28.2 480.334 28.2C481.094 28.2 481.474 27.7467 481.474 26.84V24.1H480.374V22.1H483.554V26.68C483.554 27.8133 483.274 28.6867 482.714 29.3C482.154 29.9 481.341 30.2 480.274 30.2ZM488.566 30.2C487.5 30.2 486.686 29.9 486.126 29.3C485.566 28.6867 485.286 27.8133 485.286 26.68V16H487.486V26.84C487.486 27.32 487.58 27.6667 487.766 27.88C487.966 28.0933 488.246 28.2 488.606 28.2C488.966 28.2 489.24 28.0933 489.426 27.88C489.626 27.6667 489.726 27.32 489.726 26.84V16H491.846V26.68C491.846 27.8133 491.566 28.6867 491.006 29.3C490.446 29.9 489.633 30.2 488.566 30.2ZM493.813 16H499.813V18H496.013V21.7H499.033V23.7H496.013V28H499.813V30H493.813V16ZM504.378 30.2C503.311 30.2 502.505 29.9 501.958 29.3C501.411 28.6867 501.138 27.8133 501.138 26.68V25.88H503.218V26.84C503.218 27.7467 503.598 28.2 504.358 28.2C504.731 28.2 505.011 28.0933 505.198 27.88C505.398 27.6533 505.498 27.2933 505.498 26.8C505.498 26.2133 505.365 25.7 505.098 25.26C504.831 24.8067 504.338 24.2667 503.618 23.64C502.711 22.84 502.078 22.12 501.718 21.48C501.358 20.8267 501.178 20.0933 501.178 19.28C501.178 18.1733 501.458 17.32 502.018 16.72C502.578 16.1067 503.391 15.8 504.458 15.8C505.511 15.8 506.305 16.1067 506.838 16.72C507.385 17.32 507.658 18.1867 507.658 19.32V19.9H505.578V19.18C505.578 18.7 505.485 18.3533 505.298 18.14C505.111 17.9133 504.838 17.8 504.478 17.8C503.745 17.8 503.378 18.2467 503.378 19.14C503.378 19.6467 503.511 20.12 503.778 20.56C504.058 21 504.558 21.5333 505.278 22.16C506.198 22.96 506.831 23.6867 507.178 24.34C507.525 24.9933 507.698 25.76 507.698 26.64C507.698 27.7867 507.411 28.6667 506.838 29.28C506.278 29.8933 505.458 30.2 504.378 30.2ZM511.079 18H508.779V16H515.579V18H513.279V30H511.079V18ZM519.905 30.2C518.838 30.2 518.031 29.9 517.485 29.3C516.938 28.6867 516.665 27.8133 516.665 26.68V25.88H518.745V26.84C518.745 27.7467 519.125 28.2 519.885 28.2C520.258 28.2 520.538 28.0933 520.725 27.88C520.925 27.6533 521.025 27.2933 521.025 26.8C521.025 26.2133 520.891 25.7 520.625 25.26C520.358 24.8067 519.865 24.2667 519.145 23.64C518.238 22.84 517.605 22.12 517.245 21.48C516.885 20.8267 516.705 20.0933 516.705 19.28C516.705 18.1733 516.985 17.32 517.545 16.72C518.105 16.1067 518.918 15.8 519.985 15.8C521.038 15.8 521.831 16.1067 522.365 16.72C522.911 17.32 523.185 18.1867 523.185 19.32V19.9H521.105V19.18C521.105 18.7 521.011 18.3533 520.825 18.14C520.638 17.9133 520.365 17.8 520.005 17.8C519.271 17.8 518.905 18.2467 518.905 19.14C518.905 19.6467 519.038 20.12 519.305 20.56C519.585 21 520.085 21.5333 520.805 22.16C521.725 22.96 522.358 23.6867 522.705 24.34C523.051 24.9933 523.225 25.76 523.225 26.64C523.225 27.7867 522.938 28.6667 522.365 29.28C521.805 29.8933 520.985 30.2 519.905 30.2Z" fill="black"/>
<path d="M476.334 31.6H523.665V33.2H476.334V31.6Z" fill="black"/>
<path d="M35.096 325.26C33.7267 325.26 32.678 324.87 31.95 324.09C31.2393 323.31 30.884 322.209 30.884 320.788V311.012C30.884 309.591 31.2393 308.49 31.95 307.71C32.678 306.93 33.7267 306.54 35.096 306.54C36.4653 306.54 37.5053 306.93 38.216 307.71C38.944 308.49 39.308 309.591 39.308 311.012V312.936H36.604V310.83C36.604 309.703 36.1273 309.14 35.174 309.14C34.2207 309.14 33.744 309.703 33.744 310.83V320.996C33.744 322.105 34.2207 322.66 35.174 322.66C36.1273 322.66 36.604 322.105 36.604 320.996V318.214H39.308V320.788C39.308 322.209 38.944 323.31 38.216 324.09C37.5053 324.87 36.4653 325.26 35.096 325.26ZM45.7239 325.26C44.3199 325.26 43.2452 324.861 42.4999 324.064C41.7546 323.267 41.3819 322.14 41.3819 320.684V311.116C41.3819 309.66 41.7546 308.533 42.4999 307.736C43.2452 306.939 44.3199 306.54 45.7239 306.54C47.1279 306.54 48.2026 306.939 48.9479 307.736C49.6932 308.533 50.0659 309.66 50.0659 311.116V320.684C50.0659 322.14 49.6932 323.267 48.9479 324.064C48.2026 324.861 47.1279 325.26 45.7239 325.26ZM45.7239 322.66C46.7119 322.66 47.2059 322.062 47.2059 320.866V310.934C47.2059 309.738 46.7119 309.14 45.7239 309.14C44.7359 309.14 44.2419 309.738 44.2419 310.934V320.866C44.2419 322.062 44.7359 322.66 45.7239 322.66ZM56.5501 325.26C55.1807 325.26 54.1321 324.87 53.4041 324.09C52.6934 323.31 52.3381 322.209 52.3381 320.788V311.012C52.3381 309.591 52.6934 308.49 53.4041 307.71C54.1321 306.93 55.1807 306.54 56.5501 306.54C57.9194 306.54 58.9594 306.93 59.6701 307.71C60.3981 308.49 60.7621 309.591 60.7621 311.012V312.936H58.0581V310.83C58.0581 309.703 57.5814 309.14 56.6281 309.14C55.6747 309.14 55.1981 309.703 55.1981 310.83V320.996C55.1981 322.105 55.6747 322.66 56.6281 322.66C57.5814 322.66 58.0581 322.105 58.0581 320.996V318.214H60.7621V320.788C60.7621 322.209 60.3981 323.31 59.6701 324.09C58.9594 324.87 57.9194 325.26 56.5501 325.26ZM65.2032 306.8H69.0772L72.0412 325H69.1812L68.6612 321.386V321.438H65.4112L64.8912 325H62.2392L65.2032 306.8ZM68.3232 318.968L67.0492 309.972H66.9972L65.7492 318.968H68.3232ZM73.0249 314.6H78.7449V317.2H73.0249V314.6ZM84.9987 325.26C83.6294 325.26 82.5807 324.87 81.8527 324.09C81.1421 323.31 80.7867 322.209 80.7867 320.788V311.012C80.7867 309.591 81.1421 308.49 81.8527 307.71C82.5807 306.93 83.6294 306.54 84.9987 306.54C86.3681 306.54 87.4081 306.93 88.1187 307.71C88.8467 308.49 89.2107 309.591 89.2107 311.012V312.936H86.5067V310.83C86.5067 309.703 86.0301 309.14 85.0767 309.14C84.1234 309.14 83.6467 309.703 83.6467 310.83V320.996C83.6467 322.105 84.1234 322.66 85.0767 322.66C86.0301 322.66 86.5067 322.105 86.5067 320.996V318.214H89.2107V320.788C89.2107 322.209 88.8467 323.31 88.1187 324.09C87.4081 324.87 86.3681 325.26 84.9987 325.26ZM95.6266 325.26C94.2226 325.26 93.148 324.861 92.4026 324.064C91.6573 323.267 91.2846 322.14 91.2846 320.684V311.116C91.2846 309.66 91.6573 308.533 92.4026 307.736C93.148 306.939 94.2226 306.54 95.6266 306.54C97.0306 306.54 98.1053 306.939 98.8506 307.736C99.596 308.533 99.9686 309.66 99.9686 311.116V320.684C99.9686 322.14 99.596 323.267 98.8506 324.064C98.1053 324.861 97.0306 325.26 95.6266 325.26ZM95.6266 322.66C96.6146 322.66 97.1086 322.062 97.1086 320.866V310.934C97.1086 309.738 96.6146 309.14 95.6266 309.14C94.6386 309.14 94.1446 309.738 94.1446 310.934V320.866C94.1446 322.062 94.6386 322.66 95.6266 322.66ZM102.423 306.8H105.283V322.4H109.989V325H102.423V306.8ZM114.192 306.8H118.066L121.03 325H118.17L117.65 321.386V321.438H114.4L113.88 325H111.228L114.192 306.8ZM117.312 318.968L116.038 309.972H115.986L114.738 318.968H117.312ZM34.784 356.26C33.3973 356.26 32.3487 355.87 31.638 355.09C30.9273 354.293 30.572 353.157 30.572 351.684V350.644H33.276V351.892C33.276 353.071 33.77 353.66 34.758 353.66C35.2433 353.66 35.6073 353.521 35.85 353.244C36.11 352.949 36.24 352.481 36.24 351.84C36.24 351.077 36.0667 350.41 35.72 349.838C35.3733 349.249 34.732 348.547 33.796 347.732C32.6173 346.692 31.794 345.756 31.326 344.924C30.858 344.075 30.624 343.121 30.624 342.064C30.624 340.625 30.988 339.516 31.716 338.736C32.444 337.939 33.5013 337.54 34.888 337.54C36.2573 337.54 37.2887 337.939 37.982 338.736C38.6927 339.516 39.048 340.643 39.048 342.116V342.87H36.344V341.934C36.344 341.31 36.2227 340.859 35.98 340.582C35.7373 340.287 35.382 340.14 34.914 340.14C33.9607 340.14 33.484 340.721 33.484 341.882C33.484 342.541 33.6573 343.156 34.004 343.728C34.368 344.3 35.018 344.993 35.954 345.808C37.15 346.848 37.9733 347.793 38.424 348.642C38.8747 349.491 39.1 350.488 39.1 351.632C39.1 353.123 38.7273 354.267 37.982 355.064C37.254 355.861 36.188 356.26 34.784 356.26ZM43.4958 340.4H40.5058V337.8H49.3458V340.4H46.3558V356H43.4958V340.4ZM51.2505 337.8H59.0505V340.4H54.1105V345.21H58.0365V347.81H54.1105V353.4H59.0505V356H51.2505V337.8ZM63.4258 337.8H67.2998L70.2638 356H67.4038L66.8838 352.386V352.438H63.6338L63.1138 356H60.4618L63.4258 337.8ZM66.5458 349.968L65.2718 340.972H65.2198L63.9718 349.968H66.5458ZM72.1714 337.8H76.2534L78.0734 350.826H78.1254L79.9454 337.8H84.0274V356H81.3234V342.22H81.2714L79.1914 356H76.7994L74.7194 342.22H74.6674V356H72.1714V337.8ZM33.276 368.8H37.15L40.114 387H37.254L36.734 383.386V383.438H33.484L32.964 387H30.312L33.276 368.8ZM36.396 380.968L35.122 371.972H35.07L33.822 380.968H36.396ZM46.0008 387.26C44.6314 387.26 43.5828 386.87 42.8548 386.09C42.1441 385.31 41.7888 384.209 41.7888 382.788V373.012C41.7888 371.591 42.1441 370.49 42.8548 369.71C43.5828 368.93 44.6314 368.54 46.0008 368.54C47.3701 368.54 48.4101 368.93 49.1208 369.71C49.8488 370.49 50.2128 371.591 50.2128 373.012V374.936H47.5088V372.83C47.5088 371.703 47.0321 371.14 46.0788 371.14C45.1254 371.14 44.6488 371.703 44.6488 372.83V382.996C44.6488 384.105 45.1254 384.66 46.0788 384.66C47.0321 384.66 47.5088 384.105 47.5088 382.996V380.214H50.2128V382.788C50.2128 384.209 49.8488 385.31 49.1208 386.09C48.4101 386.87 47.3701 387.26 46.0008 387.26ZM54.6799 371.4H51.6899V368.8H60.5299V371.4H57.5399V387H54.6799V371.4ZM62.4346 368.8H65.2946V387H62.4346V368.8ZM67.2025 368.8H70.0885L71.9605 382.918H72.0125L73.8845 368.8H76.5105L73.7545 387H69.9585L67.2025 368.8ZM78.4043 368.8H81.2643V387H78.4043V368.8ZM87.6442 387.26C86.2576 387.26 85.2089 386.87 84.4982 386.09C83.7876 385.293 83.4322 384.157 83.4322 382.684V381.644H86.1362V382.892C86.1362 384.071 86.6302 384.66 87.6182 384.66C88.1036 384.66 88.4676 384.521 88.7102 384.244C88.9702 383.949 89.1002 383.481 89.1002 382.84C89.1002 382.077 88.9269 381.41 88.5802 380.838C88.2336 380.249 87.5922 379.547 86.6562 378.732C85.4776 377.692 84.6542 376.756 84.1862 375.924C83.7182 375.075 83.4842 374.121 83.4842 373.064C83.4842 371.625 83.8482 370.516 84.5762 369.736C85.3042 368.939 86.3616 368.54 87.7482 368.54C89.1176 368.54 90.1489 368.939 90.8422 369.736C91.5529 370.516 91.9082 371.643 91.9082 373.116V373.87H89.2042V372.934C89.2042 372.31 89.0829 371.859 88.8402 371.582C88.5976 371.287 88.2422 371.14 87.7742 371.14C86.8209 371.14 86.3442 371.721 86.3442 372.882C86.3442 373.541 86.5176 374.156 86.8642 374.728C87.2282 375.3 87.8782 375.993 88.8142 376.808C90.0102 377.848 90.8336 378.793 91.2842 379.642C91.7349 380.491 91.9602 381.488 91.9602 382.632C91.9602 384.123 91.5876 385.267 90.8422 386.064C90.1142 386.861 89.0482 387.26 87.6442 387.26ZM94.1201 368.8H96.9801V387H94.1201V368.8ZM103.776 387.26C102.372 387.26 101.297 386.861 100.552 386.064C99.8067 385.267 99.434 384.14 99.434 382.684V373.116C99.434 371.66 99.8067 370.533 100.552 369.736C101.297 368.939 102.372 368.54 103.776 368.54C105.18 368.54 106.255 368.939 107 369.736C107.745 370.533 108.118 371.66 108.118 373.116V382.684C108.118 384.14 107.745 385.267 107 386.064C106.255 386.861 105.18 387.26 103.776 387.26ZM103.776 384.66C104.764 384.66 105.258 384.062 105.258 382.866V372.934C105.258 371.738 104.764 371.14 103.776 371.14C102.788 371.14 102.294 371.738 102.294 372.934V382.866C102.294 384.062 102.788 384.66 103.776 384.66ZM110.572 368.8H114.16L116.942 379.694H116.994V368.8H119.542V387H116.604L113.172 373.714H113.12V387H110.572V368.8ZM31.066 399.8H35.382C36.8553 399.8 37.93 400.147 38.606 400.84C39.282 401.516 39.62 402.565 39.62 403.986V404.714C39.62 405.65 39.464 406.413 39.152 407.002C38.8573 407.591 38.398 408.016 37.774 408.276V408.328C39.1953 408.813 39.906 410.079 39.906 412.124V413.684C39.906 415.088 39.5333 416.163 38.788 416.908C38.06 417.636 36.9853 418 35.564 418H31.066V399.8ZM35.044 407.21C35.616 407.21 36.0407 407.063 36.318 406.768C36.6127 406.473 36.76 405.979 36.76 405.286V404.272C36.76 403.613 36.6387 403.137 36.396 402.842C36.1707 402.547 35.8067 402.4 35.304 402.4H33.926V407.21H35.044ZM35.564 415.4C36.0667 415.4 36.4393 415.27 36.682 415.01C36.9247 414.733 37.046 414.265 37.046 413.606V412.02C37.046 411.188 36.8987 410.616 36.604 410.304C36.3267 409.975 35.8587 409.81 35.2 409.81H33.926V415.4H35.564ZM44.3077 399.8H48.1817L51.1457 418H48.2857L47.7657 414.386V414.438H44.5157L43.9957 418H41.3437L44.3077 399.8ZM47.4277 411.968L46.1537 402.972H46.1017L44.8537 411.968H47.4277ZM54.0959 402.4H51.1059V399.8H59.9459V402.4H56.9559V418H54.0959V402.4ZM64.3405 402.4H61.3505V399.8H70.1905V402.4H67.2005V418H64.3405V402.4ZM72.0952 399.8H74.9552V415.4H79.6612V418H72.0952V399.8ZM81.5527 399.8H89.3527V402.4H84.4127V407.21H88.3387V409.81H84.4127V415.4H89.3527V418H81.5527V399.8ZM91.645 415.244H94.401V418H91.645V415.244ZM97.0654 399.8H100.653L103.435 410.694H103.487V399.8H106.035V418H103.097L99.6654 404.714H99.6134V418H97.0654V399.8ZM108.681 399.8H116.481V402.4H111.541V407.21H115.467V409.81H111.541V415.4H116.481V418H108.681V399.8ZM120.882 402.4H117.892V399.8H126.732V402.4H123.742V418H120.882V402.4Z" fill="black"/>
<rect x="447" y="121" width="362" height="118" rx="9" fill="white" stroke="black" stroke-width="2"/>
<circle r="4.5" transform="matrix(-1 0 0 1 469.5 142.5)" fill="black"/>
<path d="M477.23 135H480.49C481.623 135 482.45 135.267 482.97 135.8C483.49 136.32 483.75 137.127 483.75 138.22V139.08C483.75 140.533 483.27 141.453 482.31 141.84V141.88C482.843 142.04 483.217 142.367 483.43 142.86C483.657 143.353 483.77 144.013 483.77 144.84V147.3C483.77 147.7 483.783 148.027 483.81 148.28C483.837 148.52 483.903 148.76 484.01 149H481.77C481.69 148.773 481.637 148.56 481.61 148.36C481.583 148.16 481.57 147.8 481.57 147.28V144.72C481.57 144.08 481.463 143.633 481.25 143.38C481.05 143.127 480.697 143 480.19 143H479.43V149H477.23V135ZM480.23 141C480.67 141 480.997 140.887 481.21 140.66C481.437 140.433 481.55 140.053 481.55 139.52V138.44C481.55 137.933 481.457 137.567 481.27 137.34C481.097 137.113 480.817 137 480.43 137H479.43V141H480.23ZM485.697 135H491.697V137H487.897V140.7H490.917V142.7H487.897V147H491.697V149H485.697V135ZM496.482 149.2C495.416 149.2 494.602 148.9 494.042 148.3C493.482 147.687 493.202 146.813 493.202 145.68V138.32C493.202 137.187 493.482 136.32 494.042 135.72C494.602 135.107 495.416 134.8 496.482 134.8C497.549 134.8 498.362 135.107 498.922 135.72C499.482 136.32 499.762 137.187 499.762 138.32V139.52H497.682V138.18C497.682 137.26 497.302 136.8 496.542 136.8C495.782 136.8 495.402 137.26 495.402 138.18V145.84C495.402 146.747 495.782 147.2 496.542 147.2C497.302 147.2 497.682 146.747 497.682 145.84V143.1H496.582V141.1H499.762V145.68C499.762 146.813 499.482 147.687 498.922 148.3C498.362 148.9 497.549 149.2 496.482 149.2ZM501.575 135H503.775V149H501.575V135ZM508.682 149.2C507.616 149.2 506.809 148.9 506.262 148.3C505.716 147.687 505.442 146.813 505.442 145.68V144.88H507.522V145.84C507.522 146.747 507.902 147.2 508.662 147.2C509.036 147.2 509.316 147.093 509.502 146.88C509.702 146.653 509.802 146.293 509.802 145.8C509.802 145.213 509.669 144.7 509.402 144.26C509.136 143.807 508.642 143.267 507.922 142.64C507.016 141.84 506.382 141.12 506.022 140.48C505.662 139.827 505.482 139.093 505.482 138.28C505.482 137.173 505.762 136.32 506.322 135.72C506.882 135.107 507.696 134.8 508.762 134.8C509.816 134.8 510.609 135.107 511.142 135.72C511.689 136.32 511.962 137.187 511.962 138.32V138.9H509.882V138.18C509.882 137.7 509.789 137.353 509.602 137.14C509.416 136.913 509.142 136.8 508.782 136.8C508.049 136.8 507.682 137.247 507.682 138.14C507.682 138.647 507.816 139.12 508.082 139.56C508.362 140 508.862 140.533 509.582 141.16C510.502 141.96 511.136 142.687 511.482 143.34C511.829 143.993 512.002 144.76 512.002 145.64C512.002 146.787 511.716 147.667 511.142 148.28C510.582 148.893 509.762 149.2 508.682 149.2ZM515.384 137H513.084V135H519.884V137H517.584V149H515.384V137ZM521.349 135H524.609C525.742 135 526.569 135.267 527.089 135.8C527.609 136.32 527.869 137.127 527.869 138.22V139.08C527.869 140.533 527.389 141.453 526.429 141.84V141.88C526.962 142.04 527.336 142.367 527.549 142.86C527.776 143.353 527.889 144.013 527.889 144.84V147.3C527.889 147.7 527.902 148.027 527.929 148.28C527.956 148.52 528.022 148.76 528.129 149H525.889C525.809 148.773 525.756 148.56 525.729 148.36C525.702 148.16 525.689 147.8 525.689 147.28V144.72C525.689 144.08 525.582 143.633 525.369 143.38C525.169 143.127 524.816 143 524.309 143H523.549V149H521.349V135ZM524.349 141C524.789 141 525.116 140.887 525.329 140.66C525.556 140.433 525.669 140.053 525.669 139.52V138.44C525.669 137.933 525.576 137.567 525.389 137.34C525.216 137.113 524.936 137 524.549 137H523.549V141H524.349ZM531.515 135H534.495L536.775 149H534.575L534.175 146.22V146.26H531.675L531.275 149H529.235L531.515 135ZM533.915 144.36L532.935 137.44H532.895L531.935 144.36H533.915ZM539.045 137H536.745V135H543.545V137H541.245V149H539.045V137ZM545.01 135H547.21V149H545.01V135ZM552.438 149.2C551.358 149.2 550.531 148.893 549.958 148.28C549.384 147.667 549.097 146.8 549.097 145.68V138.32C549.097 137.2 549.384 136.333 549.958 135.72C550.531 135.107 551.358 134.8 552.438 134.8C553.518 134.8 554.344 135.107 554.918 135.72C555.491 136.333 555.778 137.2 555.778 138.32V145.68C555.778 146.8 555.491 147.667 554.918 148.28C554.344 148.893 553.518 149.2 552.438 149.2ZM552.438 147.2C553.198 147.2 553.577 146.74 553.577 145.82V138.18C553.577 137.26 553.198 136.8 552.438 136.8C551.678 136.8 551.298 137.26 551.298 138.18V145.82C551.298 146.74 551.678 147.2 552.438 147.2ZM557.665 135H560.425L562.565 143.38H562.605V135H564.565V149H562.305L559.665 138.78H559.625V149H557.665V135ZM570.204 135H576.024V137H572.404V140.9H575.244V142.9H572.404V149H570.204V135ZM577.479 135H583.479V137H579.679V140.7H582.699V142.7H579.679V147H583.479V149H577.479V135ZM585.144 135H591.144V137H587.344V140.7H590.364V142.7H587.344V147H591.144V149H585.144V135Z" fill="black"/>
<path d="M476.41 150.6H591.584V152.2H476.41V150.6Z" fill="black"/>
<path d="M481.252 184.26C479.865 184.26 478.808 183.87 478.08 183.09C477.352 182.293 476.988 181.157 476.988 179.684V178.254H479.692V179.892C479.692 181.071 480.186 181.66 481.174 181.66C482.162 181.66 482.656 181.071 482.656 179.892V175.81C482.656 174.614 482.162 174.016 481.174 174.016C480.186 174.016 479.692 174.614 479.692 175.81V175.966H476.988L477.508 165.8H485.048V168.4H480.056L479.822 172.742H479.874C480.411 171.858 481.235 171.416 482.344 171.416C483.384 171.416 484.173 171.771 484.71 172.482C485.247 173.193 485.516 174.224 485.516 175.576V179.684C485.516 181.157 485.152 182.293 484.424 183.09C483.696 183.87 482.639 184.26 481.252 184.26ZM492.13 184.26C490.726 184.26 489.651 183.861 488.906 183.064C488.161 182.267 487.788 181.14 487.788 179.684V170.116C487.788 168.66 488.161 167.533 488.906 166.736C489.651 165.939 490.726 165.54 492.13 165.54C493.534 165.54 494.609 165.939 495.354 166.736C496.099 167.533 496.472 168.66 496.472 170.116V179.684C496.472 181.14 496.099 182.267 495.354 183.064C494.609 183.861 493.534 184.26 492.13 184.26ZM492.13 181.66C493.118 181.66 493.612 181.062 493.612 179.866V169.934C493.612 168.738 493.118 168.14 492.13 168.14C491.142 168.14 490.648 168.738 490.648 169.934V179.866C490.648 181.062 491.142 181.66 492.13 181.66ZM503.06 184.26C501.656 184.26 500.582 183.861 499.836 183.064C499.091 182.267 498.718 181.14 498.718 179.684V170.116C498.718 168.66 499.091 167.533 499.836 166.736C500.582 165.939 501.656 165.54 503.06 165.54C504.464 165.54 505.539 165.939 506.284 166.736C507.03 167.533 507.402 168.66 507.402 170.116V179.684C507.402 181.14 507.03 182.267 506.284 183.064C505.539 183.861 504.464 184.26 503.06 184.26ZM503.06 181.66C504.048 181.66 504.542 181.062 504.542 179.866V169.934C504.542 168.738 504.048 168.14 503.06 168.14C502.072 168.14 501.578 168.738 501.578 169.934V179.866C501.578 181.062 502.072 181.66 503.06 181.66ZM514.541 165.8H518.779C520.252 165.8 521.327 166.147 522.003 166.84C522.679 167.516 523.017 168.565 523.017 169.986V171.104C523.017 172.993 522.393 174.189 521.145 174.692V174.744C521.838 174.952 522.323 175.377 522.601 176.018C522.895 176.659 523.043 177.517 523.043 178.592V181.79C523.043 182.31 523.06 182.735 523.095 183.064C523.129 183.376 523.216 183.688 523.355 184H520.443C520.339 183.705 520.269 183.428 520.235 183.168C520.2 182.908 520.183 182.44 520.183 181.764V178.436C520.183 177.604 520.044 177.023 519.767 176.694C519.507 176.365 519.047 176.2 518.389 176.2H517.401V184H514.541V165.8ZM518.441 173.6C519.013 173.6 519.437 173.453 519.715 173.158C520.009 172.863 520.157 172.369 520.157 171.676V170.272C520.157 169.613 520.035 169.137 519.793 168.842C519.567 168.547 519.203 168.4 518.701 168.4H517.401V173.6H518.441ZM525.547 165.8H528.407V184H525.547V165.8ZM531.069 165.8H535.385C536.858 165.8 537.933 166.147 538.609 166.84C539.285 167.516 539.623 168.565 539.623 169.986V170.714C539.623 171.65 539.467 172.413 539.155 173.002C538.86 173.591 538.401 174.016 537.777 174.276V174.328C539.198 174.813 539.909 176.079 539.909 178.124V179.684C539.909 181.088 539.536 182.163 538.791 182.908C538.063 183.636 536.988 184 535.567 184H531.069V165.8ZM535.047 173.21C535.619 173.21 536.043 173.063 536.321 172.768C536.615 172.473 536.763 171.979 536.763 171.286V170.272C536.763 169.613 536.641 169.137 536.399 168.842C536.173 168.547 535.809 168.4 535.307 168.4H533.929V173.21H535.047ZM535.567 181.4C536.069 181.4 536.442 181.27 536.685 181.01C536.927 180.733 537.049 180.265 537.049 179.606V178.02C537.049 177.188 536.901 176.616 536.607 176.304C536.329 175.975 535.861 175.81 535.203 175.81H533.929V181.4H535.567ZM546.261 184.26C544.874 184.26 543.817 183.87 543.089 183.09C542.361 182.293 541.997 181.157 541.997 179.684V165.8H544.857V179.892C544.857 180.516 544.978 180.967 545.221 181.244C545.481 181.521 545.845 181.66 546.313 181.66C546.781 181.66 547.136 181.521 547.379 181.244C547.639 180.967 547.769 180.516 547.769 179.892V165.8H550.525V179.684C550.525 181.157 550.161 182.293 549.433 183.09C548.705 183.87 547.647 184.26 546.261 184.26ZM559.172 165.8H561.642L554.466 184H551.996L559.172 165.8ZM565.943 168.4H562.953V165.8H571.793V168.4H568.803V184H565.943V168.4ZM573.698 165.8H581.498V168.4H576.558V173.21H580.484V175.81H576.558V181.4H581.498V184H573.698V165.8ZM585.873 165.8H589.747L592.711 184H589.851L589.331 180.386V180.438H586.081L585.561 184H582.909L585.873 165.8ZM588.993 177.968L587.719 168.972H587.667L586.419 177.968H588.993ZM594.618 165.8H598.7L600.52 178.826H600.572L602.392 165.8H606.474V184H603.77V170.22H603.718L601.638 184H599.246L597.166 170.22H597.114V184H594.618V165.8Z" fill="black"/>
<circle r="4.5" transform="matrix(-1 0 0 1 23.5 277.5)" fill="black"/>
<path d="M31.0106 270H34.2506C35.344 270 36.164 270.293 36.7106 270.88C37.2573 271.467 37.5306 272.327 37.5306 273.46V274.84C37.5306 275.973 37.2573 276.833 36.7106 277.42C36.164 278.007 35.344 278.3 34.2506 278.3H33.2106V284H31.0106V270ZM34.2506 276.3C34.6106 276.3 34.8773 276.2 35.0506 276C35.2373 275.8 35.3306 275.46 35.3306 274.98V273.32C35.3306 272.84 35.2373 272.5 35.0506 272.3C34.8773 272.1 34.6106 272 34.2506 272H33.2106V276.3H34.2506ZM40.1223 270H43.1023L45.3823 284H43.1823L42.7823 281.22V281.26H40.2823L39.8823 284H37.8423L40.1223 270ZM42.5223 279.36L41.5423 272.44H41.5023L40.5423 279.36H42.5223ZM46.8497 270H50.1097C51.243 270 52.0697 270.267 52.5897 270.8C53.1097 271.32 53.3697 272.127 53.3697 273.22V274.08C53.3697 275.533 52.8897 276.453 51.9297 276.84V276.88C52.463 277.04 52.8364 277.367 53.0497 277.86C53.2764 278.353 53.3897 279.013 53.3897 279.84V282.3C53.3897 282.7 53.403 283.027 53.4297 283.28C53.4564 283.52 53.523 283.76 53.6297 284H51.3897C51.3097 283.773 51.2564 283.56 51.2297 283.36C51.203 283.16 51.1897 282.8 51.1897 282.28V279.72C51.1897 279.08 51.083 278.633 50.8697 278.38C50.6697 278.127 50.3164 278 49.8097 278H49.0497V284H46.8497V270ZM49.8497 276C50.2897 276 50.6164 275.887 50.8297 275.66C51.0564 275.433 51.1697 275.053 51.1697 274.52V273.44C51.1697 272.933 51.0764 272.567 50.8897 272.34C50.7164 272.113 50.4364 272 50.0497 272H49.0497V276H49.8497ZM56.997 272H54.697V270H61.497V272H59.197V284H56.997V272ZM62.9622 270H65.7222L67.8622 278.38H67.9022V270H69.8622V284H67.6022L64.9622 273.78H64.9222V284H62.9622V270ZM71.8973 270H77.8973V272H74.0973V275.7H77.1173V277.7H74.0973V282H77.8973V284H71.8973V270ZM79.563 270H82.823C83.9563 270 84.783 270.267 85.303 270.8C85.823 271.32 86.083 272.127 86.083 273.22V274.08C86.083 275.533 85.603 276.453 84.643 276.84V276.88C85.1763 277.04 85.5496 277.367 85.763 277.86C85.9896 278.353 86.103 279.013 86.103 279.84V282.3C86.103 282.7 86.1163 283.027 86.143 283.28C86.1696 283.52 86.2363 283.76 86.343 284H84.103C84.023 283.773 83.9696 283.56 83.943 283.36C83.9163 283.16 83.903 282.8 83.903 282.28V279.72C83.903 279.08 83.7963 278.633 83.583 278.38C83.383 278.127 83.0296 278 82.523 278H81.763V284H79.563V270ZM82.563 276C83.003 276 83.3296 275.887 83.543 275.66C83.7696 275.433 83.883 275.053 83.883 274.52V273.44C83.883 272.933 83.7896 272.567 83.603 272.34C83.4296 272.113 83.1496 272 82.763 272H81.763V276H82.563Z" fill="black"/>
<path d="M30.1906 285.6H86.803V287.2H30.1906V285.6Z" fill="black"/>
</svg>
