<svg width="942" height="432" viewBox="0 0 942 432" fill="none" xmlns="http://www.w3.org/2000/svg">
<g filter="url(#filter0_d_394_56)">
<rect y="55" width="922" height="357" rx="15" fill="#F8F8F8"/>
<rect x="1" y="56" width="920" height="355" rx="14" stroke="black" stroke-width="2"/>
</g>
<g filter="url(#filter1_d_394_56)">
<mask id="path-3-inside-1_394_56" fill="white">
<path d="M298 10C298 4.47715 302.477 0 308 0H615C620.523 0 625 4.47715 625 10V55H298V10Z"/>
</mask>
<path d="M298 10C298 4.47715 302.477 0 308 0H615C620.523 0 625 4.47715 625 10V55H298V10Z" fill="#F8F8F8"/>
<path d="M296 10C296 3.37258 301.373 -2 308 -2H615C621.627 -2 627 3.37258 627 10H623C623 5.58172 619.418 2 615 2H308C303.582 2 300 5.58172 300 10H296ZM625 55H298H625ZM296 55V10C296 3.37258 301.373 -2 308 -2V2C303.582 2 300 5.58172 300 10V55H296ZM615 -2C621.627 -2 627 3.37258 627 10V55H623V10C623 5.58172 619.418 2 615 2V-2Z" fill="black" mask="url(#path-3-inside-1_394_56)"/>
</g>
<path d="M363.073 15H367.473V26.8L373.073 15H377.473L372.233 25.28L377.553 43H372.953L369.233 30.52L367.473 34.08V43H363.073V15ZM383.835 15H389.795L394.355 43H389.955L389.155 37.44V37.52H384.155L383.355 43H379.275L383.835 15ZM388.635 33.72L386.675 19.88H386.595L384.675 33.72H388.635ZM398.894 19H394.294V15H407.894V19H403.294V43H398.894V19ZM410.824 15H422.824V19H415.224V26.4H421.264V30.4H415.224V39H422.824V43H410.824V15ZM432.396 43.4C430.262 43.4 428.636 42.8 427.516 41.6C426.396 40.3733 425.836 38.6267 425.836 36.36V21.64C425.836 19.3733 426.396 17.64 427.516 16.44C428.636 15.2133 430.262 14.6 432.396 14.6C434.529 14.6 436.156 15.2133 437.276 16.44C438.396 17.64 438.956 19.3733 438.956 21.64V24.04H434.796V21.36C434.796 19.52 434.036 18.6 432.516 18.6C430.996 18.6 430.236 19.52 430.236 21.36V36.68C430.236 38.4933 430.996 39.4 432.516 39.4C434.036 39.4 434.796 38.4933 434.796 36.68V31.2H432.596V27.2H438.956V36.36C438.956 38.6267 438.396 40.3733 437.276 41.6C436.156 42.8 434.529 43.4 432.396 43.4ZM448.941 43.4C446.781 43.4 445.127 42.7867 443.981 41.56C442.834 40.3333 442.261 38.6 442.261 36.36V21.64C442.261 19.4 442.834 17.6667 443.981 16.44C445.127 15.2133 446.781 14.6 448.941 14.6C451.101 14.6 452.754 15.2133 453.901 16.44C455.047 17.6667 455.621 19.4 455.621 21.64V36.36C455.621 38.6 455.047 40.3333 453.901 41.56C452.754 42.7867 451.101 43.4 448.941 43.4ZM448.941 39.4C450.461 39.4 451.221 38.48 451.221 36.64V21.36C451.221 19.52 450.461 18.6 448.941 18.6C447.421 18.6 446.661 19.52 446.661 21.36V36.64C446.661 38.48 447.421 39.4 448.941 39.4ZM459.396 15H465.916C468.183 15 469.836 15.5333 470.876 16.6C471.916 17.64 472.436 19.2533 472.436 21.44V23.16C472.436 26.0667 471.476 27.9067 469.556 28.68V28.76C470.623 29.08 471.37 29.7333 471.796 30.72C472.25 31.7067 472.476 33.0267 472.476 34.68V39.6C472.476 40.4 472.503 41.0533 472.556 41.56C472.61 42.04 472.743 42.52 472.956 43H468.476C468.316 42.5467 468.21 42.12 468.156 41.72C468.103 41.32 468.076 40.6 468.076 39.56V34.44C468.076 33.16 467.863 32.2667 467.436 31.76C467.036 31.2533 466.33 31 465.316 31H463.796V43H459.396V15ZM465.396 27C466.276 27 466.93 26.7733 467.356 26.32C467.81 25.8667 468.036 25.1067 468.036 24.04V21.88C468.036 20.8667 467.85 20.1333 467.476 19.68C467.13 19.2267 466.57 19 465.796 19H463.796V27H465.396ZM476.329 15H480.729V43H476.329V15ZM492.031 15H504.031V19H496.431V26.4H502.471V30.4H496.431V39H504.031V43H492.031V15ZM506.202 15H510.642L513.522 36.72H513.602L516.482 15H520.522L516.282 43H510.442L506.202 15ZM523.435 15H535.435V19H527.835V26.4H533.875V30.4H527.835V39H535.435V43H523.435V15ZM538.767 15H544.287L548.567 31.76H548.647V15H552.567V43H548.047L542.767 22.56H542.687V43H538.767V15ZM560.077 19H555.477V15H569.077V19H564.477V43H560.077V19Z" fill="black"/>
<defs>
<filter id="filter0_d_394_56" x="0" y="55" width="942" height="377" filterUnits="userSpaceOnUse" color-interpolation-filters="sRGB">
<feFlood flood-opacity="0" result="BackgroundImageFix"/>
<feColorMatrix in="SourceAlpha" type="matrix" values="0 0 0 0 0 0 0 0 0 0 0 0 0 0 0 0 0 0 127 0" result="hardAlpha"/>
<feOffset dx="10" dy="10"/>
<feGaussianBlur stdDeviation="5"/>
<feComposite in2="hardAlpha" operator="out"/>
<feColorMatrix type="matrix" values="0 0 0 0 0 0 0 0 0 0 0 0 0 0 0 0 0 0 0.25 0"/>
<feBlend mode="normal" in2="BackgroundImageFix" result="effect1_dropShadow_394_56"/>
<feBlend mode="normal" in="SourceGraphic" in2="effect1_dropShadow_394_56" result="shape"/>
</filter>
<filter id="filter1_d_394_56" x="298" y="0" width="347" height="75" filterUnits="userSpaceOnUse" color-interpolation-filters="sRGB">
<feFlood flood-opacity="0" result="BackgroundImageFix"/>
<feColorMatrix in="SourceAlpha" type="matrix" values="0 0 0 0 0 0 0 0 0 0 0 0 0 0 0 0 0 0 127 0" result="hardAlpha"/>
<feOffset dx="10" dy="10"/>
<feGaussianBlur stdDeviation="5"/>
<feComposite in2="hardAlpha" operator="out"/>
<feColorMatrix type="matrix" values="0 0 0 0 0 0 0 0 0 0 0 0 0 0 0 0 0 0 0.25 0"/>
<feBlend mode="normal" in2="BackgroundImageFix" result="effect1_dropShadow_394_56"/>
<feBlend mode="normal" in="SourceGraphic" in2="effect1_dropShadow_394_56" result="shape"/>
</filter>
</defs>
</svg>
