<svg width="45" height="46" viewBox="0 0 45 46" fill="none" xmlns="http://www.w3.org/2000/svg">
<path d="M11.6875 35V33.164H9.05948V11.096H7.04348V35H11.6875ZM18.7291 20.168C18.7291 18.296 17.8651 17.396 15.9931 17.396C14.1211 17.396 13.2571 18.296 13.2571 20.168V32.372C13.2571 34.244 14.1211 35.108 15.9931 35.108C17.8651 35.108 18.7291 34.244 18.7291 32.372V20.168ZM16.8571 32.372C16.8571 33.056 16.5691 33.38 15.9931 33.38C15.4171 33.38 15.1291 33.056 15.1291 32.372V20.168C15.1291 19.484 15.4171 19.124 15.9931 19.124C16.5691 19.124 16.8571 19.484 16.8571 20.168V32.372ZM26.3147 40.652V17.504H24.6227L24.5507 18.62H24.4067C24.0467 17.828 23.6147 17.396 22.7507 17.396C21.5267 17.396 20.7707 18.26 20.7707 19.736V32.804C20.7707 34.388 21.4187 35 22.6067 35C23.4707 35 23.9747 34.676 24.2627 33.992H24.4067V40.652C24.4067 41.3 24.1187 41.66 23.5427 41.66C22.9667 41.66 22.6787 41.3 22.6787 40.652V36.08H20.8067V40.652C20.8067 42.488 21.6707 43.388 23.5427 43.388C25.4147 43.388 26.3147 42.488 26.3147 40.652ZM22.7147 20.096C22.7147 19.412 23.0027 19.088 23.5787 19.088C24.0827 19.088 24.3347 19.448 24.4787 20.276V32.156C24.3347 32.876 24.0827 33.236 23.5427 33.236C23.0387 33.236 22.7147 32.948 22.7147 32.228V20.096ZM30.2626 35V17.504H28.3546V35H30.2626ZM30.2626 15.92V13.22H28.3546V15.92H30.2626ZM37.9335 35V19.664C37.9335 18.152 37.2855 17.396 36.1335 17.396C35.3055 17.396 34.6935 17.756 34.2975 18.62H34.1535L34.1175 17.504H32.3175V35H34.2255V19.988C34.4415 19.376 34.6575 19.088 35.1615 19.088C35.7015 19.088 35.9895 19.376 35.9895 20.024V35H37.9335Z" fill="white"/>
<line x1="4" y1="45" x2="41" y2="45" stroke="white" stroke-width="2"/>
</svg>
