<svg width="188" height="223" viewBox="0 0 188 223" fill="none" xmlns="http://www.w3.org/2000/svg">
<rect x="0.5" y="0.5" width="187" height="222" rx="3.5" fill="#F8F8F8" stroke="black"/>
<path d="M40.2918 109.568C42.5478 109.568 43.3638 108.368 43.3638 106.304V93.44C43.3638 91.376 42.5478 90.128 40.2918 90.128H35.7798V122H38.4678V109.568H40.2918ZM38.4678 92.576H39.7158C40.5318 92.576 40.8198 92.96 40.8198 93.728V105.872C40.8198 106.736 40.5318 107.216 39.7158 107.216H38.4678V92.576ZM50.2698 118.976C50.0298 119.6 49.6458 119.936 48.9258 119.936C48.2538 119.936 47.8698 119.6 47.8698 118.784V111.92C47.8698 111.056 48.0618 110.624 48.9738 110.288C49.5018 110.096 49.8858 110.048 50.2698 109.712V118.976ZM52.7658 122V101.312C52.7658 99.44 51.6138 98.528 49.3098 98.528C46.9098 98.528 45.5178 99.488 45.5178 101.504V106.208H47.9178V101.792C47.9178 101.12 48.3498 100.784 49.1178 100.784C49.8858 100.784 50.2218 101.072 50.2218 101.696V107.312C50.2218 108.128 49.5018 108.368 48.3018 108.752C46.0458 109.472 45.3258 110.192 45.3258 112.4V119.408C45.3258 121.088 45.9498 122.144 47.7738 122.144C49.2618 122.144 49.7898 121.472 50.1738 120.8H50.3658L50.4138 122H52.7658ZM63.2661 122L60.7701 108.8L63.3141 98.672H60.6261L58.1781 108.608H57.9861V89.744H55.4421V122H57.9861V115.52L58.7541 112.688H58.8981L60.6261 122H63.2661ZM72.3355 114.032H69.7915V118.544C69.7915 119.456 69.4075 119.936 68.6395 119.936C67.8715 119.936 67.4875 119.456 67.4875 118.544V110.864H72.3355V102.224C72.3355 99.776 71.1355 98.528 68.6395 98.528C66.1435 98.528 64.9915 99.776 64.9915 102.224V118.496C64.9915 120.992 66.1435 122.144 68.6395 122.144C71.1355 122.144 72.3355 120.944 72.3355 118.496V114.032ZM69.7915 109.04H67.4875V102.176C67.4875 101.216 67.8715 100.832 68.6395 100.832C69.4075 100.832 69.7915 101.216 69.7915 102.176V109.04ZM79.7616 118.496C79.7616 119.408 79.4256 119.84 78.7056 119.84C77.8896 119.84 77.5056 119.408 77.5056 118.496V100.976H81.9216V98.672H77.5056V92.288H75.0096V118.496C75.0096 120.992 76.1616 122.144 78.6576 122.144C81.1536 122.144 81.9216 120.992 81.9216 118.496V108.848H79.7616V118.496ZM96.4401 107.84C96.4401 106.112 95.6241 105.344 94.5681 105.152V104.96C95.6721 104.768 96.2001 103.856 96.2001 102.464V93.536C96.2001 91.808 95.1441 89.984 92.6001 89.984C90.2481 89.984 88.9041 91.52 88.9041 94.112V99.152H91.4001V93.824C91.4001 93.008 91.8321 92.48 92.6001 92.48C93.3681 92.48 93.7521 93.056 93.7521 93.824V102.704C93.7521 103.52 93.4641 104 92.5041 104H91.4001V106.256H92.4561C93.4161 106.256 93.8001 106.736 93.8001 107.6V118.256C93.8001 119.216 93.4161 119.696 92.6001 119.696C91.8321 119.696 91.4001 119.216 91.4001 118.256V112.736H88.9041V118.112C88.9041 120.848 90.2001 122.144 92.6481 122.144C95.1441 122.144 96.4401 120.704 96.4401 118.064V107.84ZM107.927 122C110.087 122 110.903 121.04 110.903 119.216V107.936C110.903 106.112 110.183 105.488 109.079 105.296V105.104C110.183 104.864 110.663 104 110.663 102.56V93.44C110.663 91.328 109.847 90.128 107.591 90.128H103.175V122H107.927ZM108.215 118.352C108.215 119.264 107.879 119.696 107.015 119.696H105.815V106.448H107.015C107.879 106.448 108.215 106.832 108.215 107.744V118.352ZM108.167 102.848C108.167 103.856 107.735 104.192 107.063 104.192H105.815V92.432H107.063C107.879 92.432 108.167 92.96 108.167 94.016V102.848ZM113.381 98.672V118.352C113.381 120.32 113.621 122.144 115.925 122.144C117.077 122.144 117.605 121.712 118.181 120.56H118.373L118.422 122H120.822V98.672H118.277V118.304C118.133 119.456 117.845 119.936 117.029 119.936C116.213 119.936 115.973 119.456 115.973 118.352V98.672H113.381ZM126.037 122V89.744H123.493V122H126.037ZM133.529 118.976C133.289 119.6 132.905 119.936 132.185 119.936C131.513 119.936 131.129 119.6 131.129 118.784V111.92C131.129 111.056 131.321 110.624 132.233 110.288C132.761 110.096 133.145 110.048 133.529 109.712V118.976ZM136.025 122V101.312C136.025 99.44 134.873 98.528 132.569 98.528C130.169 98.528 128.777 99.488 128.777 101.504V106.208H131.177V101.792C131.177 101.12 131.609 100.784 132.377 100.784C133.145 100.784 133.481 101.072 133.481 101.696V107.312C133.481 108.128 132.761 108.368 131.561 108.752C129.305 109.472 128.585 110.192 128.585 112.4V119.408C128.585 121.088 129.209 122.144 131.033 122.144C132.521 122.144 133.049 121.472 133.433 120.8H133.625L133.673 122H136.025ZM146.19 122V101.552C146.19 99.536 145.325 98.528 143.789 98.528C142.685 98.528 141.869 99.008 141.341 100.16H141.149L141.101 98.672H138.701V122H141.245V101.984C141.533 101.168 141.821 100.784 142.493 100.784C143.213 100.784 143.597 101.168 143.597 102.032V122H146.19ZM40.5523 165C42.1723 165 42.7843 164.28 42.7843 162.912V154.452C42.7843 153.084 42.2443 152.616 41.4163 152.472V152.328C42.2443 152.148 42.6043 151.5 42.6043 150.42V143.58C42.6043 141.996 41.9923 141.096 40.3003 141.096H36.9883V165H40.5523ZM40.7683 162.264C40.7683 162.948 40.5163 163.272 39.8683 163.272H38.9683V153.336H39.8683C40.5163 153.336 40.7683 153.624 40.7683 154.308V162.264ZM40.7323 150.636C40.7323 151.392 40.4083 151.644 39.9043 151.644H38.9683V142.824H39.9043C40.5163 142.824 40.7323 143.22 40.7323 144.012V150.636ZM46.5514 165V147.504H44.6434V165H46.5514ZM46.5514 145.92V143.22H44.6434V145.92H46.5514ZM52.1702 162.732C51.9902 163.2 51.7022 163.452 51.1622 163.452C50.6582 163.452 50.3702 163.2 50.3702 162.588V157.44C50.3702 156.792 50.5142 156.468 51.1982 156.216C51.5942 156.072 51.8822 156.036 52.1702 155.784V162.732ZM54.0422 165V149.484C54.0422 148.08 53.1782 147.396 51.4502 147.396C49.6502 147.396 48.6062 148.116 48.6062 149.628V153.156H50.4062V149.844C50.4062 149.34 50.7302 149.088 51.3062 149.088C51.8822 149.088 52.1342 149.304 52.1342 149.772V153.984C52.1342 154.596 51.5942 154.776 50.6942 155.064C49.0022 155.604 48.4622 156.144 48.4622 157.8V163.056C48.4622 164.316 48.9302 165.108 50.2982 165.108C51.4142 165.108 51.8102 164.604 52.0982 164.1H52.2422L52.2782 165H54.0422ZM57.9935 147.504H56.0495V162.3C56.0495 164.28 56.7695 165 57.9575 165C58.7855 165 59.2535 164.712 59.5775 163.992H59.6855V170.652C59.6855 171.3 59.3975 171.66 58.8215 171.66C58.2455 171.66 57.9575 171.3 57.9575 170.652V166.08H56.0855V170.652C56.0855 172.488 56.9495 173.388 58.8215 173.388C60.6935 173.388 61.5935 172.488 61.5935 170.652V147.504H59.7575V162.12C59.6135 162.84 59.4335 163.236 58.8215 163.236C58.2815 163.236 57.9935 162.948 57.9935 162.228V147.504ZM67.1974 162.732C67.0174 163.2 66.7294 163.452 66.1894 163.452C65.6854 163.452 65.3974 163.2 65.3974 162.588V157.44C65.3974 156.792 65.5414 156.468 66.2254 156.216C66.6214 156.072 66.9094 156.036 67.1974 155.784V162.732ZM69.0694 165V149.484C69.0694 148.08 68.2054 147.396 66.4774 147.396C64.6774 147.396 63.6334 148.116 63.6334 149.628V153.156H65.4334V149.844C65.4334 149.34 65.7574 149.088 66.3334 149.088C66.9094 149.088 67.1614 149.304 67.1614 149.772V153.984C67.1614 154.596 66.6214 154.776 65.7214 155.064C64.0294 155.604 63.4894 156.144 63.4894 157.8V163.056C63.4894 164.316 63.9574 165.108 65.3254 165.108C66.4414 165.108 66.8374 164.604 67.1254 164.1H67.2694L67.3054 165H69.0694ZM76.2092 163.272V160.32H74.2652V163.272H76.2092ZM76.2092 152.22V149.232H74.2652V152.22H76.2092ZM83.3974 165V154.092H84.3694C84.9814 154.092 85.1974 154.416 85.1974 154.992V165H87.1414V155.172C87.1414 153.912 86.6734 153.444 85.8814 153.264V153.12C86.6374 152.94 87.1054 152.328 87.1054 151.248V143.58C87.1054 141.996 86.4934 141.096 84.8014 141.096H81.4174V165H83.3974ZM85.1614 151.464C85.1614 152.148 84.8734 152.472 84.3334 152.472H83.3974V142.932H84.3334C84.9094 142.932 85.1614 143.184 85.1614 143.796V151.464ZM92.6733 162.408C92.6733 163.128 92.3493 163.452 91.8093 163.452C91.2693 163.452 91.0173 163.164 90.9093 162.516V149.988C91.0173 149.376 91.2693 149.088 91.8093 149.088C92.3493 149.088 92.6733 149.412 92.6733 150.096V162.408ZM90.9093 173.388V164.064H91.0533C91.3773 164.82 91.9173 165.108 92.6373 165.108C93.8613 165.108 94.5813 164.28 94.5813 162.912V149.628C94.5813 148.224 93.8613 147.396 92.6013 147.396C91.8093 147.396 91.3413 147.792 90.9453 148.62H90.8013L90.7653 147.504H89.0373V173.388H90.9093ZM102.798 165V141.096H101.106C100.998 141.816 100.71 142.248 99.6657 142.248V143.832H100.854V165H102.798ZM110.517 144.876C110.517 142.248 109.509 140.988 107.673 140.988C105.765 140.988 104.757 142.356 104.757 144.912V161.184C104.757 163.74 105.765 165.108 107.673 165.108C109.509 165.108 110.517 163.884 110.517 161.256V144.876ZM108.537 161.256C108.537 162.624 108.213 163.272 107.637 163.272C107.025 163.272 106.737 162.588 106.737 161.256V144.84C106.737 143.508 107.025 142.824 107.637 142.824C108.213 142.824 108.537 143.508 108.537 144.84V161.256ZM118.241 144.876C118.241 142.248 117.233 140.988 115.397 140.988C113.489 140.988 112.481 142.356 112.481 144.912V161.184C112.481 163.74 113.489 165.108 115.397 165.108C117.233 165.108 118.241 163.884 118.241 161.256V144.876ZM116.261 161.256C116.261 162.624 115.937 163.272 115.361 163.272C114.749 163.272 114.461 162.588 114.461 161.256V144.84C114.461 143.508 114.749 142.824 115.361 142.824C115.937 142.824 116.261 143.508 116.261 144.84V161.256ZM121.974 165V162.048H120.03V165H121.974ZM129.542 144.876C129.542 142.248 128.534 140.988 126.698 140.988C124.79 140.988 123.782 142.356 123.782 144.912V161.184C123.782 163.74 124.79 165.108 126.698 165.108C128.534 165.108 129.542 163.884 129.542 161.256V144.876ZM127.562 161.256C127.562 162.624 127.238 163.272 126.662 163.272C126.05 163.272 125.762 162.588 125.762 161.256V144.84C125.762 143.508 126.05 142.824 126.662 142.824C127.238 142.824 127.562 143.508 127.562 144.84V161.256ZM137.267 144.876C137.267 142.248 136.259 140.988 134.423 140.988C132.515 140.988 131.507 142.356 131.507 144.912V161.184C131.507 163.74 132.515 165.108 134.423 165.108C136.259 165.108 137.267 163.884 137.267 161.256V144.876ZM135.287 161.256C135.287 162.624 134.963 163.272 134.387 163.272C133.775 163.272 133.487 162.588 133.487 161.256V144.84C133.487 143.508 133.775 142.824 134.387 142.824C134.963 142.824 135.287 143.508 135.287 144.84V161.256ZM144.991 144.876C144.991 142.248 143.983 140.988 142.147 140.988C140.239 140.988 139.231 142.356 139.231 144.912V161.184C139.231 163.74 140.239 165.108 142.147 165.108C143.983 165.108 144.991 163.884 144.991 161.256V144.876ZM143.011 161.256C143.011 162.624 142.687 163.272 142.111 163.272C141.499 163.272 141.211 162.588 141.211 161.256V144.84C141.211 143.508 141.499 142.824 142.111 142.824C142.687 142.824 143.011 143.508 143.011 144.84V161.256Z" fill="black"/>
</svg>
