<svg width="188" height="223" viewBox="0 0 188 223" fill="none" xmlns="http://www.w3.org/2000/svg">
<rect x="0.5" y="0.5" width="187" height="222" rx="3.5" fill="#F8F8F8" stroke="black"/>
<path d="M30.1811 109.568C32.4371 109.568 33.2531 108.368 33.2531 106.304V93.44C33.2531 91.376 32.4371 90.128 30.1811 90.128H25.6691V122H28.3571V109.568H30.1811ZM28.3571 92.576H29.6051C30.4211 92.576 30.7091 92.96 30.7091 93.728V105.872C30.7091 106.736 30.4211 107.216 29.6051 107.216H28.3571V92.576ZM40.1591 118.976C39.9191 119.6 39.5351 119.936 38.8151 119.936C38.1431 119.936 37.7591 119.6 37.7591 118.784V111.92C37.7591 111.056 37.9511 110.624 38.8631 110.288C39.3911 110.096 39.7751 110.048 40.1591 109.712V118.976ZM42.6551 122V101.312C42.6551 99.44 41.5031 98.528 39.1991 98.528C36.7991 98.528 35.4071 99.488 35.4071 101.504V106.208H37.8071V101.792C37.8071 101.12 38.2391 100.784 39.0071 100.784C39.7751 100.784 40.1111 101.072 40.1111 101.696V107.312C40.1111 108.128 39.3911 108.368 38.1911 108.752C35.9351 109.472 35.2151 110.192 35.2151 112.4V119.408C35.2151 121.088 35.8391 122.144 37.6631 122.144C39.1511 122.144 39.6791 121.472 40.0631 120.8H40.2551L40.3031 122H42.6551ZM53.1555 122L50.6595 108.8L53.2035 98.672H50.5155L48.0675 108.608H47.8755V89.744H45.3315V122H47.8755V115.52L48.6435 112.688H48.7875L50.5155 122H53.1555ZM62.2249 114.032H59.6809V118.544C59.6809 119.456 59.2969 119.936 58.5289 119.936C57.7609 119.936 57.3769 119.456 57.3769 118.544V110.864H62.2249V102.224C62.2249 99.776 61.0249 98.528 58.5289 98.528C56.0329 98.528 54.8809 99.776 54.8809 102.224V118.496C54.8809 120.992 56.0329 122.144 58.5289 122.144C61.0249 122.144 62.2249 120.944 62.2249 118.496V114.032ZM59.6809 109.04H57.3769V102.176C57.3769 101.216 57.7609 100.832 58.5289 100.832C59.2969 100.832 59.6809 101.216 59.6809 102.176V109.04ZM69.651 118.496C69.651 119.408 69.315 119.84 68.595 119.84C67.779 119.84 67.395 119.408 67.395 118.496V100.976H71.811V98.672H67.395V92.288H64.899V118.496C64.899 120.992 66.051 122.144 68.547 122.144C71.043 122.144 71.811 120.992 71.811 118.496V108.848H69.651V118.496ZM86.4255 100.064V94.208C86.4255 91.712 85.2735 89.984 82.5855 89.984C79.9935 89.984 78.7455 91.568 78.7455 93.776V98.768C78.7455 100.64 79.0335 102.416 79.5615 103.52C80.2815 105.056 81.8175 106.256 82.9695 107.696C83.7375 108.656 83.9295 109.184 83.9295 111.824V118.352C83.9295 119.216 83.5455 119.696 82.6335 119.696C81.6255 119.696 81.1935 119.168 81.1935 118.208V112.448H78.6975V117.728C78.6975 120.608 79.8975 122.144 82.7775 122.144C85.5135 122.144 86.7135 120.752 86.7135 117.92V110.72C86.7135 108.704 86.5215 107.84 85.7535 106.784C84.7455 105.392 83.4975 104.528 82.2015 102.752C81.6255 101.984 81.4335 101.552 81.4335 99.056V93.728C81.4335 93.008 81.8175 92.48 82.6815 92.48C83.5455 92.48 83.9295 93.056 83.9295 93.92V100.064H86.4255ZM96.6724 114.032H94.1284V118.544C94.1284 119.456 93.7444 119.936 92.9764 119.936C92.2084 119.936 91.8244 119.456 91.8244 118.544V110.864H96.6724V102.224C96.6724 99.776 95.4724 98.528 92.9764 98.528C90.4804 98.528 89.3284 99.776 89.3284 102.224V118.496C89.3284 120.992 90.4804 122.144 92.9764 122.144C95.4724 122.144 96.6724 120.944 96.6724 118.496V114.032ZM94.1284 109.04H91.8244V102.176C91.8244 101.216 92.2084 100.832 92.9764 100.832C93.7444 100.832 94.1284 101.216 94.1284 102.176V109.04ZM111.491 122V101.552C111.491 99.632 110.387 98.528 108.899 98.528C107.891 98.528 107.027 99.056 106.451 100.352C106.115 99.2 105.251 98.528 104.051 98.528C103.139 98.528 102.515 99.008 101.987 100.16H101.795L101.747 98.672H99.3465V122H101.891V101.984C102.131 101.216 102.419 100.784 103.139 100.784C103.811 100.784 104.147 101.168 104.147 102.032V122H106.643V101.984C106.883 101.168 107.171 100.784 107.843 100.784C108.515 100.784 108.899 101.168 108.899 102.032V122H111.491ZM116.737 122V98.672H114.193V122H116.737ZM116.737 96.56V92.96H114.193V96.56H116.737ZM126.965 122V101.552C126.965 99.536 126.101 98.528 124.565 98.528C123.461 98.528 122.645 99.008 122.117 100.16H121.925L121.877 98.672H119.477V122H122.021V101.984C122.309 101.168 122.597 100.784 123.269 100.784C123.989 100.784 124.373 101.168 124.373 102.032V122H126.965ZM137.027 129.536V98.672H134.771L134.675 100.16H134.483C134.003 99.104 133.427 98.528 132.275 98.528C130.643 98.528 129.635 99.68 129.635 101.648V119.072C129.635 121.184 130.499 122 132.083 122C133.235 122 133.907 121.568 134.291 120.656H134.483V129.536C134.483 130.4 134.099 130.88 133.331 130.88C132.563 130.88 132.179 130.4 132.179 129.536V123.44H129.683V129.536C129.683 131.984 130.835 133.184 133.331 133.184C135.827 133.184 137.027 131.984 137.027 129.536ZM132.227 102.128C132.227 101.216 132.611 100.784 133.379 100.784C134.051 100.784 134.387 101.264 134.579 102.368V118.208C134.387 119.168 134.051 119.648 133.331 119.648C132.659 119.648 132.227 119.264 132.227 118.304V102.128ZM147.139 129.536V98.672H144.883L144.787 100.16H144.595C144.115 99.104 143.539 98.528 142.387 98.528C140.755 98.528 139.747 99.68 139.747 101.648V119.072C139.747 121.184 140.611 122 142.195 122C143.347 122 144.019 121.568 144.403 120.656H144.595V129.536C144.595 130.4 144.211 130.88 143.443 130.88C142.675 130.88 142.291 130.4 142.291 129.536V123.44H139.795V129.536C139.795 131.984 140.947 133.184 143.443 133.184C145.939 133.184 147.139 131.984 147.139 129.536ZM142.339 102.128C142.339 101.216 142.723 100.784 143.491 100.784C144.163 100.784 144.499 101.264 144.691 102.368V118.208C144.499 119.168 144.163 119.648 143.443 119.648C142.771 119.648 142.339 119.264 142.339 118.304V102.128ZM149.859 98.672V118.352C149.859 120.32 150.099 122.144 152.403 122.144C153.555 122.144 154.083 121.712 154.659 120.56H154.851L154.899 122H157.299V98.672H154.755V118.304C154.611 119.456 154.323 119.936 153.507 119.936C152.691 119.936 152.451 119.456 152.451 118.352V98.672H149.859ZM44.9146 165C46.5346 165 47.1466 164.28 47.1466 162.912V154.452C47.1466 153.084 46.6066 152.616 45.7786 152.472V152.328C46.6066 152.148 46.9666 151.5 46.9666 150.42V143.58C46.9666 141.996 46.3546 141.096 44.6626 141.096H41.3506V165H44.9146ZM45.1306 162.264C45.1306 162.948 44.8786 163.272 44.2306 163.272H43.3306V153.336H44.2306C44.8786 153.336 45.1306 153.624 45.1306 154.308V162.264ZM45.0946 150.636C45.0946 151.392 44.7706 151.644 44.2666 151.644H43.3306V142.824H44.2666C44.8786 142.824 45.0946 143.22 45.0946 144.012V150.636ZM50.9137 165V147.504H49.0057V165H50.9137ZM50.9137 145.92V143.22H49.0057V145.92H50.9137ZM56.5325 162.732C56.3525 163.2 56.0645 163.452 55.5245 163.452C55.0205 163.452 54.7325 163.2 54.7325 162.588V157.44C54.7325 156.792 54.8765 156.468 55.5605 156.216C55.9565 156.072 56.2445 156.036 56.5325 155.784V162.732ZM58.4045 165V149.484C58.4045 148.08 57.5405 147.396 55.8125 147.396C54.0125 147.396 52.9685 148.116 52.9685 149.628V153.156H54.7685V149.844C54.7685 149.34 55.0925 149.088 55.6685 149.088C56.2445 149.088 56.4965 149.304 56.4965 149.772V153.984C56.4965 154.596 55.9565 154.776 55.0565 155.064C53.3645 155.604 52.8245 156.144 52.8245 157.8V163.056C52.8245 164.316 53.2925 165.108 54.6605 165.108C55.7765 165.108 56.1725 164.604 56.4605 164.1H56.6045L56.6405 165H58.4045ZM62.3557 147.504H60.4117V162.3C60.4117 164.28 61.1317 165 62.3197 165C63.1477 165 63.6157 164.712 63.9397 163.992H64.0477V170.652C64.0477 171.3 63.7597 171.66 63.1837 171.66C62.6077 171.66 62.3197 171.3 62.3197 170.652V166.08H60.4477V170.652C60.4477 172.488 61.3117 173.388 63.1837 173.388C65.0557 173.388 65.9557 172.488 65.9557 170.652V147.504H64.1197V162.12C63.9757 162.84 63.7957 163.236 63.1837 163.236C62.6437 163.236 62.3557 162.948 62.3557 162.228V147.504ZM71.5597 162.732C71.3797 163.2 71.0917 163.452 70.5517 163.452C70.0477 163.452 69.7597 163.2 69.7597 162.588V157.44C69.7597 156.792 69.9037 156.468 70.5877 156.216C70.9837 156.072 71.2717 156.036 71.5597 155.784V162.732ZM73.4317 165V149.484C73.4317 148.08 72.5677 147.396 70.8397 147.396C69.0397 147.396 67.9957 148.116 67.9957 149.628V153.156H69.7957V149.844C69.7957 149.34 70.1197 149.088 70.6957 149.088C71.2717 149.088 71.5237 149.304 71.5237 149.772V153.984C71.5237 154.596 70.9837 154.776 70.0837 155.064C68.3917 155.604 67.8517 156.144 67.8517 157.8V163.056C67.8517 164.316 68.3197 165.108 69.6877 165.108C70.8037 165.108 71.1997 164.604 71.4877 164.1H71.6317L71.6677 165H73.4317ZM80.5715 163.272V160.32H78.6275V163.272H80.5715ZM80.5715 152.22V149.232H78.6275V152.22H80.5715ZM87.7597 165V154.092H88.7317C89.3437 154.092 89.5597 154.416 89.5597 154.992V165H91.5037V155.172C91.5037 153.912 91.0357 153.444 90.2437 153.264V153.12C90.9997 152.94 91.4677 152.328 91.4677 151.248V143.58C91.4677 141.996 90.8557 141.096 89.1637 141.096H85.7797V165H87.7597ZM89.5237 151.464C89.5237 152.148 89.2357 152.472 88.6957 152.472H87.7597V142.932H88.6957C89.2717 142.932 89.5237 143.184 89.5237 143.796V151.464ZM97.0356 162.408C97.0356 163.128 96.7116 163.452 96.1716 163.452C95.6316 163.452 95.3796 163.164 95.2716 162.516V149.988C95.3796 149.376 95.6316 149.088 96.1716 149.088C96.7116 149.088 97.0356 149.412 97.0356 150.096V162.408ZM95.2716 173.388V164.064H95.4156C95.7396 164.82 96.2796 165.108 96.9996 165.108C98.2236 165.108 98.9436 164.28 98.9436 162.912V149.628C98.9436 148.224 98.2236 147.396 96.9636 147.396C96.1716 147.396 95.7036 147.792 95.3076 148.62H95.1636L95.1276 147.504H93.3996V173.388H95.2716ZM107.16 165V141.096H105.468C105.36 141.816 105.072 142.248 104.028 142.248V143.832H105.216V165H107.16ZM114.879 144.876C114.879 142.248 113.871 140.988 112.035 140.988C110.127 140.988 109.119 142.356 109.119 144.912V161.184C109.119 163.74 110.127 165.108 112.035 165.108C113.871 165.108 114.879 163.884 114.879 161.256V144.876ZM112.899 161.256C112.899 162.624 112.575 163.272 111.999 163.272C111.387 163.272 111.099 162.588 111.099 161.256V144.84C111.099 143.508 111.387 142.824 111.999 142.824C112.575 142.824 112.899 143.508 112.899 144.84V161.256ZM118.612 165V162.048H116.668V165H118.612ZM126.18 144.876C126.18 142.248 125.172 140.988 123.336 140.988C121.428 140.988 120.42 142.356 120.42 144.912V161.184C120.42 163.74 121.428 165.108 123.336 165.108C125.172 165.108 126.18 163.884 126.18 161.256V144.876ZM124.2 161.256C124.2 162.624 123.876 163.272 123.3 163.272C122.688 163.272 122.4 162.588 122.4 161.256V144.84C122.4 143.508 122.688 142.824 123.3 142.824C123.876 142.824 124.2 143.508 124.2 144.84V161.256ZM133.904 144.876C133.904 142.248 132.896 140.988 131.06 140.988C129.152 140.988 128.144 142.356 128.144 144.912V161.184C128.144 163.74 129.152 165.108 131.06 165.108C132.896 165.108 133.904 163.884 133.904 161.256V144.876ZM131.924 161.256C131.924 162.624 131.6 163.272 131.024 163.272C130.412 163.272 130.124 162.588 130.124 161.256V144.84C130.124 143.508 130.412 142.824 131.024 142.824C131.6 142.824 131.924 143.508 131.924 144.84V161.256ZM141.629 144.876C141.629 142.248 140.621 140.988 138.785 140.988C136.877 140.988 135.869 142.356 135.869 144.912V161.184C135.869 163.74 136.877 165.108 138.785 165.108C140.621 165.108 141.629 163.884 141.629 161.256V144.876ZM139.649 161.256C139.649 162.624 139.325 163.272 138.749 163.272C138.137 163.272 137.849 162.588 137.849 161.256V144.84C137.849 143.508 138.137 142.824 138.749 142.824C139.325 142.824 139.649 143.508 139.649 144.84V161.256Z" fill="black"/>
</svg>
