<svg width="188" height="223" viewBox="0 0 188 223" fill="none" xmlns="http://www.w3.org/2000/svg">
<rect x="0.5" y="0.5" width="187" height="222" rx="3.5" fill="#F8F8F8" stroke="black"/>
<path d="M33.2983 109.568C35.5543 109.568 36.3703 108.368 36.3703 106.304V93.44C36.3703 91.376 35.5543 90.128 33.2983 90.128H28.7863V122H31.4743V109.568H33.2983ZM31.4743 92.576H32.7223C33.5383 92.576 33.8263 92.96 33.8263 93.728V105.872C33.8263 106.736 33.5383 107.216 32.7223 107.216H31.4743V92.576ZM43.2763 118.976C43.0363 119.6 42.6523 119.936 41.9323 119.936C41.2603 119.936 40.8763 119.6 40.8763 118.784V111.92C40.8763 111.056 41.0683 110.624 41.9803 110.288C42.5083 110.096 42.8923 110.048 43.2763 109.712V118.976ZM45.7723 122V101.312C45.7723 99.44 44.6203 98.528 42.3163 98.528C39.9163 98.528 38.5243 99.488 38.5243 101.504V106.208H40.9243V101.792C40.9243 101.12 41.3563 100.784 42.1243 100.784C42.8923 100.784 43.2283 101.072 43.2283 101.696V107.312C43.2283 108.128 42.5083 108.368 41.3083 108.752C39.0523 109.472 38.3323 110.192 38.3323 112.4V119.408C38.3323 121.088 38.9563 122.144 40.7803 122.144C42.2683 122.144 42.7963 121.472 43.1803 120.8H43.3723L43.4203 122H45.7723ZM56.2727 122L53.7767 108.8L56.3207 98.672H53.6327L51.1847 108.608H50.9927V89.744H48.4487V122H50.9927V115.52L51.7607 112.688H51.9047L53.6327 122H56.2727ZM65.3421 114.032H62.7981V118.544C62.7981 119.456 62.4141 119.936 61.6461 119.936C60.8781 119.936 60.4941 119.456 60.4941 118.544V110.864H65.3421V102.224C65.3421 99.776 64.1421 98.528 61.6461 98.528C59.1501 98.528 57.9981 99.776 57.9981 102.224V118.496C57.9981 120.992 59.1501 122.144 61.6461 122.144C64.1421 122.144 65.3421 120.944 65.3421 118.496V114.032ZM62.7981 109.04H60.4941V102.176C60.4941 101.216 60.8781 100.832 61.6461 100.832C62.4141 100.832 62.7981 101.216 62.7981 102.176V109.04ZM72.7682 118.496C72.7682 119.408 72.4322 119.84 71.7122 119.84C70.8962 119.84 70.5122 119.408 70.5122 118.496V100.976H74.9282V98.672H70.5122V92.288H68.0162V118.496C68.0162 120.992 69.1682 122.144 71.6642 122.144C74.1602 122.144 74.9282 120.992 74.9282 118.496V108.848H72.7682V118.496ZM89.3987 122V119.648H84.5987V111.776C84.5987 111.008 84.6947 110.432 85.3667 109.616C86.1827 108.608 87.5267 107.6 88.3907 106.544C89.1107 105.68 89.3987 104.864 89.3987 103.424V93.776C89.3987 91.184 88.6787 89.984 85.7027 89.984C82.4387 89.984 81.9587 91.424 81.9587 94.208V99.968H84.5027V93.968C84.5027 93.008 84.7907 92.48 85.7027 92.48C86.5667 92.48 86.8547 92.96 86.8547 93.872V103.328C86.8547 104.384 86.7107 104.768 86.2787 105.344C85.5587 106.256 84.0707 107.36 83.1107 108.56C82.1987 109.712 81.9107 110.768 81.9107 112.352V122H89.3987ZM108.373 122V101.552C108.373 99.632 107.269 98.528 105.781 98.528C104.773 98.528 103.909 99.056 103.333 100.352C102.997 99.2 102.133 98.528 100.933 98.528C100.021 98.528 99.3973 99.008 98.8693 100.16H98.6773L98.6293 98.672H96.2293V122H98.7733V101.984C99.0133 101.216 99.3013 100.784 100.021 100.784C100.693 100.784 101.029 101.168 101.029 102.032V122H103.525V101.984C103.765 101.168 104.053 100.784 104.725 100.784C105.397 100.784 105.781 101.168 105.781 102.032V122H108.373ZM113.62 122V98.672H111.076V122H113.62ZM113.62 96.56V92.96H111.076V96.56H113.62ZM123.847 122V101.552C123.847 99.536 122.983 98.528 121.447 98.528C120.343 98.528 119.527 99.008 118.999 100.16H118.807L118.759 98.672H116.359V122H118.903V101.984C119.191 101.168 119.479 100.784 120.151 100.784C120.871 100.784 121.255 101.168 121.255 102.032V122H123.847ZM133.91 129.536V98.672H131.654L131.558 100.16H131.366C130.886 99.104 130.31 98.528 129.158 98.528C127.526 98.528 126.518 99.68 126.518 101.648V119.072C126.518 121.184 127.382 122 128.966 122C130.118 122 130.79 121.568 131.174 120.656H131.366V129.536C131.366 130.4 130.982 130.88 130.214 130.88C129.446 130.88 129.062 130.4 129.062 129.536V123.44H126.566V129.536C126.566 131.984 127.718 133.184 130.214 133.184C132.71 133.184 133.91 131.984 133.91 129.536ZM129.11 102.128C129.11 101.216 129.494 100.784 130.262 100.784C130.934 100.784 131.27 101.264 131.462 102.368V118.208C131.27 119.168 130.934 119.648 130.214 119.648C129.542 119.648 129.11 119.264 129.11 118.304V102.128ZM144.022 129.536V98.672H141.766L141.67 100.16H141.478C140.998 99.104 140.422 98.528 139.27 98.528C137.638 98.528 136.63 99.68 136.63 101.648V119.072C136.63 121.184 137.494 122 139.078 122C140.23 122 140.902 121.568 141.286 120.656H141.478V129.536C141.478 130.4 141.094 130.88 140.326 130.88C139.558 130.88 139.174 130.4 139.174 129.536V123.44H136.678V129.536C136.678 131.984 137.83 133.184 140.326 133.184C142.822 133.184 144.022 131.984 144.022 129.536ZM139.222 102.128C139.222 101.216 139.606 100.784 140.374 100.784C141.046 100.784 141.382 101.264 141.574 102.368V118.208C141.382 119.168 141.046 119.648 140.326 119.648C139.654 119.648 139.222 119.264 139.222 118.304V102.128ZM146.742 98.672V118.352C146.742 120.32 146.982 122.144 149.286 122.144C150.438 122.144 150.966 121.712 151.542 120.56H151.734L151.782 122H154.182V98.672H151.638V118.304C151.494 119.456 151.206 119.936 150.39 119.936C149.574 119.936 149.334 119.456 149.334 118.352V98.672H146.742ZM45.0376 165C46.6576 165 47.2696 164.28 47.2696 162.912V154.452C47.2696 153.084 46.7296 152.616 45.9016 152.472V152.328C46.7296 152.148 47.0896 151.5 47.0896 150.42V143.58C47.0896 141.996 46.4776 141.096 44.7856 141.096H41.4736V165H45.0376ZM45.2536 162.264C45.2536 162.948 45.0016 163.272 44.3536 163.272H43.4536V153.336H44.3536C45.0016 153.336 45.2536 153.624 45.2536 154.308V162.264ZM45.2176 150.636C45.2176 151.392 44.8936 151.644 44.3896 151.644H43.4536V142.824H44.3896C45.0016 142.824 45.2176 143.22 45.2176 144.012V150.636ZM51.0367 165V147.504H49.1287V165H51.0367ZM51.0367 145.92V143.22H49.1287V145.92H51.0367ZM56.6555 162.732C56.4755 163.2 56.1875 163.452 55.6475 163.452C55.1435 163.452 54.8555 163.2 54.8555 162.588V157.44C54.8555 156.792 54.9995 156.468 55.6835 156.216C56.0795 156.072 56.3675 156.036 56.6555 155.784V162.732ZM58.5275 165V149.484C58.5275 148.08 57.6635 147.396 55.9355 147.396C54.1355 147.396 53.0915 148.116 53.0915 149.628V153.156H54.8915V149.844C54.8915 149.34 55.2155 149.088 55.7915 149.088C56.3675 149.088 56.6195 149.304 56.6195 149.772V153.984C56.6195 154.596 56.0795 154.776 55.1795 155.064C53.4875 155.604 52.9475 156.144 52.9475 157.8V163.056C52.9475 164.316 53.4155 165.108 54.7835 165.108C55.8995 165.108 56.2955 164.604 56.5835 164.1H56.7275L56.7635 165H58.5275ZM62.4788 147.504H60.5348V162.3C60.5348 164.28 61.2548 165 62.4428 165C63.2708 165 63.7388 164.712 64.0628 163.992H64.1708V170.652C64.1708 171.3 63.8828 171.66 63.3068 171.66C62.7308 171.66 62.4428 171.3 62.4428 170.652V166.08H60.5708V170.652C60.5708 172.488 61.4348 173.388 63.3068 173.388C65.1788 173.388 66.0788 172.488 66.0788 170.652V147.504H64.2428V162.12C64.0988 162.84 63.9188 163.236 63.3068 163.236C62.7668 163.236 62.4788 162.948 62.4788 162.228V147.504ZM71.6827 162.732C71.5027 163.2 71.2147 163.452 70.6747 163.452C70.1707 163.452 69.8827 163.2 69.8827 162.588V157.44C69.8827 156.792 70.0267 156.468 70.7107 156.216C71.1067 156.072 71.3947 156.036 71.6827 155.784V162.732ZM73.5547 165V149.484C73.5547 148.08 72.6907 147.396 70.9627 147.396C69.1627 147.396 68.1187 148.116 68.1187 149.628V153.156H69.9187V149.844C69.9187 149.34 70.2427 149.088 70.8187 149.088C71.3947 149.088 71.6467 149.304 71.6467 149.772V153.984C71.6467 154.596 71.1067 154.776 70.2067 155.064C68.5147 155.604 67.9747 156.144 67.9747 157.8V163.056C67.9747 164.316 68.4427 165.108 69.8107 165.108C70.9267 165.108 71.3227 164.604 71.6107 164.1H71.7547L71.7907 165H73.5547ZM80.6945 163.272V160.32H78.7505V163.272H80.6945ZM80.6945 152.22V149.232H78.7505V152.22H80.6945ZM87.8827 165V154.092H88.8547C89.4667 154.092 89.6827 154.416 89.6827 154.992V165H91.6267V155.172C91.6267 153.912 91.1587 153.444 90.3667 153.264V153.12C91.1227 152.94 91.5907 152.328 91.5907 151.248V143.58C91.5907 141.996 90.9787 141.096 89.2867 141.096H85.9027V165H87.8827ZM89.6467 151.464C89.6467 152.148 89.3587 152.472 88.8187 152.472H87.8827V142.932H88.8187C89.3947 142.932 89.6467 143.184 89.6467 143.796V151.464ZM97.1586 162.408C97.1586 163.128 96.8346 163.452 96.2946 163.452C95.7546 163.452 95.5026 163.164 95.3946 162.516V149.988C95.5026 149.376 95.7546 149.088 96.2946 149.088C96.8346 149.088 97.1586 149.412 97.1586 150.096V162.408ZM95.3946 173.388V164.064H95.5386C95.8626 164.82 96.4026 165.108 97.1226 165.108C98.3466 165.108 99.0666 164.28 99.0666 162.912V149.628C99.0666 148.224 98.3466 147.396 97.0866 147.396C96.2946 147.396 95.8266 147.792 95.4306 148.62H95.2866L95.2506 147.504H93.5226V173.388H95.3946ZM107.283 165V141.096H105.591C105.483 141.816 105.195 142.248 104.151 142.248V143.832H105.339V165H107.283ZM112.842 150.636C112.842 151.284 112.662 151.644 112.014 151.644C111.33 151.644 111.15 151.284 111.15 150.636V143.868C111.15 143.292 111.402 142.86 112.014 142.86C112.59 142.86 112.842 143.292 112.842 143.868V150.636ZM112.914 162.192C112.914 162.912 112.626 163.272 112.014 163.272C111.402 163.272 111.114 162.912 111.114 162.192V154.272C111.114 153.66 111.33 153.336 112.014 153.336C112.662 153.336 112.914 153.66 112.914 154.272V162.192ZM114.894 154.488C114.894 153.192 114.282 152.616 113.49 152.472V152.328C114.318 152.148 114.714 151.536 114.714 150.456V143.652C114.714 142.32 113.922 140.988 112.014 140.988C110.106 140.988 109.278 142.32 109.278 143.652V150.456C109.278 151.536 109.674 152.148 110.502 152.328V152.472C109.71 152.616 109.098 153.192 109.098 154.488V162.048C109.098 164.028 110.07 165.108 112.014 165.108C113.922 165.108 114.894 164.028 114.894 162.048V154.488ZM118.489 165V162.048H116.545V165H118.489ZM126.057 144.876C126.057 142.248 125.049 140.988 123.213 140.988C121.305 140.988 120.297 142.356 120.297 144.912V161.184C120.297 163.74 121.305 165.108 123.213 165.108C125.049 165.108 126.057 163.884 126.057 161.256V144.876ZM124.077 161.256C124.077 162.624 123.753 163.272 123.177 163.272C122.565 163.272 122.277 162.588 122.277 161.256V144.84C122.277 143.508 122.565 142.824 123.177 142.824C123.753 142.824 124.077 143.508 124.077 144.84V161.256ZM133.781 144.876C133.781 142.248 132.773 140.988 130.937 140.988C129.029 140.988 128.021 142.356 128.021 144.912V161.184C128.021 163.74 129.029 165.108 130.937 165.108C132.773 165.108 133.781 163.884 133.781 161.256V144.876ZM131.801 161.256C131.801 162.624 131.477 163.272 130.901 163.272C130.289 163.272 130.001 162.588 130.001 161.256V144.84C130.001 143.508 130.289 142.824 130.901 142.824C131.477 142.824 131.801 143.508 131.801 144.84V161.256ZM141.506 144.876C141.506 142.248 140.498 140.988 138.662 140.988C136.754 140.988 135.746 142.356 135.746 144.912V161.184C135.746 163.74 136.754 165.108 138.662 165.108C140.498 165.108 141.506 163.884 141.506 161.256V144.876ZM139.526 161.256C139.526 162.624 139.202 163.272 138.626 163.272C138.014 163.272 137.726 162.588 137.726 161.256V144.84C137.726 143.508 138.014 142.824 138.626 142.824C139.202 142.824 139.526 143.508 139.526 144.84V161.256Z" fill="black"/>
</svg>
