<svg width="188" height="223" viewBox="0 0 188 223" fill="none" xmlns="http://www.w3.org/2000/svg">
<rect x="0.5" y="0.5" width="187" height="222" rx="3.5" fill="#F8F8F8" stroke="black"/>
<path d="M42.4793 109.568C44.7353 109.568 45.5513 108.368 45.5513 106.304V93.44C45.5513 91.376 44.7353 90.128 42.4793 90.128H37.9673V122H40.6553V109.568H42.4793ZM40.6553 92.576H41.9033C42.7193 92.576 43.0073 92.96 43.0073 93.728V105.872C43.0073 106.736 42.7193 107.216 41.9033 107.216H40.6553V92.576ZM52.4573 118.976C52.2173 119.6 51.8333 119.936 51.1133 119.936C50.4413 119.936 50.0573 119.6 50.0573 118.784V111.92C50.0573 111.056 50.2493 110.624 51.1613 110.288C51.6893 110.096 52.0733 110.048 52.4573 109.712V118.976ZM54.9533 122V101.312C54.9533 99.44 53.8013 98.528 51.4973 98.528C49.0973 98.528 47.7053 99.488 47.7053 101.504V106.208H50.1053V101.792C50.1053 101.12 50.5373 100.784 51.3053 100.784C52.0733 100.784 52.4093 101.072 52.4093 101.696V107.312C52.4093 108.128 51.6893 108.368 50.4893 108.752C48.2333 109.472 47.5133 110.192 47.5133 112.4V119.408C47.5133 121.088 48.1373 122.144 49.9613 122.144C51.4493 122.144 51.9773 121.472 52.3613 120.8H52.5533L52.6013 122H54.9533ZM65.4536 122L62.9576 108.8L65.5016 98.672H62.8136L60.3656 108.608H60.1736V89.744H57.6296V122H60.1736V115.52L60.9416 112.688H61.0856L62.8136 122H65.4536ZM74.523 114.032H71.979V118.544C71.979 119.456 71.595 119.936 70.827 119.936C70.059 119.936 69.675 119.456 69.675 118.544V110.864H74.523V102.224C74.523 99.776 73.323 98.528 70.827 98.528C68.331 98.528 67.179 99.776 67.179 102.224V118.496C67.179 120.992 68.331 122.144 70.827 122.144C73.323 122.144 74.523 120.944 74.523 118.496V114.032ZM71.979 109.04H69.675V102.176C69.675 101.216 70.059 100.832 70.827 100.832C71.595 100.832 71.979 101.216 71.979 102.176V109.04ZM81.9491 118.496C81.9491 119.408 81.6131 119.84 80.8931 119.84C80.0771 119.84 79.6931 119.408 79.6931 118.496V100.976H84.1091V98.672H79.6931V92.288H77.1971V118.496C77.1971 120.992 78.3491 122.144 80.8451 122.144C83.3411 122.144 84.1091 120.992 84.1091 118.496V108.848H81.9491V118.496ZM95.0756 122V90.128H92.8196C92.6756 91.088 92.2916 91.664 90.8996 91.664V93.776H92.4836V122H95.0756ZM106.739 122C108.899 122 109.715 121.04 109.715 119.216V107.936C109.715 106.112 108.995 105.488 107.891 105.296V105.104C108.995 104.864 109.475 104 109.475 102.56V93.44C109.475 91.328 108.659 90.128 106.403 90.128H101.987V122H106.739ZM107.027 118.352C107.027 119.264 106.691 119.696 105.827 119.696H104.627V106.448H105.827C106.691 106.448 107.027 106.832 107.027 107.744V118.352ZM106.979 102.848C106.979 103.856 106.547 104.192 105.875 104.192H104.627V92.432H105.875C106.691 92.432 106.979 92.96 106.979 94.016V102.848ZM112.194 98.672V118.352C112.194 120.32 112.434 122.144 114.738 122.144C115.89 122.144 116.418 121.712 116.994 120.56H117.186L117.234 122H119.634V98.672H117.09V118.304C116.946 119.456 116.658 119.936 115.842 119.936C115.026 119.936 114.786 119.456 114.786 118.352V98.672H112.194ZM124.85 122V89.744H122.306V122H124.85ZM132.342 118.976C132.102 119.6 131.718 119.936 130.998 119.936C130.326 119.936 129.942 119.6 129.942 118.784V111.92C129.942 111.056 130.134 110.624 131.046 110.288C131.574 110.096 131.958 110.048 132.342 109.712V118.976ZM134.838 122V101.312C134.838 99.44 133.686 98.528 131.382 98.528C128.982 98.528 127.59 99.488 127.59 101.504V106.208H129.99V101.792C129.99 101.12 130.422 100.784 131.19 100.784C131.958 100.784 132.294 101.072 132.294 101.696V107.312C132.294 108.128 131.574 108.368 130.374 108.752C128.118 109.472 127.398 110.192 127.398 112.4V119.408C127.398 121.088 128.022 122.144 129.846 122.144C131.334 122.144 131.862 121.472 132.246 120.8H132.438L132.486 122H134.838ZM145.002 122V101.552C145.002 99.536 144.138 98.528 142.602 98.528C141.498 98.528 140.682 99.008 140.154 100.16H139.962L139.914 98.672H137.514V122H140.058V101.984C140.346 101.168 140.634 100.784 141.306 100.784C142.026 100.784 142.41 101.168 142.41 102.032V122H145.002ZM43.772 165C45.392 165 46.004 164.28 46.004 162.912V154.452C46.004 153.084 45.464 152.616 44.636 152.472V152.328C45.464 152.148 45.824 151.5 45.824 150.42V143.58C45.824 141.996 45.212 141.096 43.52 141.096H40.208V165H43.772ZM43.988 162.264C43.988 162.948 43.736 163.272 43.088 163.272H42.188V153.336H43.088C43.736 153.336 43.988 153.624 43.988 154.308V162.264ZM43.952 150.636C43.952 151.392 43.628 151.644 43.124 151.644H42.188V142.824H43.124C43.736 142.824 43.952 143.22 43.952 144.012V150.636ZM49.7711 165V147.504H47.8631V165H49.7711ZM49.7711 145.92V143.22H47.8631V145.92H49.7711ZM55.3899 162.732C55.2099 163.2 54.9219 163.452 54.3819 163.452C53.8779 163.452 53.5899 163.2 53.5899 162.588V157.44C53.5899 156.792 53.7339 156.468 54.4179 156.216C54.8139 156.072 55.1019 156.036 55.3899 155.784V162.732ZM57.2619 165V149.484C57.2619 148.08 56.3979 147.396 54.6699 147.396C52.8699 147.396 51.8259 148.116 51.8259 149.628V153.156H53.6259V149.844C53.6259 149.34 53.9499 149.088 54.5259 149.088C55.1019 149.088 55.3539 149.304 55.3539 149.772V153.984C55.3539 154.596 54.8139 154.776 53.9139 155.064C52.2219 155.604 51.6819 156.144 51.6819 157.8V163.056C51.6819 164.316 52.1499 165.108 53.5179 165.108C54.6339 165.108 55.0299 164.604 55.3179 164.1H55.4619L55.4979 165H57.2619ZM61.2132 147.504H59.2692V162.3C59.2692 164.28 59.9892 165 61.1772 165C62.0052 165 62.4732 164.712 62.7972 163.992H62.9052V170.652C62.9052 171.3 62.6172 171.66 62.0412 171.66C61.4652 171.66 61.1772 171.3 61.1772 170.652V166.08H59.3052V170.652C59.3052 172.488 60.1692 173.388 62.0412 173.388C63.9132 173.388 64.8132 172.488 64.8132 170.652V147.504H62.9772V162.12C62.8332 162.84 62.6532 163.236 62.0412 163.236C61.5012 163.236 61.2132 162.948 61.2132 162.228V147.504ZM70.4171 162.732C70.2371 163.2 69.9491 163.452 69.4091 163.452C68.9051 163.452 68.6171 163.2 68.6171 162.588V157.44C68.6171 156.792 68.7611 156.468 69.4451 156.216C69.8411 156.072 70.1291 156.036 70.4171 155.784V162.732ZM72.2891 165V149.484C72.2891 148.08 71.4251 147.396 69.6971 147.396C67.8971 147.396 66.8531 148.116 66.8531 149.628V153.156H68.6531V149.844C68.6531 149.34 68.9771 149.088 69.5531 149.088C70.1291 149.088 70.3811 149.304 70.3811 149.772V153.984C70.3811 154.596 69.8411 154.776 68.9411 155.064C67.2491 155.604 66.7091 156.144 66.7091 157.8V163.056C66.7091 164.316 67.1771 165.108 68.5451 165.108C69.6611 165.108 70.0571 164.604 70.3451 164.1H70.4891L70.5251 165H72.2891ZM79.4289 163.272V160.32H77.4849V163.272H79.4289ZM79.4289 152.22V149.232H77.4849V152.22H79.4289ZM86.6171 165V154.092H87.5891C88.2011 154.092 88.4171 154.416 88.4171 154.992V165H90.3611V155.172C90.3611 153.912 89.8931 153.444 89.1011 153.264V153.12C89.8571 152.94 90.3251 152.328 90.3251 151.248V143.58C90.3251 141.996 89.7131 141.096 88.0211 141.096H84.6371V165H86.6171ZM88.3811 151.464C88.3811 152.148 88.0931 152.472 87.5531 152.472H86.6171V142.932H87.5531C88.1291 142.932 88.3811 143.184 88.3811 143.796V151.464ZM95.893 162.408C95.893 163.128 95.569 163.452 95.029 163.452C94.489 163.452 94.237 163.164 94.129 162.516V149.988C94.237 149.376 94.489 149.088 95.029 149.088C95.569 149.088 95.893 149.412 95.893 150.096V162.408ZM94.129 173.388V164.064H94.273C94.597 164.82 95.137 165.108 95.857 165.108C97.081 165.108 97.801 164.28 97.801 162.912V149.628C97.801 148.224 97.081 147.396 95.821 147.396C95.029 147.396 94.561 147.792 94.165 148.62H94.021L93.985 147.504H92.257V173.388H94.129ZM108.681 154.38C108.681 153.084 108.069 152.508 107.277 152.364V152.22C108.105 152.076 108.501 151.392 108.501 150.348V143.652C108.501 142.356 107.709 140.988 105.801 140.988C104.037 140.988 103.029 142.14 103.029 144.084V147.864H104.901V143.868C104.901 143.256 105.225 142.86 105.801 142.86C106.377 142.86 106.665 143.292 106.665 143.868V150.528C106.665 151.14 106.449 151.5 105.729 151.5H104.901V153.192H105.693C106.413 153.192 106.701 153.552 106.701 154.2V162.192C106.701 162.912 106.413 163.272 105.801 163.272C105.225 163.272 104.901 162.912 104.901 162.192V158.052H103.029V162.084C103.029 164.136 104.001 165.108 105.837 165.108C107.709 165.108 108.681 164.028 108.681 162.048V154.38ZM116.16 152.724C116.16 150.78 115.188 150.24 114.036 150.24C113.244 150.24 112.812 150.528 112.452 151.104H112.308L112.488 142.86H115.8V141.096H110.76L110.508 152.616H112.488C112.704 152.076 112.956 151.932 113.352 151.932C113.82 151.932 114.18 152.184 114.18 152.904V162.192C114.18 162.912 113.892 163.272 113.28 163.272C112.776 163.272 112.38 162.984 112.38 162.192V158.844H110.508V162.12C110.508 164.496 111.912 165.108 113.316 165.108C115.188 165.108 116.16 164.028 116.16 162.048V152.724ZM119.755 165V162.048H117.811V165H119.755ZM127.322 144.876C127.322 142.248 126.314 140.988 124.478 140.988C122.57 140.988 121.562 142.356 121.562 144.912V161.184C121.562 163.74 122.57 165.108 124.478 165.108C126.314 165.108 127.322 163.884 127.322 161.256V144.876ZM125.342 161.256C125.342 162.624 125.018 163.272 124.442 163.272C123.83 163.272 123.542 162.588 123.542 161.256V144.84C123.542 143.508 123.83 142.824 124.442 142.824C125.018 142.824 125.342 143.508 125.342 144.84V161.256ZM135.047 144.876C135.047 142.248 134.039 140.988 132.203 140.988C130.295 140.988 129.287 142.356 129.287 144.912V161.184C129.287 163.74 130.295 165.108 132.203 165.108C134.039 165.108 135.047 163.884 135.047 161.256V144.876ZM133.067 161.256C133.067 162.624 132.743 163.272 132.167 163.272C131.555 163.272 131.267 162.588 131.267 161.256V144.84C131.267 143.508 131.555 142.824 132.167 142.824C132.743 142.824 133.067 143.508 133.067 144.84V161.256ZM142.771 144.876C142.771 142.248 141.763 140.988 139.927 140.988C138.019 140.988 137.011 142.356 137.011 144.912V161.184C137.011 163.74 138.019 165.108 139.927 165.108C141.763 165.108 142.771 163.884 142.771 161.256V144.876ZM140.791 161.256C140.791 162.624 140.467 163.272 139.891 163.272C139.279 163.272 138.991 162.588 138.991 161.256V144.84C138.991 143.508 139.279 142.824 139.891 142.824C140.467 142.824 140.791 143.508 140.791 144.84V161.256Z" fill="black"/>
</svg>
